<?xml version="1.0" encoding="UTF-8" standalone="no"?>
<!-- Created with Inkscape (http://www.inkscape.org/) -->

<svg
   version="1.1"
   id="svg3668"
   width="188.97598"
   height="73.700798"
   viewBox="0 0 188.97598 73.700798"
   sodipodi:docname="www.avvocatisala.it-24ore-2020.svg"
   inkscape:version="1.3.2 (091e20ef0f, 2023-11-25, custom)"
   xmlns:inkscape="http://www.inkscape.org/namespaces/inkscape"
   xmlns:sodipodi="http://sodipodi.sourceforge.net/DTD/sodipodi-0.dtd"
   xmlns="http://www.w3.org/2000/svg"
   xmlns:svg="http://www.w3.org/2000/svg">
  <sodipodi:namedview
     id="namedview1"
     pagecolor="#ffffff"
     bordercolor="#000000"
     borderopacity="0.25"
     inkscape:showpageshadow="2"
     inkscape:pageopacity="0.0"
     inkscape:pagecheckerboard="0"
     inkscape:deskcolor="#d1d1d1"
     showgrid="false"
     inkscape:zoom="9.3451029"
     inkscape:cx="94.487991"
     inkscape:cy="36.810724"
     inkscape:window-width="1920"
     inkscape:window-height="2134"
     inkscape:window-x="1920"
     inkscape:window-y="0"
     inkscape:window-maximized="1"
     inkscape:current-layer="g3676" />
  <defs
     id="defs3672">
    <linearGradient
       x1="-0.56453061"
       y1="-0.74969858"
       x2="1"
       y2="0.61994541"
       gradientUnits="userSpaceOnUse"
       gradientTransform="matrix(61.331298,0,0,61.3313,70.865995,27.6378)"
       spreadMethod="pad"
       id="linearGradient3700">
      <stop
         style="stop-opacity:1;stop-color:#86704b"
         offset="0"
         id="stop3688" />
      <stop
         style="stop-opacity:1;stop-color:#e0bc74"
         offset="0.2617261"
         id="stop3690" />
      <stop
         style="stop-opacity:1;stop-color:#86704b"
         offset="0.4854544"
         id="stop3692" />
      <stop
         style="stop-opacity:1;stop-color:#e0bc74"
         offset="0.8016355"
         id="stop3694" />
      <stop
         style="stop-opacity:1;stop-color:#86704b"
         offset="0.9750008"
         id="stop3696" />
      <stop
         style="stop-opacity:1;stop-color:#86704b"
         offset="1"
         id="stop3698" />
    </linearGradient>
    <linearGradient
       x1="-0.4843356"
       y1="-0.1164807"
       x2="1"
       y2="-0.1164807"
       gradientUnits="userSpaceOnUse"
       gradientTransform="matrix(64.292186,0,0,64.292187,70.865995,27.6378)"
       spreadMethod="pad"
       id="linearGradient3790">
      <stop
         style="stop-opacity:1;stop-color:#86704b"
         offset="0"
         id="stop3780" />
      <stop
         style="stop-opacity:1;stop-color:#e0bc74"
         offset="0.213636"
         id="stop3782" />
      <stop
         style="stop-opacity:1;stop-color:#b9955c"
         offset="0.5086348"
         id="stop3784" />
      <stop
         style="stop-opacity:1;stop-color:#e0bc74"
         offset="0.7909077"
         id="stop3786" />
      <stop
         style="stop-opacity:1;stop-color:#957d54"
         offset="1"
         id="stop3788" />
    </linearGradient>
    <linearGradient
       x1="-1"
       y1="-0.36063921"
       x2="0.99755239"
       y2="-0.36063921"
       gradientUnits="userSpaceOnUse"
       gradientTransform="matrix(68.498281,0,0,68.498283,70.865995,27.6378)"
       spreadMethod="pad"
       id="linearGradient3866">
      <stop
         style="stop-opacity:1;stop-color:#e0bc74"
         offset="0"
         id="stop3852" />
      <stop
         style="stop-opacity:1;stop-color:#e0bc74"
         offset="0.0114545"
         id="stop3854" />
      <stop
         style="stop-opacity:1;stop-color:#957d54"
         offset="0.3199552"
         id="stop3856" />
      <stop
         style="stop-opacity:1;stop-color:#b9955c"
         offset="0.4913653"
         id="stop3858" />
      <stop
         style="stop-opacity:1;stop-color:#86704b"
         offset="0.7285924"
         id="stop3860" />
      <stop
         style="stop-opacity:1;stop-color:#e0bc74"
         offset="0.9660909"
         id="stop3862" />
      <stop
         style="stop-opacity:1;stop-color:#e0bc74"
         offset="1"
         id="stop3864" />
    </linearGradient>
    <clipPath
       clipPathUnits="userSpaceOnUse"
       id="clipPath59">
      <path
         d="M 0,0 H 141.732 V 55.275 H 0 Z"
         transform="translate(-49.979001,-39.734401)"
         id="path59" />
    </clipPath>
    <clipPath
       clipPathUnits="userSpaceOnUse"
       id="clipPath57">
      <path
         d="M 0,0 H 141.732 V 55.275 H 0 Z"
         transform="translate(-47.106401,-41.242201)"
         id="path57" />
    </clipPath>
    <clipPath
       clipPathUnits="userSpaceOnUse"
       id="clipPath61">
      <path
         d="M 0,0 H 141.732 V 55.275 H 0 Z"
         transform="translate(-56.739301,-45.713901)"
         id="path61" />
    </clipPath>
    <clipPath
       clipPathUnits="userSpaceOnUse"
       id="clipPath63">
      <path
         d="M 0,0 H 141.732 V 55.275 H 0 Z"
         transform="translate(-65.687501,-46.000001)"
         id="path63" />
    </clipPath>
    <clipPath
       clipPathUnits="userSpaceOnUse"
       id="clipPath65">
      <path
         d="M 0,0 H 141.732 V 55.275 H 0 Z"
         transform="translate(-66.505901,-43.308601)"
         id="path65" />
    </clipPath>
    <clipPath
       clipPathUnits="userSpaceOnUse"
       id="clipPath67">
      <path
         d="M 0,0 H 141.732 V 55.275 H 0 Z"
         transform="translate(-80.558605,-43.841801)"
         id="path67" />
    </clipPath>
    <clipPath
       clipPathUnits="userSpaceOnUse"
       id="clipPath69">
      <path
         d="M 0,0 H 141.732 V 55.275 H 0 Z"
         transform="translate(-85.5244,-45.779301)"
         id="path69" />
    </clipPath>
    <clipPath
       clipPathUnits="userSpaceOnUse"
       id="clipPath71">
      <path
         d="M 0,0 H 141.732 V 55.275 H 0 Z"
         transform="translate(-92.973602,-45.713901)"
         id="path71" />
    </clipPath>
    <clipPath
       clipPathUnits="userSpaceOnUse"
       id="clipPath73">
      <path
         d="M 0,0 H 141.732 V 55.275 H 0 Z"
         transform="translate(-98.906305,-39.734401)"
         id="path73" />
    </clipPath>
    <clipPath
       clipPathUnits="userSpaceOnUse"
       id="clipPath75">
      <path
         d="M 0,0 H 141.732 V 55.275 H 0 Z"
         transform="translate(-108.0078,-43.308601)"
         id="path75" />
    </clipPath>
    <clipPath
       clipPathUnits="userSpaceOnUse"
       id="clipPath77">
      <path
         d="M 0,0 H 141.732 V 55.275 H 0 Z"
         transform="translate(-117.3936,-41.242201)"
         id="path77" />
    </clipPath>
    <clipPath
       clipPathUnits="userSpaceOnUse"
       id="clipPath79">
      <path
         d="M 0,0 H 141.732 V 55.275 H 0 Z"
         transform="translate(-119.09571,-40.591801)"
         id="path79" />
    </clipPath>
    <clipPath
       clipPathUnits="userSpaceOnUse"
       id="clipPath81">
      <path
         d="M 0,0 H 141.732 V 55.275 H 0 Z"
         transform="translate(-127.59771,-39.734401)"
         id="path81" />
    </clipPath>
    <clipPath
       clipPathUnits="userSpaceOnUse"
       id="clipPath83">
      <path
         d="M 0,0 H 141.732 V 55.275 H 0 Z"
         transform="translate(-134.3574,-45.713901)"
         id="path83" />
    </clipPath>
    <clipPath
       clipPathUnits="userSpaceOnUse"
       id="clipPath109">
      <path
         d="M 0,0 H 141.732 V 55.275 H 0 Z"
         transform="translate(-132.56451,-29.554701)"
         id="path109" />
    </clipPath>
    <clipPath
       clipPathUnits="userSpaceOnUse"
       id="clipPath107">
      <path
         d="M 0,0 H 141.732 V 55.275 H 0 Z"
         transform="translate(-128.4951,-27.214801)"
         id="path107" />
    </clipPath>
    <clipPath
       clipPathUnits="userSpaceOnUse"
       id="clipPath105">
      <path
         d="M 0,0 H 141.732 V 55.275 H 0 Z"
         transform="translate(-118.6533,-32.896501)"
         id="path105" />
    </clipPath>
    <clipPath
       clipPathUnits="userSpaceOnUse"
       id="clipPath103">
      <path
         d="M 0,0 H 141.732 V 55.275 H 0 Z"
         transform="translate(-114.61041,-27.214801)"
         id="path103" />
    </clipPath>
    <clipPath
       clipPathUnits="userSpaceOnUse"
       id="clipPath101">
      <path
         d="M 0,0 H 141.732 V 55.275 H 0 Z"
         transform="translate(-100.7578,-32.960901)"
         id="path101" />
    </clipPath>
    <clipPath
       clipPathUnits="userSpaceOnUse"
       id="clipPath99">
      <path
         d="M 0,0 H 141.732 V 55.275 H 0 Z"
         transform="translate(-95.0635,-28.6318)"
         id="path99" />
    </clipPath>
    <clipPath
       clipPathUnits="userSpaceOnUse"
       id="clipPath97">
      <path
         d="M 0,0 H 141.732 V 55.275 H 0 Z"
         transform="translate(-86.0674,-28.6318)"
         id="path97" />
    </clipPath>
    <clipPath
       clipPathUnits="userSpaceOnUse"
       id="clipPath95">
      <path
         d="M 0,0 H 141.732 V 55.275 H 0 Z"
         transform="translate(-72.351602,-27.591801)"
         id="path95" />
    </clipPath>
    <clipPath
       clipPathUnits="userSpaceOnUse"
       id="clipPath91">
      <path
         d="M 0,0 H 141.732 V 55.275 H 0 Z"
         transform="translate(-65.501002,-26.734401)"
         id="path91" />
    </clipPath>
    <clipPath
       clipPathUnits="userSpaceOnUse"
       id="clipPath93">
      <path
         d="M 0,0 H 141.732 V 55.275 H 0 Z"
         transform="translate(-69.218801,-30.075201)"
         id="path93" />
    </clipPath>
    <clipPath
       clipPathUnits="userSpaceOnUse"
       id="clipPath89">
      <path
         d="M 0,0 H 141.732 V 55.275 H 0 Z"
         transform="translate(-58.454602,-26.734401)"
         id="path89" />
    </clipPath>
    <clipPath
       clipPathUnits="userSpaceOnUse"
       id="clipPath87">
      <path
         d="M 0,0 H 141.732 V 55.275 H 0 Z"
         transform="translate(-53.462902,-30.308601)"
         id="path87" />
    </clipPath>
    <clipPath
       clipPathUnits="userSpaceOnUse"
       id="clipPath85">
      <path
         d="M 0,0 H 141.732 V 55.275 H 0 Z"
         transform="translate(-43.219201,-32.779301)"
         id="path85" />
    </clipPath>
  </defs>
  <g
     id="g3676"
     transform="matrix(1.3333333,0,0,-1.3333333,0,73.7008)">
    <g
       id="g3678">
      <g
         id="g3680">
        <g
           id="g3686">
          <path
             d="M 0,0 H 141.73199 V 55.275 H 0 Z"
             style="fill:url(#linearGradient3700);stroke:none"
             id="path3702" />
        </g>
      </g>
    </g>
    <g
       id="g3704">
      <g
         id="g3706"
         transform="translate(100.763,8.665)">
        <path
           d="M 1.818,3.141 C 1.755,3.479 1.597,3.668 1.314,3.668 1.086,3.668 0.929,3.55 0.929,3.33 0.929,2.669 2.582,2.401 2.582,1.142 2.582,0.386 2.062,0 1.346,0 0.574,0 0.133,0.441 0,1.181 l 0.771,0.213 c 0.055,-0.355 0.181,-0.67 0.582,-0.67 0.229,0 0.394,0.134 0.394,0.37 0,0.732 -1.653,1.008 -1.653,2.165 0,0.669 0.52,1.134 1.181,1.134 0.692,0 1.157,-0.465 1.291,-1.126 z"
           style="fill:#231f20;fill-opacity:1;fill-rule:nonzero;stroke:none"
           id="path3708" />
      </g>
    </g>
    <g
       id="g3710">
      <g
         id="g3712"
         transform="translate(103.6909,8.6657)">
        <path
           d="M 0.488,0.952 V 3.589 H 0 V 4.313 H 0.488 V 5.455 H 1.37 V 4.313 H 1.96 V 3.589 H 1.37 v -2.44 c 0,-0.22 0.094,-0.346 0.299,-0.346 H 1.96 V 0.047 C 1.842,0.015 1.74,0 1.519,0 0.858,0 0.488,0.307 0.488,0.952 Z"
           style="fill:#231f20;fill-opacity:1;fill-rule:nonzero;stroke:none"
           id="path3714" />
      </g>
    </g>
    <g
       id="g3716">
      <g
         id="g3718"
         transform="translate(106.06778,8.6652)">
        <path
           d="M 0.063,3.07 C 0.11,3.928 0.654,4.392 1.48,4.392 2.299,4.392 2.763,4.014 2.763,3.243 V 0.527 C 2.763,0.394 2.795,0.22 2.818,0.079 H 1.976 C 1.968,0.197 1.937,0.307 1.929,0.409 1.598,0.142 1.323,0 0.897,0 0.299,0 0,0.409 0,0.952 0,1.881 0.614,2.393 1.881,2.873 V 3.125 C 1.881,3.479 1.74,3.668 1.449,3.668 1.047,3.668 0.961,3.432 0.945,3.07 Z M 1.881,2.228 C 1.079,1.771 0.882,1.48 0.882,1.11 c 0,-0.276 0.141,-0.386 0.409,-0.386 0.244,0 0.441,0.181 0.59,0.394 z"
           style="fill:#231f20;fill-opacity:1;fill-rule:nonzero;stroke:none"
           id="path3720" />
      </g>
    </g>
    <g
       id="g3722">
      <g
         id="g3724"
         transform="translate(109.3737,8.6657)">
        <path
           d="M 0.488,0.952 V 3.589 H 0 V 4.313 H 0.488 V 5.455 H 1.37 V 4.313 H 1.96 V 3.589 H 1.37 v -2.44 c 0,-0.22 0.094,-0.346 0.299,-0.346 H 1.96 V 0.047 C 1.842,0.015 1.74,0 1.519,0 0.858,0 0.488,0.307 0.488,0.952 Z"
           style="fill:#231f20;fill-opacity:1;fill-rule:nonzero;stroke:none"
           id="path3726" />
      </g>
    </g>
    <g
       id="g3728">
      <g
         id="g3730"
         transform="translate(111.916,8.744)">
        <path
           d="M 0,4.584 H 0.882 V 5.387 H 0 Z M 0,0 H 0.882 V 4.234 H 0 Z"
           style="fill:#231f20;fill-opacity:1;fill-rule:nonzero;stroke:none"
           id="path3732" />
      </g>
    </g>
    <g
       id="g3734">
      <g
         id="g3736"
         transform="translate(113.4429,8.665)">
        <path
           d="M 1.819,3.141 C 1.756,3.479 1.598,3.668 1.315,3.668 1.087,3.668 0.929,3.55 0.929,3.33 0.929,2.669 2.582,2.401 2.582,1.142 2.582,0.386 2.063,0 1.346,0 0.575,0 0.134,0.441 0,1.181 l 0.772,0.213 c 0.055,-0.355 0.181,-0.67 0.582,-0.67 0.229,0 0.394,0.134 0.394,0.37 0,0.732 -1.653,1.008 -1.653,2.165 0,0.669 0.519,1.134 1.181,1.134 0.693,0 1.157,-0.465 1.291,-1.126 z"
           style="fill:#231f20;fill-opacity:1;fill-rule:nonzero;stroke:none"
           id="path3738" />
      </g>
    </g>
    <g
       id="g3740">
      <g
         id="g3742"
         transform="translate(116.37159,8.6657)">
        <path
           d="M 0.488,0.952 V 3.589 H 0 V 4.313 H 0.488 V 5.455 H 1.37 V 4.313 H 1.96 V 3.589 H 1.37 v -2.44 c 0,-0.22 0.094,-0.346 0.299,-0.346 H 1.96 V 0.047 C 1.842,0.015 1.74,0 1.519,0 0.858,0 0.488,0.307 0.488,0.952 Z"
           style="fill:#231f20;fill-opacity:1;fill-rule:nonzero;stroke:none"
           id="path3744" />
      </g>
    </g>
    <g
       id="g3746">
      <g
         id="g3748"
         transform="translate(118.74878,8.6652)">
        <path
           d="m 0.063,3.07 c 0.047,0.858 0.59,1.322 1.417,1.322 0.819,0 1.283,-0.378 1.283,-1.149 V 0.527 C 2.763,0.394 2.794,0.22 2.818,0.079 H 1.976 C 1.968,0.197 1.936,0.307 1.929,0.409 1.598,0.142 1.322,0 0.897,0 0.299,0 0,0.409 0,0.952 0,1.881 0.614,2.393 1.881,2.873 V 3.125 C 1.881,3.479 1.74,3.668 1.448,3.668 1.047,3.668 0.96,3.432 0.945,3.07 Z M 1.881,2.228 C 1.078,1.771 0.882,1.48 0.882,1.11 c 0,-0.276 0.141,-0.386 0.409,-0.386 0.244,0 0.441,0.181 0.59,0.394 z"
           style="fill:#231f20;fill-opacity:1;fill-rule:nonzero;stroke:none"
           id="path3750" />
      </g>
    </g>
    <g
       id="g3752">
      <g
         id="g3754"
         transform="translate(123.2237,8.6654)">
        <path
           d="M 5.269,5.46 H 0.191 C 0.085,5.46 0,5.374 0,5.269 v -3.46 c 0.009,0.001 0.018,0.002 0.028,0.002 0,0 0.822,0.016 1.175,0.2 0.436,0.226 0.76,0.694 0.76,0.694 0.082,0.12 0.173,0.251 0.202,0.292 0.029,0.042 0.059,0.083 0.066,0.093 0.008,0.009 0.042,0.057 0.062,0.086 0.019,0.028 0.103,0.149 0.186,0.268 0,0 0.495,0.716 1.197,1.08 0.761,0.396 1.768,0.352 1.768,0.352 0.006,0 0.011,-0.001 0.016,-0.002 V 5.269 C 5.46,5.374 5.375,5.46 5.269,5.46 M 4.235,3.449 C 3.799,3.223 3.475,2.755 3.475,2.755 3.393,2.635 3.302,2.504 3.273,2.463 3.244,2.421 3.215,2.38 3.207,2.37 3.2,2.361 3.165,2.313 3.146,2.284 3.126,2.255 3.042,2.134 2.959,2.015 2.959,2.015 2.464,1.3 1.762,0.936 1.033,0.557 0.078,0.581 0,0.584 V 0.191 C 0,0.086 0.085,0 0.191,0 H 5.269 C 5.375,0 5.46,0.086 5.46,0.191 V 3.655 C 5.444,3.651 5.427,3.649 5.411,3.649 c 0,0 -0.823,-0.016 -1.176,-0.2"
           style="fill:#231f20;fill-opacity:1;fill-rule:nonzero;stroke:none"
           id="path3756" />
      </g>
    </g>
    <g
       id="g3758">
      <g
         id="g3760"
         transform="translate(49.3304,15.9594)">
        <path
           d="m 4.783,0.771 c 0,0.21 0.051,0.346 0.134,0.346 0.074,0 0.107,-0.067 0.107,-0.19 0,-0.098 -0.015,-0.156 -0.042,-0.165 L 4.801,0.755 C 4.787,0.755 4.783,0.76 4.783,0.771 M 4.428,0.552 c 0,-0.317 0.223,-0.548 0.514,-0.548 0.23,0 0.346,0.099 0.433,0.275 L 5.364,0.302 C 5.29,0.279 5.214,0.268 5.118,0.268 c -0.217,0 -0.335,0.204 -0.335,0.411 0,0.016 0.002,0.038 0.002,0.038 0.177,0 0.342,-0.011 0.514,-0.011 0.02,0 0.036,0.005 0.049,0.014 0.018,0.02 0.025,0.062 0.025,0.116 0,0.228 -0.208,0.322 -0.442,0.322 -0.257,0 -0.503,-0.244 -0.503,-0.606 M 4.336,0.085 C 4.318,0.096 4.314,0.114 4.314,0.244 v 0.945 c 0,0.172 0.013,0.404 0.013,0.404 L 4.285,1.598 C 4.072,1.587 3.86,1.524 3.86,1.524 c 0,0 -0.004,-0.013 -0.004,-0.033 L 3.914,1.473 C 3.932,1.455 3.938,1.437 3.938,1.283 V 0.244 C 3.938,0.107 3.934,0.096 3.916,0.085 L 3.858,0.069 c 0,0 -0.005,-0.018 -0.005,-0.04 h 0.544 c 0,0.022 -0.005,0.04 -0.005,0.04 z m -1.21,0.523 c 0,0.239 0.029,0.503 0.152,0.503 0.13,0 0.159,-0.28 0.159,-0.546 0,-0.237 -0.014,-0.509 -0.141,-0.509 -0.141,0 -0.17,0.284 -0.17,0.552 M 2.742,0.574 c 0,-0.353 0.25,-0.57 0.523,-0.57 0.286,0 0.554,0.228 0.554,0.586 0,0.349 -0.23,0.568 -0.519,0.568 -0.306,0 -0.558,-0.257 -0.558,-0.584 M 2.151,1.491 C 1.87,1.491 1.624,1.307 1.624,1.05 1.624,0.836 1.751,0.706 2.048,0.597 2.281,0.512 2.395,0.451 2.395,0.304 2.395,0.136 2.283,0.051 2.127,0.051 2.064,0.051 2.01,0.056 1.946,0.078 1.836,0.214 1.744,0.346 1.668,0.507 L 1.624,0.501 C 1.624,0.337 1.637,0.223 1.66,0.045 1.825,0.011 1.992,0 2.124,0 c 0.313,0 0.55,0.168 0.55,0.467 0,0.246 -0.138,0.346 -0.409,0.458 -0.286,0.116 -0.366,0.17 -0.366,0.304 0,0.134 0.098,0.213 0.245,0.213 0.065,0 0.115,-0.007 0.17,-0.023 0.108,-0.1 0.197,-0.223 0.273,-0.378 L 2.629,1.044 C 2.627,1.193 2.618,1.35 2.607,1.444 L 2.596,1.457 C 2.504,1.473 2.29,1.491 2.151,1.491 M 1.208,0.085 C 1.19,0.096 1.185,0.114 1.185,0.244 v 0.945 c 0,0.172 0.014,0.404 0.014,0.404 L 1.156,1.598 C 0.944,1.587 0.732,1.524 0.732,1.524 c 0,0 -0.005,-0.013 -0.005,-0.033 L 0.785,1.473 C 0.803,1.455 0.81,1.437 0.81,1.283 V 0.244 C 0.81,0.107 0.805,0.096 0.788,0.085 L 0.729,0.069 c 0,0 -0.004,-0.018 -0.004,-0.04 h 0.543 c 0,0.022 -0.004,0.04 -0.004,0.04 z m -0.549,1.33 c 0,0 0.005,0.013 0.005,0.044 H 0 C 0,1.428 0.004,1.415 0.004,1.415 L 0.107,1.397 C 0.132,1.374 0.138,1.341 0.138,1.117 V 0.371 C 0.138,0.147 0.132,0.114 0.107,0.092 L 0.004,0.074 C 0.004,0.074 0,0.06 0,0.029 h 0.664 c 0,0.031 -0.005,0.045 -0.005,0.045 L 0.556,0.092 C 0.532,0.114 0.525,0.147 0.525,0.371 v 0.746 c 0,0.224 0.007,0.257 0.031,0.28 z"
           style="fill:#231f20;fill-opacity:1;fill-rule:nonzero;stroke:none"
           id="path3762" />
      </g>
    </g>
    <g
       id="g3764">
      <g
         id="g3766"
         transform="translate(49.1587,8.3747)">
        <path
           d="M 24.922,1.86 V 0.089 H 21.107 L 20.361,0.88 v 0.317 h 0.036 c 0.153,0.01 0.247,0.049 0.357,0.152 0.129,0.12 0.177,0.233 0.17,0.408 v 3.888 l -0.592,0.741 v 0.335 h 3.838 l 0.737,-0.788 v -1.79 h -0.395 l -0.727,0.726 c 0,0 -0.015,0.451 -0.215,0.612 -0.207,0.166 -0.455,0.158 -0.455,0.158 l 0.008,-0.814 h 0.319 L 24.224,3.939 V 2.476 Z M 23.186,2.666 H 23.115 V 1.378 c 0.128,0.066 0.249,0.157 0.371,0.275 0.097,0.097 0.173,0.187 0.233,0.283 -0.113,0.141 -0.393,0.496 -0.533,0.73 M 24.111,2.507 H 23.97 C 23.939,2.126 23.821,1.879 23.537,1.602 23.222,1.295 22.911,1.164 22.495,1.164 c -0.05,0 -0.101,0.002 -0.157,0.006 l -0.033,0.001 v 2.501 l 0.039,-0.001 c 0.07,-0.006 0.136,-0.003 0.196,-0.002 0.17,0.005 0.304,0.003 0.419,-0.096 0.116,-0.102 0.169,-0.194 0.194,-0.339 V 2.739 h 0.26 V 4.73 H 23.214 V 4.505 C 23.2,4.34 23.153,4.236 23.036,4.118 22.881,3.956 22.707,3.944 22.526,3.944 H 22.44 C 22.409,3.947 22.375,3.947 22.343,3.947 H 22.305 V 6.4 l 0.034,0.002 c 0.4,0.023 0.663,-0.057 0.983,-0.298 0.383,-0.294 0.551,-0.633 0.545,-1.097 h 0.229 V 6.649 H 20.405 V 6.461 c 0.194,0 0.336,-0.067 0.462,-0.217 0.107,-0.127 0.115,-0.234 0.126,-0.382 l 0.004,-0.06 V 1.757 C 21.006,1.567 20.949,1.43 20.804,1.296 20.689,1.19 20.587,1.143 20.437,1.13 V 0.951 h 3.674 z M 20.035,2.297 V 1.018 L 20.459,0.451 V 0.117 H 19.123 L 18.274,0.435 V 0.145 H 15.713 L 14.99,0.88 h -0.002 v 0.316 l 0.034,0.001 c 0.185,0.017 0.301,0.078 0.414,0.22 0.092,0.115 0.099,0.222 0.108,0.358 10e-4,0.024 0.002,0.048 0.006,0.075 V 5.633 L 14.943,6.4 v 0.35 h 3.178 C 18.239,6.739 18.358,6.711 18.473,6.666 19.319,6.478 19.928,5.823 20.019,4.956 20.09,4.283 19.898,3.792 19.381,3.328 19.587,3.176 19.69,3.064 19.821,2.848 19.943,2.65 19.992,2.523 20.035,2.297 Z M 19.709,1.098 h -0.001 c -0.156,0 -0.276,0.052 -0.385,0.171 -0.116,0.129 -0.116,0.238 -0.114,0.406 v 1.144 c -0.035,0.219 -0.093,0.35 -0.236,0.531 -0.165,0.206 -0.305,0.308 -0.559,0.395 l -0.084,0.028 0.08,0.038 c 0.58,0.275 0.912,0.607 0.89,1.493 -0.022,0.831 -0.612,1.321 -1.182,1.376 L 15.017,6.679 V 6.476 c 0.018,0 0.036,0.002 0.056,0.002 0.204,0 0.344,-0.059 0.452,-0.191 0.08,-0.099 0.083,-0.183 0.086,-0.283 0.002,-0.045 0.003,-0.096 0.012,-0.155 V 1.845 C 15.621,1.818 15.621,1.793 15.618,1.771 15.608,1.628 15.599,1.506 15.495,1.373 15.375,1.223 15.249,1.152 15.063,1.13 V 0.951 h 2.43 v 0.19 C 17.297,1.145 17.154,1.216 17.029,1.374 16.916,1.52 16.916,1.651 16.916,1.818 v 1.88 l 0.115,0.003 h 0.082 c 0.187,0 0.401,-0.014 0.53,-0.142 0.133,-0.134 0.159,-0.321 0.18,-0.469 L 17.81,1.671 c 0.003,-0.17 0.034,-0.27 0.129,-0.417 0.111,-0.165 0.213,-0.246 0.401,-0.317 h 1.369 z M 16.953,6.366 V 3.968 c 0.304,0 0.516,-0.005 0.683,0.135 0.149,0.121 0.192,0.285 0.213,0.488 V 5.728 C 17.828,5.885 17.802,6.095 17.667,6.232 17.508,6.393 17.212,6.366 16.953,6.366 M 13.052,0 c -0.949,0 -1.782,0.627 -2.292,1.634 -0.342,0.555 -0.553,1.301 -0.553,2.123 0,1.714 0.917,3.111 2.047,3.111 0.217,0 0.427,-0.053 0.624,-0.148 C 13.974,6.289 15.013,4.817 15.041,3.424 15.162,1.904 14.48,0 13.052,0 m 1.177,3.757 c 0,1.675 -0.886,3.037 -1.975,3.037 -1.088,0 -1.973,-1.362 -1.973,-3.037 0,-1.675 0.885,-3.038 1.973,-3.038 1.089,0 1.975,1.363 1.975,3.038 M 12.268,6.458 C 12.037,6.458 11.85,6.26 11.85,6.016 V 1.518 c 0,-0.244 0.187,-0.443 0.418,-0.443 0.23,0 0.416,0.199 0.416,0.443 v 4.498 c 0,0.244 -0.186,0.442 -0.416,0.442 M 3.604,2.442 4.257,1.715 V 0.036 H 0.622 L 0,0.85 v 0.377 l 0.02,0.01 C 0.749,1.635 1.269,2.154 1.561,2.764 1.137,2.921 0.862,3.163 0.569,3.561 0.465,3.701 0.383,3.838 0.319,3.974 0.186,4.173 0.097,4.43 0.091,4.737 0.082,5.221 0.232,5.896 0.675,6.34 0.949,6.617 1.291,6.759 1.692,6.762 H 1.71 C 1.862,6.762 2.007,6.746 2.142,6.715 3.111,6.625 3.812,6.074 4.075,5.188 4.337,4.309 4.393,3.328 3.604,2.442 M 3.446,2.493 H 3.244 C 3.226,2.367 3.174,2.28 3.067,2.195 2.935,2.092 2.833,2.092 2.662,2.101 H 1.61 L 1.735,2.168 C 2.801,2.745 3.417,3.623 3.431,4.58 3.441,5.28 3.237,5.872 2.856,6.247 2.561,6.54 2.175,6.689 1.71,6.689 H 1.694 C 1.311,6.685 0.989,6.552 0.727,6.291 0.301,5.862 0.158,5.208 0.165,4.739 0.178,4.038 0.634,3.605 1.052,3.605 c 0.367,0 0.621,0.312 0.679,0.83 C 1.789,4.966 1.671,5.219 1.563,5.336 1.486,5.419 1.386,5.464 1.274,5.464 1.08,5.464 0.869,5.336 0.707,5.124 L 0.672,5.077 0.644,5.128 C 0.53,5.332 0.569,5.714 0.731,5.978 0.826,6.13 0.999,6.315 1.299,6.315 H 1.315 C 1.46,6.312 1.583,6.253 1.683,6.142 2.094,5.672 1.981,4.329 1.877,3.571 1.744,2.584 1.121,1.761 0.074,1.185 V 0.923 H 3.446 Z M 7.603,6.706 7.649,6.719 8.379,6.005 V 2.672 L 8.465,2.566 H 8.469 V 2.561 L 8.509,2.514 9.145,1.743 V 1.439 H 8.568 V 1.133 L 9.13,0.407 V 0.065 H 6.3 L 5.495,0.85 v 0.334 h 0.038 c 0.199,0 0.308,0.01 0.448,0.109 0.065,0.046 0.111,0.089 0.147,0.139 H 4.84 L 4.126,2.174 h 0.003 v 0.41 L 4.14,2.596 c 0.574,0.642 0.852,1.048 1.238,1.81 0.42,0.829 0.59,1.332 0.757,2.242 L 6.141,6.685 6.178,6.678 C 6.425,6.627 6.571,6.611 6.804,6.611 h 0.049 c 0.295,0.003 0.464,0.024 0.75,0.095 z M 8.395,2.493 H 7.575 V 6.625 C 7.308,6.56 7.14,6.542 6.854,6.539 H 6.804 C 6.577,6.539 6.43,6.553 6.201,6.598 6.035,5.704 5.862,5.199 5.443,4.374 5.056,3.609 4.777,3.2 4.203,2.557 V 2.245 H 6.268 L 6.266,1.541 C 6.213,1.402 6.15,1.324 6.025,1.236 5.873,1.127 5.747,1.112 5.57,1.112 V 0.923 H 8.379 V 1.155 H 8.158 C 7.998,1.155 7.884,1.162 7.756,1.264 7.649,1.349 7.599,1.43 7.575,1.562 v 0.697 h 0.82 z M 6.193,5.407 H 6.268 V 2.493 H 4.584 v 0.036 c 0.337,0.485 0.513,0.767 0.804,1.278 0.348,0.608 0.525,0.96 0.805,1.599 z m 0,-1.905 -0.526,-0.936 h 0.526 z"
           style="fill:#231f20;fill-opacity:1;fill-rule:nonzero;stroke:none"
           id="path3768" />
      </g>
    </g>
    <g
       id="g3770">
      <g
         id="g3772">
        <g
           id="g3778">
          <path
             d="m 39.727,20.439 h 95.431 v 0.42 H 39.727 Z"
             style="fill:url(#linearGradient3790);stroke:none"
             id="path3792" />
        </g>
      </g>
    </g>
    <g
       id="g3794">
      <g
         id="g3796"
         transform="translate(6.807,44.6915)">
        <path
           d="M 29.717,0 H 0.978 C 0.438,0 0,0.438 0,0.978 0,1.518 0.438,1.956 0.978,1.956 h 28.739 c 0.54,0 0.978,-0.438 0.978,-0.978 C 30.695,0.438 30.257,0 29.717,0"
           style="fill:#ffffff;fill-opacity:1;fill-rule:nonzero;stroke:none"
           id="path3798" />
      </g>
    </g>
    <g
       id="g3800">
      <g
         id="g3802"
         transform="translate(9.9693,40.1679)">
        <path
           d="M 23.7,0 H 0.978 C 0.438,0 0,0.438 0,0.978 0,1.518 0.438,1.956 0.978,1.956 H 23.7 c 0.54,0 0.978,-0.438 0.978,-0.978 C 24.678,0.438 24.24,0 23.7,0"
           style="fill:#ffffff;fill-opacity:1;fill-rule:nonzero;stroke:none"
           id="path3804" />
      </g>
    </g>
    <g
       id="g3806">
      <g
         id="g3808"
         transform="translate(16.1764,8.5705)">
        <path
           d="m 1.957,0 v 28.837 c 0,0.541 -0.438,0.979 -0.978,0.979 C 0.438,29.816 0,29.378 0,28.837 V 0.786 C 0.629,0.48 1.278,0.208 1.957,0"
           style="fill:#ffffff;fill-opacity:1;fill-rule:nonzero;stroke:none"
           id="path3810" />
      </g>
    </g>
    <g
       id="g3812">
      <g
         id="g3814"
         transform="translate(21.1761,7.9673)">
        <path
           d="m 1.957,0.039 v 29.402 c 0,0.54 -0.438,0.978 -0.978,0.978 C 0.438,30.419 0,29.981 0,29.441 V 0.05 C 0.325,0.027 0.648,0 0.979,0 1.308,0 1.633,0.016 1.957,0.039"
           style="fill:#ffffff;fill-opacity:1;fill-rule:nonzero;stroke:none"
           id="path3816" />
      </g>
    </g>
    <g
       id="g3818">
      <g
         id="g3820"
         transform="translate(26.3884,8.6375)">
        <path
           d="M 1.957,0.811 V 28.77 c 0,0.541 -0.438,0.979 -0.978,0.979 C 0.438,29.749 0,29.311 0,28.77 V 0 c 0.677,0.22 1.331,0.493 1.957,0.811"
           style="fill:#ffffff;fill-opacity:1;fill-rule:nonzero;stroke:none"
           id="path3822" />
      </g>
    </g>
    <g
       id="g3824">
      <g
         id="g3826"
         transform="translate(8.5513,10.083)">
        <path
           d="m 27.371,11.57 c 0,4.851 -2.544,9.109 -6.361,11.54 v -2.395 c 2.681,-2.151 4.404,-5.448 4.404,-9.145 0,-3.697 -1.723,-6.994 -4.404,-9.145 V 0.029 c 3.817,2.432 6.361,6.69 6.361,11.541 M 6.409,23.14 C 2.566,20.714 0,16.441 0,11.57 0,6.699 2.566,2.426 6.409,0 V 2.388 C 3.701,4.539 1.957,7.852 1.957,11.57 c 0,3.718 1.744,7.031 4.452,9.182 z"
           style="fill:#ffffff;fill-opacity:1;fill-rule:nonzero;stroke:none"
           id="path3828" />
      </g>
    </g>
    <g
       id="g3842">
      <g
         id="g3844">
        <g
           id="g3850">
          <path
             d="M 5.95093,51.7329 3.4674,49.24937 V 6.51749 L 5.95087,4.0349 h 129.66206 l 2.48347,2.48259 v 42.73188 l -2.48355,2.48353 z m -0.49706,1.2 h 130.65605 l 3.18648,-3.18647 V 6.02031 L 136.10986,2.8349 H 5.45393 L 2.2674,6.02031 v 43.72612 z"
             style="fill:url(#linearGradient3866);stroke:none"
             id="path3868" />
        </g>
      </g>
    </g>
    <path
       id="path56"
       d="M 0,0 C 0,-0.156 -0.026,-0.247 -0.026,-0.247 L -0.403,-0.325 C -0.481,-0.43 -0.52,-0.585 -0.52,-1.82 v -1.444 c -0.767,-0.22 -1.859,-0.389 -2.678,-0.389 -2.444,0 -4.095,1.755 -4.095,4.29 0,2.717 1.989,4.355 4.082,4.355 0.858,0 2.093,-0.156 2.574,-0.234 l 0.091,-0.091 c 0,-1.145 -0.143,-2.431 -0.143,-2.431 L -0.923,2.223 c 0,0 -0.546,1.742 -1.079,2.314 -0.26,0.104 -0.884,0.182 -1.222,0.182 -1.508,0 -2.366,-1.638 -2.366,-3.887 0,-2.08 0.832,-4.186 2.535,-4.186 0.494,0 1.053,0.104 1.053,0.104 0,0 -0.039,0.923 -0.039,0.936 v 0.351 c 0,1.325 -0.039,1.494 -0.169,1.611 l -0.702,0.105 c 0,0 -0.026,0.091 -0.026,0.247 z"
       style="fill:#ffffff;fill-opacity:1;fill-rule:nonzero;stroke:none"
       transform="translate(47.388246,41.691189)"
       clip-path="url(#clipPath57)" />
    <path
       id="path58"
       d="m 0,0 c 0,-1.365 0.091,-1.639 0.572,-1.69 h 0.949 c 0.676,0.039 0.988,0.403 2.119,2.677 L 3.835,0.962 C 3.77,-0.65 3.562,-1.977 3.562,-1.977 h -5.967 c 0,0.169 0.026,0.248 0.026,0.248 l 0.598,0.103 c 0.13,0.117 0.169,0.3 0.169,1.626 v 4.367 c 0,1.326 -0.039,1.495 -0.169,1.612 l -0.585,0.105 c 0,0 -0.026,0.091 -0.026,0.26 H 1.17 C 1.17,6.175 1.144,6.097 1.144,6.097 L 0.169,5.993 C 0.039,5.876 0,5.681 0,4.354 Z"
       style="fill:#ffffff;fill-opacity:1;fill-rule:nonzero;stroke:none"
       transform="translate(50.260847,40.183389)"
       clip-path="url(#clipPath59)" />
    <path
       id="path60"
       d="m 0,0 c -0.117,-0.117 -0.156,-0.286 -0.156,-1.625 v -4.354 c 0,-1.327 0.039,-1.509 0.156,-1.626 l 0.676,-0.104 c 0,0 0.026,-0.078 0.026,-0.247 h -3.341 c 0,0.169 0.026,0.247 0.026,0.247 l 0.676,0.104 c 0.117,0.117 0.169,0.299 0.169,1.626 v 4.354 c 0,1.339 -0.052,1.508 -0.169,1.625 l -0.676,0.104 c 0,0 -0.026,0.091 -0.026,0.26 h 3.341 c 0,-0.169 -0.026,-0.26 -0.026,-0.26 z"
       style="fill:#ffffff;fill-opacity:1;fill-rule:nonzero;stroke:none"
       transform="translate(57.021147,46.162889)"
       clip-path="url(#clipPath61)" />
    <path
       id="path62"
       d="M 0,0 0.091,-0.091 C 0.13,-0.364 0.182,-1.17 0.208,-2.275 l -0.247,-0.026 c -0.364,0.923 -0.819,1.638 -1.287,2.119 -0.338,0.091 -0.715,0.143 -1.118,0.143 -1.001,0 -1.664,-0.468 -1.664,-1.378 0,-0.819 0.468,-1.196 2.067,-1.859 1.664,-0.689 2.457,-1.287 2.457,-2.574 0,-1.587 -1.274,-2.548 -3.016,-2.548 -0.715,0 -1.716,0.117 -2.535,0.298 -0.065,0.521 -0.182,1.275 -0.195,2.471 l 0.247,0.039 c 0.416,-1.04 0.767,-1.599 1.339,-2.353 0.403,-0.13 0.78,-0.169 1.157,-0.169 1.079,0 1.755,0.533 1.755,1.599 0,0.897 -0.663,1.3 -2.067,1.846 -1.729,0.676 -2.444,1.391 -2.444,2.522 0,1.404 1.352,2.379 2.925,2.379 C -1.69,0.234 -0.585,0.104 0,0"
       style="fill:#ffffff;fill-opacity:1;fill-rule:nonzero;stroke:none"
       transform="translate(65.969347,46.448989)"
       clip-path="url(#clipPath63)" />
    <path
       id="path64"
       d="m 0,0 c 0.039,1.703 0.182,2.835 0.182,2.835 0,0 0.975,-0.065 1.625,-0.065 h 3.575 c 0.65,0 1.625,0.065 1.625,0.065 0,0 0.143,-1.132 0.182,-2.835 L 6.942,-0.039 C 6.279,1.639 6.006,2.133 5.59,2.483 H 4.576 C 4.446,2.354 4.394,2.119 4.394,0.78 v -4.354 c 0,-1.326 0.052,-1.509 0.168,-1.626 l 1.001,-0.104 c 0,0 0.027,-0.078 0.027,-0.247 H 1.599 c 0,0.169 0.026,0.247 0.026,0.247 L 2.626,-5.2 c 0.117,0.117 0.156,0.3 0.156,1.626 V 0.78 c 0,1.339 -0.039,1.574 -0.169,1.703 H 1.599 C 1.183,2.133 0.91,1.639 0.247,-0.039 Z"
       style="fill:#ffffff;fill-opacity:1;fill-rule:nonzero;stroke:none"
       transform="translate(66.787747,43.757589)"
       clip-path="url(#clipPath65)" />
    <path
       id="path66"
       d="m 0,0 c 0,1.092 -0.104,1.703 -0.377,1.833 l -0.909,0.156 c 0,0 -0.026,0.078 -0.026,0.247 H 1.171 C 1.171,2.067 1.145,1.989 1.145,1.989 L 0.586,1.808 C 0.442,1.651 0.352,1.105 0.352,0 v -3.029 c 0,-2.041 -0.69,-3.237 -2.952,-3.237 -2.08,0 -3.276,0.845 -3.276,3.107 v 3.406 c 0,1.326 -0.039,1.482 -0.169,1.625 l -0.572,0.117 c 0,0 -0.026,0.078 -0.026,0.247 h 3.329 c 0,-0.169 -0.027,-0.247 -0.027,-0.247 L -4.095,1.872 C -4.212,1.755 -4.264,1.612 -4.264,0.26 v -3.146 c 0,-1.989 0.468,-3.016 2.029,-3.016 1.664,0 2.235,1.04 2.235,2.873 z"
       style="fill:#ffffff;fill-opacity:1;fill-rule:nonzero;stroke:none"
       transform="translate(80.84045,44.290788)"
       clip-path="url(#clipPath67)" />
    <path
       id="path68"
       d="m 0,0 -0.962,0.013 v -6.045 c 0,-1.287 0.13,-1.652 0.741,-1.703 h 0.507 c 1.6,0 2.354,1.481 2.354,3.847 C 2.64,-1.443 1.703,-0.039 0,0 m 0.286,-8.021 h -3.679 c 0,0.168 0.026,0.247 0.026,0.247 l 0.624,0.103 c 0.117,0.117 0.169,0.3 0.169,1.626 v 4.355 c 0,1.338 -0.052,1.507 -0.169,1.625 l -0.624,0.104 c 0,0 -0.026,0.091 -0.026,0.26 h 3.407 c 2.288,0 4.354,-1.183 4.354,-3.926 0,-2.834 -1.95,-4.394 -4.082,-4.394"
       style="fill:#ffffff;fill-opacity:1;fill-rule:nonzero;stroke:none"
       transform="translate(85.806245,46.228289)"
       clip-path="url(#clipPath69)" />
    <path
       id="path70"
       d="m 0,0 c -0.117,-0.117 -0.156,-0.286 -0.156,-1.625 v -4.354 c 0,-1.327 0.039,-1.509 0.156,-1.626 l 0.676,-0.104 c 0,0 0.026,-0.078 0.026,-0.247 h -3.341 c 0,0.169 0.026,0.247 0.026,0.247 l 0.676,0.104 c 0.117,0.117 0.169,0.299 0.169,1.626 v 4.354 c 0,1.339 -0.052,1.508 -0.169,1.625 l -0.676,0.104 c 0,0 -0.026,0.091 -0.026,0.26 h 3.341 c 0,-0.169 -0.026,-0.26 -0.026,-0.26 z"
       style="fill:#ffffff;fill-opacity:1;fill-rule:nonzero;stroke:none"
       transform="translate(93.255447,46.162889)"
       clip-path="url(#clipPath71)" />
    <path
       id="path72"
       d="m 0,0 c 0,-1.365 0.092,-1.639 0.572,-1.69 h 0.949 c 0.676,0.039 0.989,0.403 2.12,2.677 L 3.836,0.962 C 3.771,-0.65 3.563,-1.977 3.563,-1.977 h -5.967 c 0,0.169 0.025,0.248 0.025,0.248 l 0.599,0.103 c 0.13,0.117 0.169,0.3 0.169,1.626 v 4.367 c 0,1.326 -0.039,1.495 -0.169,1.612 l -0.586,0.105 c 0,0 -0.026,0.091 -0.026,0.26 H 1.171 C 1.171,6.175 1.145,6.097 1.145,6.097 L 0.169,5.993 C 0.039,5.876 0,5.681 0,4.354 Z"
       style="fill:#ffffff;fill-opacity:1;fill-rule:nonzero;stroke:none"
       transform="translate(99.18815,40.183389)"
       clip-path="url(#clipPath73)" />
    <path
       id="path74"
       d="M 0,0 C 0,0 -0.039,-0.948 -0.039,-1.364 -0.039,-1.819 0,-2.886 0,-2.886 l -0.222,-0.012 -0.311,1.118 c -0.156,0.208 -0.416,0.286 -1.053,0.299 l -0.924,0.025 v -1.819 c 0,-1.586 0.078,-1.938 0.585,-1.99 h 0.976 c 0.871,0.013 1.196,0.338 2.261,2.34 l 0.196,-0.026 c -0.039,-1.131 -0.286,-2.6 -0.286,-2.6 h -6.189 c 0,0.169 0.027,0.247 0.027,0.247 l 0.65,0.104 c 0.13,0.117 0.169,0.3 0.169,1.626 V 0.78 c 0,1.339 -0.039,1.508 -0.169,1.625 L -4.94,2.51 c 0,0 -0.027,0.091 -0.027,0.26 H 1.248 L 1.352,2.666 C 1.326,1.756 1.131,0.403 1.131,0.403 H 0.923 C 0.52,1.573 0.247,2.016 -0.091,2.38 c 0,0 -1.365,0.103 -2.419,0.103 v -3.678 l 0.924,0.012 c 0.637,0.013 0.897,0.105 1.053,0.299 l 0.311,0.898 z"
       style="fill:#ffffff;fill-opacity:1;fill-rule:nonzero;stroke:none"
       transform="translate(108.28965,43.757589)"
       clip-path="url(#clipPath75)" />
    <path
       id="path76"
       d="M 0,0 C 0,-0.156 -0.026,-0.247 -0.026,-0.247 L -0.403,-0.325 C -0.481,-0.43 -0.521,-0.585 -0.521,-1.82 v -1.444 c -0.766,-0.22 -1.858,-0.389 -2.677,-0.389 -2.445,0 -4.095,1.755 -4.095,4.29 0,2.717 1.988,4.355 4.082,4.355 0.857,0 2.093,-0.156 2.574,-0.234 l 0.091,-0.091 c 0,-1.145 -0.143,-2.431 -0.143,-2.431 L -0.923,2.223 c 0,0 -0.546,1.742 -1.079,2.314 -0.26,0.104 -0.884,0.182 -1.223,0.182 -1.507,0 -2.365,-1.638 -2.365,-3.887 0,-2.08 0.832,-4.186 2.535,-4.186 0.493,0 1.053,0.104 1.053,0.104 0,0 -0.039,0.923 -0.039,0.936 v 0.351 c 0,1.325 -0.039,1.494 -0.169,1.611 l -0.702,0.105 c 0,0 -0.026,0.091 -0.026,0.247 z"
       style="fill:#ffffff;fill-opacity:1;fill-rule:nonzero;stroke:none"
       transform="translate(117.67545,41.691189)"
       clip-path="url(#clipPath77)" />
    <path
       id="path78"
       d="m 0,0 h 2.809 l -1.43,4.057 z m 2.926,-0.325 h -3.042 c -0.066,-0.182 -0.443,-1.313 -0.443,-1.768 0,-0.143 0.027,-0.26 0.091,-0.338 L 0.43,-2.587 c 0,0 0.025,-0.078 0.025,-0.247 h -2.392 c 0,0.169 0.026,0.247 0.026,0.247 l 0.403,0.104 c 0.183,0.169 0.507,0.767 0.793,1.573 L 0.988,3.849 C 1.145,4.304 1.248,4.771 1.326,5.2 L 2.535,5.616 4.85,-0.988 c 0.364,-1.066 0.533,-1.391 0.663,-1.495 l 0.558,-0.104 c 0,0 0.027,-0.078 0.027,-0.247 H 2.64 c 0,0.169 0.025,0.247 0.025,0.247 l 0.729,0.104 c 0.065,0.039 0.09,0.104 0.09,0.208 -0.012,0.208 -0.13,0.728 -0.286,1.157 z"
       style="fill:#ffffff;fill-opacity:1;fill-rule:nonzero;stroke:none"
       transform="translate(119.37755,41.040789)"
       clip-path="url(#clipPath79)" />
    <path
       id="path80"
       d="m 0,0 c 0,-1.365 0.092,-1.639 0.572,-1.69 h 0.949 c 0.676,0.039 0.989,0.403 2.12,2.677 L 3.836,0.962 C 3.771,-0.65 3.563,-1.977 3.563,-1.977 h -5.967 c 0,0.169 0.025,0.248 0.025,0.248 l 0.599,0.103 c 0.13,0.117 0.169,0.3 0.169,1.626 v 4.367 c 0,1.326 -0.039,1.495 -0.169,1.612 l -0.586,0.105 c 0,0 -0.026,0.091 -0.026,0.26 H 1.171 C 1.171,6.175 1.145,6.097 1.145,6.097 L 0.169,5.993 C 0.039,5.876 0,5.681 0,4.354 Z"
       style="fill:#ffffff;fill-opacity:1;fill-rule:nonzero;stroke:none"
       transform="translate(127.87955,40.183389)"
       clip-path="url(#clipPath81)" />
    <path
       id="path82"
       d="m 0,0 c -0.116,-0.117 -0.155,-0.286 -0.155,-1.625 v -4.354 c 0,-1.327 0.039,-1.509 0.155,-1.626 l 0.677,-0.104 c 0,0 0.025,-0.078 0.025,-0.247 h -3.341 c 0,0.169 0.027,0.247 0.027,0.247 l 0.675,0.104 c 0.118,0.117 0.169,0.299 0.169,1.626 v 4.354 c 0,1.339 -0.051,1.508 -0.169,1.625 l -0.675,0.104 c 0,0 -0.027,0.091 -0.027,0.26 h 3.341 c 0,-0.169 -0.025,-0.26 -0.025,-0.26 z"
       style="fill:#ffffff;fill-opacity:1;fill-rule:nonzero;stroke:none"
       transform="translate(134.63925,46.162889)"
       clip-path="url(#clipPath83)" />
    <path
       id="path84"
       d="m 0,0 -0.962,0.013 v -6.045 c 0,-1.287 0.13,-1.652 0.741,-1.703 h 0.507 c 1.599,0 2.353,1.481 2.353,3.847 C 2.639,-1.443 1.703,-0.039 0,0 m 0.286,-8.021 h -3.679 c 0,0.168 0.026,0.247 0.026,0.247 l 0.624,0.103 c 0.117,0.117 0.169,0.3 0.169,1.626 v 4.355 c 0,1.338 -0.052,1.507 -0.169,1.625 l -0.624,0.104 c 0,0 -0.026,0.091 -0.026,0.26 h 3.406 c 2.288,0 4.355,-1.183 4.355,-3.926 0,-2.834 -1.95,-4.394 -4.082,-4.394"
       style="fill:#ffffff;fill-opacity:1;fill-rule:nonzero;stroke:none"
       transform="translate(43.501046,33.228288)"
       clip-path="url(#clipPath85)" />
    <path
       id="path86"
       d="M 0,0 C 0,0 -0.039,-0.948 -0.039,-1.364 -0.039,-1.819 0,-2.886 0,-2.886 l -0.221,-0.012 -0.312,1.118 c -0.156,0.208 -0.416,0.286 -1.053,0.299 l -0.923,0.025 v -1.819 c 0,-1.586 0.078,-1.938 0.585,-1.99 h 0.975 c 0.871,0.013 1.196,0.338 2.262,2.34 l 0.195,-0.026 c -0.039,-1.131 -0.286,-2.6 -0.286,-2.6 h -6.188 c 0,0.169 0.026,0.247 0.026,0.247 l 0.65,0.104 c 0.13,0.117 0.169,0.3 0.169,1.626 V 0.78 c 0,1.339 -0.039,1.508 -0.169,1.625 L -4.94,2.51 c 0,0 -0.026,0.091 -0.026,0.26 H 1.248 L 1.352,2.666 C 1.326,1.756 1.131,0.403 1.131,0.403 H 0.923 C 0.52,1.573 0.247,2.016 -0.091,2.38 c 0,0 -1.365,0.103 -2.418,0.103 v -3.678 l 0.923,0.012 c 0.637,0.013 0.897,0.105 1.053,0.299 l 0.312,0.898 z"
       style="fill:#ffffff;fill-opacity:1;fill-rule:nonzero;stroke:none"
       transform="translate(53.744747,30.757589)"
       clip-path="url(#clipPath87)" />
    <path
       id="path88"
       d="m 0,0 c 0,-1.365 0.091,-1.639 0.572,-1.69 h 0.949 c 0.676,0.039 0.988,0.403 2.119,2.677 L 3.835,0.962 C 3.77,-0.65 3.562,-1.977 3.562,-1.977 h -5.967 c 0,0.169 0.026,0.248 0.026,0.248 l 0.598,0.103 c 0.13,0.117 0.169,0.3 0.169,1.626 v 4.367 c 0,1.326 -0.039,1.495 -0.169,1.612 l -0.585,0.105 c 0,0 -0.026,0.091 -0.026,0.26 H 1.17 C 1.17,6.175 1.144,6.097 1.144,6.097 L 0.169,5.993 C 0.039,5.876 0,5.681 0,4.354 Z"
       style="fill:#ffffff;fill-opacity:1;fill-rule:nonzero;stroke:none"
       transform="translate(58.736447,27.183388)"
       clip-path="url(#clipPath89)" />
    <path
       id="path90"
       d="m 0,0 c 0,-1.365 0.091,-1.639 0.572,-1.69 h 0.949 c 0.676,0.039 0.988,0.403 2.119,2.677 L 3.835,0.962 C 3.77,-0.65 3.562,-1.977 3.562,-1.977 h -5.967 c 0,0.169 0.026,0.248 0.026,0.248 l 0.598,0.103 c 0.13,0.117 0.169,0.3 0.169,1.626 v 4.367 c 0,1.326 -0.039,1.495 -0.169,1.612 l -0.585,0.105 c 0,0 -0.026,0.091 -0.026,0.26 H 1.17 C 1.17,6.175 1.144,6.097 1.144,6.097 L 0.169,5.993 C 0.039,5.876 0,5.681 0,4.354 Z"
       style="fill:#ffffff;fill-opacity:1;fill-rule:nonzero;stroke:none"
       transform="translate(65.782847,27.183388)"
       clip-path="url(#clipPath91)" />
    <path
       id="path92"
       d="m 0,0 c 0.546,0.377 0.923,0.793 0.936,1.118 0,0.234 -0.156,0.363 -0.585,0.559 -0.312,0.143 -0.481,0.26 -0.481,0.481 0,0.494 0.377,1.001 0.858,1.001 0.533,0 1.118,-0.455 1.118,-1.066 0,-0.832 -0.742,-1.664 -1.742,-2.276 z"
       style="fill:#ffffff;fill-opacity:1;fill-rule:nonzero;stroke:none"
       transform="translate(69.500647,30.524189)"
       clip-path="url(#clipPath93)" />
    <path
       id="path94"
       d="M 0,0 H 2.809 L 1.378,4.057 Z m 2.926,-0.325 h -3.043 c -0.065,-0.182 -0.442,-1.313 -0.442,-1.768 0,-0.143 0.026,-0.26 0.091,-0.338 L 0.43,-2.587 c 0,0 0.025,-0.078 0.025,-0.247 h -2.392 c 0,0.169 0.026,0.247 0.026,0.247 l 0.403,0.104 c 0.182,0.169 0.507,0.767 0.793,1.573 L 0.988,3.849 C 1.145,4.304 1.248,4.771 1.326,5.2 L 2.535,5.616 4.85,-0.988 c 0.364,-1.066 0.533,-1.391 0.663,-1.495 l 0.558,-0.104 c 0,0 0.027,-0.078 0.027,-0.247 H 2.64 c 0,0.169 0.025,0.247 0.025,0.247 l 0.729,0.104 c 0.064,0.039 0.09,0.104 0.09,0.208 -0.012,0.208 -0.13,0.728 -0.286,1.157 z"
       style="fill:#ffffff;fill-opacity:1;fill-rule:nonzero;stroke:none"
       transform="translate(72.633447,28.040789)"
       clip-path="url(#clipPath95)" />
    <path
       id="path96"
       d="m 0,0 c 0,-1.183 0.038,-3.874 0.052,-3.874 l -0.404,-0.091 -5.538,6.76 0.169,-4.641 c 0.039,-1.131 0.117,-1.43 0.274,-1.534 l 1.117,-0.247 c 0,0 0.026,-0.091 0.026,-0.247 h -3.015 c 0,0.169 0.025,0.247 0.025,0.247 l 0.78,0.221 c 0.169,0.13 0.26,0.403 0.286,1.56 l 0.091,4.941 C -6.54,3.614 -6.981,4.069 -7.15,4.147 l -0.235,0.052 c 0,0 -0.026,0.078 -0.026,0.247 h 2.184 l 4.98,-6.188 -0.144,4.225 C -0.43,3.575 -0.547,3.81 -0.741,3.965 l -1.106,0.234 c 0,0 -0.025,0.091 -0.025,0.247 H 0.857 C 0.857,4.277 0.832,4.199 0.832,4.199 L 0.208,3.991 C 0.064,3.849 0,3.575 0,1.989 Z"
       style="fill:#ffffff;fill-opacity:1;fill-rule:nonzero;stroke:none"
       transform="translate(86.349245,29.080788)"
       clip-path="url(#clipPath97)" />
    <path
       id="path98"
       d="m 0,0 c 0,-1.183 0.039,-3.874 0.052,-3.874 l -0.404,-0.091 -5.538,6.76 0.169,-4.641 c 0.039,-1.131 0.117,-1.43 0.274,-1.534 l 1.117,-0.247 c 0,0 0.026,-0.091 0.026,-0.247 h -3.015 c 0,0.169 0.025,0.247 0.025,0.247 l 0.78,0.221 c 0.169,0.13 0.26,0.403 0.286,1.56 l 0.091,4.941 C -6.54,3.614 -6.981,4.069 -7.15,4.147 l -0.235,0.052 c 0,0 -0.026,0.078 -0.026,0.247 h 2.184 l 4.98,-6.188 -0.144,4.225 C -0.43,3.575 -0.547,3.81 -0.741,3.965 l -1.106,0.234 c 0,0 -0.025,0.091 -0.025,0.247 H 0.857 C 0.857,4.277 0.832,4.199 0.832,4.199 L 0.208,3.991 C 0.064,3.849 0,3.575 0,1.989 Z"
       style="fill:#ffffff;fill-opacity:1;fill-rule:nonzero;stroke:none"
       transform="translate(95.345345,29.080788)"
       clip-path="url(#clipPath99)" />
    <path
       id="path100"
       d="m 0,0 c -1.534,0 -2.275,-1.872 -2.275,-4.004 0,-1.885 0.702,-4.082 2.288,-4.082 1.586,0 2.249,2.132 2.249,4.16 C 2.262,-1.976 1.586,0 0,0 m 0,-8.385 c -2.119,0 -3.991,1.612 -3.991,4.329 0,2.678 1.975,4.329 4.004,4.329 2.144,0 3.965,-1.573 3.965,-4.173 0,-2.769 -1.912,-4.485 -3.978,-4.485"
       style="fill:#ffffff;fill-opacity:1;fill-rule:nonzero;stroke:none"
       transform="translate(101.03965,33.409889)"
       clip-path="url(#clipPath101)" />
    <path
       id="path102"
       d="m 0,0 c -0.43,-1.677 -0.807,-2.561 -1.274,-2.561 -0.754,0 -2.484,0.247 -3.108,0.247 -0.558,0 -1.378,-0.195 -1.378,-0.195 l -0.103,0.195 c 2.418,2.392 3.588,4.186 3.588,6.11 0,1.093 -0.416,1.859 -1.028,1.859 -0.155,0 -0.338,-0.026 -0.363,-0.039 C -4.004,5.252 -4.407,3.575 -4.759,3.419 -5.278,3.471 -5.76,3.771 -5.76,4.238 c 0,0.832 1.287,1.691 2.601,1.691 1.351,0 2.587,-0.742 2.587,-2.172 0,-1.325 -0.82,-2.157 -2.939,-3.978 l -1.065,-0.975 c 0,0 0.715,0.182 1.131,0.182 0.519,0 1.559,-0.104 2.106,-0.104 0.493,0 0.779,0.338 1.131,1.17 z"
       style="fill:#ffffff;fill-opacity:1;fill-rule:nonzero;stroke:none"
       transform="translate(114.89225,27.663788)"
       clip-path="url(#clipPath103)" />
    <path
       id="path104"
       d="m 0,0 c -1.066,0 -1.378,-1.847 -1.378,-3.991 0,-2.158 0.273,-4.03 1.417,-4.03 1.027,0 1.378,1.845 1.378,4.03 C 1.417,-1.872 1.17,0 0,0 m 0.013,-8.269 c -1.625,0 -3.068,1.535 -3.068,4.278 0,2.729 1.482,4.238 3.081,4.238 1.651,0 3.081,-1.47 3.081,-4.238 0,-2.757 -1.521,-4.278 -3.094,-4.278"
       style="fill:#ffffff;fill-opacity:1;fill-rule:nonzero;stroke:none"
       transform="translate(118.93515,33.345488)"
       clip-path="url(#clipPath105)" />
    <path
       id="path106"
       d="m 0,0 c -0.43,-1.677 -0.807,-2.561 -1.274,-2.561 -0.754,0 -2.484,0.247 -3.108,0.247 -0.558,0 -1.378,-0.195 -1.378,-0.195 l -0.103,0.195 c 2.418,2.392 3.588,4.186 3.588,6.11 0,1.093 -0.416,1.859 -1.028,1.859 -0.155,0 -0.338,-0.026 -0.363,-0.039 C -4.004,5.252 -4.407,3.575 -4.759,3.419 -5.278,3.471 -5.76,3.771 -5.76,4.238 c 0,0.832 1.287,1.691 2.601,1.691 1.351,0 2.587,-0.742 2.587,-2.172 0,-1.325 -0.82,-2.157 -2.939,-3.978 l -1.065,-0.975 c 0,0 0.715,0.182 1.131,0.182 0.519,0 1.559,-0.104 2.106,-0.104 0.493,0 0.779,0.338 1.131,1.17 z"
       style="fill:#ffffff;fill-opacity:1;fill-rule:nonzero;stroke:none"
       transform="translate(128.77695,27.663788)"
       clip-path="url(#clipPath107)" />
    <path
       id="path108"
       d="M 0,0 C 0,0 0.845,0.338 1.339,0.391 L 1.56,0.352 V -2.379 H 2.651 V -2.678 H 1.56 v -0.26 c 0,-1.248 0.026,-1.391 0.156,-1.508 L 2.509,-4.55 c 0,0 0.025,-0.091 0.025,-0.247 h -3.705 c 0,0.156 0.039,0.247 0.039,0.247 l 0.976,0.104 C -0.026,-4.342 0,-4.212 0,-2.951 v 0.273 h -3.42 l -0.077,0.208 c 1.261,2.743 2.262,4.836 2.729,5.538 0.221,0.377 0.482,0.546 0.898,0.546 0.558,0 1.143,-0.103 1.287,-0.26 C 1.391,3.276 1.248,3.068 1.001,2.821 0,1.833 -1.612,0.078 -3.146,-2.379 H 0 Z"
       style="fill:#ffffff;fill-opacity:1;fill-rule:nonzero;stroke:none"
       transform="translate(132.84636,30.003689)"
       clip-path="url(#clipPath109)" />
  </g>
</svg>
