<?xml version="1.0" encoding="UTF-8"?>
<svg id="Ebene_1" xmlns="http://www.w3.org/2000/svg" xmlns:xlink="http://www.w3.org/1999/xlink" version="1.1" width="188.97598" height="73.700798" viewBox="0 0 141.73 55.28">
  <!-- Generator: Adobe Illustrator 29.4.0, SVG Export Plug-In . SVG Version: 2.1.0 Build 152)  -->
  <defs>
    <style>
      .st0 {
        fill: none;
      }

      .st1 {
        fill: #1d1d1b;
      }

      .st2 {
        clip-path: url(#clippath-1);
      }

      .st3 {
        clip-path: url(#clippath-3);
      }

      .st4 {
        clip-path: url(#clippath-4);
      }

      .st5 {
        clip-path: url(#clippath-2);
      }

      .st6 {
        clip-path: url(#clippath-5);
      }

      .st7 {
        fill: #fff;
      }

      .st8 {
        fill: url(#Unbenannter_Verlauf_2240);
      }

      .st9 {
        fill: url(#Unbenannter_Verlauf_2241);
      }

      .st10 {
        fill: url(#Unbenannter_Verlauf_2239);
      }

      .st11 {
        clip-path: url(#clippath);
      }
    </style>
    <clipPath id="clippath">
      <rect class="st0" x=".07" y=".04" width="141.6" height="55.2"/>
    </clipPath>
    <clipPath id="clippath-1">
      <rect class="st0" x=".07" y=".04" width="141.6" height="55.2"/>
    </clipPath>
    <linearGradient id="Unbenannter_Verlauf_2239" data-name="Unbenannter Verlauf 2239" x1="0" y1="147.28" x2="1" y2="147.28" gradientTransform="translate(139.52 -20175.24) rotate(180) scale(137.18 -137.18)" gradientUnits="userSpaceOnUse">
      <stop offset="0" stop-color="#a3875d"/>
      <stop offset="0" stop-color="#a3875d"/>
      <stop offset=".05" stop-color="#a6895f"/>
      <stop offset=".09" stop-color="#af9265"/>
      <stop offset=".12" stop-color="#c0a271"/>
      <stop offset=".15" stop-color="#d6b780"/>
      <stop offset=".17" stop-color="#e7c78c"/>
      <stop offset=".17" stop-color="#e4c48a"/>
      <stop offset=".22" stop-color="#c8aa77"/>
      <stop offset=".28" stop-color="#b19569"/>
      <stop offset=".33" stop-color="#a2875e"/>
      <stop offset=".4" stop-color="#987e58"/>
      <stop offset=".49" stop-color="#967c57"/>
      <stop offset=".54" stop-color="#987e58"/>
      <stop offset=".58" stop-color="#a2875f"/>
      <stop offset=".62" stop-color="#b29669"/>
      <stop offset=".66" stop-color="#c9ab78"/>
      <stop offset=".69" stop-color="#e6c68b"/>
      <stop offset=".69" stop-color="#e7c78c"/>
      <stop offset=".69" stop-color="#e4c48a"/>
      <stop offset=".73" stop-color="#c8aa77"/>
      <stop offset=".77" stop-color="#b29668"/>
      <stop offset=".82" stop-color="#a2885e"/>
      <stop offset=".87" stop-color="#997f57"/>
      <stop offset=".94" stop-color="#977d56"/>
      <stop offset="1" stop-color="#977d56"/>
    </linearGradient>
    <clipPath id="clippath-2">
      <path class="st0" d="M3.58,48V5.27l2.48-2.48h129.66l2.48,2.48v42.73l-2.48,2.48H6.06l-2.48-2.48ZM5.57,1.59l-3.19,3.19v43.73l3.19,3.18h130.66l3.19-3.18V4.78l-3.19-3.19H5.57Z"/>
    </clipPath>
    <linearGradient id="Unbenannter_Verlauf_2240" data-name="Unbenannter Verlauf 2240" x1="0" y1="147.28" x2="1" y2="147.28" gradientTransform="translate(2.38 20178.42) scale(136.83 -136.83)" gradientUnits="userSpaceOnUse">
      <stop offset="0" stop-color="#e7c78c"/>
      <stop offset=".01" stop-color="#e7c78c"/>
      <stop offset=".32" stop-color="#a3875d"/>
      <stop offset=".33" stop-color="#a4885d"/>
      <stop offset=".49" stop-color="#c59e67"/>
      <stop offset=".73" stop-color="#977d56"/>
      <stop offset=".97" stop-color="#e7c78c"/>
      <stop offset="1" stop-color="#e7c78c"/>
    </linearGradient>
    <clipPath id="clippath-3">
      <rect class="st0" x=".07" y=".04" width="141.6" height="55.2"/>
    </clipPath>
    <clipPath id="clippath-4">
      <rect class="st0" x="39.72" y="33.83" width="95.43" height=".42"/>
    </clipPath>
    <linearGradient id="Unbenannter_Verlauf_2241" data-name="Unbenannter Verlauf 2241" x1="0" y1="147.28" x2="1" y2="147.28" gradientTransform="translate(39.72 14088.85) scale(95.43 -95.43)" gradientUnits="userSpaceOnUse">
      <stop offset="0" stop-color="#977d56"/>
      <stop offset=".21" stop-color="#e7c78c"/>
      <stop offset=".51" stop-color="#c59e67"/>
      <stop offset=".79" stop-color="#e7c78c"/>
      <stop offset="1" stop-color="#a3875d"/>
    </linearGradient>
    <clipPath id="clippath-5">
      <rect class="st0" x=".07" y=".04" width="141.6" height="55.2"/>
    </clipPath>
  </defs>
  <g class="st11">
    <g class="st2">
      <rect class="st10" x="2.4" y="-42.97" width="136.94" height="141.21" transform="translate(2.32 60.62) rotate(-47)"/>
    </g>
    <g class="st5">
      <rect class="st8" x="2.38" y="1.59" width="137.03" height="50.1"/>
    </g>
    <g class="st3">
      <path class="st7" d="M36.52,10H7.78c-.54,0-.98-.44-.98-.98s.44-.98.98-.98h28.74c.54,0,.98.44.98.98s-.44.98-.98.98"/>
      <path class="st7" d="M33.66,14.53H10.94c-.54,0-.98-.44-.98-.98s.44-.98.98-.98h22.72c.54,0,.98.44.98.98s-.44.98-.98.98"/>
      <path class="st7" d="M18.13,46.12v-28.84c0-.54-.44-.98-.98-.98s-.98.44-.98.98v28.05c.63.31,1.28.58,1.96.79"/>
      <path class="st7" d="M23.13,46.69v-29.4c0-.54-.44-.98-.98-.98s-.98.44-.98.98v29.39c.33.02.65.05.98.05s.65-.02.98-.04"/>
      <path class="st7" d="M28.34,45.25v-27.96c0-.54-.44-.98-.98-.98s-.98.44-.98.98v28.77c.68-.22,1.33-.49,1.96-.81"/>
      <path class="st7" d="M14.96,21.47c-3.84,2.43-6.41,6.7-6.41,11.57s2.57,9.14,6.41,11.57v-2.39c-2.71-2.15-4.45-5.46-4.45-9.18s1.74-7.03,4.45-9.18v-2.39ZM35.92,33.04c0-4.85-2.54-9.11-6.36-11.54v2.4c2.68,2.15,4.4,5.45,4.4,9.15s-1.72,6.99-4.4,9.15v2.4c3.82-2.43,6.36-6.69,6.36-11.54"/>
    </g>
    <g class="st4">
      <rect class="st9" x="39.72" y="33.83" width="95.43" height=".42"/>
    </g>
    <g>
      <path class="st7" d="M46.97,13.77c0,.05-.01.09-.01.12-.01.03-.01.04-.01.05l-.31.06c-.09.09-.12.26-.12,1.32v1.52c-.69.2-1.76.35-2.52.35-2.36,0-3.97-1.64-3.97-4.1,0-2.61,1.92-4.2,3.94-4.2.64,0,1.87.11,2.46.21l.09.09c0,.59-.04,1.17-.07,1.66l-.08.81h-.15c-.12-.35-.26-.69-.4-1-.24-.54-.55-1.14-.84-1.42-.26-.1-.72-.16-1.01-.16-1.39,0-2.04,1.65-2.04,3.86,0,2.05.71,4.05,2.2,4.05.19,0,.4-.01.55-.02l.26-.04-.05-.89v-.46c0-1.3-.02-1.45-.17-1.56l-.62-.09s-.01-.02-.01-.05c-.01-.01-.01-.06-.01-.12h2.92Z"/>
      <path class="st7" d="M49.9,15.22c0,1.34.11,1.59.56,1.62h.58c.62-.04.97-.39,2.24-2.71h.1c-.04.86-.1,1.57-.15,2.09-.04.3-.06.57-.1.82h-5.76c0-.06,0-.11.01-.12,0-.01,0-.04.01-.05l.54-.09c.12-.1.17-.28.17-1.56v-4.31c0-1.29-.05-1.46-.17-1.56l-.54-.09s-.01-.04-.01-.05c-.01-.01-.01-.06-.01-.12h3.65s-.01.09-.01.12c-.01.01-.01.02-.01.04l-.92.1c-.12.1-.17.27-.17,1.56v4.31Z"/>
      <path class="st7" d="M56.38,9.35c-.15.11-.17.26-.17,1.56v4.31c0,1.3.02,1.45.17,1.56l.6.09s0,.04.01.05c0,.04.01.08.01.12h-3.4c0-.06,0-.11.01-.12,0-.01,0-.04.01-.05l.6-.09c.15-.11.17-.26.17-1.56v-4.31c0-1.3-.02-1.45-.17-1.56l-.6-.09s-.01-.04-.01-.05c-.01-.01-.01-.06-.01-.12h3.4c0,.06-.01.09-.01.12-.01.01-.01.04-.01.05l-.6.09Z"/>
      <path class="st7" d="M66.63,9.15l.07.06c.05.5.11,1.2.12,2.15h-.16c-.4-.89-.92-1.62-1.46-2.14-.29-.09-.6-.12-.96-.12-.9,0-1.5.46-1.5,1.31,0,.75.42,1.14,1.99,1.76,1.55.66,2.31,1.23,2.31,2.52,0,1.59-1.24,2.51-2.92,2.51-.71,0-1.62-.1-2.47-.26-.09-.71-.19-1.39-.2-2.47h.16c.44,1.02.86,1.6,1.49,2.4.36.14.67.15,1.02.15.96,0,1.59-.51,1.59-1.56,0-.85-.65-1.24-1.92-1.74-1.71-.67-2.35-1.36-2.35-2.46,0-1.36,1.3-2.35,2.81-2.35.7,0,1.85.14,2.39.24Z"/>
      <path class="st7" d="M67.38,11.78c.04-.94.06-1.61.1-2.07l.07-.7.56.04c.34.04.72.04,1.06.04h3.35c.34,0,.72,0,1.06-.04l.56-.04.06.7c.04.46.08,1.14.11,2.07l-.17.02c-.78-1.74-1.04-2.19-1.47-2.52h-.76c-.12.16-.16.31-.16,1.62v4.31c0,1.3.02,1.45.17,1.56l.9.09s0,.04.01.05c0,.04.01.08.01.12h-4c0-.06,0-.11.01-.12,0-.01,0-.04.01-.05l.9-.09c.15-.11.17-.26.17-1.56v-4.31c0-1.3-.05-1.47-.17-1.62h-.75c-.42.33-.71.79-1.49,2.52l-.16-.02Z"/>
      <path class="st7" d="M80.91,11.32c0-1.04-.12-1.77-.44-1.92l-.84-.15s-.01-.03-.01-.04c-.01-.01-.01-.06-.01-.12h2.31c0,.06-.01.09-.01.12-.01.01-.01.02-.01.04l-.5.16c-.16.19-.26.86-.26,1.91v2.86c0,1.97-.67,3.04-2.72,3.04s-3.19-.79-3.19-2.96v-3.35c0-1.29-.06-1.42-.16-1.56l-.51-.09s-.01-.04-.01-.05c-.01-.01-.01-.06-.01-.12h3.32c0,.06-.01.09-.01.12-.01.01-.01.04-.01.05l-.65.09c-.14.14-.16.23-.16,1.56v2.91c0,1.99.26,3.14,1.76,3.14s2.14-.92,2.14-2.76v-2.87Z"/>
      <path class="st7" d="M85.87,17.04h-3.62c0-.06,0-.11.01-.12,0-.01,0-.04.01-.05l.55-.09c.12-.1.18-.28.18-1.56v-4.31c0-1.29-.05-1.46-.18-1.56l-.55-.09s-.01-.04-.01-.05c-.01-.01-.01-.06-.01-.12h3.32c2.11,0,4.19,1.01,4.19,3.71s-1.94,4.25-3.89,4.25ZM85.57,9.3l-.79-.02v5.94c0,1.25.14,1.6.79,1.64h.31c1.44,0,1.96-1.42,1.96-3.66,0-2.54-.76-3.85-2.27-3.89Z"/>
      <path class="st7" d="M92.98,9.35c-.15.11-.17.26-.17,1.56v4.31c0,1.3.03,1.45.17,1.56l.6.09s0,.04.01.05c0,.04.01.08.01.12h-3.4c0-.06,0-.11.01-.12,0-.01,0-.04.01-.05l.6-.09c.15-.11.18-.26.18-1.56v-4.31c0-1.3-.03-1.45-.18-1.56l-.6-.09s-.01-.04-.01-.05c-.01-.01-.01-.06-.01-.12h3.4c0,.06-.01.09-.01.12-.01.01-.01.04-.01.05l-.6.09Z"/>
      <path class="st7" d="M100.5,15.22c0,1.34.11,1.59.56,1.62h.58c.62-.04.97-.39,2.24-2.71h.1c-.04.86-.1,1.57-.15,2.09-.04.3-.06.57-.1.82h-5.76c0-.06,0-.11.01-.12,0-.01,0-.04.01-.05l.54-.09c.12-.1.18-.28.18-1.56v-4.31c0-1.29-.05-1.46-.18-1.56l-.54-.09s-.01-.04-.01-.05c-.01-.01-.01-.06-.01-.12h3.65s-.01.09-.01.12c-.01.01-.01.02-.01.04l-.92.1c-.12.1-.18.27-.18,1.56v4.31Z"/>
      <path class="st7" d="M109.01,11.75l-.03.51c-.01.29-.01.61-.01.81,0,.24,0,.6.01.91l.03.56h-.12s-.36-1.16-.36-1.16c-.16-.2-.4-.27-1.05-.29h-.66s0,1.9,0,1.9c0,1.45.11,1.81.56,1.85h.58c.85,0,1.21-.4,2.37-2.4h.1c-.04.58-.09,1.21-.15,1.72-.04.3-.08.59-.12.88h-5.91c0-.06,0-.11.01-.12,0-.01,0-.04.01-.05l.57-.09c.15-.11.18-.26.18-1.56v-4.31c0-1.3-.03-1.45-.18-1.56l-.56-.09s-.01-.04-.01-.05c-.01-.01-.01-.06-.01-.12h5.95l.08.09c-.04.49-.06,1.02-.11,1.46-.04.26-.06.51-.09.75h-.11c-.47-1.14-.81-1.64-1.2-2l-.62-.05c-.39-.04-.86-.06-1.33-.06v3.64h.66c.66-.02.91-.11,1.08-.3l.34-.87h.12Z"/>
      <path class="st7" d="M117.89,13.77c0,.05-.01.09-.01.12-.01.03-.01.04-.01.05l-.31.06c-.09.09-.12.26-.12,1.32v1.52c-.69.2-1.76.35-2.52.35-2.36,0-3.97-1.64-3.97-4.1,0-2.61,1.92-4.2,3.94-4.2.64,0,1.88.11,2.46.21l.09.09c0,.59-.04,1.17-.08,1.66l-.08.81h-.15c-.12-.35-.26-.69-.4-1-.24-.54-.55-1.14-.84-1.42-.26-.1-.73-.16-1.01-.16-1.39,0-2.04,1.65-2.04,3.86,0,2.05.71,4.05,2.2,4.05.19,0,.4-.01.55-.02l.26-.04-.05-.89v-.46c0-1.3-.03-1.45-.17-1.56l-.62-.09s-.01-.02-.01-.05c-.01-.01-.01-.06-.01-.12h2.92Z"/>
      <path class="st7" d="M122.1,14.57h-2.71c-.09.23-.15.45-.21.66-.1.39-.2.82-.2,1.12,0,.14.03.25.09.34l.85.19s0,.02.01.04c0,.04.01.08.01.12h-2.24c0-.06,0-.11.01-.12,0-.01,0-.02.01-.04l.34-.1c.19-.16.56-.84.85-1.62l1.54-4.5c.14-.4.23-.85.28-1.2l1.35-.52,2.16,6.34c.38,1.12.56,1.41.66,1.51l.5.1s0,.02.01.04c0,.04.01.08.01.12h-3.51c0-.06,0-.11.01-.12,0-.01,0-.02.01-.04l.61-.1c.06-.04.1-.11.1-.2,0-.19-.15-.76-.28-1.19l-.27-.83ZM119.46,14.33h2.56l-1.29-3.84-1.28,3.84Z"/>
      <path class="st7" d="M127.92,15.22c0,1.34.11,1.59.56,1.62h.58c.62-.04.97-.39,2.24-2.71h.1c-.04.86-.1,1.57-.15,2.09-.04.3-.06.57-.1.82h-5.76c0-.06,0-.11.01-.12,0-.01,0-.04.01-.05l.54-.09c.12-.1.18-.28.18-1.56v-4.31c0-1.29-.05-1.46-.18-1.56l-.54-.09s-.01-.04-.01-.05c-.01-.01-.01-.06-.01-.12h3.65s-.01.09-.01.12c-.01.01-.01.02-.01.04l-.92.1c-.12.1-.18.27-.18,1.56v4.31Z"/>
      <path class="st7" d="M134.41,9.35c-.15.11-.17.26-.17,1.56v4.31c0,1.3.03,1.45.17,1.56l.6.09s0,.04.01.05c0,.04.01.08.01.12h-3.4c0-.06,0-.11.01-.12,0-.01,0-.04.01-.05l.6-.09c.15-.11.18-.26.18-1.56v-4.31c0-1.3-.03-1.45-.18-1.56l-.6-.09s-.01-.04-.01-.05c-.01-.01-.01-.06-.01-.12h3.4c0,.06-.01.09-.01.12-.01.01-.01.04-.01.05l-.6.09Z"/>
    </g>
    <g>
      <path class="st7" d="M43.66,30.04h-3.62c0-.06,0-.11.01-.12,0-.01,0-.04.01-.05l.55-.09c.12-.1.17-.27.17-1.56v-4.31c0-1.29-.05-1.46-.17-1.56l-.55-.09s-.01-.04-.01-.05c-.01-.01-.01-.06-.01-.12h3.32c2.11,0,4.19,1.01,4.19,3.71s-1.94,4.25-3.89,4.25ZM43.36,22.3l-.79-.02v5.94c0,1.25.14,1.6.79,1.64h.31c1.44,0,1.96-1.42,1.96-3.66,0-2.54-.76-3.85-2.27-3.89Z"/>
      <path class="st7" d="M53.17,24.75l-.02.51c-.01.29-.01.61-.01.81,0,.24,0,.6.01.91l.02.56h-.12s-.36-1.16-.36-1.16c-.16-.2-.4-.27-1.05-.29h-.66s0,1.9,0,1.9c0,1.45.11,1.81.56,1.85h.58c.85,0,1.21-.4,2.37-2.4h.1c-.04.58-.09,1.21-.15,1.72-.04.3-.08.59-.12.88h-5.91c0-.06,0-.11.01-.12,0-.01,0-.04.01-.05l.58-.09c.15-.11.17-.26.17-1.56v-4.31c0-1.3-.02-1.45-.17-1.56l-.56-.09s-.01-.04-.01-.05c-.01-.01-.01-.06-.01-.12h5.95l.08.09c-.04.49-.06,1.02-.11,1.46-.04.26-.06.51-.09.75h-.11c-.47-1.14-.81-1.64-1.2-2l-.62-.05c-.39-.04-.86-.06-1.32-.06v3.64h.66c.66-.02.91-.11,1.07-.3l.34-.87h.12Z"/>
      <path class="st7" d="M58.05,28.22c0,1.34.11,1.59.56,1.62h.58c.62-.04.97-.39,2.24-2.71h.1c-.04.86-.1,1.57-.15,2.09-.04.3-.06.58-.1.83h-5.76c0-.06,0-.11.01-.12,0-.01,0-.04.01-.05l.54-.09c.12-.1.17-.27.17-1.56v-4.31c0-1.29-.05-1.46-.17-1.56l-.54-.09s-.01-.04-.01-.05c-.01-.01-.01-.06-.01-.12h3.65s-.01.09-.01.12c-.01.01-.01.02-.01.04l-.92.1c-.12.1-.17.27-.17,1.56v4.31Z"/>
      <path class="st7" d="M64.73,28.22c0,1.34.11,1.59.56,1.62h.58c.62-.04.97-.39,2.24-2.71h.1c-.04.86-.1,1.57-.15,2.09-.04.3-.06.58-.1.83h-5.76c0-.06,0-.11.01-.12,0-.01,0-.04.01-.05l.54-.09c.12-.1.17-.27.17-1.56v-4.31c0-1.29-.05-1.46-.17-1.56l-.54-.09s-.01-.04-.01-.05c-.01-.01-.01-.06-.01-.12h3.65s-.01.09-.01.12c-.01.01-.01.02-.01.04l-.92.1c-.12.1-.17.27-.17,1.56v4.31Z"/>
      <path class="st7" d="M69.13,25.11c.56-.36.9-.74.94-1.07,0-.26-.14-.36-.6-.6-.35-.16-.54-.26-.54-.51,0-.5.39-1.04.89-1.04.55,0,1.15.45,1.15,1.09,0,.84-.78,1.65-1.78,2.25l-.06-.11Z"/>
      <path class="st7" d="M75.55,27.57h-2.71c-.09.23-.15.45-.21.66-.1.39-.2.82-.2,1.12,0,.14.03.25.09.34l.85.19s0,.02.01.04c0,.04.01.08.01.12h-2.24c0-.06,0-.11.01-.12,0-.01,0-.03.01-.04l.34-.1c.19-.16.56-.84.85-1.62l1.54-4.5c.14-.4.23-.85.28-1.2l1.35-.52,2.16,6.34c.38,1.12.56,1.41.66,1.51l.5.1s0,.02.01.04c0,.04.01.08.01.12h-3.51c0-.06,0-.11.01-.12,0-.01,0-.03.01-.04l.61-.1c.06-.04.1-.11.1-.2,0-.19-.15-.76-.28-1.19l-.27-.83ZM72.91,27.33h2.56l-1.29-3.84-1.28,3.84Z"/>
      <path class="st7" d="M85.92,26.42c0,.54.03,1.45.03,2.21l.02,1.4-.29.1-5.35-6.56.17,4.47c.04,1.16.1,1.45.25,1.54l1.06.3s0,.04.01.05c0,.04.01.06.01.11h-2.81c0-.06,0-.11.01-.12,0-.01,0-.03.01-.04l.74-.25c.17-.14.26-.41.3-1.59l.08-4.66c-.46-.59-.89-1.01-1.04-1.1l-.19-.04s-.01-.03-.01-.04c-.01-.01-.01-.06-.01-.12h2.42l4.44,5.59-.15-3.79c-.04-1.06-.16-1.22-.36-1.39l-1.05-.25s-.01-.03-.01-.04c-.01-.01-.01-.06-.01-.12h2.55s-.01.09-.01.12c-.01.01-.01.02-.01.04l-.57.2c-.16.16-.23.44-.23,2.01v1.96Z"/>
      <path class="st7" d="M94.26,26.42c0,.54.03,1.45.03,2.21l.02,1.4-.29.1-5.35-6.56.17,4.47c.04,1.16.1,1.45.25,1.54l1.06.3s0,.04.01.05c0,.04.01.06.01.11h-2.81c0-.06,0-.11.01-.12,0-.01,0-.03.01-.04l.74-.25c.17-.14.26-.41.3-1.59l.08-4.66c-.46-.59-.89-1.01-1.04-1.1l-.19-.04s-.01-.03-.01-.04c-.01-.01-.01-.06-.01-.12h2.42l4.44,5.59-.15-3.79c-.04-1.06-.16-1.22-.36-1.39l-1.05-.25s-.01-.03-.01-.04c-.01-.01-.01-.06-.01-.12h2.55s-.01.09-.01.12c-.01.01-.01.02-.01.04l-.57.2c-.16.16-.23.44-.23,2.01v1.96Z"/>
      <path class="st7" d="M99.66,30.22c-1.96,0-3.84-1.45-3.84-4.15s1.97-4.16,3.84-4.16c1.99,0,3.81,1.46,3.81,4.01,0,2.74-1.95,4.3-3.81,4.3ZM99.66,22.08c-1.44,0-1.94,2.11-1.94,3.96,0,1.66.49,3.97,1.94,3.97s1.9-2.24,1.9-4.09c0-1.75-.45-3.85-1.9-3.85Z"/>
      <path class="st7" d="M113.25,27.41c-.06.75-.3,2.1-.44,2.64h-3.65c-.7,0-1.2.01-1.5.05l-.04-.16c.3-.26,1.16-1.17,1.7-1.89,1.08-1.37,1.59-2.19,1.59-3.25,0-.84-.57-1.4-1.41-1.4-.65,0-1.11.26-1.52.6l-.06-.11c.3-1.04,1.19-1.9,2.45-1.9s2.38.8,2.38,2.09c0,1.12-.59,1.81-3.02,3.85l-.55.54h3.21c.21-.08.38-.25.79-1.1l.09.05Z"/>
      <path class="st7" d="M117.52,30.17c-1.36,0-2.92-1.34-2.92-4.11s1.54-4.07,2.94-4.07,2.96,1.27,2.96,4.07-1.62,4.11-2.97,4.11ZM117.52,22.16c-.86,0-1.06,1.85-1.06,3.9s.15,3.95,1.09,3.95c.81,0,1.09-1.88,1.09-3.95s-.16-3.9-1.11-3.9Z"/>
      <path class="st7" d="M127.5,27.41c-.06.75-.3,2.1-.44,2.64h-3.65c-.7,0-1.2.01-1.5.05l-.04-.16c.3-.26,1.16-1.17,1.7-1.89,1.08-1.37,1.59-2.19,1.59-3.25,0-.84-.57-1.4-1.41-1.4-.65,0-1.11.26-1.52.6l-.06-.11c.3-1.04,1.19-1.9,2.45-1.9s2.38.8,2.38,2.09c0,1.12-.59,1.81-3.02,3.85l-.55.54h3.21c.21-.08.38-.25.79-1.1l.09.05Z"/>
      <path class="st7" d="M134.54,21.43c-.06.8-.29,2.01-.45,2.49-1.25,0-2.3-.05-3.05-.11l-1.19-.11-.09,1.26-.04.3c.14-.04.3-.06.46-.1.29-.05.7-.1,1.2-.1,1.6,0,3,.77,3,2.39s-1.51,2.75-2.97,2.75-2.37-.28-2.37-.74c0-.49.3-1.05.56-1.21.7.1,1.39,1.5,1.82,1.76.75-.04,1.5-.58,1.5-1.46,0-1.25-.91-1.85-2.2-1.85-.64,0-1.11.12-1.27.21l-.1-.1c.04-.16.06-.35.1-.55.05-.34.1-.79.14-1.27l.21-2.81.08-.05c.25.04.56.07.92.11.64.05,1.58.1,2.91.1.22-.06.35-.21.71-.94l.11.04Z"/>
    </g>
    <g class="st6">
      <path class="st1" d="M91.71,42.89c-.06-.34-.22-.53-.5-.53-.23,0-.39.12-.39.34,0,.66,1.65.93,1.65,2.19,0,.76-.52,1.14-1.24,1.14-.77,0-1.21-.44-1.35-1.18l.77-.21c.06.36.18.67.58.67.23,0,.39-.13.39-.37,0-.73-1.65-1.01-1.65-2.16,0-.67.52-1.13,1.18-1.13s1.16.47,1.29,1.13l-.75.13Z"/>
      <path class="st1" d="M93.3,45.08v-2.64h-.49v-.72h.49v-1.14h.88v1.14h.59v.72h-.59v2.44c0,.22.09.35.3.35h.29v.76c-.12.03-.22.05-.44.05-.66,0-1.03-.31-1.03-.95"/>
      <path class="st1" d="M97.07,43.8c-.8.46-1,.75-1,1.12,0,.28.14.39.41.39.24,0,.44-.18.59-.39v-1.11ZM95.25,42.96c.05-.86.59-1.32,1.42-1.32s1.28.38,1.28,1.15v2.72c0,.13.03.31.06.45h-.84c0-.12-.04-.23-.05-.33-.33.27-.61.41-1.03.41-.6,0-.9-.41-.9-.95,0-.93.61-1.44,1.88-1.92v-.25c0-.35-.14-.54-.43-.54-.4,0-.49.24-.5.6h-.88Z"/>
      <path class="st1" d="M98.99,45.08v-2.64h-.49v-.72h.49v-1.14h.88v1.14h.59v.72h-.59v2.44c0,.22.09.35.3.35h.29v.76c-.12.03-.22.05-.44.05-.66,0-1.03-.31-1.03-.95"/>
      <path class="st1" d="M101.04,45.95h.88v-4.23h-.88v4.23ZM101.04,41.37h.88v-.8h-.88v.8Z"/>
      <path class="st1" d="M104.39,42.89c-.06-.34-.22-.53-.5-.53-.23,0-.39.12-.39.34,0,.66,1.65.93,1.65,2.19,0,.76-.52,1.14-1.24,1.14-.77,0-1.21-.44-1.35-1.18l.77-.21c.06.36.18.67.58.67.23,0,.39-.13.39-.37,0-.73-1.65-1.01-1.65-2.16,0-.67.52-1.13,1.18-1.13s1.16.47,1.29,1.13l-.75.13Z"/>
      <path class="st1" d="M105.98,45.08v-2.64h-.49v-.72h.49v-1.14h.88v1.14h.59v.72h-.59v2.44c0,.22.09.35.3.35h.29v.76c-.12.03-.22.05-.44.05-.66,0-1.03-.31-1.03-.95"/>
      <path class="st1" d="M109.75,43.8c-.8.46-1,.75-1,1.12,0,.28.14.39.41.39.24,0,.44-.18.59-.39v-1.11ZM107.94,42.96c.05-.86.59-1.32,1.42-1.32s1.28.38,1.28,1.15v2.72c0,.13.03.31.06.45h-.84c0-.12-.04-.23-.05-.33-.33.27-.61.41-1.03.41-.6,0-.9-.41-.9-.95,0-.93.61-1.44,1.88-1.92v-.25c0-.35-.14-.54-.43-.54-.4,0-.49.24-.5.6h-.88Z"/>
      <path class="st1" d="M116.58,42.58c-.44.23-.76.69-.76.69-.08.12-.17.25-.2.29-.03.04-.06.08-.07.09,0,0-.04.06-.06.09-.02.03-.1.15-.19.27,0,0-.5.72-1.2,1.08-.73.38-1.68.36-1.76.35v.39c0,.1.08.19.19.19h5.08c.11,0,.19-.09.19-.19v-3.46s-.03,0-.05,0c0,0-.82.02-1.18.2M117.62,40.57h-5.08c-.11,0-.19.09-.19.19v3.46s.02,0,.03,0c0,0,.82-.02,1.17-.2.44-.23.76-.69.76-.69.08-.12.17-.25.2-.29.03-.04.06-.08.07-.09,0,0,.04-.06.06-.09.02-.03.1-.15.19-.27,0,0,.5-.72,1.2-1.08.76-.4,1.77-.35,1.77-.35,0,0,.01,0,.02,0v-.4c0-.1-.08-.19-.19-.19"/>
      <path class="st1" d="M56.14,37.32s0-.01,0-.04h-.66s0,.04,0,.04l.1.02s.03.06.03.28v.75c0,.22,0,.26-.03.28l-.1.02s0,.01,0,.05h.66s0-.05,0-.05l-.1-.02s-.03-.06-.03-.28v-.75c0-.22,0-.26.03-.28l.1-.02ZM56.69,38.65s-.02-.03-.02-.16v-.94c0-.17.01-.4.01-.4h-.04c-.21,0-.42.07-.42.07,0,0,0,.01,0,.03l.06.02s.03.04.03.19v1.04c0,.14,0,.15-.02.16l-.06.02s0,.02,0,.04h.54s0-.04,0-.04l-.06-.02ZM57.63,37.24c-.28,0-.53.18-.53.44,0,.21.13.34.42.45.23.09.35.15.35.29,0,.17-.11.25-.27.25-.06,0-.12,0-.18-.03-.11-.14-.2-.27-.28-.43h-.04c0,.17.01.28.04.46.17.03.33.05.46.05.31,0,.55-.17.55-.47,0-.25-.14-.35-.41-.46-.29-.12-.37-.17-.37-.3s.1-.21.24-.21c.06,0,.12,0,.17.02.11.1.2.22.27.38h.04c0-.15-.01-.31-.02-.4h-.01c-.09-.03-.31-.05-.44-.05M58.22,38.16c0,.35.25.57.52.57s.55-.23.55-.59-.23-.57-.52-.57c-.31,0-.56.26-.56.58M58.6,38.13c0-.24.03-.5.15-.5.13,0,.16.28.16.55,0,.24-.01.51-.14.51-.14,0-.17-.28-.17-.55M59.81,38.65s-.02-.03-.02-.16v-.94c0-.17.01-.4.01-.4h-.04c-.21,0-.42.07-.42.07,0,0,0,.01,0,.03l.06.02s.02.04.02.19v1.04c0,.14,0,.15-.02.16l-.06.02s0,.02,0,.04h.54s0-.04,0-.04l-.06-.02ZM59.91,38.18c0,.32.22.55.51.55.23,0,.35-.1.43-.27v-.02c-.08.02-.16.03-.26.03-.22,0-.33-.2-.33-.41,0-.02,0-.04,0-.04.18,0,.34.01.51.01.02,0,.04,0,.05-.01.02-.02.03-.06.03-.12,0-.23-.21-.32-.44-.32-.26,0-.5.24-.5.61M60.26,37.96c0-.21.05-.35.13-.35.07,0,.11.07.11.19,0,.1-.01.16-.04.17h-.18s-.02,0-.02,0"/>
      <path class="st1" d="M61.5,42.82l-.53.94h.53v-.94ZM61.5,40.91h.08v2.91h-1.68v-.04c.34-.49.51-.77.8-1.28.35-.61.52-.96.81-1.6h0ZM63.7,43.83h-.82v-4.13c-.27.06-.43.08-.72.09h-.05c-.23,0-.37-.01-.6-.06-.17.89-.34,1.4-.76,2.22-.39.77-.67,1.17-1.24,1.82v.31h2.07v.7c-.06.14-.12.22-.24.3-.15.11-.28.12-.45.12v.19h2.81v-.23h-.22c-.16,0-.27,0-.4-.11-.11-.09-.16-.17-.18-.3v-.7h.82v-.23ZM62.91,39.61h.05s.73.7.73.7v3.33l.09.11h0s.04.05.04.05l.64.77v.3h-.58v.31l.56.73v.34h-2.83l-.81-.78v-.33h.04c.2,0,.31,0,.45-.11.07-.05.11-.09.15-.14h-1.29l-.71-.74h0v-.41h.01c.57-.65.85-1.06,1.24-1.82.42-.83.59-1.33.76-2.24v-.04s.04,0,.04,0c.25.05.39.07.63.07h.05c.29,0,.46-.02.75-.1M58.75,43.83h-.2c-.02.13-.07.21-.18.3-.13.1-.23.1-.41.09h-1.05l.12-.07c1.07-.58,1.68-1.46,1.7-2.41,0-.7-.19-1.29-.58-1.67-.29-.29-.68-.44-1.15-.44h-.02c-.38,0-.7.14-.97.4-.43.43-.57,1.08-.56,1.55.01.7.47,1.13.89,1.13.37,0,.62-.31.68-.83.06-.53-.06-.78-.17-.9-.08-.08-.18-.13-.29-.13-.19,0-.4.13-.57.34l-.03.05-.03-.05c-.11-.2-.08-.59.09-.85.1-.15.27-.34.57-.34h.02c.15,0,.27.06.37.17.41.47.3,1.81.19,2.57-.13.99-.76,1.81-1.8,2.39v.26h3.37v-1.57ZM58.91,43.88l.65.73v1.68h-3.63l-.62-.81v-.38h.02c.73-.41,1.25-.93,1.54-1.54-.42-.16-.7-.4-.99-.8-.1-.14-.19-.28-.25-.41-.13-.2-.22-.46-.23-.76,0-.48.14-1.16.58-1.6.27-.28.62-.42,1.02-.42h.02c.15,0,.3.02.43.05.97.09,1.67.64,1.93,1.53.26.88.32,1.86-.47,2.75M67.58,39.86c-.23,0-.42.2-.42.44v4.5c0,.24.19.44.42.44s.42-.2.42-.44v-4.5c0-.24-.19-.44-.42-.44M69.54,42.56c0-1.68-.89-3.04-1.97-3.04s-1.97,1.36-1.97,3.04.89,3.04,1.97,3.04,1.97-1.36,1.97-3.04M68.36,46.32c-.95,0-1.78-.63-2.29-1.63-.34-.56-.55-1.3-.55-2.12,0-1.71.92-3.11,2.05-3.11.22,0,.43.05.62.15,1.1.43,2.14,1.9,2.16,3.3.12,1.52-.56,3.42-1.99,3.42M72.26,39.95v2.4c.3,0,.52,0,.68-.14.15-.12.19-.28.21-.49v-1.14c-.02-.16-.05-.37-.18-.5-.16-.16-.46-.13-.71-.13M75.02,45.22h0c-.16,0-.28-.05-.39-.17-.12-.13-.12-.24-.11-.41v-1.14c-.04-.22-.09-.35-.24-.53-.17-.21-.31-.31-.56-.4l-.08-.03.08-.04c.58-.27.91-.61.89-1.49-.02-.83-.61-1.32-1.18-1.38h-3.1v.2s.04,0,.06,0c.2,0,.34.06.45.19.08.1.08.18.09.28,0,.05,0,.1.01.15v4s0,.05,0,.07c-.01.14-.02.27-.12.4-.12.15-.25.22-.43.24v.18h2.43v-.19c-.2,0-.34-.07-.46-.23-.11-.15-.11-.28-.11-.44v-1.88h.11s.08,0,.08,0c.19,0,.4.01.53.14.13.13.16.32.18.47v1.42c-.01.17.02.27.12.42.11.16.21.25.4.32h1.37v-.16ZM75.34,44.02v1.28l.42.57v.33h-1.34l-.85-.32v.29h-2.56l-.72-.74h0v-.32h.03c.19-.02.3-.08.41-.22.09-.11.1-.22.11-.36,0-.02,0-.05,0-.07v-3.78l-.61-.77v-.35h3.18c.12.01.24.04.35.08.85.19,1.45.84,1.55,1.71.07.67-.12,1.16-.64,1.63.21.15.31.26.44.48.12.2.17.32.21.55M79.42,43.81h-.14c-.03.38-.15.63-.43.91-.31.31-.63.44-1.04.44-.05,0-.1,0-.16,0h-.03v-2.5h.04c.07,0,.14,0,.2,0,.17,0,.3,0,.42.1.12.1.17.19.19.34v.49h.26v-1.99h-.2v.22c-.01.17-.06.27-.18.39-.15.16-.33.17-.51.17h-.09s-.06,0-.1,0h-.04v-2.45h.03c.4-.03.66.05.98.3.38.29.55.63.54,1.1h.23v-1.64h-3.69v.19c.19,0,.34.07.46.22.11.13.11.23.13.38v.06s0,4.04,0,4.04c0,.19-.05.33-.19.46-.12.11-.22.15-.37.17v.18h3.67v-1.56ZM78.49,43.65h-.07v1.29c.13-.07.25-.16.37-.28.1-.1.17-.19.23-.28-.11-.14-.39-.5-.53-.73M80.23,44.46v1.77h-3.82l-.75-.79v-.32h.04c.15-.01.25-.05.36-.15.13-.12.18-.23.17-.41v-3.89l-.59-.74v-.34h3.84l.74.79v1.79h-.4l-.73-.73s-.01-.45-.21-.61c-.21-.17-.45-.16-.45-.16v.81h.33l.78.89v1.46l.7.62Z"/>
    </g>
  </g>
</svg>
