<?xml version="1.0" encoding="UTF-8" standalone="no"?>
<!-- Created with Inkscape (http://www.inkscape.org/) -->

<svg
   version="1.1"
   id="svg3668"
   width="188.97598"
   height="73.700798"
   viewBox="0 0 188.97598 73.700798"
   xmlns="http://www.w3.org/2000/svg"
   xmlns:svg="http://www.w3.org/2000/svg">
  <defs
     id="defs3672">
    <linearGradient
       x1="-0.56453061"
       y1="-0.74969858"
       x2="1"
       y2="0.61994541"
       gradientUnits="userSpaceOnUse"
       gradientTransform="matrix(61.331298,0,0,61.3313,70.865995,27.6378)"
       spreadMethod="pad"
       id="linearGradient3700">
      <stop
         style="stop-opacity:1;stop-color:#86704b"
         offset="0"
         id="stop3688" />
      <stop
         style="stop-opacity:1;stop-color:#e0bc74"
         offset="0.2617261"
         id="stop3690" />
      <stop
         style="stop-opacity:1;stop-color:#86704b"
         offset="0.4854544"
         id="stop3692" />
      <stop
         style="stop-opacity:1;stop-color:#e0bc74"
         offset="0.8016355"
         id="stop3694" />
      <stop
         style="stop-opacity:1;stop-color:#86704b"
         offset="0.9750008"
         id="stop3696" />
      <stop
         style="stop-opacity:1;stop-color:#86704b"
         offset="1"
         id="stop3698" />
    </linearGradient>
    <linearGradient
       x1="-0.4843356"
       y1="-0.1164807"
       x2="1"
       y2="-0.1164807"
       gradientUnits="userSpaceOnUse"
       gradientTransform="matrix(64.292186,0,0,64.292187,70.865995,27.6378)"
       spreadMethod="pad"
       id="linearGradient3790">
      <stop
         style="stop-opacity:1;stop-color:#86704b"
         offset="0"
         id="stop3780" />
      <stop
         style="stop-opacity:1;stop-color:#e0bc74"
         offset="0.213636"
         id="stop3782" />
      <stop
         style="stop-opacity:1;stop-color:#b9955c"
         offset="0.5086348"
         id="stop3784" />
      <stop
         style="stop-opacity:1;stop-color:#e0bc74"
         offset="0.7909077"
         id="stop3786" />
      <stop
         style="stop-opacity:1;stop-color:#957d54"
         offset="1"
         id="stop3788" />
    </linearGradient>
    <linearGradient
       x1="-1"
       y1="-0.36063921"
       x2="0.99755239"
       y2="-0.36063921"
       gradientUnits="userSpaceOnUse"
       gradientTransform="matrix(68.498281,0,0,68.498283,70.865995,27.6378)"
       spreadMethod="pad"
       id="linearGradient3866">
      <stop
         style="stop-opacity:1;stop-color:#e0bc74"
         offset="0"
         id="stop3852" />
      <stop
         style="stop-opacity:1;stop-color:#e0bc74"
         offset="0.0114545"
         id="stop3854" />
      <stop
         style="stop-opacity:1;stop-color:#957d54"
         offset="0.3199552"
         id="stop3856" />
      <stop
         style="stop-opacity:1;stop-color:#b9955c"
         offset="0.4913653"
         id="stop3858" />
      <stop
         style="stop-opacity:1;stop-color:#86704b"
         offset="0.7285924"
         id="stop3860" />
      <stop
         style="stop-opacity:1;stop-color:#e0bc74"
         offset="0.9660909"
         id="stop3862" />
      <stop
         style="stop-opacity:1;stop-color:#e0bc74"
         offset="1"
         id="stop3864" />
    </linearGradient>
  </defs>
  <g
     id="g3676"
     transform="matrix(1.3333333,0,0,-1.3333333,0,73.7008)">
    <g
       id="g3678">
      <g
         id="g3680">
        <g
           id="g3686">
          <path
             d="M 0,0 H 141.73199 V 55.275 H 0 Z"
             style="fill:url(#linearGradient3700);stroke:none"
             id="path3702" />
        </g>
      </g>
    </g>
    <g
       id="g3704">
      <g
         id="g3706"
         transform="translate(100.763,8.665)">
        <path
           d="M 1.818,3.141 C 1.755,3.479 1.597,3.668 1.314,3.668 1.086,3.668 0.929,3.55 0.929,3.33 0.929,2.669 2.582,2.401 2.582,1.142 2.582,0.386 2.062,0 1.346,0 0.574,0 0.133,0.441 0,1.181 l 0.771,0.213 c 0.055,-0.355 0.181,-0.67 0.582,-0.67 0.229,0 0.394,0.134 0.394,0.37 0,0.732 -1.653,1.008 -1.653,2.165 0,0.669 0.52,1.134 1.181,1.134 0.692,0 1.157,-0.465 1.291,-1.126 z"
           style="fill:#231f20;fill-opacity:1;fill-rule:nonzero;stroke:none"
           id="path3708" />
      </g>
    </g>
    <g
       id="g3710">
      <g
         id="g3712"
         transform="translate(103.6909,8.6657)">
        <path
           d="M 0.488,0.952 V 3.589 H 0 V 4.313 H 0.488 V 5.455 H 1.37 V 4.313 H 1.96 V 3.589 H 1.37 v -2.44 c 0,-0.22 0.094,-0.346 0.299,-0.346 H 1.96 V 0.047 C 1.842,0.015 1.74,0 1.519,0 0.858,0 0.488,0.307 0.488,0.952 Z"
           style="fill:#231f20;fill-opacity:1;fill-rule:nonzero;stroke:none"
           id="path3714" />
      </g>
    </g>
    <g
       id="g3716">
      <g
         id="g3718"
         transform="translate(106.06778,8.6652)">
        <path
           d="M 0.063,3.07 C 0.11,3.928 0.654,4.392 1.48,4.392 2.299,4.392 2.763,4.014 2.763,3.243 V 0.527 C 2.763,0.394 2.795,0.22 2.818,0.079 H 1.976 C 1.968,0.197 1.937,0.307 1.929,0.409 1.598,0.142 1.323,0 0.897,0 0.299,0 0,0.409 0,0.952 0,1.881 0.614,2.393 1.881,2.873 V 3.125 C 1.881,3.479 1.74,3.668 1.449,3.668 1.047,3.668 0.961,3.432 0.945,3.07 Z M 1.881,2.228 C 1.079,1.771 0.882,1.48 0.882,1.11 c 0,-0.276 0.141,-0.386 0.409,-0.386 0.244,0 0.441,0.181 0.59,0.394 z"
           style="fill:#231f20;fill-opacity:1;fill-rule:nonzero;stroke:none"
           id="path3720" />
      </g>
    </g>
    <g
       id="g3722">
      <g
         id="g3724"
         transform="translate(109.3737,8.6657)">
        <path
           d="M 0.488,0.952 V 3.589 H 0 V 4.313 H 0.488 V 5.455 H 1.37 V 4.313 H 1.96 V 3.589 H 1.37 v -2.44 c 0,-0.22 0.094,-0.346 0.299,-0.346 H 1.96 V 0.047 C 1.842,0.015 1.74,0 1.519,0 0.858,0 0.488,0.307 0.488,0.952 Z"
           style="fill:#231f20;fill-opacity:1;fill-rule:nonzero;stroke:none"
           id="path3726" />
      </g>
    </g>
    <g
       id="g3728">
      <g
         id="g3730"
         transform="translate(111.916,8.744)">
        <path
           d="M 0,4.584 H 0.882 V 5.387 H 0 Z M 0,0 H 0.882 V 4.234 H 0 Z"
           style="fill:#231f20;fill-opacity:1;fill-rule:nonzero;stroke:none"
           id="path3732" />
      </g>
    </g>
    <g
       id="g3734">
      <g
         id="g3736"
         transform="translate(113.4429,8.665)">
        <path
           d="M 1.819,3.141 C 1.756,3.479 1.598,3.668 1.315,3.668 1.087,3.668 0.929,3.55 0.929,3.33 0.929,2.669 2.582,2.401 2.582,1.142 2.582,0.386 2.063,0 1.346,0 0.575,0 0.134,0.441 0,1.181 l 0.772,0.213 c 0.055,-0.355 0.181,-0.67 0.582,-0.67 0.229,0 0.394,0.134 0.394,0.37 0,0.732 -1.653,1.008 -1.653,2.165 0,0.669 0.519,1.134 1.181,1.134 0.693,0 1.157,-0.465 1.291,-1.126 z"
           style="fill:#231f20;fill-opacity:1;fill-rule:nonzero;stroke:none"
           id="path3738" />
      </g>
    </g>
    <g
       id="g3740">
      <g
         id="g3742"
         transform="translate(116.37159,8.6657)">
        <path
           d="M 0.488,0.952 V 3.589 H 0 V 4.313 H 0.488 V 5.455 H 1.37 V 4.313 H 1.96 V 3.589 H 1.37 v -2.44 c 0,-0.22 0.094,-0.346 0.299,-0.346 H 1.96 V 0.047 C 1.842,0.015 1.74,0 1.519,0 0.858,0 0.488,0.307 0.488,0.952 Z"
           style="fill:#231f20;fill-opacity:1;fill-rule:nonzero;stroke:none"
           id="path3744" />
      </g>
    </g>
    <g
       id="g3746">
      <g
         id="g3748"
         transform="translate(118.74878,8.6652)">
        <path
           d="m 0.063,3.07 c 0.047,0.858 0.59,1.322 1.417,1.322 0.819,0 1.283,-0.378 1.283,-1.149 V 0.527 C 2.763,0.394 2.794,0.22 2.818,0.079 H 1.976 C 1.968,0.197 1.936,0.307 1.929,0.409 1.598,0.142 1.322,0 0.897,0 0.299,0 0,0.409 0,0.952 0,1.881 0.614,2.393 1.881,2.873 V 3.125 C 1.881,3.479 1.74,3.668 1.448,3.668 1.047,3.668 0.96,3.432 0.945,3.07 Z M 1.881,2.228 C 1.078,1.771 0.882,1.48 0.882,1.11 c 0,-0.276 0.141,-0.386 0.409,-0.386 0.244,0 0.441,0.181 0.59,0.394 z"
           style="fill:#231f20;fill-opacity:1;fill-rule:nonzero;stroke:none"
           id="path3750" />
      </g>
    </g>
    <g
       id="g3752">
      <g
         id="g3754"
         transform="translate(123.2237,8.6654)">
        <path
           d="M 5.269,5.46 H 0.191 C 0.085,5.46 0,5.374 0,5.269 v -3.46 c 0.009,0.001 0.018,0.002 0.028,0.002 0,0 0.822,0.016 1.175,0.2 0.436,0.226 0.76,0.694 0.76,0.694 0.082,0.12 0.173,0.251 0.202,0.292 0.029,0.042 0.059,0.083 0.066,0.093 0.008,0.009 0.042,0.057 0.062,0.086 0.019,0.028 0.103,0.149 0.186,0.268 0,0 0.495,0.716 1.197,1.08 0.761,0.396 1.768,0.352 1.768,0.352 0.006,0 0.011,-0.001 0.016,-0.002 V 5.269 C 5.46,5.374 5.375,5.46 5.269,5.46 M 4.235,3.449 C 3.799,3.223 3.475,2.755 3.475,2.755 3.393,2.635 3.302,2.504 3.273,2.463 3.244,2.421 3.215,2.38 3.207,2.37 3.2,2.361 3.165,2.313 3.146,2.284 3.126,2.255 3.042,2.134 2.959,2.015 2.959,2.015 2.464,1.3 1.762,0.936 1.033,0.557 0.078,0.581 0,0.584 V 0.191 C 0,0.086 0.085,0 0.191,0 H 5.269 C 5.375,0 5.46,0.086 5.46,0.191 V 3.655 C 5.444,3.651 5.427,3.649 5.411,3.649 c 0,0 -0.823,-0.016 -1.176,-0.2"
           style="fill:#231f20;fill-opacity:1;fill-rule:nonzero;stroke:none"
           id="path3756" />
      </g>
    </g>
    <g
       id="g3758">
      <g
         id="g3760"
         transform="translate(49.3304,15.9594)">
        <path
           d="m 4.783,0.771 c 0,0.21 0.051,0.346 0.134,0.346 0.074,0 0.107,-0.067 0.107,-0.19 0,-0.098 -0.015,-0.156 -0.042,-0.165 L 4.801,0.755 C 4.787,0.755 4.783,0.76 4.783,0.771 M 4.428,0.552 c 0,-0.317 0.223,-0.548 0.514,-0.548 0.23,0 0.346,0.099 0.433,0.275 L 5.364,0.302 C 5.29,0.279 5.214,0.268 5.118,0.268 c -0.217,0 -0.335,0.204 -0.335,0.411 0,0.016 0.002,0.038 0.002,0.038 0.177,0 0.342,-0.011 0.514,-0.011 0.02,0 0.036,0.005 0.049,0.014 0.018,0.02 0.025,0.062 0.025,0.116 0,0.228 -0.208,0.322 -0.442,0.322 -0.257,0 -0.503,-0.244 -0.503,-0.606 M 4.336,0.085 C 4.318,0.096 4.314,0.114 4.314,0.244 v 0.945 c 0,0.172 0.013,0.404 0.013,0.404 L 4.285,1.598 C 4.072,1.587 3.86,1.524 3.86,1.524 c 0,0 -0.004,-0.013 -0.004,-0.033 L 3.914,1.473 C 3.932,1.455 3.938,1.437 3.938,1.283 V 0.244 C 3.938,0.107 3.934,0.096 3.916,0.085 L 3.858,0.069 c 0,0 -0.005,-0.018 -0.005,-0.04 h 0.544 c 0,0.022 -0.005,0.04 -0.005,0.04 z m -1.21,0.523 c 0,0.239 0.029,0.503 0.152,0.503 0.13,0 0.159,-0.28 0.159,-0.546 0,-0.237 -0.014,-0.509 -0.141,-0.509 -0.141,0 -0.17,0.284 -0.17,0.552 M 2.742,0.574 c 0,-0.353 0.25,-0.57 0.523,-0.57 0.286,0 0.554,0.228 0.554,0.586 0,0.349 -0.23,0.568 -0.519,0.568 -0.306,0 -0.558,-0.257 -0.558,-0.584 M 2.151,1.491 C 1.87,1.491 1.624,1.307 1.624,1.05 1.624,0.836 1.751,0.706 2.048,0.597 2.281,0.512 2.395,0.451 2.395,0.304 2.395,0.136 2.283,0.051 2.127,0.051 2.064,0.051 2.01,0.056 1.946,0.078 1.836,0.214 1.744,0.346 1.668,0.507 L 1.624,0.501 C 1.624,0.337 1.637,0.223 1.66,0.045 1.825,0.011 1.992,0 2.124,0 c 0.313,0 0.55,0.168 0.55,0.467 0,0.246 -0.138,0.346 -0.409,0.458 -0.286,0.116 -0.366,0.17 -0.366,0.304 0,0.134 0.098,0.213 0.245,0.213 0.065,0 0.115,-0.007 0.17,-0.023 0.108,-0.1 0.197,-0.223 0.273,-0.378 L 2.629,1.044 C 2.627,1.193 2.618,1.35 2.607,1.444 L 2.596,1.457 C 2.504,1.473 2.29,1.491 2.151,1.491 M 1.208,0.085 C 1.19,0.096 1.185,0.114 1.185,0.244 v 0.945 c 0,0.172 0.014,0.404 0.014,0.404 L 1.156,1.598 C 0.944,1.587 0.732,1.524 0.732,1.524 c 0,0 -0.005,-0.013 -0.005,-0.033 L 0.785,1.473 C 0.803,1.455 0.81,1.437 0.81,1.283 V 0.244 C 0.81,0.107 0.805,0.096 0.788,0.085 L 0.729,0.069 c 0,0 -0.004,-0.018 -0.004,-0.04 h 0.543 c 0,0.022 -0.004,0.04 -0.004,0.04 z m -0.549,1.33 c 0,0 0.005,0.013 0.005,0.044 H 0 C 0,1.428 0.004,1.415 0.004,1.415 L 0.107,1.397 C 0.132,1.374 0.138,1.341 0.138,1.117 V 0.371 C 0.138,0.147 0.132,0.114 0.107,0.092 L 0.004,0.074 C 0.004,0.074 0,0.06 0,0.029 h 0.664 c 0,0.031 -0.005,0.045 -0.005,0.045 L 0.556,0.092 C 0.532,0.114 0.525,0.147 0.525,0.371 v 0.746 c 0,0.224 0.007,0.257 0.031,0.28 z"
           style="fill:#231f20;fill-opacity:1;fill-rule:nonzero;stroke:none"
           id="path3762" />
      </g>
    </g>
    <g
       id="g3764">
      <g
         id="g3766"
         transform="translate(49.1587,8.3747)">
        <path
           d="M 24.922,1.86 V 0.089 H 21.107 L 20.361,0.88 v 0.317 h 0.036 c 0.153,0.01 0.247,0.049 0.357,0.152 0.129,0.12 0.177,0.233 0.17,0.408 v 3.888 l -0.592,0.741 v 0.335 h 3.838 l 0.737,-0.788 v -1.79 h -0.395 l -0.727,0.726 c 0,0 -0.015,0.451 -0.215,0.612 -0.207,0.166 -0.455,0.158 -0.455,0.158 l 0.008,-0.814 h 0.319 L 24.224,3.939 V 2.476 Z M 23.186,2.666 H 23.115 V 1.378 c 0.128,0.066 0.249,0.157 0.371,0.275 0.097,0.097 0.173,0.187 0.233,0.283 -0.113,0.141 -0.393,0.496 -0.533,0.73 M 24.111,2.507 H 23.97 C 23.939,2.126 23.821,1.879 23.537,1.602 23.222,1.295 22.911,1.164 22.495,1.164 c -0.05,0 -0.101,0.002 -0.157,0.006 l -0.033,0.001 v 2.501 l 0.039,-0.001 c 0.07,-0.006 0.136,-0.003 0.196,-0.002 0.17,0.005 0.304,0.003 0.419,-0.096 0.116,-0.102 0.169,-0.194 0.194,-0.339 V 2.739 h 0.26 V 4.73 H 23.214 V 4.505 C 23.2,4.34 23.153,4.236 23.036,4.118 22.881,3.956 22.707,3.944 22.526,3.944 H 22.44 C 22.409,3.947 22.375,3.947 22.343,3.947 H 22.305 V 6.4 l 0.034,0.002 c 0.4,0.023 0.663,-0.057 0.983,-0.298 0.383,-0.294 0.551,-0.633 0.545,-1.097 h 0.229 V 6.649 H 20.405 V 6.461 c 0.194,0 0.336,-0.067 0.462,-0.217 0.107,-0.127 0.115,-0.234 0.126,-0.382 l 0.004,-0.06 V 1.757 C 21.006,1.567 20.949,1.43 20.804,1.296 20.689,1.19 20.587,1.143 20.437,1.13 V 0.951 h 3.674 z M 20.035,2.297 V 1.018 L 20.459,0.451 V 0.117 H 19.123 L 18.274,0.435 V 0.145 H 15.713 L 14.99,0.88 h -0.002 v 0.316 l 0.034,0.001 c 0.185,0.017 0.301,0.078 0.414,0.22 0.092,0.115 0.099,0.222 0.108,0.358 10e-4,0.024 0.002,0.048 0.006,0.075 V 5.633 L 14.943,6.4 v 0.35 h 3.178 C 18.239,6.739 18.358,6.711 18.473,6.666 19.319,6.478 19.928,5.823 20.019,4.956 20.09,4.283 19.898,3.792 19.381,3.328 19.587,3.176 19.69,3.064 19.821,2.848 19.943,2.65 19.992,2.523 20.035,2.297 Z M 19.709,1.098 h -0.001 c -0.156,0 -0.276,0.052 -0.385,0.171 -0.116,0.129 -0.116,0.238 -0.114,0.406 v 1.144 c -0.035,0.219 -0.093,0.35 -0.236,0.531 -0.165,0.206 -0.305,0.308 -0.559,0.395 l -0.084,0.028 0.08,0.038 c 0.58,0.275 0.912,0.607 0.89,1.493 -0.022,0.831 -0.612,1.321 -1.182,1.376 L 15.017,6.679 V 6.476 c 0.018,0 0.036,0.002 0.056,0.002 0.204,0 0.344,-0.059 0.452,-0.191 0.08,-0.099 0.083,-0.183 0.086,-0.283 0.002,-0.045 0.003,-0.096 0.012,-0.155 V 1.845 C 15.621,1.818 15.621,1.793 15.618,1.771 15.608,1.628 15.599,1.506 15.495,1.373 15.375,1.223 15.249,1.152 15.063,1.13 V 0.951 h 2.43 v 0.19 C 17.297,1.145 17.154,1.216 17.029,1.374 16.916,1.52 16.916,1.651 16.916,1.818 v 1.88 l 0.115,0.003 h 0.082 c 0.187,0 0.401,-0.014 0.53,-0.142 0.133,-0.134 0.159,-0.321 0.18,-0.469 L 17.81,1.671 c 0.003,-0.17 0.034,-0.27 0.129,-0.417 0.111,-0.165 0.213,-0.246 0.401,-0.317 h 1.369 z M 16.953,6.366 V 3.968 c 0.304,0 0.516,-0.005 0.683,0.135 0.149,0.121 0.192,0.285 0.213,0.488 V 5.728 C 17.828,5.885 17.802,6.095 17.667,6.232 17.508,6.393 17.212,6.366 16.953,6.366 M 13.052,0 c -0.949,0 -1.782,0.627 -2.292,1.634 -0.342,0.555 -0.553,1.301 -0.553,2.123 0,1.714 0.917,3.111 2.047,3.111 0.217,0 0.427,-0.053 0.624,-0.148 C 13.974,6.289 15.013,4.817 15.041,3.424 15.162,1.904 14.48,0 13.052,0 m 1.177,3.757 c 0,1.675 -0.886,3.037 -1.975,3.037 -1.088,0 -1.973,-1.362 -1.973,-3.037 0,-1.675 0.885,-3.038 1.973,-3.038 1.089,0 1.975,1.363 1.975,3.038 M 12.268,6.458 C 12.037,6.458 11.85,6.26 11.85,6.016 V 1.518 c 0,-0.244 0.187,-0.443 0.418,-0.443 0.23,0 0.416,0.199 0.416,0.443 v 4.498 c 0,0.244 -0.186,0.442 -0.416,0.442 M 3.604,2.442 4.257,1.715 V 0.036 H 0.622 L 0,0.85 v 0.377 l 0.02,0.01 C 0.749,1.635 1.269,2.154 1.561,2.764 1.137,2.921 0.862,3.163 0.569,3.561 0.465,3.701 0.383,3.838 0.319,3.974 0.186,4.173 0.097,4.43 0.091,4.737 0.082,5.221 0.232,5.896 0.675,6.34 0.949,6.617 1.291,6.759 1.692,6.762 H 1.71 C 1.862,6.762 2.007,6.746 2.142,6.715 3.111,6.625 3.812,6.074 4.075,5.188 4.337,4.309 4.393,3.328 3.604,2.442 M 3.446,2.493 H 3.244 C 3.226,2.367 3.174,2.28 3.067,2.195 2.935,2.092 2.833,2.092 2.662,2.101 H 1.61 L 1.735,2.168 C 2.801,2.745 3.417,3.623 3.431,4.58 3.441,5.28 3.237,5.872 2.856,6.247 2.561,6.54 2.175,6.689 1.71,6.689 H 1.694 C 1.311,6.685 0.989,6.552 0.727,6.291 0.301,5.862 0.158,5.208 0.165,4.739 0.178,4.038 0.634,3.605 1.052,3.605 c 0.367,0 0.621,0.312 0.679,0.83 C 1.789,4.966 1.671,5.219 1.563,5.336 1.486,5.419 1.386,5.464 1.274,5.464 1.08,5.464 0.869,5.336 0.707,5.124 L 0.672,5.077 0.644,5.128 C 0.53,5.332 0.569,5.714 0.731,5.978 0.826,6.13 0.999,6.315 1.299,6.315 H 1.315 C 1.46,6.312 1.583,6.253 1.683,6.142 2.094,5.672 1.981,4.329 1.877,3.571 1.744,2.584 1.121,1.761 0.074,1.185 V 0.923 H 3.446 Z M 7.603,6.706 7.649,6.719 8.379,6.005 V 2.672 L 8.465,2.566 H 8.469 V 2.561 L 8.509,2.514 9.145,1.743 V 1.439 H 8.568 V 1.133 L 9.13,0.407 V 0.065 H 6.3 L 5.495,0.85 v 0.334 h 0.038 c 0.199,0 0.308,0.01 0.448,0.109 0.065,0.046 0.111,0.089 0.147,0.139 H 4.84 L 4.126,2.174 h 0.003 v 0.41 L 4.14,2.596 c 0.574,0.642 0.852,1.048 1.238,1.81 0.42,0.829 0.59,1.332 0.757,2.242 L 6.141,6.685 6.178,6.678 C 6.425,6.627 6.571,6.611 6.804,6.611 h 0.049 c 0.295,0.003 0.464,0.024 0.75,0.095 z M 8.395,2.493 H 7.575 V 6.625 C 7.308,6.56 7.14,6.542 6.854,6.539 H 6.804 C 6.577,6.539 6.43,6.553 6.201,6.598 6.035,5.704 5.862,5.199 5.443,4.374 5.056,3.609 4.777,3.2 4.203,2.557 V 2.245 H 6.268 L 6.266,1.541 C 6.213,1.402 6.15,1.324 6.025,1.236 5.873,1.127 5.747,1.112 5.57,1.112 V 0.923 H 8.379 V 1.155 H 8.158 C 7.998,1.155 7.884,1.162 7.756,1.264 7.649,1.349 7.599,1.43 7.575,1.562 v 0.697 h 0.82 z M 6.193,5.407 H 6.268 V 2.493 H 4.584 v 0.036 c 0.337,0.485 0.513,0.767 0.804,1.278 0.348,0.608 0.525,0.96 0.805,1.599 z m 0,-1.905 -0.526,-0.936 h 0.526 z"
           style="fill:#231f20;fill-opacity:1;fill-rule:nonzero;stroke:none"
           id="path3768" />
      </g>
    </g>
    <g
       id="g3770">
      <g
         id="g3772">
        <g
           id="g3778">
          <path
             d="m 39.727,20.439 h 95.431 v 0.42 H 39.727 Z"
             style="fill:url(#linearGradient3790);stroke:none"
             id="path3792" />
        </g>
      </g>
    </g>
    <g
       id="g3794">
      <g
         id="g3796"
         transform="translate(6.807,44.6915)">
        <path
           d="M 29.717,0 H 0.978 C 0.438,0 0,0.438 0,0.978 0,1.518 0.438,1.956 0.978,1.956 h 28.739 c 0.54,0 0.978,-0.438 0.978,-0.978 C 30.695,0.438 30.257,0 29.717,0"
           style="fill:#ffffff;fill-opacity:1;fill-rule:nonzero;stroke:none"
           id="path3798" />
      </g>
    </g>
    <g
       id="g3800">
      <g
         id="g3802"
         transform="translate(9.9693,40.1679)">
        <path
           d="M 23.7,0 H 0.978 C 0.438,0 0,0.438 0,0.978 0,1.518 0.438,1.956 0.978,1.956 H 23.7 c 0.54,0 0.978,-0.438 0.978,-0.978 C 24.678,0.438 24.24,0 23.7,0"
           style="fill:#ffffff;fill-opacity:1;fill-rule:nonzero;stroke:none"
           id="path3804" />
      </g>
    </g>
    <g
       id="g3806">
      <g
         id="g3808"
         transform="translate(16.1764,8.5705)">
        <path
           d="m 1.957,0 v 28.837 c 0,0.541 -0.438,0.979 -0.978,0.979 C 0.438,29.816 0,29.378 0,28.837 V 0.786 C 0.629,0.48 1.278,0.208 1.957,0"
           style="fill:#ffffff;fill-opacity:1;fill-rule:nonzero;stroke:none"
           id="path3810" />
      </g>
    </g>
    <g
       id="g3812">
      <g
         id="g3814"
         transform="translate(21.1761,7.9673)">
        <path
           d="m 1.957,0.039 v 29.402 c 0,0.54 -0.438,0.978 -0.978,0.978 C 0.438,30.419 0,29.981 0,29.441 V 0.05 C 0.325,0.027 0.648,0 0.979,0 1.308,0 1.633,0.016 1.957,0.039"
           style="fill:#ffffff;fill-opacity:1;fill-rule:nonzero;stroke:none"
           id="path3816" />
      </g>
    </g>
    <g
       id="g3818">
      <g
         id="g3820"
         transform="translate(26.3884,8.6375)">
        <path
           d="M 1.957,0.811 V 28.77 c 0,0.541 -0.438,0.979 -0.978,0.979 C 0.438,29.749 0,29.311 0,28.77 V 0 c 0.677,0.22 1.331,0.493 1.957,0.811"
           style="fill:#ffffff;fill-opacity:1;fill-rule:nonzero;stroke:none"
           id="path3822" />
      </g>
    </g>
    <g
       id="g3824">
      <g
         id="g3826"
         transform="translate(8.5513,10.083)">
        <path
           d="m 27.371,11.57 c 0,4.851 -2.544,9.109 -6.361,11.54 v -2.395 c 2.681,-2.151 4.404,-5.448 4.404,-9.145 0,-3.697 -1.723,-6.994 -4.404,-9.145 V 0.029 c 3.817,2.432 6.361,6.69 6.361,11.541 M 6.409,23.14 C 2.566,20.714 0,16.441 0,11.57 0,6.699 2.566,2.426 6.409,0 V 2.388 C 3.701,4.539 1.957,7.852 1.957,11.57 c 0,3.718 1.744,7.031 4.452,9.182 z"
           style="fill:#ffffff;fill-opacity:1;fill-rule:nonzero;stroke:none"
           id="path3828" />
      </g>
    </g>
    <g
       id="g3830">
      <g
         id="g3832"
         transform="translate(39.9241,37.9667)">
        <path
           d="M 7.693,3.788 H 4.534 V 3.253 C 4.813,3.253 5.02,3.224 5.154,3.166 5.288,3.108 5.374,3.017 5.41,2.893 5.447,2.769 5.465,2.572 5.465,2.3 5.465,2.014 5.429,1.754 5.358,1.522 5.287,1.289 5.132,1.093 4.895,0.932 4.658,0.771 4.31,0.691 3.849,0.691 3.264,0.691 2.81,0.873 2.49,1.237 2.169,1.601 1.956,2.037 1.852,2.545 1.747,3.052 1.695,3.581 1.695,4.131 1.695,4.774 1.762,5.314 1.896,5.752 2.03,6.19 2.208,6.535 2.43,6.789 2.651,7.043 2.889,7.221 3.143,7.324 3.398,7.426 3.658,7.478 3.923,7.478 4.285,7.478 4.617,7.383 4.919,7.193 5.22,7.003 5.472,6.746 5.674,6.42 5.877,6.095 6.014,5.736 6.088,5.345 H 6.569 L 6.516,7.925 H 6.009 C 5.96,7.635 5.896,7.406 5.816,7.239 5.157,7.855 4.426,8.163 3.624,8.163 2.966,8.163 2.359,7.984 1.805,7.626 1.25,7.268 0.811,6.776 0.487,6.15 0.163,5.524 0,4.832 0,4.073 0,3.41 0.137,2.765 0.411,2.138 0.685,1.51 1.095,0.997 1.642,0.598 2.19,0.199 2.847,0 3.614,0 3.903,0 4.154,0.02 4.367,0.061 4.58,0.101 4.899,0.174 5.324,0.278 5.913,0.426 6.461,0.499 6.966,0.499 v 1.848 c 0,0.248 0.019,0.431 0.058,0.549 0.038,0.118 0.109,0.201 0.211,0.25 0.103,0.048 0.256,0.084 0.458,0.107 z M 13.66,2.777 C 13.597,2.173 13.438,1.724 13.182,1.432 12.925,1.139 12.646,0.959 12.345,0.891 12.043,0.824 11.692,0.79 11.291,0.79 10.974,0.79 10.745,0.829 10.606,0.909 10.467,0.988 10.381,1.105 10.35,1.26 10.318,1.415 10.303,1.671 10.303,2.027 V 6.56 c 0,0.236 0.023,0.417 0.07,0.543 0.047,0.126 0.147,0.222 0.298,0.288 0.152,0.065 0.376,0.098 0.672,0.098 V 8.024 H 7.777 V 7.489 c 0.3,0 0.525,-0.035 0.677,-0.104 C 8.606,7.315 8.703,7.217 8.744,7.091 8.786,6.965 8.807,6.788 8.807,6.56 V 1.609 C 8.807,1.268 8.744,1.028 8.619,0.889 8.493,0.749 8.213,0.679 7.777,0.679 V 0.145 h 6.317 l 0.047,2.632 z m 4.367,-2.098 c -0.314,0 -0.545,0.035 -0.693,0.105 -0.148,0.07 -0.245,0.168 -0.29,0.296 -0.046,0.128 -0.068,0.304 -0.068,0.529 V 6.56 c 0,0.236 0.023,0.417 0.07,0.543 0.047,0.126 0.148,0.222 0.301,0.288 0.153,0.065 0.38,0.098 0.68,0.098 V 8.024 H 14.429 V 7.489 c 0.446,0 0.733,-0.069 0.86,-0.209 C 15.416,7.141 15.48,6.9 15.48,6.56 V 1.609 C 15.48,1.373 15.457,1.191 15.41,1.063 15.362,0.935 15.262,0.839 15.109,0.775 14.955,0.711 14.729,0.679 14.429,0.679 V 0.145 h 3.598 z m 7.831,2.836 c -0.203,0.306 -0.453,0.56 -0.747,0.761 -0.295,0.201 -0.704,0.44 -1.227,0.715 -0.432,0.224 -0.745,0.397 -0.938,0.517 -0.194,0.12 -0.35,0.264 -0.468,0.433 -0.119,0.168 -0.178,0.367 -0.178,0.595 0,0.291 0.095,0.528 0.285,0.712 0.19,0.184 0.442,0.276 0.755,0.276 0.865,0 1.472,-0.598 1.82,-1.795 h 0.492 V 7.925 H 25.16 C 25.108,7.631 25.05,7.402 24.988,7.239 c -0.22,0.287 -0.48,0.513 -0.779,0.677 -0.3,0.165 -0.616,0.247 -0.947,0.247 -0.432,0 -0.813,-0.109 -1.143,-0.328 C 21.79,7.616 21.54,7.335 21.369,6.993 21.198,6.65 21.113,6.302 21.113,5.95 c 0,-0.198 0.027,-0.394 0.081,-0.587 0.054,-0.194 0.151,-0.398 0.293,-0.613 0.141,-0.215 0.349,-0.437 0.625,-0.666 0.275,-0.228 0.627,-0.455 1.056,-0.679 0.279,-0.14 0.527,-0.273 0.745,-0.399 0.218,-0.125 0.39,-0.244 0.515,-0.354 0.126,-0.11 0.222,-0.235 0.288,-0.375 0.066,-0.139 0.099,-0.302 0.099,-0.488 0,-0.329 -0.107,-0.602 -0.321,-0.819 -0.215,-0.217 -0.5,-0.326 -0.855,-0.326 -0.408,0 -0.753,0.123 -1.033,0.369 -0.281,0.246 -0.498,0.54 -0.651,0.881 -0.154,0.341 -0.274,0.705 -0.361,1.092 H 21.113 V 0.29 h 0.481 c 0.031,0.244 0.103,0.509 0.214,0.796 0.258,-0.36 0.573,-0.631 0.944,-0.813 C 23.123,0.091 23.497,0 23.874,0 c 0.38,0 0.715,0.078 1.004,0.235 0.289,0.157 0.529,0.36 0.719,0.61 0.19,0.25 0.332,0.511 0.426,0.784 0.094,0.273 0.141,0.532 0.141,0.776 0,0.434 -0.102,0.804 -0.306,1.11 m 7.424,4.509 H 26.275 V 5.787 h 0.497 c 0.021,0.488 0.105,0.849 0.253,1.084 0.148,0.234 0.32,0.377 0.515,0.429 0.196,0.053 0.441,0.079 0.738,0.079 h 0.753 v -5.77 c 0,-0.341 -0.063,-0.581 -0.188,-0.72 -0.126,-0.14 -0.407,-0.21 -0.842,-0.21 V 0.145 h 3.556 v 0.534 c -0.297,0 -0.522,0.035 -0.675,0.105 -0.153,0.07 -0.251,0.167 -0.293,0.293 -0.042,0.126 -0.063,0.303 -0.063,0.532 v 5.77 h 0.9 c 0.223,0 0.42,-0.027 0.591,-0.081 0.171,-0.055 0.33,-0.198 0.478,-0.43 0.148,-0.233 0.245,-0.593 0.291,-1.081 h 0.496 z m 8.041,0 h -2.61 V 7.489 c 0.255,0 0.454,-0.021 0.599,-0.064 0.145,-0.042 0.248,-0.111 0.311,-0.206 0.063,-0.095 0.101,-0.204 0.115,-0.328 0.014,-0.124 0.021,-0.314 0.021,-0.57 V 3.486 c 0,-0.368 -0.015,-0.685 -0.044,-0.95 C 39.685,2.27 39.621,2.014 39.524,1.766 39.402,1.448 39.183,1.19 38.868,0.99 38.552,0.791 38.211,0.691 37.845,0.691 c -0.342,0 -0.654,0.094 -0.939,0.282 -0.284,0.188 -0.485,0.438 -0.604,0.752 -0.062,0.19 -0.109,0.412 -0.138,0.666 -0.03,0.253 -0.045,0.549 -0.045,0.886 V 6.56 c 0,0.232 0.023,0.411 0.068,0.537 0.046,0.126 0.143,0.223 0.293,0.291 0.15,0.067 0.377,0.101 0.68,0.101 V 8.024 H 33.583 V 7.489 c 0.443,0 0.724,-0.069 0.845,-0.209 0.12,-0.139 0.18,-0.38 0.18,-0.72 L 34.619,3.277 C 34.619,2.998 34.623,2.772 34.632,2.6 34.64,2.427 34.667,2.243 34.713,2.048 34.758,1.852 34.823,1.657 34.906,1.464 35.06,1.111 35.284,0.827 35.581,0.61 35.877,0.393 36.197,0.237 36.54,0.142 36.884,0.047 37.218,0 37.542,0 c 0.439,0 0.897,0.099 1.373,0.299 0.475,0.199 0.846,0.564 1.111,1.095 0.143,0.275 0.231,0.547 0.264,0.816 0.033,0.27 0.05,0.672 0.05,1.206 v 2.905 c 0,0.314 0.015,0.547 0.047,0.698 0.031,0.151 0.116,0.267 0.253,0.348 0.138,0.082 0.366,0.122 0.683,0.122 z m 7.674,-2.83 C 48.9,5.57 48.761,5.918 48.581,6.237 c -0.179,0.32 -0.4,0.604 -0.661,0.854 -0.262,0.25 -0.547,0.445 -0.858,0.584 -0.338,0.155 -0.71,0.268 -1.116,0.337 -0.406,0.07 -0.901,0.105 -1.483,0.105 -0.059,0 -0.275,-0.004 -0.648,-0.012 C 43.442,8.097 43.229,8.094 43.177,8.094 L 41.655,8.059 V 7.513 c 0.45,0 0.737,-0.07 0.863,-0.21 0.125,-0.139 0.188,-0.379 0.188,-0.72 V 1.609 c 0,-0.236 -0.023,-0.418 -0.07,-0.546 C 42.588,0.935 42.488,0.839 42.335,0.775 42.181,0.711 41.955,0.679 41.655,0.679 V 0.145 h 3.237 c 0.959,0 1.769,0.162 2.432,0.488 0.314,0.155 0.608,0.385 0.884,0.691 0.275,0.306 0.5,0.689 0.674,1.148 0.174,0.459 0.262,0.973 0.262,1.543 0,0.41 -0.049,0.803 -0.147,1.179 M 46.924,1.778 C 46.573,1.119 45.975,0.79 45.127,0.79 c -0.286,0 -0.496,0.038 -0.632,0.113 -0.136,0.076 -0.218,0.186 -0.246,0.331 -0.028,0.146 -0.042,0.377 -0.042,0.695 v 5.537 c 0.439,0 0.777,-0.013 1.012,-0.038 0.235,-0.025 0.457,-0.084 0.667,-0.177 0.481,-0.213 0.862,-0.595 1.142,-1.147 0.281,-0.552 0.421,-1.237 0.421,-2.055 0,-0.856 -0.175,-1.613 -0.525,-2.271 m 5.988,-1.099 c -0.314,0 -0.545,0.035 -0.693,0.105 -0.148,0.07 -0.245,0.168 -0.29,0.296 -0.046,0.128 -0.068,0.304 -0.068,0.529 V 6.56 c 0,0.236 0.023,0.417 0.07,0.543 0.048,0.126 0.148,0.222 0.301,0.288 0.154,0.065 0.38,0.098 0.68,0.098 V 8.024 H 49.314 V 7.489 c 0.446,0 0.733,-0.069 0.86,-0.209 0.128,-0.139 0.191,-0.38 0.191,-0.72 V 1.609 c 0,-0.236 -0.023,-0.418 -0.07,-0.546 C 50.248,0.935 50.147,0.839 49.994,0.775 49.84,0.711 49.614,0.679 49.314,0.679 V 0.145 h 3.598 z m 8.817,2.098 C 61.666,2.173 61.507,1.724 61.251,1.432 60.994,1.139 60.715,0.959 60.414,0.891 60.112,0.824 59.761,0.79 59.36,0.79 59.043,0.79 58.814,0.829 58.675,0.909 58.536,0.988 58.45,1.105 58.419,1.26 58.387,1.415 58.372,1.671 58.372,2.027 V 6.56 c 0,0.236 0.023,0.417 0.07,0.543 0.047,0.126 0.147,0.222 0.298,0.288 0.152,0.065 0.376,0.098 0.672,0.098 V 8.024 H 55.846 V 7.489 c 0.3,0 0.525,-0.035 0.677,-0.104 0.152,-0.07 0.249,-0.168 0.29,-0.294 0.042,-0.126 0.063,-0.303 0.063,-0.531 V 1.609 c 0,-0.341 -0.063,-0.581 -0.188,-0.72 -0.126,-0.14 -0.406,-0.21 -0.842,-0.21 V 0.145 h 6.317 L 62.21,2.777 Z M 68.434,2.736 C 68.35,2.136 68.203,1.695 67.994,1.414 67.785,1.133 67.571,0.959 67.35399,0.891 67.136,0.824 66.907,0.79 66.666,0.79 h -0.57 c -0.255,0 -0.45101,0.021 -0.588,0.064 -0.138,0.042 -0.23801,0.111 -0.298,0.206 -0.062,0.095 -0.099,0.214 -0.113,0.357 -0.014,0.144 -0.02101,0.37 -0.02101,0.68 V 3.951 H 65.808 c 0.248,0 0.432,-0.024 0.552,-0.07 0.12,-0.047 0.208,-0.139 0.264,-0.276 0.056,-0.138 0.09099,-0.352 0.10499,-0.642 H 67.21 v 2.62 H 66.708 C 66.69,5.293 66.657,5.08 66.608,4.944 66.56,4.809 66.474,4.717 66.352,4.668 66.23,4.62 66.045,4.596 65.79799,4.596 h -0.722 V 7.379 H 66.404 c 0.353,0 0.617,-0.022 0.793,-0.067 0.176,-0.044 0.334,-0.165 0.47599,-0.36 0.14101,-0.196 0.26501,-0.52 0.374,-0.973 H 68.528 L 68.434,8.024 H 62.55 V 7.489 c 0.311,0 0.54,-0.036 0.688,-0.107 C 63.386,7.31 63.48,7.211 63.52,7.085 63.56,6.96 63.581,6.784 63.581,6.56 V 1.609 c 0,-0.341 -0.063,-0.581 -0.189,-0.72 -0.125,-0.14 -0.406,-0.21 -0.842,-0.21 V 0.145 h 6.31799 L 68.925,2.736 Z m 8.563,1.052 H 73.83899 V 3.253 c 0.279,0 0.485,-0.029 0.61901,-0.087 0.135,-0.058 0.22,-0.149 0.25699,-0.273 C 74.751,2.769 74.76999,2.572 74.76999,2.3 74.76999,2.014 74.734,1.754 74.662,1.522 74.591,1.289 74.43699,1.093 74.19999,0.932 73.96199,0.771 73.614,0.691 73.154,0.691 c -0.586,0 -1.03901,0.182 -1.36,0.546 -0.321,0.364 -0.533,0.8 -0.638,1.308 -0.105,0.507 -0.157,1.036 -0.157,1.586 0,0.643 0.067,1.183 0.20099,1.621 0.13501,0.438 0.31201,0.783 0.53401,1.037 0.221,0.254 0.459,0.432 0.71399,0.535 0.25401,0.102 0.514,0.154 0.779,0.154 0.362,0 0.695,-0.095 0.99601,-0.285 C 74.525,7.003 74.777,6.746 74.97899,6.42 75.181,6.095 75.319,5.736 75.39199,5.345 H 75.873 l -0.052,2.58 H 75.313 C 75.265,7.635 75.19999,7.406 75.12,7.239 74.461,7.855 73.731,8.163 72.929,8.163 72.26999,8.163 71.663,7.984 71.109,7.626 70.555,7.268 70.115,6.776 69.791,6.15 69.467,5.524 69.305,4.832 69.305,4.073 69.305,3.41 69.442,2.765 69.71499,2.138 69.989,1.51 70.399,0.997 70.947,0.598 71.494,0.199 72.151,0 72.918,0 c 0.29,0 0.541,0.02 0.75299,0.061 0.21301,0.04 0.53201,0.113 0.957,0.217 0.59001,0.148 1.13701,0.221 1.642,0.221 v 1.848 c 0,0.248 0.02001,0.431 0.05801,0.549 0.03799,0.118 0.10899,0.201 0.212,0.25 0.10299,0.048 0.25499,0.084 0.457,0.107 z m 7.04899,-3.109 c -0.234,0 -0.415,0.042 -0.54399,0.125 -0.129,0.084 -0.23,0.202 -0.30401,0.355 C 83.125,1.312 83.01,1.605 82.85299,2.039 L 80.694,8.175 H 80.197 L 78.152,2.225 C 78.009,1.81 77.876,1.49 77.752,1.263 77.62799,1.037 77.498,0.883 77.362,0.801 77.22599,0.72 77.06099,0.679 76.86599,0.679 V 0.145 H 79.308 v 0.534 c -0.216,0 -0.406,0.031 -0.56801,0.093 C 78.578,0.834 78.497,0.982 78.497,1.214 c 0,0.128 0.04899,0.335 0.14699,0.622 L 78.816,2.347 h 2.30099 L 81.452,1.417 c 0.042,-0.12 0.063,-0.238 0.063,-0.354 0,-0.167 -0.06501,-0.272 -0.194,-0.317 C 81.192,0.702 80.986,0.679 80.704,0.679 V 0.145 h 3.34199 z m -5.026,2.237 0.931,2.749 L 80.929,2.916 Z M 90.279,2.777 C 90.216,2.173 90.057,1.724 89.801,1.432 89.54399,1.139 89.265,0.959 88.96399,0.891 88.662,0.824 88.31099,0.79 87.91,0.79 87.593,0.79 87.36499,0.829 87.22499,0.909 87.08599,0.988 87,1.105 86.969,1.26 86.938,1.415 86.92199,1.671 86.92199,2.027 V 6.56 c 0,0.236 0.02301,0.417 0.07,0.543 0.04801,0.126 0.14701,0.222 0.29901,0.288 0.151,0.065 0.375,0.098 0.67199,0.098 V 8.024 H 84.396 V 7.489 c 0.3,0 0.52599,-0.035 0.67699,-0.104 0.152,-0.07 0.249,-0.168 0.29001,-0.294 0.042,-0.126 0.063,-0.303 0.063,-0.531 V 1.609 c 0,-0.341 -0.063,-0.581 -0.188,-0.72 -0.126,-0.14 -0.406,-0.21 -0.842,-0.21 V 0.145 h 6.31699 L 90.76,2.777 Z m 4.367,-2.098 c -0.314,0 -0.54501,0.035 -0.693,0.105 -0.148,0.07 -0.245,0.168 -0.29,0.296 -0.04501,0.128 -0.068,0.304 -0.068,0.529 V 6.56 c 0,0.236 0.02299,0.417 0.07,0.543 0.04799,0.126 0.148,0.222 0.301,0.288 0.154,0.065 0.38,0.098 0.68,0.098 V 8.024 H 91.04799 V 7.489 c 0.44601,0 0.733,-0.069 0.86,-0.209 C 92.036,7.141 92.099,6.9 92.099,6.56 V 1.609 c 0,-0.236 -0.02301,-0.418 -0.07,-0.546 C 91.982,0.935 91.88099,0.839 91.72799,0.775 91.57499,0.711 91.348,0.679 91.04799,0.679 V 0.145 H 94.646 Z"
           style="fill:#ffffff;fill-opacity:1;fill-rule:nonzero;stroke:none"
           id="path3834" />
      </g>
    </g>
    <g
       id="g3836">
      <g
         id="g3838"
         transform="translate(39.6792,24.0607)">
        <path
           d="M 7.651,5.722 C 7.549,6.113 7.405,6.476 7.218,6.809 7.031,7.142 6.801,7.439 6.528,7.699 6.256,7.959 5.958,8.162 5.635,8.307 5.282,8.469 4.895,8.586 4.471,8.659 4.048,8.731 3.533,8.768 2.927,8.768 2.865,8.768 2.64,8.763 2.251,8.755 1.862,8.747 1.641,8.743 1.586,8.743 L 0,8.707 V 8.138 C 0.469,8.138 0.769,8.065 0.899,7.92 1.03,7.775 1.096,7.524 1.096,7.169 V 1.986 C 1.096,1.74 1.071,1.55 1.022,1.417 0.973,1.284 0.869,1.184 0.709,1.117 0.549,1.051 0.313,1.018 0,1.018 V 0.46 h 3.373 c 0.999,0 1.844,0.17 2.534,0.509 C 6.234,1.13 6.541,1.371 6.828,1.69 7.115,2.008 7.349,2.407 7.531,2.885 7.713,3.364 7.804,3.9 7.804,4.493 7.804,4.921 7.753,5.33 7.651,5.722 M 5.49,2.162 C 5.125,1.476 4.501,1.133 3.619,1.133 3.321,1.133 3.101,1.172 2.959,1.251 2.818,1.329 2.732,1.444 2.703,1.596 2.674,1.747 2.66,1.988 2.66,2.319 v 5.77 C 3.117,8.089 3.469,8.076 3.714,8.05 3.959,8.024 4.191,7.962 4.409,7.865 4.91,7.643 5.307,7.245 5.599,6.67 5.892,6.094 6.038,5.381 6.038,4.529 6.038,3.637 5.855,2.848 5.49,2.162 m 9.122,0.999 C 14.525,2.535 14.373,2.076 14.155,1.783 13.937,1.491 13.714,1.309 13.487,1.239 13.26,1.168 13.021,1.133 12.771,1.133 h -0.594 c -0.266,0 -0.47,0.022 -0.613,0.066 -0.144,0.045 -0.247,0.116 -0.311,0.215 -0.064,0.099 -0.103,0.223 -0.117,0.372 -0.015,0.15 -0.022,0.386 -0.022,0.709 v 1.931 h 0.763 c 0.258,0 0.45,-0.024 0.575,-0.072 0.125,-0.049 0.217,-0.145 0.275,-0.288 0.058,-0.143 0.094,-0.366 0.109,-0.669 h 0.501 V 6.128 H 12.814 C 12.796,5.825 12.762,5.603 12.711,5.462 12.66,5.32 12.571,5.224 12.444,5.174 12.316,5.124 12.124,5.098 11.866,5.098 h -0.752 v 2.901 h 1.384 c 0.367,0 0.642,-0.024 0.826,-0.07 0.183,-0.047 0.348,-0.172 0.496,-0.375 0.147,-0.204 0.277,-0.542 0.389,-1.015 h 0.502 L 14.612,8.671 H 8.482 V 8.114 C 8.805,8.114 9.044,8.076 9.199,8.002 9.353,7.927 9.451,7.824 9.493,7.693 9.535,7.562 9.556,7.379 9.556,7.145 V 1.986 C 9.556,1.631 9.49,1.381 9.359,1.235 9.229,1.09 8.936,1.018 8.482,1.018 V 0.46 h 6.583 l 0.06,2.701 z m 7.542,0.042 C 22.089,2.574 21.922,2.106 21.655,1.802 21.388,1.497 21.098,1.309 20.784,1.239 20.469,1.168 20.103,1.133 19.685,1.133 c -0.33,0 -0.568,0.041 -0.713,0.124 -0.146,0.082 -0.235,0.204 -0.267,0.366 -0.033,0.161 -0.049,0.428 -0.049,0.799 v 4.723 c 0,0.246 0.024,0.435 0.073,0.566 0.049,0.131 0.153,0.231 0.311,0.3 0.158,0.068 0.391,0.103 0.7,0.103 V 8.671 H 16.024 V 8.114 c 0.312,0 0.547,-0.037 0.705,-0.109 0.158,-0.073 0.259,-0.175 0.303,-0.306 0.043,-0.131 0.065,-0.316 0.065,-0.554 V 1.986 C 17.097,1.631 17.032,1.381 16.901,1.235 16.77,1.09 16.478,1.018 16.024,1.018 V 0.46 h 6.582 l 0.049,2.743 z m 7.432,0 C 29.521,2.574 29.355,2.106 29.088,1.802 28.821,1.497 28.53,1.309 28.216,1.239 27.902,1.168 27.536,1.133 27.118,1.133 c -0.331,0 -0.569,0.041 -0.714,0.124 -0.145,0.082 -0.234,0.204 -0.267,0.366 -0.033,0.161 -0.049,0.428 -0.049,0.799 v 4.723 c 0,0.246 0.025,0.435 0.074,0.566 0.049,0.131 0.152,0.231 0.31,0.3 0.158,0.068 0.392,0.103 0.7,0.103 V 8.671 H 23.456 V 8.114 c 0.313,0 0.548,-0.037 0.706,-0.109 C 24.32,7.932 24.421,7.83 24.464,7.699 24.508,7.568 24.53,7.383 24.53,7.145 V 1.986 C 24.53,1.631 24.464,1.381 24.333,1.235 24.203,1.09 23.91,1.018 23.456,1.018 V 0.46 h 6.583 l 0.049,2.743 z m 2.674,4.862 c -0.12,0.254 -0.269,0.443 -0.447,0.566 -0.178,0.123 -0.352,0.185 -0.523,0.185 -0.236,0 -0.442,-0.087 -0.619,-0.26 -0.176,-0.174 -0.264,-0.404 -0.264,-0.691 0,-0.262 0.084,-0.481 0.251,-0.657 0.167,-0.175 0.349,-0.263 0.545,-0.263 0.061,0 0.142,0.01 0.242,0.03 0.1,0.02 0.168,0.031 0.205,0.031 0.127,0 0.19,-0.099 0.19,-0.297 0,-0.234 -0.059,-0.442 -0.177,-0.624 C 31.545,5.904 31.384,5.753 31.181,5.634 30.977,5.515 30.747,5.427 30.489,5.371 V 4.814 c 0.407,0.06 0.758,0.2 1.054,0.418 0.296,0.218 0.52,0.492 0.671,0.823 0.15,0.331 0.226,0.698 0.226,1.102 0,0.351 -0.06,0.654 -0.18,0.908 m 8.517,-7.047 c -0.244,0 -0.433,0.043 -0.567,0.13 -0.134,0.086 -0.24,0.21 -0.316,0.369 -0.076,0.159 -0.196,0.465 -0.36,0.917 l -2.25,6.394 h -0.518 l -2.131,-6.2 C 34.486,2.196 34.348,1.862 34.219,1.626 34.09,1.39 33.954,1.229 33.813,1.145 33.671,1.06 33.498,1.018 33.295,1.018 V 0.46 h 2.545 v 0.558 c -0.226,0 -0.423,0.032 -0.591,0.096 -0.169,0.065 -0.254,0.218 -0.254,0.461 0,0.133 0.051,0.349 0.153,0.647 l 0.18,0.533 h 2.397 l 0.349,-0.969 c 0.044,-0.125 0.065,-0.248 0.065,-0.369 0,-0.173 -0.067,-0.284 -0.201,-0.33 C 37.803,1.041 37.589,1.018 37.295,1.018 V 0.46 h 3.482 z M 35.54,3.349 36.51,6.212 37.529,3.349 Z M 49.347,8.671 H 46.59 V 8.114 c 0.327,0 0.565,-0.045 0.716,-0.134 0.151,-0.088 0.245,-0.215 0.283,-0.378 0.039,-0.163 0.058,-0.399 0.058,-0.705 V 3.149 L 43.44,8.671 H 41.287 V 8.114 C 41.534,8.085 41.728,8.032 41.868,7.953 42.008,7.874 42.108,7.772 42.17,7.644 42.232,7.517 42.271,7.369 42.287,7.199 42.304,7.03 42.312,6.776 42.312,6.436 V 2.247 C 42.312,1.903 42.295,1.654 42.26,1.499 42.226,1.343 42.135,1.224 41.988,1.142 41.841,1.059 41.604,1.018 41.277,1.018 V 0.46 h 2.746 v 0.558 c -0.349,0 -0.601,0.041 -0.757,0.124 -0.157,0.082 -0.254,0.201 -0.292,0.357 -0.038,0.155 -0.057,0.404 -0.057,0.748 V 6.769 L 47.75,0.388 h 0.502 v 6.509 c 0,0.347 0.018,0.597 0.054,0.75 0.036,0.154 0.131,0.27 0.283,0.349 0.153,0.078 0.405,0.118 0.758,0.118 z m 8.702,0 H 55.292 V 8.114 c 0.327,0 0.566,-0.045 0.716,-0.134 0.151,-0.088 0.246,-0.215 0.284,-0.378 0.038,-0.163 0.057,-0.399 0.057,-0.705 V 3.149 L 52.142,8.671 H 49.99 V 8.114 C 50.237,8.085 50.43,8.032 50.57,7.953 50.71,7.874 50.811,7.772 50.872,7.644 50.934,7.517 50.973,7.369 50.99,7.199 51.006,7.03 51.014,6.776 51.014,6.436 V 2.247 C 51.014,1.903 50.997,1.654 50.962,1.499 50.928,1.343 50.837,1.224 50.69,1.142 50.543,1.059 50.306,1.018 49.979,1.018 V 0.46 h 2.746 v 0.558 c -0.349,0 -0.601,0.041 -0.757,0.124 -0.157,0.082 -0.254,0.201 -0.292,0.357 -0.038,0.155 -0.057,0.404 -0.057,0.748 v 4.522 l 4.833,-6.381 h 0.502 v 6.509 c 0,0.347 0.018,0.597 0.054,0.75 0.037,0.154 0.131,0.27 0.284,0.349 0.152,0.078 0.405,0.118 0.757,0.118 z m 8.581,-2.74 c -0.132,0.478 -0.353,0.935 -0.662,1.371 -0.30901,0.436 -0.73901,0.797 -1.291,1.084 -0.552,0.287 -1.223,0.43 -2.011,0.43 -0.865,0 -1.607,-0.199 -2.229,-0.596 -0.621,-0.398 -1.086,-0.922 -1.395,-1.572 -0.309,-0.65 -0.463,-1.34 -0.463,-2.07 0,-0.505 0.081,-1.007 0.243,-1.508 0.161,-0.501 0.41,-0.961 0.746,-1.38 0.336,-0.42 0.769,-0.755 1.3,-1.006 0.53,-0.25 1.144,-0.375 1.842,-0.375 0.853,0 1.594,0.197 2.22,0.59 0.627,0.394 1.1,0.917 1.42,1.569 0.319,0.651 0.479,1.351 0.479,2.098 0,0.431 -0.066,0.887 -0.199,1.365 M 65.00599,3.567 C 64.968,3.207 64.874,2.831 64.723,2.437 64.572,2.044 64.333,1.711 64.004,1.438 63.675,1.166 63.247,1.03 62.721,1.03 c -0.531,0 -0.963,0.132 -1.297,0.396 -0.335,0.265 -0.578,0.589 -0.731,0.975 -0.152,0.385 -0.248,0.762 -0.288,1.129 -0.04,0.367 -0.06,0.721 -0.06,1.06 0,0.613 0.062,1.179 0.188,1.698 0.125,0.519 0.363,0.951 0.714,1.296 0.35,0.345 0.838,0.517 1.463,0.517 0.454,0 0.835,-0.097 1.144,-0.293 0.309,-0.196 0.552,-0.46 0.73,-0.793 0.178,-0.333 0.303,-0.706 0.373,-1.117 0.071,-0.412 0.107,-0.848 0.107,-1.308 0,-0.323 -0.019,-0.664 -0.05801,-1.023 M 72.044,1.514 c 0.05899,0.052 0.235,0.211 0.53099,0.475 0.29501,0.265 0.55801,0.502 0.78801,0.712 0.231,0.21 0.36299,0.331 0.396,0.363 0.657,0.638 1.17499,1.224 1.55299,1.759 0.37901,0.535 0.568,1.085 0.568,1.65 0,0.278 -0.068,0.578 -0.20299,0.899 C 75.542,7.693 75.28,7.979 74.891,8.232 74.50299,8.484 73.971,8.61 73.29799,8.61 72.749,8.61 72.28199,8.526 71.898,8.359 71.513,8.191 71.226,7.964 71.037,7.678 70.848,7.391 70.754,7.068 70.754,6.709 c 0,-0.258 0.04299,-0.497 0.13,-0.715 0.088,-0.218 0.165,-0.326 0.231,-0.326 0.025,0 0.106,0.028 0.243,0.084 l 0.406,0.164 c 0.174,0.068 0.262,0.119 0.262,0.151 0,0.016 -0.007,0.036 -0.019,0.061 -0.171,0.339 -0.256,0.615 -0.256,0.829 0,0.182 0.05,0.355 0.15,0.521 0.1,0.165 0.239,0.297 0.418,0.396 0.179,0.099 0.376,0.149 0.592,0.149 0.229,0 0.444,-0.056 0.646,-0.167 C 73.758,7.745 73.92299,7.574 74.049,7.342 74.176,7.109 74.23999,6.824 74.23999,6.485 74.23999,5.896 74.063,5.271 73.71,4.611 73.356,3.951 72.914,3.313 72.384,2.698 71.85399,2.082 71.315,1.526 70.766,1.03 V 0.46 h 4.116 c 0.20799,0 0.312,-0.082 0.312,-0.248 C 75.194,0.16 75.183,0.089 75.163,0 h 0.52299 L 75.967,1.514 Z M 82.19999,6.4 C 82.055,6.864 81.86799,7.248 81.639,7.551 81.14,8.257 80.458,8.61 79.594,8.61 78.75,8.61 78.068,8.257 77.54799,7.551 77.39,7.328 77.259,7.106 77.155,6.885 77.051,6.662 76.961,6.328 76.884,5.882 c -0.077,-0.446 -0.11501,-1 -0.11501,-1.662 0,-0.734 0.08701,-1.361 0.262,-1.88 0.17401,-0.518 0.403,-0.928 0.68501,-1.229 0.283,-0.3 0.589,-0.515 0.917,-0.644 0.32899,-0.13 0.64899,-0.194 0.961,-0.194 0.727,0 1.35699,0.29 1.889,0.872 0.2,0.218 0.36899,0.465 0.50799,0.741 0.14,0.277 0.24601,0.614 0.319,1.011 0.07201,0.398 0.10901,0.888 0.10901,1.469 0,0.892 -0.073,1.57 -0.21901,2.034 m -1.459,-2.434 c 0,-0.549 -0.009,-0.981 -0.028,-1.296 C 80.694,2.356 80.65,2.057 80.579,1.774 80.508,1.492 80.39199,1.269 80.23,1.105 80.068,0.942 79.856,0.86 79.594,0.86 c -0.35401,0 -0.613,0.14 -0.777,0.421 -0.164,0.28 -0.267,0.662 -0.308,1.144 -0.042,0.483 -0.063,1.154 -0.063,2.013 0,0.888 0.021,1.573 0.063,2.053 0.041,0.48 0.144,0.856 0.308,1.126 0.164,0.27 0.42299,0.406 0.777,0.406 0.332,0 0.583,-0.125 0.751,-0.376 0.168,-0.25 0.277,-0.565 0.324,-0.944 0.048,-0.38 0.07199,-0.868 0.07199,-1.465 z m 3.82,-2.452 c 0.05801,0.052 0.235,0.211 0.53001,0.475 0.295,0.265 0.558,0.502 0.78899,0.712 0.23101,0.21 0.363,0.331 0.39601,0.363 0.65699,0.638 1.17399,1.224 1.553,1.759 0.378,0.535 0.567,1.085 0.567,1.65 0,0.278 -0.067,0.578 -0.202,0.899 -0.13501,0.321 -0.39701,0.607 -0.78601,0.86 C 87.01899,8.484 86.488,8.61 85.814,8.61 85.266,8.61 84.799,8.526 84.414,8.359 84.03,8.191 83.74299,7.964 83.554,7.678 83.36499,7.391 83.26999,7.068 83.26999,6.709 c 0,-0.258 0.04401,-0.497 0.13101,-0.715 0.087,-0.218 0.164,-0.326 0.231,-0.326 0.02499,0 0.106,0.028 0.243,0.084 l 0.405,0.164 c 0.175,0.068 0.262,0.119 0.262,0.151 0,0.016 -0.006,0.036 -0.018,0.061 -0.17101,0.339 -0.25601,0.615 -0.25601,0.829 0,0.182 0.05001,0.355 0.15001,0.521 0.09899,0.165 0.23899,0.297 0.417,0.396 0.179,0.099 0.37699,0.149 0.593,0.149 0.22799,0 0.444,-0.056 0.64499,-0.167 C 86.275,7.745 86.439,7.574 86.566,7.342 c 0.127,-0.233 0.18999,-0.518 0.18999,-0.857 0,-0.589 -0.17699,-1.214 -0.53,-1.874 C 85.873,3.951 85.431,3.313 84.901,2.698 84.371,2.082 83.831,1.526 83.28299,1.03 V 0.46 H 87.399 C 87.606,0.46 87.71,0.378 87.71,0.212 87.71,0.16 87.69999,0.089 87.679,0 h 0.524 l 0.281,1.514 z M 94.717,4.045 c -0.092,0.21 -0.21201,0.403 -0.362,0.581 -0.29501,0.371 -0.74201,0.569 -1.341,0.593 0.22499,0.138 0.412,0.258 0.56199,0.361 0.149,0.103 0.305,0.231 0.46701,0.384 0.163,0.154 0.3,0.335 0.412,0.545 0.112,0.21 0.168,0.434 0.168,0.672 0,0.315 -0.096,0.58 -0.29,0.796 C 94.14,8.193 93.87699,8.353 93.54499,8.456 93.21199,8.559 92.831,8.61 92.403,8.61 91.71299,8.61 91.16899,8.502 90.76899,8.286 90.37,8.07 90.094,7.824 89.94,7.547 89.786,7.271 89.709,7.026 89.709,6.812 c 0,-0.202 0.052,-0.396 0.15599,-0.581 0.10401,-0.186 0.20601,-0.279 0.306,-0.279 0.06201,0 0.14301,0.026 0.24301,0.079 l 0.524,0.218 c 0.04099,0.024 0.083,0.048 0.12399,0.072 0.042,0.025 0.06301,0.051 0.06301,0.079 0,0.016 -0.033,0.067 -0.1,0.151 -0.14501,0.174 -0.218,0.364 -0.218,0.57 0,0.153 0.053,0.3 0.159,0.442 0.10599,0.141 0.24899,0.253 0.43,0.336 0.181,0.082 0.367,0.124 0.558,0.124 0.325,0 0.602,-0.093 0.833,-0.279 0.23099,-0.185 0.346,-0.456 0.346,-0.811 0,-0.299 -0.06001,-0.555 -0.181,-0.769 C 92.831,5.95 92.65799,5.752 92.431,5.571 92.205,5.389 91.83799,5.133 91.331,4.802 91.21,4.725 91.119,4.65 91.056,4.578 90.994,4.505 90.96299,4.422 90.96299,4.329 c 0,-0.092 0.03101,-0.165 0.09301,-0.218 0.063,-0.052 0.133,-0.078 0.21199,-0.078 0.10401,0 0.27501,0.099 0.512,0.296 C 92.008,4.511 92.22,4.602 92.416,4.602 92.71499,4.602 92.91999,4.46 93.02999,4.175 93.14,3.89 93.195,3.458 93.195,2.876 c 0,-0.46 -0.096,-0.911 -0.29001,-1.353 -0.193,-0.442 -0.624,-0.663 -1.29399,-0.663 -0.195,0 -0.349,0.044 -0.461,0.133 -0.112,0.089 -0.223,0.238 -0.331,0.448 -0.12001,0.251 -0.236,0.437 -0.346,0.56 -0.11,0.123 -0.267,0.185 -0.471,0.185 -0.16601,0 -0.314,-0.06 -0.44201,-0.179 -0.12899,-0.119 -0.194,-0.283 -0.194,-0.493 0,-0.234 0.09101,-0.447 0.27101,-0.639 0.181,-0.192 0.432,-0.34 0.752,-0.445 0.32,-0.105 0.68599,-0.157 1.098,-0.157 0.457,0 0.889,0.075 1.29699,0.224 0.40701,0.149 0.76801,0.359 1.082,0.629 0.31401,0.271 0.557,0.582 0.72901,0.933 0.17299,0.351 0.25899,0.728 0.25899,1.132 0,0.359 -0.046,0.644 -0.13699,0.854"
           style="fill:#ffffff;fill-opacity:1;fill-rule:nonzero;stroke:none"
           id="path3840" />
      </g>
    </g>
    <g
       id="g3842">
      <g
         id="g3844">
        <g
           id="g3850">
          <path
             d="M 5.95093,51.7329 3.4674,49.24937 V 6.51749 L 5.95087,4.0349 h 129.66206 l 2.48347,2.48259 v 42.73188 l -2.48355,2.48353 z m -0.49706,1.2 h 130.65605 l 3.18648,-3.18647 V 6.02031 L 136.10986,2.8349 H 5.45393 L 2.2674,6.02031 v 43.72612 z"
             style="fill:url(#linearGradient3866);stroke:none"
             id="path3868" />
        </g>
      </g>
    </g>
  </g>
</svg>
