<?xml version="1.0" encoding="UTF-8" standalone="no"?>
<svg
   xmlns:dc="http://purl.org/dc/elements/1.1/"
   xmlns:cc="http://creativecommons.org/ns#"
   xmlns:rdf="http://www.w3.org/1999/02/22-rdf-syntax-ns#"
   xmlns:svg="http://www.w3.org/2000/svg"
   xmlns="http://www.w3.org/2000/svg"
   xmlns:sodipodi="http://sodipodi.sourceforge.net/DTD/sodipodi-0.dtd"
   xmlns:inkscape="http://www.inkscape.org/namespaces/inkscape"
   viewBox="0 0 871.58745 414.43853"
   height="100%"
   width="100%"
   xml:space="preserve"
   id="svg835"
   version="1.1"
   sodipodi:docname="skyline.svg"
   inkscape:version="0.92.4 (unknown)"><sodipodi:namedview
   pagecolor="#ffffff"
   bordercolor="#666666"
   borderopacity="1"
   objecttolerance="10"
   gridtolerance="10"
   guidetolerance="10"
   inkscape:pageopacity="0"
   inkscape:pageshadow="2"
   inkscape:window-width="1920"
   inkscape:window-height="1061"
   id="namedview942"
   showgrid="false"
   inkscape:zoom="8.575"
   inkscape:cx="968.9001"
   inkscape:cy="-7.0362679"
   inkscape:window-x="0"
   inkscape:window-y="0"
   inkscape:window-maximized="0"
   inkscape:current-layer="svg835" />
	<metadata
   id="metadata841">
		<rdf:RDF>
			<cc:Work
   rdf:about="">
				<dc:format>image/svg+xml</dc:format>
				<dc:type
   rdf:resource="http://purl.org/dc/dcmitype/StillImage" />
				<dc:title />
			</cc:Work>
		</rdf:RDF>
	</metadata>
	<defs
   id="defs839">
		<clipPath
   id="clipPath851"
   clipPathUnits="userSpaceOnUse">
			<path
   id="path849"
   d="M 0,0 H 841.89 V 595.276 H 0 Z" />
		</clipPath>
		<clipPath
   id="clipPath873"
   clipPathUnits="userSpaceOnUse">
			<path
   id="path871"
   d="M 0,0 H 841.89 V 595.276 H 0 Z" />
		</clipPath>
		<clipPath
   id="clipPath885"
   clipPathUnits="userSpaceOnUse">
			<path
   id="path883"
   d="m 212.657,322.418 c 0,-0.452 0.367,-0.818 0.818,-0.818 v 0 c 0.452,0 0.819,0.366 0.819,0.818 v 0 c 0,0.452 -0.367,0.818 -0.819,0.818 v 0 c -0.451,0 -0.818,-0.366 -0.818,-0.818" />
		</clipPath>
		<clipPath
   id="clipPath913"
   clipPathUnits="userSpaceOnUse">
			<path
   id="path911"
   d="M 0,0 H 841.89 V 595.276 H 0 Z" />
		</clipPath>
	</defs>
	<g
   transform="matrix(1.3333333,0,0,-1.3333333,-133.18186,662.54825)"
   id="g843">
		<g
   id="g845">
			<g
   clip-path="url(#clipPath851)"
   id="g847">
				<g
   transform="translate(736.9747,267.6502)"
   id="g853">
					<path
   id="path855"
   style="fill:#3fa2ca;fill-opacity:1;fill-rule:nonzero;stroke:none"
   d="m 0,0 -6.956,1.201 v 126.164 h -9.956 v 11.487 h -3.19 v 4.85 h -2.809 v 3.318 l -1.493,-0.091 -0.044,24.596 h -1.015 V 147.02 h -1.15 v 20.166 h -0.955 l -0.177,-20.13 -1.802,-0.036 v -3.318 h -2.808 v -4.85 h -3.191 v -11.487 h -9.955 V 10.072 h -15.971 l 4.344,22.409 -7.826,86.789 -40.311,-16.366 -1.831,-64.069 -0.842,66.149 39.816,16.343 -1.485,8.914 -43.977,26.446 -6.538,-55.269 V 10.072 h -13.803 v 113.399 h -0.246 l -0.006,0.338 c -5.571,7.457 -21.772,11.117 -37.263,11.788 V 123.471 10.072 h -4.983 c 0.296,0.585 0.46,1.215 0.46,1.873 0,0.933 -0.326,1.811 -0.899,2.585 0.573,0.772 0.899,1.651 0.899,2.584 0,0.833 -0.26,1.623 -0.725,2.333 0.465,0.711 0.725,1.501 0.725,2.335 0,0.933 -0.326,1.811 -0.899,2.584 0.573,0.772 0.899,1.651 0.899,2.585 0,0.658 -0.162,1.288 -0.459,1.875 0.297,0.586 0.459,1.217 0.459,1.875 0,0.949 -0.336,1.843 -0.93,2.625 0.594,0.784 0.93,1.676 0.93,2.626 0,0.737 -0.204,1.44 -0.573,2.084 0.369,0.645 0.573,1.347 0.573,2.084 0,0.933 -0.326,1.812 -0.899,2.585 0.573,0.772 0.899,1.651 0.899,2.584 0,0.784 -0.231,1.532 -0.645,2.209 0.414,0.677 0.645,1.424 0.645,2.208 0,0.933 -0.326,1.812 -0.899,2.585 0.573,0.773 0.899,1.651 0.899,2.584 0,0.834 -0.262,1.624 -0.725,2.335 0.463,0.709 0.725,1.499 0.725,2.333 0,0.933 -0.326,1.812 -0.899,2.584 0.573,0.774 0.899,1.652 0.899,2.585 0,0.658 -0.164,1.289 -0.459,1.875 0.295,0.586 0.459,1.218 0.459,1.875 0,0.714 -0.193,1.395 -0.537,2.022 0.344,0.627 0.537,1.308 0.537,2.022 0,0.736 -0.204,1.439 -0.573,2.083 0.369,0.645 0.573,1.348 0.573,2.085 0,0.932 -0.326,1.811 -0.899,2.583 0.573,0.774 0.899,1.652 0.899,2.585 0,0.785 -0.231,1.531 -0.645,2.209 0.414,0.677 0.645,1.424 0.645,2.209 0,0.932 -0.326,1.811 -0.899,2.584 0.573,0.773 0.899,1.652 0.899,2.584 0,0.834 -0.262,1.624 -0.725,2.334 0.463,0.711 0.725,1.501 0.725,2.335 0,0.932 -0.326,1.811 -0.899,2.584 0.573,0.773 0.899,1.652 0.899,2.584 0,0.657 -0.164,1.289 -0.459,1.875 0.295,0.586 0.459,1.218 0.459,1.876 0,0.949 -0.336,1.843 -0.93,2.625 0.594,0.783 0.93,1.677 0.93,2.626 0,0.737 -0.204,1.44 -0.573,2.084 0.369,0.644 0.573,1.347 0.573,2.084 0,0.933 -0.326,1.811 -0.899,2.585 0.573,0.772 0.899,1.651 0.899,2.584 0,0.784 -0.231,1.531 -0.645,2.209 0.414,0.677 0.645,1.423 0.645,2.209 0,0.932 -0.326,1.811 -0.899,2.584 0.573,0.772 0.899,1.651 0.899,2.584 0,0.833 -0.262,1.623 -0.725,2.334 0.463,0.71 0.725,1.5 0.725,2.334 0,0.933 -0.326,1.811 -0.899,2.584 0.573,0.773 0.899,1.652 0.899,2.584 0,0.658 -0.164,1.289 -0.459,1.876 0.295,0.586 0.459,1.217 0.459,1.875 0,1.292 -0.624,2.48 -1.667,3.426 v 12.913 h -0.584 v 5.217 c 0.013,0.237 0.019,0.478 0.018,0.722 -0.01,0.914 -0.467,3.142 -1.643,4.8 v 28.523 h -0.5 v -2.459 h -0.959 v 8.711 h -0.011 c 0.008,0.069 0.011,0.138 0.011,0.209 0,0.514 -0.161,0.975 -0.417,1.289 v 10.797 c 0,0.286 -0.169,0.53 -0.411,0.642 v 3.902 c 0,0.161 -0.139,0.292 -0.309,0.292 -0.171,0 -0.309,-0.131 -0.309,-0.292 v -3.915 c -0.229,-0.117 -0.389,-0.353 -0.389,-0.629 v -10.626 c -0.348,-0.299 -0.582,-0.841 -0.582,-1.46 0,-0.071 0.003,-0.14 0.009,-0.209 h -0.009 v -11.861 c -0.143,-0.004 -0.286,-0.023 -0.433,-0.059 -1.064,-0.264 -0.829,-2.005 -0.829,-4.25 h -0.022 v -16.901 c -0.156,-0.057 -0.298,-0.129 -0.426,-0.216 v 5.862 h -0.084 c -0.482,-0.625 -0.85,-1.475 -1.108,-2.368 v -8.056 l -0.017,0.004 0.044,-9.59 0.001,-8.898 -3.381,19.839 c -24.41,-10.64 -39.933,-28.193 -43.255,-54.423 -0.004,-0.044 0.07,-0.041 0.104,-0.062 V 10.072 h -6.739 v 28.635 l -1.445,5.296 -0.308,9.266 -0.464,2.373 -0.433,-0.707 -0.393,4.937 h -0.199 l -0.265,2.811 h -0.012 c 0.006,0.038 0.003,0.078 -0.017,0.121 -0.133,0.278 0.096,1.031 0.143,1.311 0.062,0.37 0.066,0.693 -0.057,1.05 -0.051,0.15 -0.31,0.387 -0.257,0.552 0.055,0.176 0.058,0.203 0.058,0.387 0,0.177 -0.136,0.303 -0.294,0.34 -0.07,0.017 -0.149,0.002 -0.2,-0.053 -0.224,-0.24 -0.18,-0.52 -0.051,-0.79 l -0.015,-0.023 c -0.145,-0.352 -0.269,-0.73 -0.189,-1.115 0.129,-0.613 0.473,-1.138 0.318,-1.786 -0.006,-0.023 -0.003,-0.044 -0.002,-0.064 l -0.303,-2.741 -0.188,-2.444 -0.103,0.352 -0.504,2.947 0.007,0.035 c 0.015,0.027 0.026,0.057 0.028,0.093 0.034,0.497 0.187,0.938 0.167,1.443 -0.016,0.35 -0.052,0.695 -0.096,1.04 0.192,0.231 0.278,0.682 -0.048,0.81 -0.389,0.153 -0.417,-0.303 -0.412,-0.581 -0.089,-0.396 -0.37,-0.789 -0.353,-1.202 0.024,-0.545 0.291,-1.053 0.304,-1.587 l 0.006,-0.029 h -0.019 l -0.339,-3.125 -0.013,-0.005 -0.19,-4.198 -0.258,0.416 -0.308,-2.476 v -1.53 l -0.236,-0.92 -0.178,4.797 -0.541,2.063 -0.335,-0.644 -0.182,-0.003 v 3.819 l -0.308,1.084 -0.214,-0.025 -0.256,1.718 c 0.029,0.043 0.045,0.096 0.037,0.157 -0.002,0.006 -0.012,0.048 -0.025,0.11 0.048,0.532 -0.024,1.029 -0.072,1.565 -0.067,0.727 0.117,1.296 0.398,1.957 0.225,0.529 0.113,1.12 -0.18,1.589 -0.14,0.224 -0.499,0.017 -0.357,-0.209 0.322,-0.513 0.223,-0.947 0.056,-1.379 v 0.029 c 0.014,0.091 0.036,0.18 0.05,0.271 0.026,0.181 0.017,0.38 -0.15,0.498 -0.19,0.137 -0.379,-0.043 -0.427,-0.23 -0.061,-0.233 -0.047,-0.483 0.027,-0.711 -0.626,-0.404 0.058,-2.723 0.239,-3.423 -0.001,-0.019 -0.001,-0.038 -0.004,-0.057 l 0.003,-0.029 h -0.003 l -0.316,-1.969 -0.148,-0.017 -0.206,-4.77 -0.077,-10e-4 -0.18,0.67 -0.955,-2.012 -0.207,-8.923 -0.257,0.567 -0.31,-6.524 -0.607,-1.261 -0.2,0.634 c 0.16,0.031 0.273,0.098 0.273,0.175 0,0.084 -0.13,0.155 -0.31,0.181 l -0.053,0.537 c 0.103,0.023 0.177,0.074 0.177,0.134 0,0.062 -0.079,0.116 -0.19,0.138 0.016,0.02 0.025,0.044 0.025,0.071 v 0.335 h 0.118 c 0.069,0 0.125,0.056 0.125,0.125 0,0.068 -0.056,0.125 -0.125,0.125 h -0.118 v 0.221 c 0,0.07 -0.057,0.127 -0.129,0.127 -0.07,0 -0.127,-0.057 -0.127,-0.127 v -0.221 h -0.118 c -0.068,0 -0.125,-0.057 -0.125,-0.125 0,-0.069 0.057,-0.125 0.125,-0.125 h 0.118 v -0.335 c 0,-0.026 0.01,-0.049 0.023,-0.07 -0.117,-0.02 -0.201,-0.074 -0.201,-0.139 0,-0.06 0.073,-0.111 0.177,-0.134 l -0.055,-0.541 c -0.163,-0.03 -0.279,-0.098 -0.279,-0.177 0,-0.072 0.1,-0.135 0.244,-0.169 l -0.112,-0.692 -0.547,0.553 -0.171,3.287 h -0.142 l -0.345,5.608 c 0.027,0.043 0.035,0.096 0.017,0.146 0.363,0.784 -0.001,1.664 -0.042,2.486 0.025,0.003 0.048,0.003 0.076,0.012 0.109,0.032 0.171,0.142 0.144,0.253 -0.058,0.235 -0.242,0.358 -0.482,0.332 -0.168,-0.018 -0.228,-0.192 -0.182,-0.309 -0.001,-0.016 0.005,-0.033 0.008,-0.049 -0.142,-0.775 -0.635,-2.288 0.13,-2.934 l 0.019,-0.011 -0.474,-5.534 h -0.172 l -0.173,-1.444 -0.635,2.002 c 0.161,0.031 0.272,0.097 0.272,0.175 0,0.083 -0.128,0.153 -0.308,0.181 l -0.053,0.535 c 0.102,0.024 0.177,0.076 0.177,0.136 0,0.062 -0.079,0.114 -0.19,0.136 0.014,0.021 0.025,0.046 0.025,0.072 v 0.335 h 0.118 c 0.069,0 0.124,0.056 0.124,0.126 0,0.068 -0.055,0.124 -0.124,0.124 h -0.118 v 0.221 c 0,0.071 -0.057,0.129 -0.128,0.129 -0.071,0 -0.128,-0.058 -0.128,-0.129 v -0.221 h -0.119 c -0.067,0 -0.124,-0.056 -0.124,-0.124 0,-0.07 0.057,-0.126 0.124,-0.126 h 0.119 v -0.335 c 0,-0.026 0.01,-0.05 0.025,-0.07 -0.119,-0.019 -0.204,-0.074 -0.204,-0.138 0,-0.06 0.073,-0.112 0.177,-0.136 l -0.054,-0.539 c -0.164,-0.031 -0.279,-0.098 -0.279,-0.177 0,-0.073 0.099,-0.136 0.245,-0.169 l -0.137,-0.838 -0.092,0.094 -0.612,1.924 c 0.161,0.031 0.272,0.097 0.272,0.175 0,0.083 -0.128,0.153 -0.308,0.181 l -0.053,0.536 c 0.103,0.024 0.177,0.076 0.177,0.135 0,0.062 -0.079,0.115 -0.19,0.137 0.015,0.02 0.025,0.045 0.025,0.072 v 0.334 h 0.118 c 0.069,0 0.125,0.057 0.125,0.126 0,0.069 -0.056,0.124 -0.125,0.124 h -0.118 v 0.221 c 0,0.071 -0.057,0.129 -0.127,0.129 -0.072,0 -0.129,-0.058 -0.129,-0.129 V 44.97 h -0.117 c -0.069,0 -0.126,-0.055 -0.126,-0.124 0,-0.069 0.057,-0.126 0.126,-0.126 h 0.117 v -0.334 c 0,-0.027 0.01,-0.05 0.025,-0.071 -0.119,-0.019 -0.204,-0.074 -0.204,-0.138 0,-0.059 0.074,-0.111 0.177,-0.135 l -0.054,-0.54 c -0.163,-0.031 -0.279,-0.098 -0.279,-0.177 0,-0.073 0.099,-0.136 0.246,-0.169 l -0.125,-0.76 -0.168,0.17 -0.48,1.511 c 0.16,0.03 0.273,0.098 0.273,0.175 0,0.084 -0.129,0.154 -0.309,0.182 l -0.054,0.536 c 0.104,0.022 0.177,0.075 0.177,0.133 0,0.063 -0.078,0.116 -0.189,0.138 0.015,0.02 0.025,0.045 0.025,0.073 v 0.333 h 0.117 c 0.069,0 0.124,0.058 0.124,0.126 0,0.068 -0.055,0.125 -0.124,0.125 h -0.117 v 0.22 c 0,0.071 -0.057,0.129 -0.129,0.129 -0.07,0 -0.127,-0.058 -0.127,-0.129 v -0.22 h -0.119 c -0.068,0 -0.124,-0.057 -0.124,-0.125 0,-0.068 0.056,-0.126 0.124,-0.126 h 0.119 v -0.333 c 0,-0.027 0.009,-0.05 0.023,-0.072 -0.118,-0.019 -0.201,-0.074 -0.201,-0.139 0,-0.058 0.073,-0.111 0.176,-0.133 l -0.054,-0.541 c -0.165,-0.031 -0.28,-0.098 -0.28,-0.177 0,-0.072 0.099,-0.136 0.245,-0.168 l -0.085,-0.52 -0.317,0.321 -0.437,1.379 c 0.159,0.03 0.272,0.097 0.272,0.174 0,0.084 -0.129,0.154 -0.309,0.182 l -0.054,0.536 c 0.104,0.023 0.177,0.075 0.177,0.134 0,0.063 -0.078,0.115 -0.189,0.137 0.015,0.021 0.025,0.045 0.025,0.073 v 0.334 h 0.117 c 0.069,0 0.125,0.057 0.125,0.126 0,0.068 -0.056,0.124 -0.125,0.124 h -0.117 v 0.221 c 0,0.071 -0.057,0.128 -0.128,0.128 -0.071,0 -0.128,-0.057 -0.128,-0.128 v -0.221 h -0.118 c -0.069,0 -0.125,-0.056 -0.125,-0.124 0,-0.069 0.056,-0.126 0.125,-0.126 h 0.118 V 46.5 c 0,-0.027 0.009,-0.05 0.024,-0.071 -0.119,-0.019 -0.202,-0.074 -0.202,-0.139 0,-0.059 0.073,-0.111 0.177,-0.134 l -0.054,-0.541 c -0.166,-0.03 -0.281,-0.098 -0.281,-0.177 0,-0.072 0.099,-0.135 0.246,-0.168 l -0.074,-0.443 -0.09,0.092 -0.481,1.515 c 0.16,0.03 0.273,0.097 0.273,0.174 0,0.085 -0.129,0.154 -0.309,0.182 l -0.054,0.536 c 0.106,0.023 0.177,0.075 0.177,0.134 0,0.063 -0.079,0.115 -0.188,0.137 0.014,0.021 0.024,0.046 0.024,0.073 v 0.335 h 0.119 c 0.069,0 0.124,0.056 0.124,0.125 0,0.068 -0.055,0.124 -0.124,0.124 h -0.119 v 0.221 c 0,0.071 -0.057,0.128 -0.127,0.128 -0.071,0 -0.128,-0.057 -0.128,-0.128 v -0.221 h -0.118 c -0.07,0 -0.125,-0.056 -0.125,-0.124 0,-0.069 0.055,-0.125 0.125,-0.125 h 0.118 V 47.67 c 0,-0.027 0.008,-0.05 0.023,-0.071 -0.117,-0.019 -0.202,-0.073 -0.202,-0.139 0,-0.059 0.073,-0.111 0.177,-0.134 l -0.054,-0.541 c -0.165,-0.03 -0.279,-0.098 -0.279,-0.177 0,-0.073 0.099,-0.136 0.244,-0.168 l -0.085,-0.521 -0.316,0.319 -0.44,1.383 c 0.161,0.03 0.273,0.096 0.273,0.174 0,0.084 -0.128,0.154 -0.308,0.181 l -0.054,0.537 c 0.105,0.022 0.177,0.074 0.177,0.134 0,0.062 -0.078,0.114 -0.189,0.136 0.014,0.022 0.025,0.046 0.025,0.074 v 0.334 h 0.118 c 0.069,0 0.125,0.056 0.125,0.125 0,0.069 -0.056,0.124 -0.125,0.124 h -0.118 v 0.221 c 0,0.072 -0.057,0.129 -0.127,0.129 -0.072,0 -0.129,-0.057 -0.129,-0.129 V 49.44 h -0.117 c -0.07,0 -0.126,-0.055 -0.126,-0.124 0,-0.069 0.056,-0.125 0.126,-0.125 h 0.117 v -0.334 c 0,-0.028 0.009,-0.051 0.023,-0.072 -0.117,-0.019 -0.202,-0.073 -0.202,-0.138 0,-0.06 0.073,-0.112 0.177,-0.134 l -0.054,-0.541 c -0.165,-0.03 -0.279,-0.098 -0.279,-0.177 0,-0.073 0.099,-0.136 0.244,-0.169 l -0.073,-0.444 -0.171,0.175 v 12.67 l -0.705,-1.161 h -0.714 v 9.594 l -0.388,2.605 -0.618,-1.522 v 3.405 l -0.805,4.93 0.013,0.027 c 0.059,0.043 0.093,0.115 0.062,0.207 l -0.004,0.014 c 0.089,0.592 0.152,1.216 0.147,1.822 0.069,0.167 0.145,0.331 0.151,0.522 0.004,0.218 -0.177,0.311 -0.241,0.491 -0.009,0.023 -0.022,0.04 -0.034,0.056 10e-4,0.028 -0.001,0.06 0.007,0.08 0.054,0.131 0.126,0.278 0.094,0.423 -0.133,0.617 -0.863,0.155 -0.588,-0.404 -0.013,-0.019 -0.026,-0.038 -0.032,-0.064 v -0.001 c -0.094,-0.01 -0.18,-0.073 -0.176,-0.196 0.006,-0.128 -0.071,-0.249 -0.102,-0.372 -0.024,-0.095 -0.021,-0.215 0.006,-0.309 0.004,-0.02 0.014,-0.037 0.02,-0.056 -0.028,-0.172 -0.038,-0.348 -0.014,-0.539 0.067,-0.509 0.187,-1.001 0.343,-1.489 v -0.004 c -0.01,-0.067 0.009,-0.124 0.043,-0.168 l -0.591,-4.97 v -3.253 l -0.027,0.003 -0.412,1.367 -0.49,-2.605 v -9.594 h -0.8 v -3.764 l -0.645,1.082 -0.413,7.505 h -0.03 c 0.003,0.025 0.004,0.054 -0.003,0.084 -0.056,0.256 -0.202,0.473 -0.107,0.743 0.053,0.147 0.114,0.3 0.127,0.459 0.006,0.064 -0.03,0.424 -0.104,0.706 0.562,0.284 -0.022,1.077 -0.352,0.628 -0.148,-0.199 -0.133,-0.4 -0.083,-0.601 -0.021,-0.063 -0.037,-0.126 -0.043,-0.192 -0.032,-0.312 -0.028,-0.622 0.047,-0.926 -0.041,-0.134 -0.069,-0.269 -0.05,-0.415 0.024,-0.179 0.129,-0.335 0.167,-0.512 l 0.016,-0.034 -0.458,-7.985 -0.282,0.891 c 0.161,0.03 0.272,0.097 0.272,0.174 0,0.085 -0.129,0.155 -0.309,0.182 l -0.054,0.536 c 0.104,0.024 0.177,0.075 0.177,0.135 0,0.062 -0.077,0.114 -0.188,0.136 0.014,0.021 0.024,0.046 0.024,0.073 v 0.335 h 0.117 c 0.071,0 0.126,0.056 0.126,0.125 0,0.068 -0.055,0.124 -0.126,0.124 h -0.117 v 0.221 c 0,0.071 -0.057,0.128 -0.128,0.128 -0.071,0 -0.128,-0.057 -0.128,-0.128 v -0.221 h -0.118 c -0.069,0 -0.124,-0.056 -0.124,-0.124 0,-0.069 0.055,-0.125 0.124,-0.125 h 0.118 v -0.335 c 0,-0.027 0.011,-0.05 0.024,-0.071 -0.117,-0.019 -0.202,-0.073 -0.202,-0.138 0,-0.06 0.073,-0.111 0.177,-0.135 l -0.054,-0.541 c -0.165,-0.03 -0.28,-0.098 -0.28,-0.177 0,-0.073 0.1,-0.136 0.245,-0.168 l -0.085,-0.522 -0.315,0.319 -0.44,1.384 c 0.161,0.03 0.272,0.096 0.272,0.174 0,0.084 -0.128,0.154 -0.308,0.181 l -0.054,0.537 c 0.103,0.023 0.177,0.074 0.177,0.134 0,0.062 -0.078,0.114 -0.189,0.136 0.014,0.022 0.025,0.046 0.025,0.074 v 0.334 h 0.117 c 0.07,0 0.125,0.056 0.125,0.125 0,0.069 -0.055,0.124 -0.125,0.124 h -0.117 v 0.221 c 0,0.072 -0.057,0.129 -0.129,0.129 -0.07,0 -0.127,-0.057 -0.127,-0.129 v -0.221 h -0.119 c -0.068,0 -0.124,-0.055 -0.124,-0.124 0,-0.069 0.056,-0.125 0.124,-0.125 h 0.119 v -0.334 c 0,-0.028 0.01,-0.051 0.023,-0.071 -0.117,-0.02 -0.202,-0.074 -0.202,-0.139 0,-0.06 0.073,-0.111 0.177,-0.134 l -0.054,-0.541 c -0.165,-0.03 -0.279,-0.098 -0.279,-0.177 0,-0.073 0.099,-0.136 0.244,-0.169 l -0.072,-0.444 -0.4,0.405 -0.343,1.072 c 0.161,0.031 0.274,0.098 0.274,0.176 0,0.083 -0.129,0.153 -0.309,0.181 l -0.054,0.535 c 0.104,0.024 0.177,0.076 0.177,0.135 0,0.063 -0.079,0.115 -0.189,0.137 0.015,0.021 0.025,0.044 0.025,0.072 v 0.335 h 0.117 c 0.07,0 0.126,0.056 0.126,0.126 0,0.068 -0.056,0.124 -0.126,0.124 h -0.117 v 0.221 c 0,0.07 -0.058,0.128 -0.128,0.128 -0.071,0 -0.129,-0.058 -0.129,-0.128 v -0.221 h -0.117 c -0.069,0 -0.124,-0.056 -0.124,-0.124 0,-0.07 0.055,-0.126 0.124,-0.126 h 0.117 v -0.335 c 0,-0.026 0.01,-0.05 0.025,-0.07 -0.117,-0.02 -0.202,-0.075 -0.202,-0.139 0,-0.059 0.073,-0.111 0.177,-0.135 l -0.056,-0.539 c -0.164,-0.031 -0.279,-0.098 -0.279,-0.177 0,-0.074 0.101,-0.136 0.246,-0.17 l -0.043,-0.263 -0.5,0.504 -0.298,0.939 c 0.16,0.031 0.273,0.098 0.273,0.176 0,0.083 -0.129,0.153 -0.308,0.181 l -0.055,0.535 c 0.104,0.024 0.177,0.076 0.177,0.135 0,0.063 -0.079,0.116 -0.188,0.138 0.014,0.02 0.025,0.044 0.025,0.071 v 0.335 h 0.117 c 0.07,0 0.125,0.056 0.125,0.126 0,0.068 -0.055,0.124 -0.125,0.124 h -0.117 v 0.221 c 0,0.071 -0.058,0.129 -0.129,0.129 -0.07,0 -0.129,-0.058 -0.129,-0.129 v -0.221 h -0.117 c -0.069,0 -0.124,-0.056 -0.124,-0.124 0,-0.07 0.055,-0.126 0.124,-0.126 h 0.117 v -0.335 c 0,-0.026 0.01,-0.05 0.025,-0.07 -0.117,-0.02 -0.202,-0.074 -0.202,-0.139 0,-0.059 0.073,-0.111 0.177,-0.135 l -0.055,-0.539 c -0.164,-0.031 -0.28,-0.098 -0.28,-0.177 0,-0.073 0.101,-0.136 0.246,-0.169 l -0.031,-0.187 -0.181,0.184 -0.37,1.167 c 0.161,0.03 0.272,0.097 0.272,0.175 0,0.083 -0.129,0.153 -0.309,0.181 l -0.052,0.536 c 0.102,0.023 0.177,0.076 0.177,0.135 0,0.062 -0.079,0.115 -0.191,0.137 0.015,0.02 0.025,0.044 0.025,0.071 v 0.335 h 0.119 c 0.068,0 0.124,0.056 0.124,0.126 0,0.068 -0.056,0.124 -0.124,0.124 h -0.119 v 0.221 c 0,0.072 -0.057,0.129 -0.128,0.129 -0.071,0 -0.128,-0.057 -0.128,-0.129 v -0.221 h -0.118 c -0.067,0 -0.124,-0.056 -0.124,-0.124 0,-0.07 0.057,-0.126 0.124,-0.126 h 0.118 v -0.335 c 0,-0.026 0.011,-0.049 0.024,-0.07 -0.117,-0.02 -0.202,-0.074 -0.202,-0.138 0,-0.059 0.073,-0.112 0.177,-0.135 l -0.054,-0.54 c -0.166,-0.031 -0.28,-0.098 -0.28,-0.177 0,-0.073 0.1,-0.136 0.245,-0.17 l -0.052,-0.318 -0.46,0.464 -0.328,1.035 c 0.161,0.03 0.272,0.098 0.272,0.175 0,0.083 -0.129,0.154 -0.308,0.181 l -0.053,0.537 c 0.102,0.023 0.177,0.075 0.177,0.134 0,0.062 -0.079,0.115 -0.19,0.137 0.014,0.02 0.025,0.044 0.025,0.072 v 0.334 h 0.118 c 0.069,0 0.124,0.057 0.124,0.126 0,0.069 -0.055,0.125 -0.124,0.125 h -0.118 v 0.22 c 0,0.072 -0.057,0.129 -0.129,0.129 -0.07,0 -0.127,-0.057 -0.127,-0.129 v -0.22 h -0.119 c -0.067,0 -0.124,-0.056 -0.124,-0.125 0,-0.069 0.057,-0.126 0.124,-0.126 h 0.119 v -0.334 c 0,-0.027 0.01,-0.05 0.023,-0.071 -0.117,-0.019 -0.202,-0.074 -0.202,-0.138 0,-0.059 0.073,-0.111 0.177,-0.134 l -0.054,-0.541 c -0.164,-0.031 -0.279,-0.098 -0.279,-0.177 0,-0.073 0.099,-0.136 0.244,-0.17 l -0.04,-0.24 -0.544,0.55 -0.231,0.724 c 0.161,0.031 0.274,0.097 0.274,0.175 0,0.084 -0.129,0.154 -0.309,0.181 l -0.054,0.537 c 0.104,0.023 0.177,0.074 0.177,0.134 0,0.062 -0.079,0.115 -0.189,0.136 0.015,0.022 0.025,0.046 0.025,0.073 v 0.335 h 0.117 c 0.07,0 0.126,0.056 0.126,0.125 0,0.068 -0.056,0.125 -0.126,0.125 h -0.117 v 0.22 c 0,0.072 -0.057,0.129 -0.128,0.129 -0.071,0 -0.128,-0.057 -0.128,-0.129 v -0.22 h -0.118 c -0.069,0 -0.125,-0.057 -0.125,-0.125 0,-0.069 0.056,-0.125 0.125,-0.125 h 0.118 v -0.335 c 0,-0.026 0.009,-0.049 0.024,-0.07 -0.117,-0.02 -0.202,-0.074 -0.202,-0.139 0,-0.06 0.073,-0.111 0.177,-0.134 l -0.056,-0.541 c -0.158,-0.03 -0.269,-0.094 -0.276,-0.17 l -0.41,0.414 -0.189,0.591 c 0.161,0.03 0.274,0.097 0.274,0.174 0,0.085 -0.129,0.155 -0.309,0.181 l -0.054,0.537 c 0.104,0.023 0.177,0.075 0.177,0.134 0,0.062 -0.077,0.115 -0.188,0.137 0.014,0.021 0.024,0.045 0.024,0.073 V 66.1 h 0.117 c 0.071,0 0.126,0.055 0.126,0.124 0,0.069 -0.055,0.125 -0.126,0.125 h -0.117 v 0.221 c 0,0.071 -0.057,0.128 -0.128,0.128 -0.07,0 -0.128,-0.057 -0.128,-0.128 v -0.221 h -0.118 c -0.064,0 -0.116,-0.052 -0.12,-0.115 v 11.124 l -0.705,-1.162 h -0.714 v 9.594 l -0.387,2.605 -0.619,-1.522 v 3.405 l -0.759,4.655 c 0.102,0.356 0.361,0.633 0.371,1.029 0.005,0.164 -0.011,0.326 -0.062,0.474 0.32,0.203 0.492,0.691 0.095,0.903 l -0.031,0.013 c 0.083,0.24 0.069,0.532 -0.119,0.636 -0.373,0.209 -0.552,-0.306 -0.492,-0.61 -0.195,-0.078 -0.337,-0.246 -0.322,-0.504 0.01,-0.158 0.06,-0.315 0.168,-0.422 -0.121,-0.432 -0.045,-0.848 0.016,-1.322 l 0.003,-0.01 c -0.019,-0.053 -0.037,-0.106 -0.047,-0.155 -0.012,-0.052 0,-0.097 0.019,-0.135 l -0.542,-4.552 v -3.252 l -0.025,0.002 -0.413,1.367 -0.49,-2.605 v -9.594 h -0.361 v 1.162 l -0.705,-1.162 h -0.714 v 9.594 l -0.387,2.605 -0.619,-1.522 v 3.405 l -0.771,4.729 c 0.363,0.325 0.184,0.843 0.278,1.276 0.08,0.359 0.232,0.827 -0.092,1.044 0.055,0.12 0.105,0.246 0.089,0.366 -0.02,0.165 -0.113,0.365 -0.31,0.365 -0.335,0 -0.404,-0.52 -0.262,-0.751 -0.142,-0.11 -0.26,-0.218 -0.3,-0.414 -0.055,-0.284 0.182,-0.518 0.17,-0.793 -0.012,-0.281 -0.105,-0.685 0.054,-0.945 -0.007,-0.037 -0.004,-0.076 0.01,-0.111 l -0.567,-4.766 v -3.252 l -0.027,0.002 -0.412,1.367 -0.49,-2.605 v -9.594 h -0.8 v -0.108 l -7.852,7.931 c -0.005,0.056 -0.013,0.112 -0.027,0.168 -0.099,0.396 -0.292,0.775 -0.528,1.111 0.024,0.012 0.047,0.028 0.068,0.054 0.173,0.201 0.157,0.443 0.049,0.673 -0.104,0.222 -0.379,0.383 -0.614,0.263 -0.372,-0.19 -0.281,-0.71 0,-0.949 -0.021,-0.074 -0.035,-0.145 -0.04,-0.216 l -0.159,0.161 v 0.051 l -0.026,-0.025 -0.026,0.025 v -0.053 l -0.413,-0.416 v 1.472 c 0.083,-0.013 0.158,0.003 0.2,0.055 0.083,0.099 0.025,0.282 -0.129,0.41 -0.022,0.018 -0.046,0.03 -0.071,0.045 v 1.538 h -0.155 v -1.477 c -0.082,0.014 -0.156,-0.002 -0.199,-0.054 -0.082,-0.099 -0.025,-0.281 0.129,-0.409 0.022,-0.019 0.046,-0.032 0.07,-0.045 V 84.71 l -8.536,-8.622 v 0.108 h -0.799 v 9.594 l -0.49,2.605 -0.413,-1.367 -0.026,-0.002 v 3.252 l -0.567,4.766 c 0.014,0.035 0.017,0.074 0.011,0.111 0.158,0.26 0.065,0.664 0.053,0.945 -0.011,0.275 0.225,0.509 0.169,0.793 -0.039,0.196 -0.158,0.304 -0.3,0.414 0.142,0.231 0.074,0.751 -0.262,0.751 -0.197,0 -0.289,-0.2 -0.31,-0.365 -0.015,-0.12 0.034,-0.246 0.09,-0.366 -0.324,-0.217 -0.173,-0.685 -0.093,-1.044 0.095,-0.433 -0.084,-0.951 0.279,-1.276 l -0.772,-4.729 v -3.405 l -0.618,1.522 -0.387,-2.605 v -9.594 h -0.714 l -0.705,1.162 v -1.162 h -0.361 v 9.594 l -0.49,2.605 -0.412,-1.367 -0.026,-0.002 v 3.252 l -0.543,4.552 c 0.02,0.038 0.031,0.083 0.019,0.135 -0.01,0.049 -0.027,0.102 -0.046,0.155 l 0.002,0.01 c 0.062,0.474 0.137,0.89 0.017,1.322 0.109,0.107 0.157,0.264 0.168,0.422 0.015,0.258 -0.127,0.426 -0.322,0.504 0.061,0.304 -0.118,0.819 -0.493,0.61 -0.186,-0.104 -0.202,-0.396 -0.118,-0.636 l -0.032,-0.013 c -0.396,-0.212 -0.224,-0.7 0.096,-0.903 -0.051,-0.148 -0.067,-0.31 -0.063,-0.474 0.01,-0.396 0.269,-0.673 0.372,-1.029 l -0.76,-4.655 v -3.405 l -0.618,1.522 -0.388,-2.605 v -9.594 h -0.713 l -0.705,1.162 V 66.234 c -0.006,0.063 -0.055,0.115 -0.121,0.115 h -0.117 v 0.221 c 0,0.071 -0.058,0.128 -0.128,0.128 -0.071,0 -0.129,-0.057 -0.129,-0.128 v -0.221 h -0.117 c -0.069,0 -0.125,-0.056 -0.125,-0.125 0,-0.069 0.056,-0.124 0.125,-0.124 h 0.117 v -0.335 c 0,-0.028 0.011,-0.052 0.026,-0.073 -0.111,-0.022 -0.19,-0.075 -0.19,-0.137 0,-0.059 0.073,-0.111 0.178,-0.134 l -0.055,-0.537 c -0.179,-0.026 -0.309,-0.096 -0.309,-0.181 0,-0.077 0.113,-0.144 0.274,-0.174 l -0.188,-0.591 -0.41,-0.414 c -0.007,0.076 -0.118,0.14 -0.277,0.17 l -0.055,0.541 c 0.104,0.023 0.177,0.074 0.177,0.134 0,0.065 -0.084,0.119 -0.201,0.139 0.014,0.021 0.023,0.044 0.023,0.07 v 0.335 h 0.118 c 0.069,0 0.125,0.056 0.125,0.125 0,0.068 -0.056,0.125 -0.125,0.125 h -0.118 v 0.22 c 0,0.072 -0.058,0.129 -0.128,0.129 -0.071,0 -0.129,-0.057 -0.129,-0.129 v -0.22 h -0.117 c -0.069,0 -0.125,-0.057 -0.125,-0.125 0,-0.069 0.056,-0.125 0.125,-0.125 h 0.117 v -0.335 c 0,-0.027 0.011,-0.051 0.026,-0.073 -0.111,-0.021 -0.189,-0.074 -0.189,-0.136 0,-0.06 0.073,-0.111 0.177,-0.134 l -0.055,-0.537 c -0.179,-0.027 -0.308,-0.097 -0.308,-0.181 0,-0.078 0.112,-0.144 0.273,-0.175 l -0.23,-0.724 -0.545,-0.55 -0.039,0.24 c 0.144,0.034 0.245,0.097 0.245,0.17 0,0.079 -0.116,0.146 -0.28,0.177 l -0.055,0.541 c 0.104,0.023 0.177,0.075 0.177,0.134 0,0.064 -0.085,0.119 -0.202,0.138 0.014,0.021 0.024,0.044 0.024,0.071 v 0.334 h 0.118 c 0.069,0 0.125,0.057 0.125,0.126 0,0.069 -0.056,0.125 -0.125,0.125 h -0.118 v 0.22 c 0,0.072 -0.057,0.129 -0.127,0.129 -0.072,0 -0.129,-0.057 -0.129,-0.129 v -0.22 h -0.118 c -0.069,0 -0.125,-0.056 -0.125,-0.125 0,-0.069 0.056,-0.126 0.125,-0.126 h 0.118 v -0.334 c 0,-0.028 0.01,-0.052 0.025,-0.072 -0.111,-0.022 -0.189,-0.075 -0.189,-0.137 0,-0.059 0.072,-0.111 0.177,-0.134 l -0.054,-0.537 c -0.179,-0.027 -0.309,-0.098 -0.309,-0.181 0,-0.077 0.112,-0.145 0.273,-0.175 l -0.328,-1.035 -0.46,-0.464 -0.052,0.318 c 0.145,0.034 0.245,0.097 0.245,0.17 0,0.079 -0.116,0.146 -0.28,0.177 l -0.054,0.54 c 0.103,0.023 0.177,0.076 0.177,0.135 0,0.064 -0.085,0.118 -0.202,0.138 0.014,0.021 0.023,0.044 0.023,0.07 v 0.335 h 0.119 c 0.068,0 0.124,0.056 0.124,0.126 0,0.068 -0.056,0.124 -0.124,0.124 h -0.119 v 0.221 c 0,0.072 -0.057,0.129 -0.127,0.129 -0.072,0 -0.129,-0.057 -0.129,-0.129 v -0.221 h -0.118 c -0.069,0 -0.125,-0.056 -0.125,-0.124 0,-0.07 0.056,-0.126 0.125,-0.126 h 0.118 v -0.335 c 0,-0.027 0.01,-0.051 0.025,-0.071 -0.11,-0.022 -0.189,-0.075 -0.189,-0.137 0,-0.059 0.073,-0.112 0.177,-0.135 l -0.054,-0.536 c -0.179,-0.028 -0.308,-0.098 -0.308,-0.181 0,-0.078 0.112,-0.145 0.272,-0.175 l -0.37,-1.167 -0.182,-0.184 -0.03,0.187 c 0.145,0.033 0.244,0.096 0.244,0.169 0,0.079 -0.114,0.146 -0.279,0.177 l -0.055,0.539 c 0.106,0.024 0.178,0.076 0.178,0.135 0,0.065 -0.084,0.119 -0.202,0.139 0.013,0.02 0.024,0.044 0.024,0.07 v 0.335 h 0.117 c 0.069,0 0.125,0.056 0.125,0.126 0,0.068 -0.056,0.124 -0.125,0.124 h -0.117 v 0.221 c 0,0.071 -0.057,0.129 -0.128,0.129 -0.071,0 -0.129,-0.058 -0.129,-0.129 v -0.221 h -0.117 c -0.07,0 -0.125,-0.056 -0.125,-0.124 0,-0.07 0.055,-0.126 0.125,-0.126 h 0.117 v -0.335 c 0,-0.027 0.011,-0.051 0.025,-0.071 -0.111,-0.022 -0.189,-0.075 -0.189,-0.138 0,-0.059 0.073,-0.111 0.178,-0.135 l -0.055,-0.535 c -0.179,-0.028 -0.308,-0.098 -0.308,-0.181 0,-0.078 0.112,-0.145 0.273,-0.176 l -0.299,-0.939 -0.499,-0.504 -0.042,0.263 c 0.144,0.034 0.244,0.096 0.244,0.17 0,0.079 -0.115,0.146 -0.28,0.177 l -0.054,0.539 c 0.105,0.024 0.177,0.076 0.177,0.135 0,0.064 -0.084,0.119 -0.202,0.139 0.014,0.02 0.025,0.044 0.025,0.07 v 0.335 h 0.117 c 0.068,0 0.125,0.056 0.125,0.126 0,0.068 -0.057,0.124 -0.125,0.124 h -0.117 v 0.221 c 0,0.07 -0.058,0.128 -0.129,0.128 -0.071,0 -0.129,-0.058 -0.129,-0.128 v -0.221 h -0.117 c -0.069,0 -0.125,-0.056 -0.125,-0.124 0,-0.07 0.056,-0.126 0.125,-0.126 h 0.117 v -0.335 c 0,-0.028 0.011,-0.051 0.026,-0.072 -0.111,-0.022 -0.19,-0.074 -0.19,-0.137 0,-0.059 0.073,-0.111 0.178,-0.135 l -0.055,-0.535 c -0.179,-0.028 -0.308,-0.098 -0.308,-0.181 0,-0.078 0.112,-0.145 0.273,-0.176 l -0.341,-1.072 -0.401,-0.405 -0.073,0.444 c 0.145,0.033 0.245,0.096 0.245,0.169 0,0.079 -0.114,0.147 -0.28,0.177 l -0.054,0.541 c 0.105,0.023 0.177,0.074 0.177,0.134 0,0.065 -0.084,0.119 -0.202,0.139 0.014,0.02 0.024,0.043 0.024,0.071 v 0.334 h 0.118 c 0.068,0 0.125,0.056 0.125,0.125 0,0.069 -0.057,0.124 -0.125,0.124 h -0.118 v 0.221 c 0,0.072 -0.057,0.129 -0.128,0.129 -0.07,0 -0.128,-0.057 -0.128,-0.129 v -0.221 h -0.118 c -0.069,0 -0.125,-0.055 -0.125,-0.124 0,-0.069 0.056,-0.125 0.125,-0.125 h 0.118 v -0.334 c 0,-0.028 0.01,-0.052 0.025,-0.074 -0.111,-0.022 -0.189,-0.074 -0.189,-0.136 0,-0.06 0.073,-0.111 0.177,-0.134 l -0.054,-0.537 c -0.18,-0.027 -0.309,-0.097 -0.309,-0.181 0,-0.078 0.113,-0.144 0.273,-0.174 l -0.44,-1.384 -0.315,-0.319 -0.085,0.522 c 0.144,0.032 0.244,0.095 0.244,0.168 0,0.079 -0.114,0.147 -0.279,0.177 l -0.055,0.541 c 0.105,0.024 0.177,0.075 0.177,0.135 0,0.065 -0.084,0.119 -0.201,0.138 0.014,0.021 0.024,0.044 0.024,0.071 v 0.335 h 0.118 c 0.068,0 0.124,0.056 0.124,0.125 0,0.068 -0.056,0.124 -0.124,0.124 h -0.118 v 0.221 c 0,0.071 -0.058,0.128 -0.129,0.128 -0.07,0 -0.128,-0.057 -0.128,-0.128 v -0.221 h -0.118 c -0.069,0 -0.125,-0.056 -0.125,-0.124 0,-0.069 0.056,-0.125 0.125,-0.125 h 0.118 v -0.335 c 0,-0.027 0.01,-0.052 0.025,-0.073 -0.111,-0.022 -0.189,-0.074 -0.189,-0.136 0,-0.06 0.073,-0.111 0.177,-0.135 l -0.054,-0.536 c -0.18,-0.027 -0.308,-0.097 -0.308,-0.182 0,-0.077 0.112,-0.144 0.272,-0.174 l -0.283,-0.891 -0.457,7.985 0.016,0.034 c 0.038,0.177 0.143,0.333 0.167,0.512 0.02,0.146 -0.009,0.281 -0.05,0.415 0.075,0.304 0.08,0.614 0.047,0.926 -0.006,0.066 -0.023,0.129 -0.042,0.192 0.049,0.201 0.064,0.402 -0.084,0.601 -0.331,0.449 -0.914,-0.344 -0.353,-0.628 -0.072,-0.282 -0.109,-0.642 -0.104,-0.706 0.014,-0.159 0.075,-0.312 0.127,-0.459 0.096,-0.27 -0.051,-0.487 -0.107,-0.743 -0.006,-0.03 -0.005,-0.059 -10e-4,-0.084 h -0.032 l -0.413,-7.505 -0.644,-1.082 v 3.764 h -0.8 v 9.594 l -0.491,2.605 -0.411,-1.367 -0.026,-0.003 v 3.253 l -0.592,4.97 c 0.034,0.044 0.053,0.101 0.043,0.168 l -0.001,0.004 c 0.156,0.488 0.277,0.98 0.344,1.489 0.025,0.191 0.015,0.367 -0.015,0.539 0.007,0.019 0.016,0.036 0.022,0.056 0.025,0.094 0.028,0.214 0.005,0.309 -0.031,0.123 -0.108,0.244 -0.103,0.372 0.005,0.123 -0.081,0.186 -0.175,0.196 v 0.001 c -0.006,0.026 -0.019,0.045 -0.032,0.064 0.276,0.559 -0.455,1.021 -0.588,0.404 -0.033,-0.145 0.039,-0.292 0.093,-0.423 0.009,-0.02 0.007,-0.052 0.008,-0.08 -0.013,-0.016 -0.025,-0.033 -0.033,-0.056 -0.065,-0.18 -0.247,-0.273 -0.242,-0.491 0.005,-0.191 0.081,-0.355 0.151,-0.522 -0.005,-0.606 0.058,-1.23 0.147,-1.822 l -0.004,-0.014 c -0.03,-0.092 0.003,-0.164 0.061,-0.207 l 0.014,-0.027 -0.805,-4.93 v -3.405 l -0.619,1.522 -0.387,-2.605 v -9.594 h -0.714 l -0.705,1.161 v -12.67 l -0.172,-0.175 -0.073,0.444 c 0.146,0.033 0.245,0.096 0.245,0.169 0,0.079 -0.114,0.147 -0.28,0.177 l -0.054,0.541 c 0.105,0.022 0.177,0.074 0.177,0.134 0,0.065 -0.084,0.119 -0.202,0.138 0.015,0.021 0.024,0.044 0.024,0.072 v 0.334 h 0.117 c 0.07,0 0.125,0.056 0.125,0.125 0,0.069 -0.055,0.124 -0.125,0.124 h -0.117 v 0.221 c 0,0.072 -0.057,0.129 -0.128,0.129 -0.071,0 -0.128,-0.057 -0.128,-0.129 V 49.44 h -0.118 c -0.069,0 -0.124,-0.055 -0.124,-0.124 0,-0.069 0.055,-0.125 0.124,-0.125 h 0.118 v -0.334 c 0,-0.028 0.01,-0.052 0.025,-0.074 -0.111,-0.022 -0.189,-0.074 -0.189,-0.136 0,-0.06 0.073,-0.112 0.177,-0.134 l -0.054,-0.537 c -0.18,-0.027 -0.309,-0.097 -0.309,-0.181 0,-0.078 0.113,-0.144 0.273,-0.174 l -0.439,-1.383 -0.317,-0.319 -0.084,0.521 c 0.145,0.032 0.245,0.095 0.245,0.168 0,0.079 -0.115,0.147 -0.28,0.177 l -0.055,0.541 c 0.105,0.023 0.177,0.075 0.177,0.134 0,0.066 -0.084,0.12 -0.201,0.139 0.014,0.021 0.024,0.044 0.024,0.071 v 0.335 h 0.117 c 0.069,0 0.125,0.056 0.125,0.125 0,0.068 -0.056,0.124 -0.125,0.124 h -0.117 v 0.221 c 0,0.071 -0.057,0.128 -0.129,0.128 -0.07,0 -0.127,-0.057 -0.127,-0.128 v -0.221 h -0.119 c -0.069,0 -0.124,-0.056 -0.124,-0.124 0,-0.069 0.055,-0.125 0.124,-0.125 h 0.119 V 47.67 c 0,-0.027 0.009,-0.052 0.024,-0.073 -0.111,-0.022 -0.189,-0.074 -0.189,-0.137 0,-0.059 0.073,-0.111 0.177,-0.134 l -0.053,-0.536 c -0.181,-0.028 -0.31,-0.097 -0.31,-0.182 0,-0.077 0.113,-0.144 0.273,-0.174 l -0.48,-1.515 -0.092,-0.092 -0.071,0.443 c 0.145,0.033 0.245,0.096 0.245,0.168 0,0.079 -0.116,0.147 -0.28,0.177 l -0.055,0.541 c 0.104,0.023 0.177,0.075 0.177,0.134 0,0.065 -0.084,0.12 -0.202,0.139 0.014,0.021 0.025,0.044 0.025,0.071 v 0.334 h 0.117 c 0.068,0 0.125,0.057 0.125,0.126 0,0.068 -0.057,0.124 -0.125,0.124 h -0.117 v 0.221 c 0,0.071 -0.058,0.128 -0.129,0.128 -0.071,0 -0.129,-0.057 -0.129,-0.128 v -0.221 h -0.117 c -0.069,0 -0.125,-0.056 -0.125,-0.124 0,-0.069 0.056,-0.126 0.125,-0.126 h 0.117 V 46.5 c 0,-0.028 0.01,-0.052 0.026,-0.073 -0.111,-0.022 -0.19,-0.074 -0.19,-0.137 0,-0.059 0.074,-0.111 0.178,-0.134 l -0.054,-0.536 c -0.18,-0.028 -0.309,-0.098 -0.309,-0.182 0,-0.077 0.112,-0.144 0.273,-0.174 l -0.439,-1.379 -0.317,-0.321 -0.084,0.52 c 0.145,0.032 0.245,0.096 0.245,0.168 0,0.079 -0.116,0.146 -0.28,0.177 l -0.054,0.541 c 0.104,0.022 0.177,0.075 0.177,0.133 0,0.065 -0.085,0.12 -0.203,0.139 0.015,0.022 0.025,0.045 0.025,0.072 v 0.333 h 0.117 c 0.069,0 0.125,0.058 0.125,0.126 0,0.068 -0.056,0.125 -0.125,0.125 h -0.117 v 0.22 c 0,0.071 -0.058,0.129 -0.129,0.129 -0.071,0 -0.128,-0.058 -0.128,-0.129 v -0.22 h -0.117 c -0.069,0 -0.126,-0.057 -0.126,-0.125 0,-0.068 0.057,-0.126 0.126,-0.126 h 0.117 v -0.333 c 0,-0.028 0.01,-0.053 0.025,-0.073 -0.111,-0.022 -0.189,-0.075 -0.189,-0.138 0,-0.058 0.074,-0.111 0.177,-0.133 l -0.054,-0.536 c -0.18,-0.028 -0.308,-0.098 -0.308,-0.182 0,-0.077 0.112,-0.145 0.272,-0.175 l -0.481,-1.511 -0.167,-0.17 -0.124,0.76 c 0.145,0.033 0.244,0.096 0.244,0.169 0,0.079 -0.114,0.146 -0.279,0.177 l -0.055,0.54 c 0.105,0.024 0.178,0.076 0.178,0.135 0,0.064 -0.085,0.119 -0.203,0.138 0.014,0.021 0.025,0.044 0.025,0.071 v 0.334 h 0.117 c 0.069,0 0.125,0.057 0.125,0.126 0,0.069 -0.056,0.124 -0.125,0.124 h -0.117 v 0.221 c 0,0.071 -0.058,0.129 -0.128,0.129 -0.071,0 -0.128,-0.058 -0.128,-0.129 V 44.97 h -0.118 c -0.07,0 -0.125,-0.055 -0.125,-0.124 0,-0.069 0.055,-0.126 0.125,-0.126 h 0.118 v -0.334 c 0,-0.027 0.009,-0.052 0.024,-0.072 -0.111,-0.022 -0.189,-0.075 -0.189,-0.137 0,-0.059 0.074,-0.111 0.178,-0.135 l -0.054,-0.536 c -0.18,-0.028 -0.309,-0.098 -0.309,-0.181 0,-0.078 0.112,-0.144 0.273,-0.175 l -0.612,-1.924 -0.092,-0.094 -0.136,0.838 c 0.144,0.033 0.244,0.096 0.244,0.169 0,0.079 -0.114,0.146 -0.28,0.177 l -0.054,0.539 c 0.104,0.024 0.177,0.076 0.177,0.136 0,0.064 -0.084,0.119 -0.202,0.138 0.014,0.02 0.024,0.044 0.024,0.07 v 0.335 h 0.118 c 0.068,0 0.125,0.056 0.125,0.126 0,0.068 -0.057,0.124 -0.125,0.124 h -0.118 v 0.221 c 0,0.071 -0.057,0.129 -0.128,0.129 -0.071,0 -0.128,-0.058 -0.128,-0.129 v -0.221 h -0.118 c -0.069,0 -0.125,-0.056 -0.125,-0.124 0,-0.07 0.056,-0.126 0.125,-0.126 h 0.118 v -0.335 c 0,-0.026 0.009,-0.051 0.025,-0.072 -0.111,-0.022 -0.19,-0.074 -0.19,-0.136 0,-0.06 0.074,-0.112 0.178,-0.136 l -0.054,-0.535 c -0.18,-0.028 -0.309,-0.098 -0.309,-0.181 0,-0.078 0.112,-0.144 0.273,-0.175 l -0.635,-2.002 -0.173,1.444 h -0.173 l -0.473,5.534 0.018,0.011 c 0.765,0.646 0.273,2.159 0.13,2.934 0.004,0.016 0.009,0.033 0.008,0.049 0.047,0.117 -0.014,0.291 -0.181,0.309 -0.24,0.026 -0.424,-0.097 -0.482,-0.332 -0.028,-0.111 0.034,-0.221 0.144,-0.253 0.028,-0.009 0.051,-0.009 0.076,-0.012 -0.04,-0.822 -0.405,-1.702 -0.043,-2.486 -0.017,-0.05 -0.009,-0.103 0.018,-0.146 l -0.345,-5.608 h -0.141 l -0.172,-3.287 -0.547,-0.553 -0.114,0.692 c 0.146,0.034 0.245,0.097 0.245,0.169 0,0.079 -0.114,0.147 -0.278,0.177 l -0.055,0.541 c 0.104,0.023 0.177,0.074 0.177,0.134 0,0.065 -0.085,0.119 -0.202,0.139 0.014,0.021 0.023,0.044 0.023,0.07 v 0.335 h 0.119 c 0.069,0 0.124,0.056 0.124,0.125 0,0.068 -0.055,0.125 -0.124,0.125 h -0.119 v 0.221 c 0,0.07 -0.057,0.127 -0.128,0.127 -0.071,0 -0.128,-0.057 -0.128,-0.127 v -0.221 h -0.117 c -0.07,0 -0.125,-0.057 -0.125,-0.125 0,-0.069 0.055,-0.125 0.125,-0.125 h 0.117 v -0.335 c 0,-0.027 0.011,-0.051 0.025,-0.071 -0.11,-0.022 -0.188,-0.076 -0.188,-0.138 0,-0.06 0.072,-0.111 0.176,-0.134 l -0.053,-0.537 c -0.18,-0.026 -0.309,-0.097 -0.309,-0.181 0,-0.077 0.112,-0.144 0.273,-0.175 l -0.201,-0.634 -0.607,1.261 -0.31,6.524 -0.258,-0.567 -0.206,8.923 -0.955,2.012 -0.18,-0.67 -0.077,10e-4 -0.207,4.77 -0.147,0.017 -0.317,1.969 h -0.002 l 0.002,0.029 c -0.002,0.019 -0.003,0.038 -0.004,0.057 0.181,0.7 0.867,3.019 0.24,3.423 0.073,0.228 0.088,0.478 0.026,0.711 -0.047,0.187 -0.236,0.367 -0.428,0.23 -0.166,-0.118 -0.174,-0.317 -0.148,-0.498 0.014,-0.091 0.035,-0.18 0.05,-0.271 l 10e-4,-0.029 c -0.168,0.432 -0.266,0.866 0.054,1.379 0.141,0.226 -0.215,0.433 -0.356,0.209 -0.293,-0.469 -0.404,-1.06 -0.18,-1.589 0.281,-0.661 0.465,-1.23 0.398,-1.957 -0.049,-0.536 -0.12,-1.033 -0.072,-1.565 -0.014,-0.062 -0.024,-0.104 -0.025,-0.11 -0.009,-0.061 0.007,-0.114 0.036,-0.157 l -0.256,-1.718 -0.212,0.025 -0.31,-1.084 v -3.819 l -0.18,0.003 -0.336,0.644 -0.542,-2.063 -0.178,-4.797 -0.234,0.92 v 1.53 l -0.31,2.476 -0.257,-0.416 -0.19,4.198 -0.014,0.005 -0.338,3.125 h -0.02 l 0.007,0.029 c 0.013,0.534 0.281,1.042 0.304,1.587 0.017,0.413 -0.264,0.806 -0.353,1.202 0.003,0.278 -0.023,0.734 -0.413,0.581 -0.326,-0.128 -0.24,-0.579 -0.048,-0.81 -0.043,-0.345 -0.079,-0.69 -0.095,-1.04 -0.021,-0.505 0.134,-0.946 0.167,-1.443 0.002,-0.036 0.013,-0.066 0.028,-0.093 l 0.007,-0.035 -0.504,-2.947 -0.103,-0.352 -0.189,2.444 -0.302,2.741 c 0.001,0.02 0.004,0.041 -0.002,0.064 -0.155,0.648 0.188,1.173 0.317,1.786 0.081,0.385 -0.043,0.763 -0.188,1.115 l -0.015,0.023 c 0.129,0.27 0.173,0.55 -0.051,0.79 -0.052,0.055 -0.13,0.07 -0.201,0.053 -0.157,-0.037 -0.293,-0.163 -0.293,-0.34 0,-0.184 0.004,-0.211 0.059,-0.387 0.051,-0.165 -0.207,-0.402 -0.258,-0.552 -0.123,-0.357 -0.119,-0.68 -0.058,-1.05 0.047,-0.28 0.277,-1.033 0.144,-1.311 -0.022,-0.043 -0.023,-0.083 -0.018,-0.121 h -0.012 l -0.263,-2.811 h -0.2 l -0.394,-4.937 -0.432,0.707 -0.463,-2.373 -0.311,-9.266 -1.444,-5.296 V 10.072 h -9.681 v 81.704 h 0.632 c 0.73,0 1.718,0.683 2.207,1.526 0.345,0.61 0.689,1.218 1.032,1.828 0.285,0.487 0.257,0.917 -0.003,1.196 2.742,1.102 4.447,2.499 4.447,3.64 0,1.459 -2.787,2.739 -6.972,3.459 v 4.748 c 3.122,0.459 5.141,1.185 5.141,2.003 0,0.312 -0.298,0.611 -0.836,0.887 v 0.409 c 1.216,0.177 1.963,0.687 2.591,1.301 0.544,0.548 1.087,1.096 1.631,1.644 0.518,0.507 0.393,0.95 -0.22,1.187 2.523,1.101 4.018,2.341 4.018,3.392 0,2.139 -6.201,3.941 -14.661,4.496 v 7.243 c 3.282,0.526 5.49,1.506 5.49,2.63 0,1.124 -2.208,2.105 -5.49,2.631 v 6.865 c 3.282,0.496 5.49,1.42 5.49,2.479 0,1.133 -2.527,2.112 -6.191,2.576 v 3.206 h -2.862 v 5.492 h -1.052 v 14.485 h -0.629 l -0.11,4.089 h -0.275 l -0.117,-4.089 h -0.621 v -14.485 h -1.052 v -5.492 h -2.862 v -3.206 c -3.665,-0.464 -6.192,-1.443 -6.192,-2.576 0,-1.059 2.211,-1.983 5.491,-2.479 v -6.865 c -3.28,-0.526 -5.491,-1.507 -5.491,-2.631 0,-1.124 2.211,-2.104 5.491,-2.63 v -7.243 c -8.46,-0.555 -14.661,-2.357 -14.661,-4.496 0,-1.051 1.495,-2.291 4.018,-3.392 -0.613,-0.237 -0.738,-0.68 -0.22,-1.187 0.544,-0.548 1.087,-1.096 1.631,-1.644 0.617,-0.605 1.292,-1.169 2.501,-1.326 v -0.432 c -0.481,-0.262 -0.746,-0.545 -0.746,-0.839 0,-0.818 2.019,-1.544 5.141,-2.003 v -4.748 c -4.185,-0.72 -6.971,-2 -6.971,-3.459 0,-1.141 1.704,-2.538 4.446,-3.64 -0.26,-0.279 -0.287,-0.709 -0.004,-1.196 0.344,-0.61 0.689,-1.218 1.033,-1.828 0.49,-0.843 1.478,-1.526 2.208,-1.526 h 0.631 V 10.072 h -9.545 l 1.032,2.353 v 16.287 h 2.85 l -15.403,5.008 -0.884,4.819 v 10.225 l 1.018,3.394 v 8.008 c 0,1.331 0.059,2.409 -0.251,2.409 -0.416,0 -0.858,-0.646 -1.213,-1.472 -0.351,0.826 -0.787,1.472 -1.198,1.472 -0.273,0 -0.255,-0.866 -0.248,-2.002 h -0.008 v -3.937 h -0.72 l -0.875,2.342 v 0.645 l 0.526,0.712 v 4.988 l -1.192,-0.01 -0.657,5.066 V 80.45 l 1.052,1.771 h -2.918 v 7.668 h 0.339 v 3.054 h 0.849 v 1.832 h -1.833 v 3.673 c 0,2.629 -1.919,4.808 -4.432,5.218 -0.109,0.279 -0.371,0.503 -0.709,0.61 v 0.378 c 0.169,0.034 0.281,0.093 0.281,0.16 0,0.089 -0.195,0.164 -0.458,0.185 l -0.007,0.605 c 0.622,0.087 1.101,0.617 1.101,1.259 0,0.652 -0.495,1.189 -1.132,1.263 l -0.027,2.29 c 0.109,0.196 0.176,0.364 0.21,0.507 0.1,0.072 0.18,0.17 0.233,0.286 0.112,-0.082 0.235,-0.219 0.374,-0.394 -0.089,0.25 -0.193,0.461 -0.31,0.615 0.004,0.033 0.008,0.068 0.008,0.102 0,0.066 -0.009,0.128 -0.025,0.188 0.158,0.001 0.388,-0.053 0.739,-0.188 -0.343,0.233 -0.61,0.35 -0.824,0.396 -0.062,0.104 -0.147,0.189 -0.248,0.249 0.084,0.106 0.214,0.222 0.379,0.353 -0.221,-0.078 -0.41,-0.169 -0.558,-0.27 l -0.103,8.599 -0.014,-1.196 v 0.012 l -0.014,1.197 -0.097,-8.033 c -0.18,-0.281 -0.278,-0.509 -0.323,-0.697 -0.099,-0.072 -0.18,-0.17 -0.233,-0.286 -0.111,0.083 -0.234,0.219 -0.372,0.393 0.087,-0.25 0.192,-0.46 0.308,-0.614 -0.004,-0.034 -0.007,-0.068 -0.007,-0.103 0,-0.064 0.009,-0.127 0.023,-0.187 -0.157,-0.001 -0.387,0.054 -0.738,0.187 0.343,-0.232 0.61,-0.349 0.825,-0.396 0.061,-0.103 0.146,-0.188 0.247,-0.248 -0.084,-0.106 -0.214,-0.223 -0.378,-0.353 0.226,0.08 0.42,0.173 0.569,0.276 0.018,-0.004 0.037,-0.006 0.055,-0.009 l -0.031,-2.664 c -0.637,-0.073 -1.132,-0.61 -1.132,-1.263 0,-0.641 0.479,-1.171 1.101,-1.258 l -0.007,-0.605 c -0.263,-0.022 -0.458,-0.096 -0.458,-0.185 0,-0.067 0.112,-0.127 0.28,-0.161 v -0.378 c -0.336,-0.106 -0.599,-0.33 -0.708,-0.609 -2.513,-0.409 -4.432,-2.589 -4.432,-5.219 v -3.672 h -1.832 v -1.833 h 0.848 v -3.054 h 0.339 v -7.668 h -2.918 l 1.052,-1.77 V 70.392 l -0.657,-5.068 -1.193,0.012 v -4.988 l 0.527,-0.713 v -0.644 l -0.875,-2.342 h -0.72 v 3.936 h -0.007 c 0.006,1.137 0.024,2.003 -0.249,2.003 -0.411,0 -0.848,-0.647 -1.198,-1.472 -0.355,0.825 -0.798,1.472 -1.213,1.472 -0.309,0 -0.251,-1.08 -0.251,-2.409 v -8.008 l 1.017,-3.393 V 38.552 l -0.882,-4.819 -15.404,-5.008 h 2.85 V 12.438 l 1.038,-2.366 h -7.993 v 104.245 h -2.256 v 1.884 l 8.14,2.695 c 0.375,0 0.679,0.304 0.679,0.678 0,0.375 -0.304,0.678 -0.679,0.678 h -7.744 v 3.449 h -33.974 v 5.031 h -12.936 l -0.376,21.989 -0.377,-21.989 h -1.234 V 11.509 h -3.173 V 113.74 h -3.333 v 0.322 h 3.333 v 0.699 h -3.333 v 0.43 h 3.333 v 0.699 h -3.333 v 0.429 h 3.333 v 0.699 h -11.769 v 4.783 h -12.296 l -0.358,20.902 -0.358,-20.902 h -1.174 V 11.509 h -14.333 v 4.666 l 4.805,12.079 v 4.658 h 2.62 v 35.237 h -6.211 l -4.855,3.522 v 1.525 h -2.103 l -5.808,4.214 v 6.997 h 0.631 v 0.825 h -4.271 v 0.632 h -2.524 v 0.377 c 0.19,-0.233 0.452,-0.377 0.74,-0.377 0.583,0 1.057,0.587 1.057,1.311 0,0.722 -0.474,1.31 -1.057,1.31 -0.288,0 -0.55,-0.145 -0.74,-0.379 v 15.23 h -0.631 V 85.864 h -2.377 v -1.942 h -1.602 v 12.521 h -0.341 V 82.952 h -0.678 v 10.192 h -0.34 V 82.952 h -5.434 v 12.133 h -0.777 V 82.952 h -1.359 v 2.912 h -2.234 v 6.503 h -1.26 v -6.503 h -7.28 v 7.28 h -0.34 V 82.952 h -0.68 v 13.491 h -0.339 V 83.922 h -1.601 v 1.942 h -2.379 v 17.472 h -0.631 v -15.23 c -0.191,0.234 -0.452,0.379 -0.74,0.379 -0.583,0 -1.055,-0.588 -1.055,-1.31 0,-0.724 0.472,-1.311 1.055,-1.311 0.288,0 0.549,0.144 0.74,0.377 v -0.377 h -2.524 v -0.632 h -4.271 v -0.825 h 0.631 V 77.41 l -5.808,-4.214 h -2.103 v -1.525 l -4.854,-3.522 h -6.211 V 32.912 h 2.62 v -4.658 l 4.805,-12.079 V 1.448 l -8.424,-1.455 c 0.438,-3.83 0.886,-7.659 1.338,-11.489 H 1.485 C 0.989,-7.663 0.496,-3.832 0,0 m -611.748,21.023 -2.921,7.231 h 2.921 z m 1.893,9.415 h -1.893 v -0.729 h -3.057 v 3.203 h 4.95 z m 63.821,-9.415 v 7.231 h 2.919 z m -1.894,11.889 h 4.951 v -3.203 h -3.057 v 0.729 h -1.894 z m 34.228,80.828 h -3.815 v 0.322 h 3.815 z m 0,1.021 h -3.815 v 0.43 h 3.815 z m 0,1.129 h -3.815 v 0.43 h 3.815 z m 4.03,-2.15 h -3.439 v 0.322 h 3.439 z m 0,1.021 h -3.439 v 0.43 h 3.439 z m 0,1.129 h -3.439 v 0.43 h 3.439 z m 26.034,4.362 h -4.014 v 0.339 h 4.014 z m 0,1.075 h -4.014 v 0.452 h 4.014 z m 0,1.187 h -4.014 v 0.452 h 4.014 z m 4.24,-2.262 h -3.618 v 0.339 h 3.618 z m 0,1.075 h -3.618 v 0.452 h 3.618 z m 0,1.187 h -3.618 v 0.452 h 3.618 z m 4.239,-2.262 h -3.618 v 0.339 h 3.618 z m 0,1.075 h -3.618 v 0.452 h 3.618 z m 0,1.187 h -3.618 v 0.452 h 3.618 z m 4.07,-2.262 h -3.448 v 0.339 h 3.448 z m 0,1.075 h -3.448 v 0.452 h 3.448 z m 0,1.187 h -3.448 v 0.452 h 3.448 z m 4.07,-2.262 h -3.449 v 0.339 h 3.449 z m 0,1.075 h -3.449 v 0.452 h 3.449 z m 0,1.187 h -3.449 v 0.452 h 3.449 z m 4.24,-2.262 h -3.618 v 0.339 h 3.618 z m 0,1.075 h -3.618 v 0.452 h 3.618 z m 0,1.187 h -3.618 v 0.452 h 3.618 z m 4.239,-2.262 h -3.618 v 0.339 h 3.618 z m 0,1.075 h -3.618 v 0.452 h 3.618 z m 0,1.187 h -3.618 v 0.452 h 3.618 z m 4.24,-2.262 h -3.618 v 0.339 h 3.618 z m 0,1.075 h -3.618 v 0.452 h 3.618 z m 0,1.187 h -3.618 v 0.452 h 3.618 z m 36.82,-15.651 c 0,-0.417 -0.242,-0.777 -0.593,-0.953 0.145,0.233 0.236,0.573 0.236,0.953 0,0.38 -0.091,0.72 -0.236,0.953 0.351,-0.177 0.593,-0.537 0.593,-0.953 m -0.561,0 c 0,-0.48 -0.159,-0.863 -0.34,-1.007 l -0.025,2.032 c 0.191,-0.127 0.365,-0.524 0.365,-1.025 m -0.084,4.669 c 0,-0.217 -0.133,-0.403 -0.319,-0.476 l -0.011,0.957 c 0.191,-0.071 0.33,-0.258 0.33,-0.481 m -0.561,1.22 -0.006,-0.487 c -0.039,-0.005 -0.076,-0.012 -0.113,-0.022 0.006,0.122 0.043,0.287 0.119,0.509 m -0.424,-1.22 c 0,0.255 0.181,0.464 0.416,0.503 l -0.013,-1.004 c -0.229,0.044 -0.403,0.252 -0.403,0.501 m -0.559,-4.657 c 0,0.417 0.241,0.777 0.592,0.954 -0.144,-0.234 -0.236,-0.574 -0.236,-0.954 0,-0.38 0.092,-0.72 0.236,-0.953 -0.351,0.177 -0.592,0.538 -0.592,0.953 m 0.559,0 c 0,0.502 0.175,0.898 0.366,1.026 l -0.025,-2.032 c -0.181,0.143 -0.341,0.527 -0.341,1.006 M -419.96,89.07 c 0,0.74 0.601,1.34 1.341,1.34 0.74,0 1.339,-0.6 1.339,-1.34 v -6.735 h -2.68 z m -1.663,-6.735 h -2.035 v 6.109 c 0,0.672 0.455,1.384 1.018,1.592 0.562,0.207 1.017,-0.226 1.017,-0.966 z m 5.802,-14.251 h -5.496 v 5.158 c 0,1.437 1.104,2.616 2.511,2.737 v -1.566 c -0.025,-0.009 -0.05,-0.019 -0.074,-0.03 -0.097,-0.047 -0.169,-0.156 -0.229,-0.242 -0.163,-0.231 -0.206,-0.541 -0.283,-0.807 -0.151,-0.533 -0.381,-1.04 -0.889,-1.306 l -0.017,-0.014 h 3.451 l -0.018,0.014 c -0.508,0.266 -0.738,0.773 -0.889,1.306 -0.076,0.266 -0.12,0.576 -0.282,0.807 -0.061,0.086 -0.133,0.195 -0.23,0.242 -0.032,0.014 -0.066,0.027 -0.099,0.039 v 1.56 c 1.423,-0.105 2.544,-1.291 2.544,-2.74 z m 2.173,14.251 h -2.037 v 6.735 c 0,0.74 0.456,1.173 1.018,0.966 0.563,-0.208 1.019,-0.92 1.019,-1.592 z m 92.757,-17.517 c -0.047,0.027 -0.109,0.049 -0.183,0.062 l -0.055,0.541 c 0.105,0.023 0.178,0.075 0.178,0.134 0,0.065 -0.085,0.119 -0.202,0.139 0.014,0.021 0.024,0.044 0.024,0.071 V 66.1 h 0.117 c 0.066,0 0.115,0.051 0.121,0.115 z m 41.037,0.603 -0.054,-0.541 c -0.075,-0.013 -0.136,-0.035 -0.183,-0.062 v 1.397 c 0.004,-0.064 0.056,-0.115 0.12,-0.115 h 0.118 v -0.335 c 0,-0.027 0.009,-0.05 0.024,-0.071 -0.117,-0.02 -0.202,-0.074 -0.202,-0.139 0,-0.059 0.073,-0.111 0.177,-0.134"
   inkscape:connector-curvature="0" />
				</g>
			</g>
		</g>
		<path
   id="path857"
   style="fill:#3fa2ca;fill-opacity:1;fill-rule:nonzero;stroke:none"
   d="m 100.644,186.083 h 652.933 v 70.071 H 100.644 Z"
   inkscape:connector-curvature="0"
   sodipodi:nodetypes="ccccc" /><g
   transform="translate(204.6123,210.7488)"
   id="g859"><path
     id="path861"
     style="fill:#3fa2ca;fill-opacity:1;fill-rule:nonzero;stroke:none"
     d="m 0,0 h 43.978 v 90.719 h 1.25 v 2.593 H 42.5 v 3.319 H 20.863 v 5.043 h -8.267 l -1.235,3.293 H 9.319 v 5.884 H 8.863 8.408 v -5.884 h -3.79 v -3.293 -3.795 -1.248 H 1.478 V 93.312 H -1.25 V 90.719 H 0 Z"
     inkscape:connector-curvature="0" /></g><g
   transform="translate(213.4755,321.5997)"
   id="g863"><path
     id="path865"
     style="fill:#327ea0;fill-opacity:1;fill-rule:nonzero;stroke:none"
     d="m 0,0 h -0.455 v -5.884 h -3.789 v -3.293 -3.796 -1.247 h -3.14 v -3.318 h -2.728 v -2.593 h 1.249 v -90.72 h 43.978 v 90.72 h 1.25 v 2.593 h -2.728 v 3.318 H 12 v 5.043 H 3.732 L 2.497,-5.884 H 0.455 V 0 Z"
     inkscape:connector-curvature="0" /></g><g
   id="g867"><g
     clip-path="url(#clipPath873)"
     id="g869"><g
       transform="translate(214.2939,322.4177)"
       id="g875"><path
         id="path877"
         style="fill:#3fa2ca;fill-opacity:1;fill-rule:nonzero;stroke:none"
         d="m 0,0 c 0,0.452 -0.366,0.819 -0.819,0.819 -0.452,0 -0.818,-0.367 -0.818,-0.819 0,-0.452 0.366,-0.818 0.818,-0.818 C -0.366,-0.818 0,-0.452 0,0"
         inkscape:connector-curvature="0" /></g></g></g><g
   id="g879"><g
     clip-path="url(#clipPath885)"
     id="g881"><g
       id="g887"><g
         id="g889" /></g></g></g><g
   transform="translate(612.7744,205.438)"
   id="g891"><path
     id="path893"
     style="fill:#3fa2ca;fill-opacity:1;fill-rule:nonzero;stroke:none"
     d="M 0,0 V 121.963 L -54.147,133.202 -48.214,0 h -158.888 v 75.354 h -2.925 v 45.092 h -7.55 v 12.078 h -2.697 v 17.715 h -14.861 v 13.019 h -1.322 v -13.019 h -2.911 v 16.297 h -1.322 v -16.297 h -9.395 v -29.793 h -4.852 V 75.354 h -4.16 V 0 h -42.253 v 100.308 h 0.73 v 1.159 h -5.2 v 6.97 h 0.672 v 1.116 h -4.773 v 4.007 h 0.428 v 0.857 h -2.055 v 3.785 h -1.962 -0.305 v 13.513 h -0.213 -0.27 -0.273 v -13.513 h -0.916 v 7.533 h -0.213 -0.27 -0.273 v -7.533 h -2.267 v -3.785 h -2.372 v -0.857 h 0.745 v -4.007 h -4.773 v -1.116 h 0.672 v -6.97 h -5.2 v -1.159 h 0.73 V 0 H -469.625 V -13.68 H 105.561 V 0 Z"
     inkscape:connector-curvature="0" /></g><g
   transform="translate(372.0843,371.9745)"
   id="g895"><path
     id="path897"
     style="fill:#327ea0;fill-opacity:1;fill-rule:nonzero;stroke:none"
     d="m 0,0 v -16.298 h -9.394 v -29.793 h -4.853 v -45.092 h -4.161 v -75.354 H -60.66 v 100.308 h 0.73 v 1.159 h -5.2 v 6.971 h 0.672 v 1.116 h -4.773 v 4.007 h 0.428 v 0.856 h -2.055 v 3.785 h -1.962 -0.305 v 13.513 h -0.213 -0.27 -0.272 v -13.513 h -0.917 v 7.534 h -0.213 -0.27 -0.272 v -7.534 h -2.267 v -3.785 h -2.373 v -0.856 h 0.745 v -4.007 h -4.772 v -1.116 h 0.672 v -6.971 h -5.201 v -1.159 h 0.73 v -100.308 h -140.917 v -13.575 h 574.707 v 13.575 H 240.69 v 121.964 l -54.147,11.239 5.933,-133.203 H 33.588 v 75.354 h -2.925 v 45.092 h -7.55 v 12.078 h -2.697 v 17.715 H 5.556 V -3.279 H 4.233 V -16.298 H 1.322 V 0 Z"
     inkscape:connector-curvature="0" /></g><g
   transform="translate(516.2549,224.5884)"
   id="g899">
	 <path
   id="path901"
   style="fill:#3fa2ca;fill-opacity:1;fill-rule:nonzero;stroke:none"
   d="m 0,0 h -11.3 v 17.435 h -4.607 v 33.107 h 1.791 v 0.719 H -53.7 v -0.719 h 1.791 V 33.846 h -3.88 l -3.703,-19.029 v 62.406 h -1.624 v 22.601 h -8.178 v 8.604 h -4.375 v 7.228 h -1.536 v 12.391 h -0.397 v -12.391 h -1.535 v -7.228 h -4.376 v -8.604 h -8.115 V 77.223 h -1.687 V 36.191 h -12.583 V 0 h -41.747 v 69.978 h 3.356 v 1.101 h -3.356 v 1.972 h -4.252 v 3.238 h -34.782 v -3.238 h -4.253 v -1.972 h -3.355 v -1.101 h 3.355 V 26.415 h -5.688 v 8.175 h -35.097 v -9.982 h -7.651 V 6.022 h -12.391 V 66.77 h -4.13 v 4.13 h -3.269 v 10.928 h -0.689 V 70.9 h -1.549 v 13.682 h -0.688 V 70.9 h -1.904 v -4.13 h -1.022 V 6.022 h -25.641 v 35.623 h 1.205 v 2.41 h -7.916 v 6.539 h -3.786 v -6.539 h -3.442 v 6.539 h -3.442 v -6.539 h -6.695 v 6.539 h -20.495 v -6.539 h -4.786 v -2.41 h 2.721 V 28.222 h -7.572 V -2.065 h -10.394 v 8.087 h -11.57 v -17.638 h -13.991 v -7.527 h -15.244 v -18.571 h 614.345 l -15.82,18.571 h -18.438 v 12.314 h -17.312 l -6.551,48.474 h -0.984 v 5.824 h -3.441 v -5.824 h -0.853 v 2.178 h -2.409 v -2.178 h -4.991 v 5.077 h -1.376 v 3.528 h -9.81 v -3.528 h -1.376 v -5.077 h -1.377 V 12.532 h -8.719 v 73.87 h -2.869 v 16.2 h -0.917 v -16.2 h -2.18 v 22.473 h -0.918 V 86.402 h -1.893 v 12.164 h -0.918 V 86.402 H 100.213 V 33.968 H 81.398 V 0 H 63.827 m -0.74,0 H 0.74 Z"
   inkscape:connector-curvature="0"
   sodipodi:nodetypes="cccccccccccccccccccccccccccccccccccccccccccccccccccccccccccccccccccccccccccccccccccccccccccccccccccccccccccccccccccccccccccccccccccccccccccccccccccc" />
       </g>
       <g
   transform="translate(440.6535,352.6353)"
   id="g903">
       	<path
   id="path905"
   style="fill:#255b76;fill-opacity:1;fill-rule:nonzero;stroke:none"
   d="m 0,0 v -12.39 h -1.535 v -7.228 h -4.376 v -8.605 h -8.116 v -22.601 h -1.687 v -41.033 h -12.583 v -36.19 h -41.746 v 69.977 h 3.355 v 1.103 h -3.355 v 1.971 h -4.253 v 3.238 h -34.781 v -3.238 h -4.254 v -1.971 h -3.355 v -1.103 h 3.355 v -43.562 h -5.688 v 8.175 h -35.096 v -9.982 h -7.652 v -18.586 h -12.39 v 60.749 h -4.13 v 4.13 h -3.27 v 10.927 h -0.689 v -10.927 h -1.548 v 13.681 h -0.689 v -13.681 h -1.903 v -4.13 h -1.023 v -60.749 h -25.641 v 35.623 h 1.205 v 2.41 h -7.916 v 6.539 h -3.786 v -6.539 h -3.442 v 6.539 h -3.442 v -6.539 h -6.695 v 6.539 h -20.495 v -6.539 h -4.786 v -2.41 h 2.721 v -13.422 h -7.572 v -30.288 h -10.393 v 8.087 h -11.571 v -17.639 h -13.991 v -7.526 h -15.243 v -18.449 h 598.255 v 18.449 H 261.63 v 12.314 h -17.312 l -6.552,48.474 h -0.982 v 5.824 h -3.442 v -5.824 h -0.852 v 2.178 h -2.409 v -2.178 h -4.991 v 5.077 h -1.377 v 3.528 h -9.809 v -3.528 h -1.377 v -5.077 h -1.377 v -29.113 h -8.719 v 73.87 h -2.869 v 16.2 h -0.917 v -16.2 h -2.18 v 22.473 h -0.918 v -22.473 h -1.892 v 12.165 h -0.918 V -41.645 H 175.815 V -94.079 H 157 v -33.968 H 139.429 75.602 64.301 v 17.435 h -4.607 v 33.107 h 1.791 v 0.72 H 21.901 v -0.72 h 1.792 v -16.696 h -3.88 L 16.11,-113.23 v 62.406 h -1.624 v 22.601 H 6.307 v 8.605 H 1.932 v 7.228 H 0.397 V 0 Z m 76.342,-128.047 h 62.346 z"
   inkscape:connector-curvature="0"
   sodipodi:nodetypes="ccccccccccccccccccccccccccccccccccccccccccccccccccccccccccccccccccccccccccccccccccccccccccccccccccccccccccccccccccccccccccccccccccccccccccccccccccccc" />
       </g>
	 <g
   id="g907">
	  <g
   clip-path="url(#clipPath913)"
   id="g909">
           <g
   transform="translate(643.062,290.2515)"
   id="g915">
	    <path
   id="path917"
   style="fill:#3fa2ca;fill-opacity:1;fill-rule:nonzero;stroke:none"
   d="m 0,0 c 0,0.452 -0.308,0.819 -0.687,0.819 -0.379,0 -0.687,-0.367 -0.687,-0.819 0,-0.452 0.308,-0.818 0.687,-0.818 C -0.308,-0.818 0,-0.452 0,0"
   inkscape:connector-curvature="0" />
       </g>
	 </g>
       </g>
	 		<g
   transform="translate(717.9424,190.7793)"
   id="g919">
		     		<path
   id="path921"
   style="fill:#18374d;fill-opacity:1;fill-rule:nonzero;stroke:none"
   d="M 0,-4.5000001 -4.263,28.517 h -8.719 V 52.18 h 1.077 v 2.141 h -4.233 v 9.218 h -0.516 v -9.218 h -2.926 v 7.552 h -0.516 V 54.321 H -37.731 V 52.18 h 1.205 V 4.167 h -20.135 v 21.507 h -11.467 v 52.848 h 1.049 v 2.593 h -2.29 v 3.32 h -2.635 v 1.247 3.795 3.293 h -3.181 v 5.884 h -0.382 -0.383 V 92.77 h -1.714 l -1.037,-3.293 h -6.939 v -5.042 h -18.162 v -3.32 h -2.29 v -2.593 h 1.049 V 44.137 H -120.24 V 10.352 l -16.863,7.471 v 32.793 h 2.721 v 2.409 h -4.786 v 6.54 h -20.495 v -6.54 h -6.695 v 6.54 h -3.442 v -6.54 h -3.442 v 6.54 h -3.785 v -6.54 h -7.916 v -2.409 h 1.204 V 5.164 h -7.687 v 0.477 h -1.391 v 12.952 h 1.391 v 1.039 h -1.391 v 12.953 h 1.391 v 1.038 h -1.391 v 12.953 h 1.391 v 1.039 h -1.391 v 12.952 h 1.391 v 1.039 h -1.391 v 12.953 h 1.391 v 1.039 h -1.391 v 13.404 h 2.383 v 1.043 h 1.213 v 2.841 h -22.639 v 3.161 h 0.736 v 0.912 h -12.324 v -0.912 h 0.736 v -3.161 h -5.611 v -2.841 h 1.213 v -1.043 h 2.384 V 75.598 h -1.392 v -1.039 h 1.392 V 61.606 h -1.392 v -1.039 h 1.392 V 47.615 h -1.392 v -1.039 h 1.392 V 33.623 h -1.392 v -1.038 h 1.392 V 19.632 h -1.392 v -1.039 h 1.392 V 5.641 h -1.392 V 4.602 h 1.392 v -7.5849999 h -7.727 V 34.918 h -31.092 V 5.164 h -5.048 v 92.688 h -3.734 v -2.385 l -6.892,-1.686 v 1.549 h -3.735 v -2.463 l -6.891,-1.685 v 1.776 h -3.735 v -2.69 l -6.891,-1.686 v 1.466 h -3.735 v -2.38 l -6.892,-1.685 v 1.263 h -3.735 V -3.776 h -5.254 V 44.75 h -19.46 V 14.91 h -19.951 v 25.447 h -2.458 v 8.356 h 1.459 v 0.84 h -6.456 v 2.627 h -0.689 v -2.627 h -2.065 v 13.488 h -0.516 V 49.553 h -2.689 v -0.84 h 1.582 v -8.356 h -13.167 V 20.945 h -12.818 l -6.695,-24.721 h -13.433 v 80.714 h -17.785 v 2.892 h 1.011 v 1.014 h -13.47 V 79.83 h 1.059 v -2.892 -4.65 -55.279 h -8.386 v 20.886 h 2.981 v 1.891 h -21.101 v 12.618 h -4.025 v 2.593 h -8.985 v -2.593 h -7.311 V 7.35 h -23.984 v 33.415 h -20.196 V 14.373 h -17.526 V -2.514 h -12.637 v 21.228 h -16.619 V -3.8850001 h -33.639 v -0.8119997 h 33.639 5.085 8.308 3.226 12.637 17.526 5.889 3.153 11.154 23.984 7.311 8.985 4.025 15.741 2.379 8.386 14.063 6.928 8.194 32.946 7.609 12.843 4.547 20.291 5.452 18.922 1.868 1.867 6.892 3.735 6.891 3.122 0.613 6.891 3.735 5.925 0.967 1.867 1.867 5.048 25.699 3.671 1.722 7.727 13.602 12.454 5.853 9.078 22.547 23.84 0.249 16.863 9.428 5.769 3.644 28.217 5.054 6.043 5.424 20.135 14.971 3.065 5.508 47.844999 v 0.1969997 z"
   inkscape:connector-curvature="0"
   sodipodi:nodetypes="ccccccccccccccccccccccccccccccccccccccccccccccccccccccccccccccccccccccccccccccccccccccccccccccccccccccccccccccccccccccccccccccccccccccccccccccccccccccccccccccccccccccccccccccccccccccccccccccccccccccccccccccccccccccccccccccccccccccccccccccccccccccccccccccccccccccccccccccccccccccccccccc" />
			</g>
		</g>
	</svg>
