<?xml version="1.0" encoding="UTF-8" standalone="no"?>
<!-- Created with Inkscape (http://www.inkscape.org/) -->

<svg
   version="1.1"
   id="svg85"
   width="188.976"
   height="73.700798"
   viewBox="0 0 188.976 73.700798"
   sodipodi:docname="Studi Legali_Sigillo2022.svg"
   inkscape:version="1.2 (dc2aeda, 2022-05-15)"
   xmlns:inkscape="http://www.inkscape.org/namespaces/inkscape"
   xmlns:sodipodi="http://sodipodi.sourceforge.net/DTD/sodipodi-0.dtd"
   xmlns="http://www.w3.org/2000/svg"
   xmlns:svg="http://www.w3.org/2000/svg">
  <defs
     id="defs89">
    <linearGradient
       x1="0"
       y1="0"
       x2="1"
       y2="0"
       gradientUnits="userSpaceOnUse"
       gradientTransform="matrix(95.954735,84.002029,84.002029,-95.954735,36.242596,-18.342194)"
       spreadMethod="pad"
       id="linearGradient129">
      <stop
         style="stop-opacity:1;stop-color:#866f4a"
         offset="0"
         id="stop107" />
      <stop
         style="stop-opacity:1;stop-color:#866f4a"
         offset="0.14927764"
         id="stop109" />
      <stop
         style="stop-opacity:1;stop-color:#e0bc73"
         offset="0.261727"
         id="stop111" />
      <stop
         style="stop-opacity:1;stop-color:#866f4a"
         offset="0.35083929"
         id="stop113" />
      <stop
         style="stop-opacity:1;stop-color:#866f4a"
         offset="0.485455"
         id="stop115" />
      <stop
         style="stop-opacity:1;stop-color:#866f4a"
         offset="0.69420582"
         id="stop117" />
      <stop
         style="stop-opacity:1;stop-color:#e0bc73"
         offset="0.801636"
         id="stop119" />
      <stop
         style="stop-opacity:1;stop-color:#866f4a"
         offset="0.89841333"
         id="stop121" />
      <stop
         style="stop-opacity:1;stop-color:#866f4a"
         offset="0.975"
         id="stop123" />
      <stop
         style="stop-opacity:1;stop-color:#866f4a"
         offset="0.97685002"
         id="stop125" />
      <stop
         style="stop-opacity:1;stop-color:#866f4a"
         offset="1"
         id="stop127" />
    </linearGradient>
    <clipPath
       clipPathUnits="userSpaceOnUse"
       id="clipPath139">
      <path
         d="M 0,0 H 141.732 V 55.276 H 0 Z"
         id="path137" />
    </clipPath>
    <clipPath
       clipPathUnits="userSpaceOnUse"
       id="clipPath165">
      <path
         d="M 0,0 H 141.732 V 55.276 H 0 Z"
         id="path163" />
    </clipPath>
    <linearGradient
       x1="0"
       y1="0"
       x2="1"
       y2="0"
       gradientUnits="userSpaceOnUse"
       gradientTransform="matrix(95.4312,0,0,95.4312,0,55.7756)"
       spreadMethod="pad"
       id="linearGradient203">
      <stop
         style="stop-opacity:1;stop-color:#866f4a"
         offset="0"
         id="stop193" />
      <stop
         style="stop-opacity:1;stop-color:#e0bc73"
         offset="0.213636"
         id="stop195" />
      <stop
         style="stop-opacity:1;stop-color:#b8945b"
         offset="0.508636"
         id="stop197" />
      <stop
         style="stop-opacity:1;stop-color:#e0bc73"
         offset="0.790909"
         id="stop199" />
      <stop
         style="stop-opacity:1;stop-color:#947c53"
         offset="1"
         id="stop201" />
    </linearGradient>
    <clipPath
       clipPathUnits="userSpaceOnUse"
       id="clipPath213">
      <path
         d="M 0,0 H 141.732 V 55.276 H 0 Z"
         id="path211" />
    </clipPath>
    <linearGradient
       x1="0"
       y1="0"
       x2="1"
       y2="0"
       gradientUnits="userSpaceOnUse"
       gradientTransform="matrix(136.829,0,0,136.829,-3.33469,104.67387)"
       spreadMethod="pad"
       id="linearGradient365">
      <stop
         style="stop-opacity:1;stop-color:#e0bc73"
         offset="0"
         id="stop349" />
      <stop
         style="stop-opacity:1;stop-color:#e0bc73"
         offset="0.0114545"
         id="stop351" />
      <stop
         style="stop-opacity:1;stop-color:#947c53"
         offset="0.319955"
         id="stop353" />
      <stop
         style="stop-opacity:1;stop-color:#b8945b"
         offset="0.491364"
         id="stop355" />
      <stop
         style="stop-opacity:1;stop-color:#866f4a"
         offset="0.728591"
         id="stop357" />
      <stop
         style="stop-opacity:1;stop-color:#e0bc73"
         offset="0.966091"
         id="stop359" />
      <stop
         style="stop-opacity:1;stop-color:#e0bc73"
         offset="0.96860029"
         id="stop361" />
      <stop
         style="stop-opacity:1;stop-color:#e0bc73"
         offset="1"
         id="stop363" />
    </linearGradient>
  </defs>
  <sodipodi:namedview
     id="namedview87"
     pagecolor="#ffffff"
     bordercolor="#000000"
     borderopacity="0.25"
     inkscape:showpageshadow="2"
     inkscape:pageopacity="0.0"
     inkscape:pagecheckerboard="0"
     inkscape:deskcolor="#d1d1d1"
     showgrid="false"
     inkscape:zoom="6.9222948"
     inkscape:cx="14.807228"
     inkscape:cy="115.13523"
     inkscape:window-width="3840"
     inkscape:window-height="2137"
     inkscape:window-x="0"
     inkscape:window-y="0"
     inkscape:window-maximized="1"
     inkscape:current-layer="g93">
    <inkscape:page
       x="0"
       y="0"
       id="page91"
       width="188.976"
       height="73.700798" />
  </sodipodi:namedview>
  <g
     id="g93"
     inkscape:groupmode="layer"
     inkscape:label="Page 1"
     transform="matrix(1.3333333,0,0,-1.3333333,0,73.7008)">
    <g
       id="g95">
      <g
         id="g97">
        <g
           id="g103">
          <g
             id="g105">
            <path
               d="M 0,0 H 141.732 V 55.275 H 0 Z"
               style="fill:url(#linearGradient129);stroke:none"
               id="path131" />
          </g>
        </g>
      </g>
    </g>
    <g
       id="g133">
      <g
         id="g135"
         clip-path="url(#clipPath139)">
        <g
           id="g141"
           transform="translate(102.581,11.806)">
          <path
             d="m 0,0 c -0.063,0.338 -0.221,0.527 -0.504,0.527 -0.228,0 -0.385,-0.118 -0.385,-0.338 0,-0.661 1.653,-0.929 1.653,-2.188 0,-0.756 -0.52,-1.142 -1.236,-1.142 -0.772,0 -1.213,0.441 -1.346,1.181 l 0.771,0.213 c 0.055,-0.355 0.181,-0.67 0.582,-0.67 0.229,0 0.394,0.134 0.394,0.37 0,0.732 -1.653,1.008 -1.653,2.165 0,0.669 0.52,1.134 1.181,1.134 0.692,0 1.157,-0.465 1.291,-1.126 z"
             style="fill:#231f20;fill-opacity:1;fill-rule:nonzero;stroke:none"
             id="path143" />
        </g>
        <g
           id="g145"
           transform="translate(103.6909,12.2547)">
          <path
             d="M 0,0 V 0.724 H 0.488 V 1.866 H 1.37 V 0.724 H 1.96 V 0 H 1.37 v -2.44 c 0,-0.22 0.094,-0.346 0.299,-0.346 H 1.96 V -3.542 C 1.842,-3.574 1.74,-3.589 1.519,-3.589 c -0.661,0 -1.031,0.307 -1.031,0.952 V 0 Z"
             style="fill:#231f20;fill-opacity:1;fill-rule:nonzero;stroke:none"
             id="path147" />
        </g>
        <g
           id="g149"
           transform="translate(106.1308,11.7352)">
          <path
             d="M 0,0 C 0.047,0.858 0.591,1.322 1.417,1.322 2.236,1.322 2.7,0.944 2.7,0.173 v -2.716 c 0,-0.133 0.032,-0.307 0.055,-0.448 H 1.913 C 1.905,-2.873 1.874,-2.763 1.866,-2.661 1.535,-2.928 1.26,-3.07 0.834,-3.07 c -0.598,0 -0.897,0.409 -0.897,0.952 0,0.929 0.614,1.441 1.881,1.921 V 0.055 C 1.818,0.409 1.677,0.598 1.386,0.598 0.984,0.598 0.898,0.362 0.882,0 Z M 1.818,-0.842 C 1.016,-1.299 0.819,-1.59 0.819,-1.96 c 0,-0.276 0.141,-0.386 0.409,-0.386 0.244,0 0.441,0.181 0.59,0.394 z"
             style="fill:#231f20;fill-opacity:1;fill-rule:nonzero;stroke:none"
             id="path151" />
        </g>
        <g
           id="g153"
           transform="translate(109.3737,12.2547)">
          <path
             d="M 0,0 V 0.724 H 0.488 V 1.866 H 1.37 V 0.724 H 1.96 V 0 H 1.37 v -2.44 c 0,-0.22 0.094,-0.346 0.299,-0.346 H 1.96 V -3.542 C 1.842,-3.574 1.74,-3.589 1.519,-3.589 c -0.661,0 -1.031,0.307 -1.031,0.952 V 0 Z"
             style="fill:#231f20;fill-opacity:1;fill-rule:nonzero;stroke:none"
             id="path155" />
        </g>
      </g>
    </g>
    <path
       d="m 111.916,13.328 h 0.882 v 0.803 h -0.882 z m 0,-4.584 h 0.882 v 4.234 h -0.882 z"
       style="fill:#231f20;fill-opacity:1;fill-rule:nonzero;stroke:none"
       id="path157" />
    <g
       id="g159">
      <g
         id="g161"
         clip-path="url(#clipPath165)">
        <g
           id="g167"
           transform="translate(115.2619,11.806)">
          <path
             d="m 0,0 c -0.063,0.338 -0.221,0.527 -0.504,0.527 -0.228,0 -0.386,-0.118 -0.386,-0.338 0,-0.661 1.653,-0.929 1.653,-2.188 0,-0.756 -0.519,-1.142 -1.236,-1.142 -0.771,0 -1.212,0.441 -1.346,1.181 l 0.772,0.213 c 0.055,-0.355 0.181,-0.67 0.582,-0.67 0.229,0 0.394,0.134 0.394,0.37 0,0.732 -1.653,1.008 -1.653,2.165 0,0.669 0.519,1.134 1.181,1.134 0.693,0 1.157,-0.465 1.291,-1.126 z"
             style="fill:#231f20;fill-opacity:1;fill-rule:nonzero;stroke:none"
             id="path169" />
        </g>
        <g
           id="g171"
           transform="translate(116.3716,12.2547)">
          <path
             d="M 0,0 V 0.724 H 0.488 V 1.866 H 1.37 V 0.724 H 1.96 V 0 H 1.37 v -2.44 c 0,-0.22 0.094,-0.346 0.299,-0.346 H 1.96 V -3.542 C 1.842,-3.574 1.74,-3.589 1.519,-3.589 c -0.661,0 -1.031,0.307 -1.031,0.952 V 0 Z"
             style="fill:#231f20;fill-opacity:1;fill-rule:nonzero;stroke:none"
             id="path173" />
        </g>
        <g
           id="g175"
           transform="translate(118.8118,11.7352)">
          <path
             d="M 0,0 C 0.047,0.858 0.59,1.322 1.417,1.322 2.236,1.322 2.7,0.944 2.7,0.173 v -2.716 c 0,-0.133 0.031,-0.307 0.055,-0.448 H 1.913 C 1.905,-2.873 1.873,-2.763 1.866,-2.661 1.535,-2.928 1.259,-3.07 0.834,-3.07 c -0.598,0 -0.897,0.409 -0.897,0.952 0,0.929 0.614,1.441 1.881,1.921 V 0.055 C 1.818,0.409 1.677,0.598 1.385,0.598 0.984,0.598 0.897,0.362 0.882,0 Z M 1.818,-0.842 C 1.015,-1.299 0.819,-1.59 0.819,-1.96 c 0,-0.276 0.141,-0.386 0.409,-0.386 0.244,0 0.441,0.181 0.59,0.394 z"
             style="fill:#231f20;fill-opacity:1;fill-rule:nonzero;stroke:none"
             id="path177" />
        </g>
        <g
           id="g179"
           transform="translate(128.4927,14.1254)">
          <path
             d="m 0,0 h -5.078 c -0.106,0 -0.191,-0.086 -0.191,-0.191 v -3.46 c 0.009,10e-4 0.018,0.002 0.028,0.002 0,0 0.822,0.016 1.175,0.2 0.436,0.226 0.76,0.694 0.76,0.694 0.082,0.12 0.173,0.251 0.202,0.292 0.029,0.042 0.059,0.083 0.066,0.093 0.008,0.009 0.042,0.057 0.062,0.086 0.019,0.028 0.103,0.149 0.186,0.268 0,0 0.495,0.716 1.197,1.08 0.761,0.396 1.768,0.352 1.768,0.352 0.006,0 0.011,-0.001 0.016,-0.002 v 0.395 C 0.191,-0.086 0.106,0 0,0 m -1.034,-2.011 c -0.436,-0.226 -0.76,-0.694 -0.76,-0.694 -0.082,-0.12 -0.173,-0.251 -0.202,-0.292 -0.029,-0.042 -0.058,-0.083 -0.066,-0.093 -0.007,-0.009 -0.042,-0.057 -0.061,-0.086 -0.02,-0.029 -0.104,-0.15 -0.187,-0.269 0,0 -0.495,-0.715 -1.197,-1.079 -0.729,-0.379 -1.684,-0.355 -1.762,-0.352 v -0.393 c 0,-0.105 0.085,-0.191 0.191,-0.191 H 0 c 0.106,0 0.191,0.086 0.191,0.191 v 3.464 C 0.175,-1.809 0.158,-1.811 0.142,-1.811 c 0,0 -0.823,-0.016 -1.176,-0.2"
             style="fill:#231f20;fill-opacity:1;fill-rule:nonzero;stroke:none"
             id="path181" />
        </g>
        <g
           id="g183"
           transform="translate(54.1134,16.7304)">
          <path
             d="m 0,0 c 0,0.21 0.051,0.346 0.134,0.346 0.074,0 0.107,-0.067 0.107,-0.19 C 0.241,0.058 0.226,0 0.199,-0.009 L 0.018,-0.016 C 0.004,-0.016 0,-0.011 0,0 m -0.355,-0.219 c 0,-0.317 0.223,-0.548 0.514,-0.548 0.23,0 0.346,0.099 0.433,0.275 L 0.581,-0.469 C 0.507,-0.492 0.431,-0.503 0.335,-0.503 0.118,-0.503 0,-0.299 0,-0.092 c 0,0.016 0.002,0.038 0.002,0.038 0.177,0 0.342,-0.011 0.514,-0.011 0.02,0 0.036,0.005 0.049,0.014 0.018,0.02 0.025,0.062 0.025,0.116 0,0.228 -0.208,0.322 -0.442,0.322 -0.257,0 -0.503,-0.244 -0.503,-0.606 m -0.092,-0.467 c -0.018,0.011 -0.022,0.029 -0.022,0.159 v 0.945 c 0,0.172 0.013,0.404 0.013,0.404 L -0.498,0.827 C -0.711,0.816 -0.923,0.753 -0.923,0.753 c 0,0 -0.004,-0.013 -0.004,-0.033 l 0.058,-0.018 c 0.018,-0.018 0.024,-0.036 0.024,-0.19 v -1.039 c 0,-0.137 -0.004,-0.148 -0.022,-0.159 l -0.058,-0.016 c 0,0 -0.005,-0.018 -0.005,-0.04 h 0.544 c 0,0.022 -0.005,0.04 -0.005,0.04 z m -1.21,0.523 c 0,0.239 0.029,0.503 0.152,0.503 0.13,0 0.159,-0.28 0.159,-0.546 0,-0.237 -0.014,-0.509 -0.141,-0.509 -0.141,0 -0.17,0.284 -0.17,0.552 m -0.384,-0.034 c 0,-0.353 0.25,-0.57 0.523,-0.57 0.286,0 0.554,0.228 0.554,0.586 0,0.349 -0.23,0.568 -0.519,0.568 -0.306,0 -0.558,-0.257 -0.558,-0.584 M -2.632,0.72 c -0.281,0 -0.527,-0.184 -0.527,-0.441 0,-0.214 0.127,-0.344 0.424,-0.453 0.233,-0.085 0.347,-0.146 0.347,-0.293 0,-0.168 -0.112,-0.253 -0.268,-0.253 -0.063,0 -0.117,0.005 -0.181,0.027 -0.11,0.136 -0.202,0.268 -0.278,0.429 L -3.159,-0.27 c 0,-0.164 0.013,-0.278 0.036,-0.456 0.165,-0.034 0.332,-0.045 0.464,-0.045 0.313,0 0.55,0.168 0.55,0.467 0,0.246 -0.138,0.346 -0.409,0.458 -0.286,0.116 -0.366,0.17 -0.366,0.304 0,0.134 0.098,0.213 0.245,0.213 0.065,0 0.115,-0.007 0.17,-0.023 0.108,-0.1 0.197,-0.223 0.273,-0.378 l 0.042,0.003 c -0.002,0.149 -0.011,0.306 -0.022,0.4 L -2.187,0.686 C -2.279,0.702 -2.493,0.72 -2.632,0.72 m -0.943,-1.406 c -0.018,0.011 -0.023,0.029 -0.023,0.159 v 0.945 c 0,0.172 0.014,0.404 0.014,0.404 L -3.627,0.827 C -3.839,0.816 -4.051,0.753 -4.051,0.753 c 0,0 -0.005,-0.013 -0.005,-0.033 l 0.058,-0.018 c 0.018,-0.018 0.025,-0.036 0.025,-0.19 v -1.039 c 0,-0.137 -0.005,-0.148 -0.022,-0.159 l -0.059,-0.016 c 0,0 -0.004,-0.018 -0.004,-0.04 h 0.543 c 0,0.022 -0.004,0.04 -0.004,0.04 z m -0.549,1.33 c 0,0 0.005,0.013 0.005,0.044 h -0.664 c 0,-0.031 0.004,-0.044 0.004,-0.044 L -4.676,0.626 C -4.651,0.603 -4.645,0.57 -4.645,0.346 V -0.4 c 0,-0.224 -0.006,-0.257 -0.031,-0.279 l -0.103,-0.018 c 0,0 -0.004,-0.014 -0.004,-0.045 h 0.664 c 0,0.031 -0.005,0.045 -0.005,0.045 l -0.103,0.018 c -0.024,0.022 -0.031,0.055 -0.031,0.279 v 0.746 c 0,0.224 0.007,0.257 0.031,0.28 z"
             style="fill:#231f20;fill-opacity:1;fill-rule:nonzero;stroke:none"
             id="path185" />
        </g>
        <g
           id="g187"
           transform="translate(74.0807,10.2347)">
          <path
             d="m 0,0 v -1.771 h -3.815 l -0.746,0.791 v 0.317 h 0.036 c 0.153,0.01 0.247,0.049 0.357,0.152 0.129,0.12 0.177,0.233 0.17,0.408 V 3.785 L -4.59,4.526 v 0.335 h 3.838 L -0.015,4.073 V 2.283 H -0.41 l -0.727,0.726 c 0,0 -0.015,0.451 -0.215,0.612 -0.207,0.166 -0.455,0.158 -0.455,0.158 L -1.799,2.965 H -1.48 L -0.698,2.079 V 0.616 Z m -1.736,0.806 h -0.071 v -1.288 c 0.128,0.066 0.249,0.157 0.371,0.275 0.097,0.097 0.173,0.187 0.233,0.283 -0.113,0.141 -0.393,0.496 -0.533,0.73 M -0.811,0.647 H -0.952 C -0.983,0.266 -1.101,0.019 -1.385,-0.258 -1.7,-0.565 -2.011,-0.696 -2.427,-0.696 c -0.05,0 -0.101,0.002 -0.157,0.006 l -0.033,0.001 v 2.501 l 0.039,-0.001 c 0.07,-0.006 0.136,-0.003 0.196,-0.002 0.17,0.005 0.304,0.003 0.419,-0.096 0.116,-0.102 0.169,-0.194 0.194,-0.339 V 0.879 h 0.26 V 2.87 H -1.708 V 2.645 C -1.722,2.48 -1.769,2.376 -1.886,2.258 -2.041,2.096 -2.215,2.084 -2.396,2.084 H -2.482 C -2.513,2.087 -2.547,2.087 -2.579,2.087 H -2.617 V 4.54 l 0.034,0.002 C -2.183,4.565 -1.92,4.485 -1.6,4.244 -1.217,3.95 -1.049,3.611 -1.055,3.147 h 0.229 V 4.789 H -4.517 V 4.601 c 0.194,0 0.336,-0.067 0.462,-0.217 0.107,-0.127 0.115,-0.234 0.126,-0.382 l 0.004,-0.06 V -0.103 C -3.916,-0.293 -3.973,-0.43 -4.118,-0.564 -4.233,-0.67 -4.335,-0.717 -4.485,-0.73 v -0.179 h 3.674 z m -4.076,-1.489 0.424,-0.567 v -0.334 h -1.336 l -0.849,0.318 v -0.29 h -2.561 l -0.723,0.735 h -0.002 v 0.316 l 0.034,0.001 c 0.185,0.017 0.301,0.078 0.414,0.22 0.092,0.115 0.099,0.222 0.108,0.358 10e-4,0.024 0.002,0.048 0.006,0.075 V 3.773 L -9.979,4.54 v 0.35 h 3.178 C -6.683,4.879 -6.564,4.851 -6.449,4.806 -5.603,4.618 -4.994,3.963 -4.903,3.096 -4.832,2.423 -5.024,1.932 -5.541,1.468 -5.335,1.316 -5.232,1.204 -5.101,0.988 -4.979,0.79 -4.93,0.663 -4.887,0.437 Z m -0.326,0.08 h -0.001 c -0.156,0 -0.276,0.052 -0.385,0.171 -0.116,0.129 -0.116,0.238 -0.114,0.406 v 1.144 c -0.035,0.219 -0.093,0.35 -0.236,0.531 -0.165,0.206 -0.305,0.308 -0.559,0.395 l -0.084,0.028 0.08,0.038 c 0.58,0.275 0.912,0.607 0.89,1.493 -0.022,0.831 -0.612,1.321 -1.182,1.376 L -9.905,4.819 V 4.616 c 0.018,0 0.036,0.002 0.056,0.002 0.204,0 0.344,-0.059 0.452,-0.191 0.08,-0.099 0.083,-0.183 0.086,-0.283 0.002,-0.045 0.003,-0.096 0.012,-0.155 v -4.004 c -0.002,-0.027 -0.002,-0.052 -0.005,-0.074 -0.01,-0.143 -0.019,-0.265 -0.123,-0.398 -0.12,-0.15 -0.246,-0.221 -0.432,-0.243 v -0.179 h 2.43 v 0.19 c -0.196,0.004 -0.339,0.075 -0.464,0.233 -0.113,0.146 -0.113,0.277 -0.113,0.444 v 1.88 l 0.115,0.003 h 0.082 c 0.187,0 0.401,-0.014 0.53,-0.142 0.133,-0.134 0.159,-0.321 0.18,-0.469 l -0.013,-1.419 c 0.003,-0.17 0.034,-0.27 0.129,-0.417 0.111,-0.165 0.213,-0.246 0.401,-0.317 h 1.369 z M -7.969,4.506 V 2.108 c 0.304,0 0.516,-0.005 0.683,0.135 0.149,0.121 0.192,0.285 0.213,0.488 V 3.868 C -7.094,4.025 -7.12,4.235 -7.255,4.372 -7.414,4.533 -7.71,4.506 -7.969,4.506 M -11.87,-1.86 c -0.949,0 -1.782,0.627 -2.292,1.634 -0.342,0.555 -0.553,1.301 -0.553,2.123 0,1.714 0.917,3.111 2.047,3.111 0.217,0 0.427,-0.053 0.624,-0.148 1.096,-0.431 2.135,-1.903 2.163,-3.296 0.121,-1.52 -0.561,-3.424 -1.989,-3.424 m 1.177,3.757 c 0,1.675 -0.886,3.037 -1.975,3.037 -1.088,0 -1.973,-1.362 -1.973,-3.037 0,-1.675 0.885,-3.038 1.973,-3.038 1.089,0 1.975,1.363 1.975,3.038 m -1.961,2.701 c -0.231,0 -0.418,-0.198 -0.418,-0.442 v -4.498 c 0,-0.244 0.187,-0.443 0.418,-0.443 0.23,0 0.416,0.199 0.416,0.443 v 4.498 c 0,0.244 -0.186,0.442 -0.416,0.442 m -8.664,-4.016 0.653,-0.727 V -1.824 H -24.3 l -0.622,0.814 v 0.377 l 0.02,0.01 c 0.729,0.398 1.249,0.917 1.541,1.527 -0.424,0.157 -0.699,0.399 -0.992,0.797 -0.104,0.14 -0.186,0.277 -0.25,0.413 -0.133,0.199 -0.222,0.456 -0.228,0.763 -0.009,0.484 0.141,1.159 0.584,1.603 0.274,0.277 0.616,0.419 1.017,0.422 h 0.018 c 0.152,0 0.297,-0.016 0.432,-0.047 0.969,-0.09 1.67,-0.641 1.933,-1.527 0.262,-0.879 0.318,-1.86 -0.471,-2.746 m -0.158,0.051 h -0.202 C -21.696,0.507 -21.748,0.42 -21.855,0.335 -21.987,0.232 -22.089,0.232 -22.26,0.241 h -1.052 l 0.125,0.067 c 1.066,0.577 1.682,1.455 1.696,2.412 0.01,0.7 -0.194,1.292 -0.575,1.667 -0.295,0.293 -0.681,0.442 -1.146,0.442 h -0.016 c -0.383,-0.004 -0.705,-0.137 -0.967,-0.398 -0.426,-0.429 -0.569,-1.083 -0.562,-1.552 0.013,-0.701 0.469,-1.134 0.887,-1.134 0.367,0 0.621,0.312 0.679,0.83 0.058,0.531 -0.06,0.784 -0.168,0.901 -0.077,0.083 -0.177,0.128 -0.289,0.128 -0.194,0 -0.405,-0.128 -0.567,-0.34 l -0.035,-0.047 -0.028,0.051 c -0.114,0.204 -0.075,0.586 0.087,0.85 0.095,0.152 0.268,0.337 0.568,0.337 h 0.016 c 0.145,-0.003 0.268,-0.062 0.368,-0.173 0.411,-0.47 0.298,-1.813 0.194,-2.571 -0.133,-0.987 -0.756,-1.81 -1.803,-2.386 v -0.262 h 3.372 z m 5.063,0.021 0.636,-0.771 v -0.304 h -0.577 v -0.306 l 0.562,-0.726 v -0.342 h -2.83 l -0.805,0.785 v 0.334 h 0.038 c 0.199,0 0.308,0.01 0.448,0.109 0.065,0.046 0.111,0.089 0.147,0.139 h -1.288 l -0.714,0.742 h 0.003 v 0.41 l 0.011,0.012 c 0.574,0.642 0.852,1.048 1.238,1.81 0.42,0.829 0.59,1.332 0.757,2.242 l 0.006,0.037 0.037,-0.007 c 0.247,-0.051 0.393,-0.067 0.626,-0.067 h 0.049 c 0.295,0.003 0.464,0.024 0.75,0.095 l 0.046,0.013 0.73,-0.714 V 0.812 l 0.086,-0.106 h 0.004 V 0.701 Z m -0.114,-0.021 h -0.82 V 4.765 C -17.614,4.7 -17.782,4.682 -18.068,4.679 h -0.05 c -0.227,0 -0.374,0.014 -0.603,0.059 -0.166,-0.894 -0.339,-1.399 -0.758,-2.224 -0.387,-0.765 -0.666,-1.174 -1.24,-1.817 V 0.385 h 2.065 l -0.002,-0.704 c -0.053,-0.139 -0.116,-0.217 -0.241,-0.305 -0.152,-0.109 -0.278,-0.124 -0.455,-0.124 v -0.189 h 2.809 v 0.232 h -0.221 c -0.16,0 -0.274,0.007 -0.402,0.109 -0.107,0.085 -0.157,0.166 -0.181,0.298 v 0.697 h 0.82 z m -2.202,2.914 h 0.075 V 0.633 h -1.684 v 0.036 c 0.337,0.485 0.513,0.767 0.804,1.278 0.348,0.608 0.525,0.96 0.805,1.599 z m 0,-1.905 -0.526,-0.936 h 0.526 z"
             style="fill:#231f20;fill-opacity:1;fill-rule:nonzero;stroke:none"
             id="path189" />
        </g>
      </g>
    </g>
    <g
       id="g191"
       transform="translate(39.727,20.649)">
      <path
         d="M 0,0 H 95.431"
         style="fill:none;stroke:url(#linearGradient203);stroke-width:0.42;stroke-linecap:butt;stroke-linejoin:miter;stroke-miterlimit:4;stroke-dasharray:none;stroke-opacity:1"
         id="path205" />
    </g>
    <g
       id="g207">
      <g
         id="g209"
         clip-path="url(#clipPath213)">
        <g
           id="g593">
          <g
             id="g215"
             transform="translate(36.524,44.6915)">
            <path
               d="m 0,0 h -28.739 c -0.54,0 -0.978,0.438 -0.978,0.978 0,0.54 0.438,0.978 0.978,0.978 H 0 C 0.54,1.956 0.978,1.518 0.978,0.978 0.978,0.438 0.54,0 0,0"
               style="fill:#ffffff;fill-opacity:1;fill-rule:nonzero;stroke:none"
               id="path217" />
          </g>
          <g
             id="g219"
             transform="translate(33.6693,40.1679)">
            <path
               d="m 0,0 h -22.722 c -0.54,0 -0.978,0.438 -0.978,0.978 0,0.54 0.438,0.978 0.978,0.978 H 0 C 0.54,1.956 0.978,1.518 0.978,0.978 0.978,0.438 0.54,0 0,0"
               style="fill:#ffffff;fill-opacity:1;fill-rule:nonzero;stroke:none"
               id="path221" />
          </g>
          <g
             id="g223"
             transform="translate(18.1334,8.5705)">
            <path
               d="m 0,0 v 28.837 c 0,0.541 -0.438,0.979 -0.978,0.979 -0.541,0 -0.979,-0.438 -0.979,-0.979 V 0.786 C -1.328,0.48 -0.679,0.208 0,0"
               style="fill:#ffffff;fill-opacity:1;fill-rule:nonzero;stroke:none"
               id="path225" />
          </g>
          <g
             id="g227"
             transform="translate(23.1331,8.0063)">
            <path
               d="m 0,0 v 29.402 c 0,0.54 -0.438,0.978 -0.978,0.978 -0.541,0 -0.979,-0.438 -0.979,-0.978 V 0.011 c 0.325,-0.023 0.648,-0.05 0.979,-0.05 0.329,0 0.654,0.016 0.978,0.039"
               style="fill:#ffffff;fill-opacity:1;fill-rule:nonzero;stroke:none"
               id="path229" />
          </g>
          <g
             id="g231"
             transform="translate(28.3454,9.4485)">
            <path
               d="m 0,0 v 27.959 c 0,0.541 -0.438,0.979 -0.978,0.979 -0.541,0 -0.979,-0.438 -0.979,-0.979 V -0.811 C -1.28,-0.591 -0.626,-0.318 0,0"
               style="fill:#ffffff;fill-opacity:1;fill-rule:nonzero;stroke:none"
               id="path233" />
          </g>
          <g
             id="g235"
             transform="translate(35.9223,21.653)">
            <path
               d="M 0,0 C 0,4.851 -2.544,9.109 -6.361,11.54 V 9.145 C -3.68,6.994 -1.957,3.697 -1.957,0 c 0,-3.697 -1.723,-6.994 -4.404,-9.145 v -2.396 C -2.544,-9.109 0,-4.851 0,0 M -20.962,11.57 C -24.805,9.144 -27.371,4.871 -27.371,0 c 0,-4.871 2.566,-9.144 6.409,-11.57 v 2.388 c -2.708,2.151 -4.452,5.464 -4.452,9.182 0,3.718 1.744,7.031 4.452,9.182 z"
               style="fill:#ffffff;fill-opacity:1;fill-rule:nonzero;stroke:none"
               id="path237" />
          </g>
          <g
             id="g239"
             transform="translate(47.6203,41.7355)">
            <path
               d="m 0,0 h -3.141 v -0.532 c 0.277,0 0.483,-0.029 0.616,-0.086 0.134,-0.058 0.219,-0.149 0.255,-0.272 0.036,-0.123 0.055,-0.32 0.055,-0.589 0,-0.285 -0.036,-0.543 -0.107,-0.775 -0.071,-0.231 -0.225,-0.426 -0.46,-0.586 -0.236,-0.16 -0.583,-0.24 -1.04,-0.24 -0.583,0 -1.034,0.181 -1.353,0.543 -0.319,0.362 -0.53,0.796 -0.634,1.3 -0.104,0.505 -0.156,1.031 -0.156,1.578 0,0.639 0.067,1.177 0.2,1.612 0.134,0.435 0.31,0.779 0.531,1.032 0.22,0.252 0.456,0.429 0.71,0.531 0.253,0.102 0.511,0.153 0.774,0.153 0.361,0 0.691,-0.094 0.991,-0.283 0.3,-0.189 0.55,-0.445 0.752,-0.768 0.201,-0.324 0.338,-0.68 0.41,-1.069 h 0.479 L -1.17,4.114 H -1.675 C -1.723,3.825 -1.787,3.598 -1.867,3.432 -2.522,4.045 -3.249,4.351 -4.046,4.351 -4.701,4.351 -5.305,4.173 -5.856,3.817 -6.407,3.46 -6.844,2.971 -7.166,2.349 -7.489,1.727 -7.65,1.038 -7.65,0.283 c 0,-0.659 0.136,-1.3 0.408,-1.924 0.272,-0.624 0.681,-1.135 1.225,-1.531 0.544,-0.397 1.198,-0.595 1.961,-0.595 0.287,0 0.537,0.02 0.748,0.06 0.212,0.041 0.529,0.113 0.952,0.217 0.586,0.146 1.13,0.219 1.633,0.219 v 1.838 c 0,0.246 0.019,0.428 0.057,0.546 0.038,0.117 0.109,0.2 0.211,0.248 0.102,0.049 0.254,0.084 0.455,0.107 z"
               style="fill:#ffffff;fill-opacity:1;fill-rule:nonzero;stroke:none"
               id="path241" />
          </g>
          <g
             id="g243"
             transform="translate(53.5543,40.7301)">
            <path
               d="m 0,0 c -0.062,-0.601 -0.221,-1.047 -0.476,-1.338 -0.255,-0.291 -0.532,-0.47 -0.832,-0.537 -0.3,-0.068 -0.649,-0.101 -1.048,-0.101 -0.315,0 -0.542,0.039 -0.681,0.118 -0.139,0.079 -0.224,0.196 -0.255,0.35 -0.031,0.154 -0.047,0.408 -0.047,0.763 v 4.507 c 0,0.235 0.024,0.415 0.07,0.54 0.047,0.125 0.146,0.22 0.297,0.286 0.151,0.065 0.373,0.098 0.668,0.098 V 5.218 H -5.851 V 4.686 c 0.299,0 0.523,-0.034 0.674,-0.104 0.151,-0.069 0.247,-0.166 0.288,-0.292 0.042,-0.125 0.063,-0.301 0.063,-0.528 v -4.923 c 0,-0.339 -0.063,-0.578 -0.187,-0.717 -0.125,-0.139 -0.404,-0.208 -0.838,-0.208 V -2.618 H 0.432 L 0.478,0 Z"
               style="fill:#ffffff;fill-opacity:1;fill-rule:nonzero;stroke:none"
               id="path245" />
          </g>
          <g
             id="g247"
             transform="translate(58.0032,38.6441)">
            <path
               d="m 0,0 c -0.312,0 -0.542,0.035 -0.689,0.104 -0.147,0.069 -0.244,0.168 -0.289,0.295 -0.045,0.127 -0.067,0.302 -0.067,0.526 v 4.923 c 0,0.235 0.023,0.415 0.07,0.54 0.047,0.125 0.146,0.22 0.299,0.286 C -0.524,6.739 -0.298,6.772 0,6.772 V 7.304 H -3.578 V 6.772 c 0.444,0 0.729,-0.069 0.856,-0.208 0.126,-0.138 0.189,-0.377 0.189,-0.716 V 0.925 C -2.533,0.69 -2.556,0.508 -2.603,0.381 -2.65,0.254 -2.749,0.159 -2.902,0.095 -3.054,0.032 -3.28,0 -3.578,0 V -0.532 H 0 Z"
               style="fill:#ffffff;fill-opacity:1;fill-rule:nonzero;stroke:none"
               id="path249" />
          </g>
          <g
             id="g251"
             transform="translate(65.8061,41.4639)">
            <path
               d="m 0,0 c -0.203,0.304 -0.451,0.557 -0.744,0.757 -0.293,0.2 -0.699,0.437 -1.219,0.711 -0.43,0.223 -0.741,0.395 -0.934,0.514 -0.192,0.119 -0.347,0.263 -0.465,0.43 -0.118,0.168 -0.177,0.365 -0.177,0.593 0,0.289 0.094,0.525 0.283,0.708 0.189,0.183 0.44,0.274 0.752,0.274 0.86,0 1.463,-0.595 1.81,-1.785 h 0.489 V 4.386 H -0.694 C -0.746,4.093 -0.803,3.866 -0.866,3.704 -1.084,3.989 -1.343,4.213 -1.641,4.377 -1.939,4.541 -2.253,4.623 -2.582,4.623 -3.012,4.623 -3.391,4.514 -3.718,4.296 -4.046,4.079 -4.295,3.799 -4.465,3.458 -4.635,3.117 -4.719,2.772 -4.719,2.421 c 0,-0.196 0.026,-0.391 0.08,-0.583 0.054,-0.193 0.151,-0.396 0.291,-0.61 0.141,-0.214 0.348,-0.434 0.622,-0.662 0.274,-0.227 0.624,-0.452 1.05,-0.676 0.278,-0.138 0.525,-0.27 0.741,-0.396 0.217,-0.125 0.388,-0.242 0.513,-0.352 0.124,-0.11 0.22,-0.234 0.286,-0.373 0.066,-0.138 0.098,-0.3 0.098,-0.485 0,-0.328 -0.106,-0.599 -0.319,-0.815 -0.214,-0.216 -0.497,-0.324 -0.851,-0.324 -0.405,0 -0.748,0.123 -1.027,0.367 -0.279,0.245 -0.495,0.537 -0.647,0.876 -0.153,0.339 -0.272,0.701 -0.359,1.086 h -0.478 v -2.681 h 0.478 c 0.031,0.243 0.102,0.507 0.213,0.792 0.257,-0.359 0.57,-0.628 0.939,-0.809 0.369,-0.181 0.741,-0.272 1.115,-0.272 0.378,0 0.711,0.078 0.999,0.234 0.288,0.156 0.526,0.358 0.715,0.607 0.189,0.248 0.33,0.508 0.424,0.78 0.093,0.272 0.14,0.529 0.14,0.771 0,0.432 -0.101,0.8 -0.304,1.104"
               style="fill:#ffffff;fill-opacity:1;fill-rule:nonzero;stroke:none"
               id="path253" />
          </g>
          <g
             id="g255"
             transform="translate(73.186,45.9479)">
            <path
               d="m 0,0 h -6.969 v -2.225 h 0.494 c 0.021,0.486 0.105,0.845 0.253,1.078 0.147,0.233 0.318,0.376 0.512,0.428 0.194,0.052 0.438,0.078 0.733,0.078 h 0.749 v -5.738 c 0,-0.339 -0.062,-0.578 -0.187,-0.717 -0.125,-0.138 -0.404,-0.208 -0.838,-0.208 v -0.531 h 3.537 v 0.531 c -0.295,0 -0.519,0.035 -0.671,0.104 -0.153,0.07 -0.25,0.167 -0.291,0.292 -0.042,0.125 -0.063,0.301 -0.063,0.529 v 5.738 h 0.895 c 0.222,0 0.418,-0.027 0.587,-0.081 0.17,-0.054 0.329,-0.197 0.476,-0.428 0.148,-0.231 0.244,-0.589 0.289,-1.075 H 0 Z"
               style="fill:#ffffff;fill-opacity:1;fill-rule:nonzero;stroke:none"
               id="path257" />
          </g>
          <g
             id="g259"
             transform="translate(81.2558,45.9479)">
            <path
               d="m 0,0 h -2.595 v -0.532 c 0.253,0 0.451,-0.021 0.595,-0.063 0.144,-0.043 0.247,-0.111 0.31,-0.205 0.062,-0.095 0.1,-0.204 0.114,-0.327 0.014,-0.123 0.021,-0.312 0.021,-0.566 v -2.82 c 0,-0.366 -0.015,-0.681 -0.044,-0.945 -0.03,-0.264 -0.093,-0.519 -0.19,-0.765 -0.121,-0.316 -0.339,-0.573 -0.653,-0.772 -0.313,-0.198 -0.652,-0.297 -1.016,-0.297 -0.34,0 -0.651,0.093 -0.934,0.28 -0.282,0.187 -0.483,0.436 -0.6,0.748 -0.063,0.189 -0.109,0.41 -0.138,0.662 -0.03,0.252 -0.045,0.546 -0.045,0.881 v 3.265 c 0,0.231 0.023,0.409 0.068,0.534 0.045,0.125 0.142,0.222 0.291,0.289 0.149,0.068 0.375,0.101 0.676,0.101 V 0 h -3.557 v -0.532 c 0.44,0 0.72,-0.069 0.84,-0.208 0.12,-0.138 0.18,-0.377 0.18,-0.716 l 0.01,-3.265 c 0,-0.277 0.004,-0.502 0.013,-0.673 0.009,-0.172 0.035,-0.355 0.081,-0.549 0.045,-0.195 0.109,-0.388 0.192,-0.581 0.152,-0.35 0.376,-0.633 0.671,-0.849 0.294,-0.216 0.613,-0.371 0.954,-0.465 0.342,-0.095 0.674,-0.142 0.996,-0.142 0.437,0 0.892,0.099 1.365,0.298 0.473,0.198 0.842,0.561 1.105,1.089 0.142,0.273 0.23,0.544 0.263,0.812 0.033,0.267 0.049,0.667 0.049,1.199 v 2.889 c 0,0.312 0.016,0.543 0.047,0.693 0.031,0.151 0.115,0.266 0.252,0.347 0.137,0.081 0.363,0.121 0.679,0.121 z"
               style="fill:#ffffff;fill-opacity:1;fill-rule:nonzero;stroke:none"
               id="path261" />
          </g>
          <g
             id="g263"
             transform="translate(89.0542,41.9608)">
            <path
               d="m 0,0 c 0,0.408 -0.049,0.799 -0.146,1.173 -0.097,0.374 -0.235,0.719 -0.413,1.037 -0.179,0.318 -0.398,0.601 -0.658,0.85 -0.26,0.248 -0.544,0.442 -0.853,0.58 -0.336,0.154 -0.706,0.266 -1.11,0.335 -0.404,0.07 -0.896,0.104 -1.474,0.104 -0.06,0 -0.274,-0.003 -0.645,-0.011 C -5.67,4.06 -5.882,4.056 -5.934,4.056 L -7.447,4.022 V 3.479 c 0.447,0 0.733,-0.07 0.858,-0.208 0.125,-0.139 0.187,-0.378 0.187,-0.717 v -4.946 c 0,-0.235 -0.023,-0.416 -0.07,-0.543 -0.047,-0.128 -0.147,-0.223 -0.299,-0.286 -0.153,-0.064 -0.378,-0.096 -0.676,-0.096 v -0.531 h 3.219 c 0.953,0 1.759,0.161 2.418,0.485 0.312,0.154 0.605,0.383 0.879,0.688 0.274,0.304 0.497,0.684 0.671,1.141 C -0.087,-1.078 0,-0.566 0,0 m -1.685,0.035 c 0,-0.852 -0.174,-1.605 -0.523,-2.26 -0.348,-0.655 -0.944,-0.982 -1.786,-0.982 -0.284,0 -0.494,0.038 -0.629,0.113 -0.135,0.075 -0.217,0.185 -0.245,0.329 -0.028,0.145 -0.041,0.375 -0.041,0.691 v 5.506 c 0.436,0 0.772,-0.012 1.006,-0.037 0.234,-0.025 0.455,-0.084 0.663,-0.176 0.478,-0.212 0.857,-0.593 1.136,-1.142 0.279,-0.549 0.419,-1.23 0.419,-2.042"
               style="fill:#ffffff;fill-opacity:1;fill-rule:nonzero;stroke:none"
               id="path265" />
          </g>
          <g
             id="g267"
             transform="translate(92.8693,38.6441)">
            <path
               d="m 0,0 c -0.312,0 -0.542,0.035 -0.689,0.104 -0.147,0.069 -0.244,0.168 -0.289,0.295 -0.045,0.127 -0.067,0.302 -0.067,0.526 v 4.923 c 0,0.235 0.023,0.415 0.07,0.54 0.047,0.125 0.146,0.22 0.299,0.286 C -0.524,6.739 -0.298,6.772 0,6.772 V 7.304 H -3.578 V 6.772 c 0.444,0 0.729,-0.069 0.856,-0.208 0.126,-0.138 0.189,-0.377 0.189,-0.716 V 0.925 C -2.533,0.69 -2.556,0.508 -2.603,0.381 -2.65,0.254 -2.749,0.159 -2.902,0.095 -3.055,0.032 -3.28,0 -3.578,0 V -0.532 H 0 Z"
               style="fill:#ffffff;fill-opacity:1;fill-rule:nonzero;stroke:none"
               id="path269" />
          </g>
          <g
             id="g271"
             transform="translate(101.6765,40.7301)">
            <path
               d="m 0,0 c -0.062,-0.601 -0.221,-1.047 -0.476,-1.338 -0.255,-0.291 -0.532,-0.47 -0.832,-0.537 -0.3,-0.068 -0.649,-0.101 -1.048,-0.101 -0.315,0 -0.542,0.039 -0.681,0.118 -0.139,0.079 -0.224,0.196 -0.255,0.35 -0.031,0.154 -0.047,0.408 -0.047,0.763 v 4.507 c 0,0.235 0.024,0.415 0.07,0.54 0.047,0.125 0.146,0.22 0.297,0.286 0.151,0.065 0.373,0.098 0.668,0.098 V 5.218 H -5.851 V 4.686 c 0.299,0 0.523,-0.034 0.674,-0.104 0.151,-0.069 0.247,-0.166 0.289,-0.292 0.041,-0.125 0.062,-0.301 0.062,-0.528 v -4.923 c 0,-0.339 -0.062,-0.578 -0.187,-0.717 -0.125,-0.139 -0.404,-0.208 -0.838,-0.208 V -2.618 H 0.432 L 0.478,0 Z"
               style="fill:#ffffff;fill-opacity:1;fill-rule:nonzero;stroke:none"
               id="path273" />
          </g>
          <g
             id="g275"
             transform="translate(108.323,40.6896)">
            <path
               d="m 0,0 c -0.083,-0.597 -0.229,-1.035 -0.437,-1.315 -0.208,-0.279 -0.42,-0.452 -0.637,-0.52 -0.217,-0.067 -0.445,-0.101 -0.684,-0.101 h -0.567 c -0.253,0 -0.448,0.021 -0.585,0.064 -0.137,0.042 -0.236,0.11 -0.296,0.205 -0.061,0.094 -0.098,0.213 -0.112,0.355 -0.014,0.143 -0.021,0.368 -0.021,0.676 v 1.844 h 0.728 c 0.246,0 0.429,-0.023 0.549,-0.07 0.12,-0.046 0.207,-0.137 0.263,-0.274 0.055,-0.137 0.09,-0.35 0.104,-0.639 h 0.478 V 2.831 H -1.716 C -1.734,2.542 -1.766,2.331 -1.815,2.196 -1.864,2.061 -1.949,1.969 -2.07,1.921 -2.191,1.873 -2.375,1.849 -2.621,1.849 h -0.718 v 2.768 h 1.321 c 0.35,0 0.613,-0.022 0.788,-0.067 0.175,-0.044 0.333,-0.163 0.473,-0.358 0.141,-0.194 0.265,-0.517 0.372,-0.968 H 0.094 L 0,5.258 H -5.851 V 4.727 c 0.309,0 0.537,-0.036 0.684,-0.107 0.148,-0.072 0.241,-0.17 0.281,-0.295 0.04,-0.125 0.06,-0.299 0.06,-0.523 v -4.923 c 0,-0.339 -0.063,-0.578 -0.187,-0.717 -0.125,-0.138 -0.404,-0.208 -0.838,-0.208 V -2.577 H 0.432 L 0.489,0 Z"
               style="fill:#ffffff;fill-opacity:1;fill-rule:nonzero;stroke:none"
               id="path277" />
          </g>
          <g
             id="g279"
             transform="translate(116.8963,41.7355)">
            <path
               d="m 0,0 h -3.141 v -0.532 c 0.277,0 0.483,-0.029 0.616,-0.086 0.134,-0.058 0.219,-0.149 0.255,-0.272 0.036,-0.123 0.055,-0.32 0.055,-0.589 0,-0.285 -0.036,-0.543 -0.107,-0.775 -0.071,-0.231 -0.225,-0.426 -0.46,-0.586 -0.236,-0.16 -0.583,-0.24 -1.04,-0.24 -0.583,0 -1.034,0.181 -1.353,0.543 -0.319,0.362 -0.53,0.796 -0.634,1.3 -0.104,0.505 -0.156,1.031 -0.156,1.578 0,0.639 0.067,1.177 0.2,1.612 0.134,0.435 0.31,0.779 0.531,1.032 0.22,0.252 0.456,0.429 0.71,0.531 0.253,0.102 0.511,0.153 0.774,0.153 0.361,0 0.691,-0.094 0.991,-0.283 0.3,-0.189 0.55,-0.445 0.752,-0.768 0.201,-0.324 0.338,-0.68 0.41,-1.069 h 0.479 L -1.17,4.114 H -1.675 C -1.723,3.825 -1.787,3.598 -1.867,3.432 -2.522,4.045 -3.249,4.351 -4.046,4.351 -4.701,4.351 -5.305,4.173 -5.856,3.817 -6.407,3.46 -6.844,2.971 -7.166,2.349 -7.489,1.727 -7.65,1.038 -7.65,0.283 c 0,-0.659 0.136,-1.3 0.408,-1.924 0.272,-0.624 0.681,-1.135 1.225,-1.531 0.544,-0.397 1.198,-0.595 1.961,-0.595 0.287,0 0.537,0.02 0.748,0.06 0.212,0.041 0.529,0.113 0.952,0.217 0.586,0.146 1.13,0.219 1.633,0.219 v 1.838 c 0,0.246 0.019,0.428 0.057,0.546 0.038,0.117 0.109,0.2 0.211,0.248 0.102,0.049 0.254,0.084 0.455,0.107 z"
               style="fill:#ffffff;fill-opacity:1;fill-rule:nonzero;stroke:none"
               id="path281" />
          </g>
          <g
             id="g283"
             transform="translate(123.9587,38.1124)">
            <path
               d="m 0,0 v 0.532 c -0.232,0 -0.413,0.041 -0.541,0.124 -0.128,0.083 -0.229,0.2 -0.301,0.352 C -0.915,1.16 -1.03,1.452 -1.186,1.884 L -3.333,7.986 H -3.827 L -5.861,2.069 C -6.003,1.656 -6.136,1.338 -6.259,1.112 -6.382,0.887 -6.511,0.734 -6.646,0.653 -6.781,0.572 -6.946,0.532 -7.14,0.532 V 0 h 2.428 v 0.532 c -0.215,0 -0.403,0.03 -0.564,0.092 -0.161,0.062 -0.242,0.208 -0.242,0.439 0,0.127 0.049,0.333 0.146,0.619 l 0.171,0.508 h 2.289 l 0.333,-0.924 c 0.041,-0.12 0.062,-0.237 0.062,-0.353 0,-0.166 -0.064,-0.271 -0.192,-0.315 C -2.838,0.554 -3.042,0.532 -3.323,0.532 V 0 Z m -3.1,2.756 h -1.898 l 0.926,2.734 z"
               style="fill:#ffffff;fill-opacity:1;fill-rule:nonzero;stroke:none"
               id="path285" />
          </g>
          <g
             id="g287"
             transform="translate(130.2283,40.7301)">
            <path
               d="m 0,0 c -0.062,-0.601 -0.221,-1.047 -0.476,-1.338 -0.255,-0.291 -0.532,-0.47 -0.832,-0.537 -0.3,-0.068 -0.649,-0.101 -1.048,-0.101 -0.315,0 -0.542,0.039 -0.681,0.118 -0.139,0.079 -0.224,0.196 -0.255,0.35 -0.031,0.154 -0.047,0.408 -0.047,0.763 v 4.507 c 0,0.235 0.024,0.415 0.07,0.54 0.047,0.125 0.146,0.22 0.297,0.286 0.151,0.065 0.373,0.098 0.668,0.098 V 5.218 H -5.851 V 4.686 c 0.299,0 0.523,-0.034 0.674,-0.104 0.151,-0.069 0.247,-0.166 0.289,-0.292 0.041,-0.125 0.062,-0.301 0.062,-0.528 v -4.923 c 0,-0.339 -0.062,-0.578 -0.187,-0.717 -0.125,-0.139 -0.404,-0.208 -0.838,-0.208 V -2.618 H 0.432 L 0.478,0 Z"
               style="fill:#ffffff;fill-opacity:1;fill-rule:nonzero;stroke:none"
               id="path289" />
          </g>
          <g
             id="g291"
             transform="translate(134.5709,38.6441)">
            <path
               d="m 0,0 c -0.312,0 -0.542,0.035 -0.689,0.104 -0.147,0.069 -0.244,0.168 -0.289,0.295 -0.045,0.127 -0.067,0.302 -0.067,0.526 v 4.923 c 0,0.235 0.023,0.415 0.07,0.54 0.047,0.125 0.146,0.22 0.299,0.286 C -0.524,6.739 -0.298,6.772 0,6.772 V 7.304 H -3.578 V 6.772 c 0.444,0 0.729,-0.069 0.856,-0.208 0.126,-0.138 0.189,-0.377 0.189,-0.716 V 0.925 C -2.533,0.69 -2.556,0.508 -2.603,0.381 -2.65,0.254 -2.749,0.159 -2.902,0.095 -3.054,0.032 -3.28,0 -3.578,0 V -0.532 H 0 Z"
               style="fill:#ffffff;fill-opacity:1;fill-rule:nonzero;stroke:none"
               id="path293" />
          </g>
          <g
             id="g295"
             transform="translate(47.4979,28.5756)">
            <path
               d="M 0,0 C 0,0.426 -0.051,0.834 -0.152,1.224 -0.253,1.614 -0.397,1.975 -0.583,2.306 -0.77,2.638 -0.998,2.933 -1.27,3.193 -1.541,3.452 -1.838,3.654 -2.16,3.799 -2.511,3.959 -2.897,4.076 -3.318,4.148 -3.74,4.221 -4.253,4.257 -4.857,4.257 -4.918,4.257 -5.143,4.253 -5.53,4.245 -5.917,4.237 -6.137,4.233 -6.192,4.233 L -7.771,4.197 V 3.63 c 0.467,0 0.765,-0.073 0.895,-0.217 0.131,-0.145 0.196,-0.394 0.196,-0.748 v -5.161 c 0,-0.245 -0.025,-0.434 -0.073,-0.567 -0.049,-0.133 -0.153,-0.232 -0.312,-0.298 -0.16,-0.067 -0.395,-0.1 -0.706,-0.1 v -0.555 h 3.359 c 0.995,0 1.836,0.169 2.524,0.507 0.325,0.161 0.631,0.4 0.917,0.717 0.285,0.318 0.519,0.715 0.7,1.191 C -0.09,-1.124 0,-0.591 0,0 m -1.758,0.036 c 0,-0.888 -0.182,-1.674 -0.546,-2.357 -0.363,-0.684 -0.984,-1.025 -1.864,-1.025 -0.296,0 -0.515,0.039 -0.656,0.117 -0.141,0.079 -0.226,0.193 -0.255,0.344 -0.029,0.151 -0.044,0.391 -0.044,0.72 v 5.746 c 0.456,0 0.806,-0.013 1.05,-0.039 0.245,-0.026 0.475,-0.087 0.692,-0.184 0.499,-0.221 0.895,-0.618 1.186,-1.19 0.291,-0.573 0.437,-1.284 0.437,-2.132"
               style="fill:#ffffff;fill-opacity:1;fill-rule:nonzero;stroke:none"
               id="path297" />
          </g>
          <g
             id="g299"
             transform="translate(54.2939,27.2491)">
            <path
               d="M 0,0 C -0.087,-0.623 -0.239,-1.08 -0.456,-1.372 -0.673,-1.663 -0.895,-1.844 -1.121,-1.914 -1.347,-1.985 -1.585,-2.02 -1.834,-2.02 h -0.592 c -0.264,0 -0.467,0.022 -0.61,0.066 -0.143,0.045 -0.246,0.116 -0.31,0.214 -0.063,0.099 -0.102,0.223 -0.116,0.371 -0.015,0.149 -0.022,0.384 -0.022,0.706 V 1.26 h 0.76 c 0.257,0 0.448,-0.024 0.572,-0.072 0.125,-0.048 0.216,-0.144 0.274,-0.287 0.058,-0.142 0.094,-0.364 0.109,-0.666 h 0.499 v 2.72 H -1.791 C -1.809,2.653 -1.843,2.432 -1.894,2.291 -1.945,2.15 -2.033,2.055 -2.16,2.005 -2.286,1.955 -2.478,1.929 -2.735,1.929 h -0.749 v 2.889 h 1.378 c 0.366,0 0.64,-0.024 0.823,-0.07 0.182,-0.046 0.347,-0.171 0.493,-0.374 0.147,-0.203 0.276,-0.539 0.388,-1.009 h 0.5 L 0,5.487 H -6.105 V 4.932 c 0.322,0 0.56,-0.037 0.714,-0.111 0.153,-0.075 0.251,-0.177 0.293,-0.308 0.041,-0.131 0.062,-0.312 0.062,-0.546 V -1.17 c 0,-0.353 -0.065,-0.603 -0.195,-0.747 -0.131,-0.145 -0.422,-0.217 -0.874,-0.217 V -2.689 H 0.45 L 0.51,0 Z"
               style="fill:#ffffff;fill-opacity:1;fill-rule:nonzero;stroke:none"
               id="path301" />
          </g>
          <g
             id="g303"
             transform="translate(61.8042,27.2913)">
            <path
               d="m 0,0 c -0.065,-0.627 -0.231,-1.092 -0.497,-1.396 -0.265,-0.303 -0.555,-0.49 -0.868,-0.561 -0.313,-0.07 -0.677,-0.105 -1.093,-0.105 -0.33,0 -0.566,0.041 -0.711,0.123 -0.145,0.083 -0.233,0.204 -0.266,0.365 -0.033,0.161 -0.049,0.426 -0.049,0.796 v 4.703 c 0,0.245 0.025,0.433 0.073,0.564 0.049,0.131 0.152,0.23 0.31,0.299 0.157,0.068 0.389,0.102 0.697,0.102 V 5.445 H -6.105 V 4.89 c 0.311,0 0.545,-0.036 0.703,-0.109 0.157,-0.072 0.258,-0.173 0.301,-0.304 0.043,-0.131 0.065,-0.315 0.065,-0.552 v -5.137 c 0,-0.354 -0.065,-0.603 -0.195,-0.748 -0.131,-0.144 -0.422,-0.217 -0.874,-0.217 V -2.731 H 0.45 L 0.499,0 Z"
               style="fill:#ffffff;fill-opacity:1;fill-rule:nonzero;stroke:none"
               id="path305" />
          </g>
          <g
             id="g307"
             transform="translate(69.2059,27.2913)">
            <path
               d="m 0,0 c -0.065,-0.627 -0.231,-1.092 -0.497,-1.396 -0.265,-0.303 -0.555,-0.49 -0.868,-0.561 -0.313,-0.07 -0.677,-0.105 -1.093,-0.105 -0.33,0 -0.567,0.041 -0.711,0.123 -0.145,0.083 -0.233,0.204 -0.266,0.365 -0.033,0.161 -0.049,0.426 -0.049,0.796 v 4.703 c 0,0.245 0.025,0.433 0.073,0.564 0.049,0.131 0.152,0.23 0.31,0.299 0.157,0.068 0.389,0.102 0.697,0.102 V 5.445 H -6.105 V 4.89 c 0.311,0 0.545,-0.036 0.703,-0.109 0.157,-0.072 0.258,-0.173 0.301,-0.304 0.043,-0.131 0.065,-0.315 0.065,-0.552 v -5.137 c 0,-0.354 -0.065,-0.603 -0.195,-0.748 -0.131,-0.144 -0.422,-0.217 -0.874,-0.217 V -2.731 H 0.45 L 0.499,0 Z"
               style="fill:#ffffff;fill-opacity:1;fill-rule:nonzero;stroke:none"
               id="path309" />
          </g>
          <g
             id="g311"
             transform="translate(71.9353,32.1331)">
            <path
               d="m 0,0 c -0.119,0.253 -0.268,0.441 -0.445,0.564 -0.177,0.122 -0.351,0.184 -0.521,0.184 -0.235,0 -0.44,-0.087 -0.616,-0.26 -0.175,-0.172 -0.263,-0.402 -0.263,-0.687 0,-0.261 0.083,-0.479 0.25,-0.654 0.166,-0.175 0.347,-0.262 0.542,-0.262 0.062,0 0.142,0.01 0.242,0.03 0.099,0.02 0.167,0.03 0.203,0.03 0.127,0 0.19,-0.099 0.19,-0.296 0,-0.233 -0.059,-0.44 -0.176,-0.621 -0.118,-0.181 -0.278,-0.33 -0.48,-0.449 -0.203,-0.118 -0.433,-0.206 -0.69,-0.262 v -0.555 c 0.405,0.06 0.756,0.199 1.05,0.416 0.295,0.217 0.518,0.491 0.668,0.82 0.15,0.33 0.225,0.696 0.225,1.098 C 0.179,-0.555 0.119,-0.253 0,0"
               style="fill:#ffffff;fill-opacity:1;fill-rule:nonzero;stroke:none"
               id="path313" />
          </g>
          <g
             id="g315"
             transform="translate(80.4169,24.5599)">
            <path
               d="m 0,0 v 0.555 c -0.242,0 -0.431,0.043 -0.564,0.129 -0.134,0.087 -0.239,0.209 -0.315,0.368 -0.076,0.159 -0.195,0.464 -0.358,0.914 L -3.479,8.333 H -3.994 L -6.116,2.159 C -6.264,1.729 -6.403,1.396 -6.531,1.161 -6.659,0.926 -6.794,0.766 -6.935,0.681 -7.076,0.597 -7.248,0.555 -7.451,0.555 V 0 h 2.535 v 0.555 c -0.225,0 -0.421,0.032 -0.589,0.096 -0.169,0.064 -0.253,0.217 -0.253,0.458 0,0.133 0.051,0.348 0.152,0.646 l 0.179,0.53 h 2.388 L -2.692,1.32 C -2.648,1.196 -2.626,1.073 -2.626,0.953 -2.626,0.78 -2.693,0.67 -2.827,0.624 -2.961,0.578 -3.175,0.555 -3.468,0.555 V 0 Z m -3.234,2.876 h -1.981 l 0.966,2.852 z"
               style="fill:#ffffff;fill-opacity:1;fill-rule:nonzero;stroke:none"
               id="path317" />
          </g>
          <g
             id="g319"
             transform="translate(89.007,32.736)">
            <path
               d="m 0,0 h -2.746 v -0.555 c 0.326,0 0.564,-0.044 0.714,-0.132 0.15,-0.089 0.244,-0.214 0.282,-0.377 0.038,-0.163 0.057,-0.397 0.057,-0.703 V -5.499 L -5.882,0 h -2.144 v -0.555 c 0.246,-0.028 0.439,-0.081 0.578,-0.16 0.139,-0.078 0.24,-0.18 0.301,-0.307 0.062,-0.127 0.101,-0.274 0.117,-0.443 0.016,-0.169 0.024,-0.422 0.024,-0.76 v -4.172 c 0,-0.342 -0.017,-0.59 -0.051,-0.745 -0.035,-0.155 -0.125,-0.273 -0.272,-0.356 -0.146,-0.082 -0.382,-0.123 -0.708,-0.123 v -0.555 h 2.735 v 0.555 c -0.347,0 -0.599,0.041 -0.754,0.123 -0.156,0.083 -0.252,0.201 -0.29,0.356 -0.038,0.155 -0.057,0.403 -0.057,0.745 v 4.504 l 4.813,-6.355 h 0.499 v 6.481 c 0,0.346 0.018,0.595 0.055,0.748 0.036,0.153 0.13,0.268 0.282,0.347 0.152,0.078 0.403,0.117 0.754,0.117 z"
               style="fill:#ffffff;fill-opacity:1;fill-rule:nonzero;stroke:none"
               id="path321" />
          </g>
          <g
             id="g323"
             transform="translate(97.6732,32.736)">
            <path
               d="m 0,0 h -2.746 v -0.555 c 0.326,0 0.564,-0.044 0.714,-0.132 0.15,-0.089 0.244,-0.214 0.282,-0.377 0.038,-0.163 0.057,-0.397 0.057,-0.703 V -5.499 L -5.882,0 h -2.144 v -0.555 c 0.246,-0.028 0.439,-0.081 0.578,-0.16 0.139,-0.078 0.24,-0.18 0.301,-0.307 0.062,-0.127 0.101,-0.274 0.117,-0.443 0.016,-0.169 0.024,-0.422 0.024,-0.76 v -4.172 c 0,-0.342 -0.017,-0.59 -0.051,-0.745 -0.035,-0.155 -0.125,-0.273 -0.272,-0.356 -0.146,-0.082 -0.382,-0.123 -0.708,-0.123 v -0.555 h 2.735 v 0.555 c -0.347,0 -0.599,0.041 -0.754,0.123 -0.156,0.083 -0.252,0.201 -0.29,0.356 -0.038,0.155 -0.057,0.403 -0.057,0.745 v 4.504 l 4.813,-6.355 h 0.499 v 6.481 c 0,0.346 0.018,0.595 0.055,0.748 0.036,0.153 0.13,0.268 0.282,0.347 0.152,0.078 0.403,0.117 0.754,0.117 z"
               style="fill:#ffffff;fill-opacity:1;fill-rule:nonzero;stroke:none"
               id="path325" />
          </g>
          <g
             id="g327"
             transform="translate(106.5436,28.6479)">
            <path
               d="M 0,0 C 0,0.43 -0.066,0.883 -0.198,1.36 -0.33,1.836 -0.55,2.291 -0.857,2.725 -1.165,3.16 -1.594,3.519 -2.144,3.805 -2.693,4.09 -3.361,4.233 -4.146,4.233 -5.007,4.233 -5.747,4.035 -6.365,3.639 -6.984,3.243 -7.447,2.721 -7.755,2.074 -8.062,1.427 -8.216,0.74 -8.216,0.012 c 0,-0.502 0.081,-1.003 0.242,-1.501 0.161,-0.499 0.408,-0.957 0.743,-1.375 0.335,-0.418 0.766,-0.752 1.294,-1.001 0.528,-0.249 1.14,-0.374 1.834,-0.374 0.851,0 1.588,0.196 2.212,0.588 0.624,0.392 1.095,0.913 1.413,1.562 C -0.159,-1.44 0,-0.744 0,0 m -1.758,0.024 c 0,-0.322 -0.019,-0.661 -0.057,-1.019 -0.038,-0.358 -0.132,-0.732 -0.282,-1.124 -0.151,-0.392 -0.389,-0.724 -0.717,-0.995 -0.327,-0.271 -0.753,-0.407 -1.278,-0.407 -0.528,0 -0.958,0.131 -1.291,0.395 -0.333,0.263 -0.575,0.587 -0.727,0.97 -0.152,0.384 -0.248,0.759 -0.288,1.125 -0.04,0.366 -0.06,0.718 -0.06,1.055 0,0.611 0.063,1.175 0.188,1.691 0.124,0.517 0.361,0.947 0.71,1.291 0.35,0.344 0.835,0.515 1.457,0.515 0.453,0 0.833,-0.097 1.14,-0.292 0.308,-0.195 0.55,-0.458 0.727,-0.79 0.177,-0.332 0.301,-0.702 0.372,-1.112 0.071,-0.41 0.106,-0.845 0.106,-1.303"
               style="fill:#ffffff;fill-opacity:1;fill-rule:nonzero;stroke:none"
               id="path329" />
          </g>
          <g
             id="g331"
             transform="translate(111.7075,25.609)">
            <path
               d="m 0,0 c 0.059,0.052 0.236,0.21 0.533,0.473 0.297,0.264 0.561,0.5 0.793,0.709 0.232,0.209 0.365,0.329 0.398,0.362 0.661,0.635 1.181,1.218 1.562,1.751 0.38,0.533 0.571,1.08 0.571,1.643 0,0.278 -0.068,0.576 -0.204,0.896 C 3.517,6.153 3.253,6.439 2.863,6.69 2.472,6.941 1.938,7.067 1.26,7.067 0.709,7.067 0.239,6.983 -0.147,6.816 -0.534,6.65 -0.823,6.423 -1.013,6.138 -1.203,5.853 -1.298,5.531 -1.298,5.173 c 0,-0.257 0.044,-0.494 0.132,-0.711 0.087,-0.217 0.165,-0.326 0.232,-0.326 0.025,0 0.106,0.028 0.244,0.085 l 0.408,0.163 c 0.175,0.068 0.263,0.118 0.263,0.15 0,0.016 -0.006,0.036 -0.019,0.061 -0.171,0.337 -0.257,0.613 -0.257,0.826 0,0.18 0.05,0.353 0.151,0.518 0.1,0.165 0.24,0.297 0.42,0.395 0.18,0.099 0.378,0.148 0.596,0.148 0.23,0 0.446,-0.055 0.649,-0.166 C 1.723,6.205 1.888,6.035 2.016,5.803 2.144,5.572 2.207,5.288 2.207,4.95 2.207,4.363 2.03,3.741 1.674,3.084 1.319,2.427 0.875,1.792 0.342,1.179 -0.191,0.566 -0.734,0.012 -1.286,-0.482 v -0.567 h 4.139 c 0.209,0 0.314,-0.082 0.314,-0.247 0,-0.053 -0.011,-0.123 -0.032,-0.211 H 3.662 L 3.944,0 Z"
               style="fill:#ffffff;fill-opacity:1;fill-rule:nonzero;stroke:none"
               id="path333" />
          </g>
          <g
             id="g335"
             transform="translate(122.139,28.4489)">
            <path
               d="M 0,0 C 0,0.888 -0.073,1.564 -0.219,2.026 -0.366,2.488 -0.554,2.87 -0.784,3.172 -1.285,3.875 -1.971,4.227 -2.841,4.227 -3.689,4.227 -4.375,3.875 -4.897,3.172 -5.056,2.951 -5.188,2.729 -5.292,2.508 -5.397,2.287 -5.488,1.955 -5.565,1.51 -5.643,1.066 -5.681,0.514 -5.681,-0.145 c 0,-0.731 0.088,-1.355 0.263,-1.872 0.176,-0.516 0.406,-0.924 0.69,-1.224 0.284,-0.299 0.591,-0.513 0.922,-0.642 0.33,-0.129 0.652,-0.193 0.965,-0.193 0.732,0 1.365,0.29 1.9,0.868 0.201,0.217 0.371,0.464 0.511,0.739 0.141,0.275 0.247,0.611 0.32,1.007 C -0.037,-1.066 0,-0.579 0,0 m -1.687,-0.398 c 0,-0.547 -0.009,-0.977 -0.028,-1.29 -0.019,-0.314 -0.064,-0.611 -0.135,-0.893 -0.071,-0.281 -0.188,-0.503 -0.351,-0.666 -0.163,-0.163 -0.376,-0.244 -0.64,-0.244 -0.355,0 -0.615,0.14 -0.78,0.419 -0.166,0.279 -0.269,0.659 -0.311,1.14 -0.042,0.48 -0.062,1.148 -0.062,2.004 0,0.885 0.02,1.566 0.062,2.044 0.042,0.479 0.145,0.853 0.311,1.122 0.165,0.269 0.425,0.404 0.78,0.404 0.335,0 0.587,-0.125 0.756,-0.374 0.169,-0.249 0.278,-0.563 0.326,-0.941 0.048,-0.377 0.072,-0.864 0.072,-1.459 V 0.072 Z"
               style="fill:#ffffff;fill-opacity:1;fill-rule:nonzero;stroke:none"
               id="path337" />
          </g>
          <g
             id="g339"
             transform="translate(124.2932,25.609)">
            <path
               d="m 0,0 c 0.059,0.052 0.236,0.21 0.533,0.473 0.297,0.264 0.561,0.5 0.793,0.709 0.232,0.209 0.365,0.329 0.398,0.362 0.661,0.635 1.181,1.218 1.562,1.751 0.38,0.533 0.571,1.08 0.571,1.643 0,0.278 -0.068,0.576 -0.204,0.896 C 3.517,6.153 3.253,6.439 2.863,6.69 2.472,6.941 1.938,7.067 1.26,7.067 0.709,7.067 0.239,6.983 -0.147,6.816 -0.534,6.65 -0.823,6.423 -1.013,6.138 -1.203,5.853 -1.298,5.531 -1.298,5.173 c 0,-0.257 0.044,-0.494 0.132,-0.711 0.087,-0.217 0.165,-0.326 0.232,-0.326 0.025,0 0.106,0.028 0.244,0.085 l 0.408,0.163 c 0.175,0.068 0.263,0.118 0.263,0.15 0,0.016 -0.006,0.036 -0.019,0.061 -0.171,0.337 -0.257,0.613 -0.257,0.826 0,0.18 0.05,0.353 0.151,0.518 0.1,0.165 0.24,0.297 0.42,0.395 0.18,0.099 0.378,0.148 0.596,0.148 0.23,0 0.446,-0.055 0.649,-0.166 C 1.723,6.205 1.888,6.035 2.016,5.803 2.144,5.572 2.207,5.288 2.207,4.95 2.207,4.363 2.03,3.741 1.674,3.084 1.319,2.427 0.875,1.792 0.342,1.179 -0.191,0.566 -0.734,0.012 -1.286,-0.482 v -0.567 h 4.139 c 0.209,0 0.314,-0.082 0.314,-0.247 0,-0.053 -0.011,-0.123 -0.032,-0.211 H 3.662 L 3.944,0 Z"
               style="fill:#ffffff;fill-opacity:1;fill-rule:nonzero;stroke:none"
               id="path341" />
          </g>
          <g
             id="g343"
             transform="translate(130.4339,25.609)">
            <path
               d="m 0,0 c 0.059,0.052 0.236,0.21 0.533,0.473 0.297,0.264 0.561,0.5 0.793,0.709 0.232,0.209 0.365,0.329 0.398,0.362 0.661,0.635 1.181,1.218 1.562,1.751 0.38,0.533 0.571,1.08 0.571,1.643 0,0.278 -0.068,0.576 -0.204,0.896 C 3.517,6.153 3.253,6.439 2.863,6.69 2.472,6.941 1.938,7.067 1.26,7.067 0.709,7.067 0.239,6.983 -0.147,6.816 -0.534,6.65 -0.823,6.423 -1.013,6.138 -1.203,5.853 -1.298,5.531 -1.298,5.173 c 0,-0.257 0.044,-0.494 0.132,-0.711 0.087,-0.217 0.165,-0.326 0.232,-0.326 0.025,0 0.106,0.028 0.244,0.085 l 0.408,0.163 c 0.175,0.068 0.263,0.118 0.263,0.15 0,0.016 -0.006,0.036 -0.019,0.061 -0.171,0.337 -0.257,0.613 -0.257,0.826 0,0.18 0.05,0.353 0.151,0.518 0.1,0.165 0.24,0.297 0.42,0.395 0.18,0.099 0.378,0.148 0.596,0.148 0.23,0 0.446,-0.055 0.649,-0.166 C 1.723,6.205 1.888,6.035 2.016,5.803 2.144,5.572 2.207,5.288 2.207,4.95 2.207,4.363 2.03,3.741 1.674,3.084 1.319,2.427 0.875,1.792 0.342,1.179 -0.191,0.566 -0.734,0.012 -1.285,-0.482 v -0.567 h 4.138 c 0.209,0 0.314,-0.082 0.314,-0.247 0,-0.053 -0.011,-0.123 -0.032,-0.211 H 3.662 L 3.944,0 Z"
               style="fill:#ffffff;fill-opacity:1;fill-rule:nonzero;stroke:none"
               id="path345" />
          </g>
        </g>
      </g>
    </g>
    <g
       id="g347"
       transform="translate(5.7024,52.3329)">
      <path
         d="M 0,0 -2.835,-2.835 V -46.064 L 0,-48.898 h 130.159 l 2.835,2.834 V -2.835 L 130.159,0 Z"
         style="fill:none;stroke:url(#linearGradient365);stroke-width:1.2;stroke-linecap:butt;stroke-linejoin:miter;stroke-miterlimit:4;stroke-dasharray:none;stroke-opacity:1"
         id="path367" />
    </g>
  </g>
</svg>
