<?xml version="1.0" encoding="UTF-8" standalone="no"?>
<!-- Created with Inkscape (http://www.inkscape.org/) -->

<svg
   xmlns:dc="http://purl.org/dc/elements/1.1/"
   xmlns:cc="http://creativecommons.org/ns#"
   xmlns:rdf="http://www.w3.org/1999/02/22-rdf-syntax-ns#"
   xmlns:svg="http://www.w3.org/2000/svg"
   xmlns="http://www.w3.org/2000/svg"
   xmlns:sodipodi="http://sodipodi.sourceforge.net/DTD/sodipodi-0.dtd"
   xmlns:inkscape="http://www.inkscape.org/namespaces/inkscape"
   version="1.1"
   id="svg2"
   xml:space="preserve"
   width="188.976"
   height="73.699997"
   viewBox="0 0 188.976 73.699997"
   sodipodi:docname="Studi Legali_sigillo2021.svg"
   inkscape:version="0.92.5 (2060ec1f9f, 2020-04-08)"><metadata
     id="metadata8"><rdf:RDF><cc:Work
         rdf:about=""><dc:format>image/svg+xml</dc:format><dc:type
           rdf:resource="http://purl.org/dc/dcmitype/StillImage" /><dc:title></dc:title></cc:Work></rdf:RDF></metadata><defs
     id="defs6"><clipPath
       clipPathUnits="userSpaceOnUse"
       id="clipPath18"><path
         d="M 0,0 H 141.732 V 55.275 H 0 Z"
         id="path16"
         inkscape:connector-curvature="0" /></clipPath><linearGradient
       x1="0"
       y1="0"
       x2="1"
       y2="0"
       gradientUnits="userSpaceOnUse"
       gradientTransform="matrix(95.954735,84.002029,84.002029,-95.954735,36.242596,-18.342194)"
       spreadMethod="pad"
       id="linearGradient46"><stop
         style="stop-opacity:1;stop-color:#866f4a"
         offset="0"
         id="stop24" /><stop
         style="stop-opacity:1;stop-color:#866f4a"
         offset="0.14927764"
         id="stop26" /><stop
         style="stop-opacity:1;stop-color:#e0bc73"
         offset="0.261727"
         id="stop28" /><stop
         style="stop-opacity:1;stop-color:#866f4a"
         offset="0.35083929"
         id="stop30" /><stop
         style="stop-opacity:1;stop-color:#866f4a"
         offset="0.485455"
         id="stop32" /><stop
         style="stop-opacity:1;stop-color:#866f4a"
         offset="0.69420582"
         id="stop34" /><stop
         style="stop-opacity:1;stop-color:#e0bc73"
         offset="0.801636"
         id="stop36" /><stop
         style="stop-opacity:1;stop-color:#866f4a"
         offset="0.89841333"
         id="stop38" /><stop
         style="stop-opacity:1;stop-color:#866f4a"
         offset="0.975"
         id="stop40" /><stop
         style="stop-opacity:1;stop-color:#866f4a"
         offset="0.97685002"
         id="stop42" /><stop
         style="stop-opacity:1;stop-color:#866f4a"
         offset="1"
         id="stop44" /></linearGradient><clipPath
       clipPathUnits="userSpaceOnUse"
       id="clipPath56"><path
         d="M 0,0 H 141.732 V 55.276 H 0 Z"
         id="path54"
         inkscape:connector-curvature="0" /></clipPath><clipPath
       clipPathUnits="userSpaceOnUse"
       id="clipPath82"><path
         d="M 0,0 H 141.732 V 55.276 H 0 Z"
         id="path80"
         inkscape:connector-curvature="0" /></clipPath><linearGradient
       x1="0"
       y1="0"
       x2="1"
       y2="0"
       gradientUnits="userSpaceOnUse"
       gradientTransform="matrix(95.4312,0,0,95.4312,0,55.7756)"
       spreadMethod="pad"
       id="linearGradient120"><stop
         style="stop-opacity:1;stop-color:#866f4a"
         offset="0"
         id="stop110" /><stop
         style="stop-opacity:1;stop-color:#e0bc73"
         offset="0.213636"
         id="stop112" /><stop
         style="stop-opacity:1;stop-color:#b8945b"
         offset="0.508636"
         id="stop114" /><stop
         style="stop-opacity:1;stop-color:#e0bc73"
         offset="0.790909"
         id="stop116" /><stop
         style="stop-opacity:1;stop-color:#947c53"
         offset="1"
         id="stop118" /></linearGradient><clipPath
       clipPathUnits="userSpaceOnUse"
       id="clipPath130"><path
         d="M 0,0 H 141.732 V 55.276 H 0 Z"
         id="path128"
         inkscape:connector-curvature="0" /></clipPath><linearGradient
       x1="0"
       y1="0"
       x2="1"
       y2="0"
       gradientUnits="userSpaceOnUse"
       gradientTransform="matrix(136.829,0,0,136.829,-3.33469,104.67387)"
       spreadMethod="pad"
       id="linearGradient182"><stop
         style="stop-opacity:1;stop-color:#e0bc73"
         offset="0"
         id="stop166" /><stop
         style="stop-opacity:1;stop-color:#e0bc73"
         offset="0.0114545"
         id="stop168" /><stop
         style="stop-opacity:1;stop-color:#947c53"
         offset="0.319955"
         id="stop170" /><stop
         style="stop-opacity:1;stop-color:#b8945b"
         offset="0.491364"
         id="stop172" /><stop
         style="stop-opacity:1;stop-color:#866f4a"
         offset="0.728591"
         id="stop174" /><stop
         style="stop-opacity:1;stop-color:#e0bc73"
         offset="0.966091"
         id="stop176" /><stop
         style="stop-opacity:1;stop-color:#e0bc73"
         offset="0.96860029"
         id="stop178" /><stop
         style="stop-opacity:1;stop-color:#e0bc73"
         offset="1"
         id="stop180" /></linearGradient><clipPath
       clipPathUnits="userSpaceOnUse"
       id="clipPath192"><path
         d="M 0,0 H 141.732 V 55.276 H 0 Z"
         id="path190"
         inkscape:connector-curvature="0" /></clipPath></defs><sodipodi:namedview
     pagecolor="#ffffff"
     bordercolor="#666666"
     borderopacity="1"
     objecttolerance="10"
     gridtolerance="10"
     guidetolerance="10"
     inkscape:pageopacity="0"
     inkscape:pageshadow="2"
     inkscape:window-width="1920"
     inkscape:window-height="2138"
     id="namedview4"
     showgrid="false"
     fit-margin-top="0"
     fit-margin-left="0"
     fit-margin-right="0"
     fit-margin-bottom="0"
     inkscape:zoom="2.9784576"
     inkscape:cx="94.487999"
     inkscape:cy="-39.119848"
     inkscape:window-x="0"
     inkscape:window-y="0"
     inkscape:window-maximized="0"
     inkscape:current-layer="g164" /><g
     id="g10"
     inkscape:groupmode="layer"
     inkscape:label="Studi Legali_sigillo2021"
     transform="matrix(1.3333333,0,0,-1.3333333,0,73.699998)"><g
       id="g12"><g
         id="g14"
         clip-path="url(#clipPath18)"><g
           id="g20"><g
             id="g22"><path
               d="M 0,0 H 141.732 V 55.275 H 0 Z"
               style="fill:url(#linearGradient46);stroke:none"
               id="path48"
               inkscape:connector-curvature="0" /></g></g></g></g><g
       id="g50"><g
         id="g52"
         clip-path="url(#clipPath56)"><g
           id="g58"
           transform="translate(102.581,11.806)"><path
             d="m 0,0 c -0.063,0.338 -0.221,0.527 -0.504,0.527 -0.228,0 -0.385,-0.118 -0.385,-0.338 0,-0.661 1.653,-0.929 1.653,-2.188 0,-0.756 -0.52,-1.142 -1.236,-1.142 -0.772,0 -1.213,0.441 -1.346,1.181 l 0.771,0.213 c 0.055,-0.355 0.181,-0.67 0.582,-0.67 0.229,0 0.394,0.134 0.394,0.37 0,0.732 -1.653,1.008 -1.653,2.165 0,0.669 0.52,1.134 1.181,1.134 0.692,0 1.157,-0.465 1.291,-1.126 z"
             style="fill:#231f20;fill-opacity:1;fill-rule:nonzero;stroke:none"
             id="path60"
             inkscape:connector-curvature="0" /></g><g
           id="g62"
           transform="translate(103.6909,12.2547)"><path
             d="M 0,0 V 0.724 H 0.488 V 1.866 H 1.37 V 0.724 H 1.96 V 0 H 1.37 v -2.44 c 0,-0.22 0.094,-0.346 0.299,-0.346 H 1.96 V -3.542 C 1.842,-3.574 1.74,-3.589 1.519,-3.589 c -0.661,0 -1.031,0.307 -1.031,0.952 V 0 Z"
             style="fill:#231f20;fill-opacity:1;fill-rule:nonzero;stroke:none"
             id="path64"
             inkscape:connector-curvature="0" /></g><g
           id="g66"
           transform="translate(106.1308,11.7352)"><path
             d="M 0,0 C 0.047,0.858 0.591,1.322 1.417,1.322 2.236,1.322 2.7,0.944 2.7,0.173 v -2.716 c 0,-0.133 0.032,-0.307 0.055,-0.448 H 1.913 C 1.905,-2.873 1.874,-2.763 1.866,-2.661 1.535,-2.928 1.26,-3.07 0.834,-3.07 c -0.598,0 -0.897,0.409 -0.897,0.952 0,0.929 0.614,1.441 1.881,1.921 V 0.055 C 1.818,0.409 1.677,0.598 1.386,0.598 0.984,0.598 0.898,0.362 0.882,0 Z M 1.818,-0.842 C 1.016,-1.299 0.819,-1.59 0.819,-1.96 c 0,-0.276 0.141,-0.386 0.409,-0.386 0.244,0 0.441,0.181 0.59,0.394 z"
             style="fill:#231f20;fill-opacity:1;fill-rule:nonzero;stroke:none"
             id="path68"
             inkscape:connector-curvature="0" /></g><g
           id="g70"
           transform="translate(109.3737,12.2547)"><path
             d="M 0,0 V 0.724 H 0.488 V 1.866 H 1.37 V 0.724 H 1.96 V 0 H 1.37 v -2.44 c 0,-0.22 0.094,-0.346 0.299,-0.346 H 1.96 V -3.542 C 1.842,-3.574 1.74,-3.589 1.519,-3.589 c -0.661,0 -1.031,0.307 -1.031,0.952 V 0 Z"
             style="fill:#231f20;fill-opacity:1;fill-rule:nonzero;stroke:none"
             id="path72"
             inkscape:connector-curvature="0" /></g></g></g><path
       d="m 111.916,13.328 h 0.882 v 0.803 h -0.882 z m 0,-4.584 h 0.882 v 4.234 h -0.882 z"
       style="fill:#231f20;fill-opacity:1;fill-rule:nonzero;stroke:none"
       id="path74"
       inkscape:connector-curvature="0" /><g
       id="g76"><g
         id="g78"
         clip-path="url(#clipPath82)"><g
           id="g84"
           transform="translate(115.2619,11.806)"><path
             d="m 0,0 c -0.063,0.338 -0.221,0.527 -0.504,0.527 -0.228,0 -0.386,-0.118 -0.386,-0.338 0,-0.661 1.653,-0.929 1.653,-2.188 0,-0.756 -0.519,-1.142 -1.236,-1.142 -0.771,0 -1.212,0.441 -1.346,1.181 l 0.772,0.213 c 0.055,-0.355 0.181,-0.67 0.582,-0.67 0.229,0 0.394,0.134 0.394,0.37 0,0.732 -1.653,1.008 -1.653,2.165 0,0.669 0.519,1.134 1.181,1.134 0.693,0 1.157,-0.465 1.291,-1.126 z"
             style="fill:#231f20;fill-opacity:1;fill-rule:nonzero;stroke:none"
             id="path86"
             inkscape:connector-curvature="0" /></g><g
           id="g88"
           transform="translate(116.3716,12.2547)"><path
             d="M 0,0 V 0.724 H 0.488 V 1.866 H 1.37 V 0.724 H 1.96 V 0 H 1.37 v -2.44 c 0,-0.22 0.094,-0.346 0.299,-0.346 H 1.96 V -3.542 C 1.842,-3.574 1.74,-3.589 1.519,-3.589 c -0.661,0 -1.031,0.307 -1.031,0.952 V 0 Z"
             style="fill:#231f20;fill-opacity:1;fill-rule:nonzero;stroke:none"
             id="path90"
             inkscape:connector-curvature="0" /></g><g
           id="g92"
           transform="translate(118.8118,11.7352)"><path
             d="M 0,0 C 0.047,0.858 0.59,1.322 1.417,1.322 2.236,1.322 2.7,0.944 2.7,0.173 v -2.716 c 0,-0.133 0.031,-0.307 0.055,-0.448 H 1.913 C 1.905,-2.873 1.873,-2.763 1.866,-2.661 1.535,-2.928 1.259,-3.07 0.834,-3.07 c -0.598,0 -0.897,0.409 -0.897,0.952 0,0.929 0.614,1.441 1.881,1.921 V 0.055 C 1.818,0.409 1.677,0.598 1.385,0.598 0.984,0.598 0.897,0.362 0.882,0 Z M 1.818,-0.842 C 1.015,-1.299 0.819,-1.59 0.819,-1.96 c 0,-0.276 0.141,-0.386 0.409,-0.386 0.244,0 0.441,0.181 0.59,0.394 z"
             style="fill:#231f20;fill-opacity:1;fill-rule:nonzero;stroke:none"
             id="path94"
             inkscape:connector-curvature="0" /></g><g
           id="g96"
           transform="translate(128.4927,14.1254)"><path
             d="m 0,0 h -5.078 c -0.106,0 -0.191,-0.086 -0.191,-0.191 v -3.46 c 0.009,10e-4 0.018,0.002 0.028,0.002 0,0 0.822,0.016 1.175,0.2 0.436,0.226 0.76,0.694 0.76,0.694 0.082,0.12 0.173,0.251 0.202,0.292 0.029,0.042 0.059,0.083 0.066,0.093 0.008,0.009 0.042,0.057 0.062,0.086 0.019,0.028 0.103,0.149 0.186,0.268 0,0 0.495,0.716 1.197,1.08 0.761,0.396 1.768,0.352 1.768,0.352 0.006,0 0.011,-0.001 0.016,-0.002 v 0.395 C 0.191,-0.086 0.106,0 0,0 m -1.034,-2.011 c -0.436,-0.226 -0.76,-0.694 -0.76,-0.694 -0.082,-0.12 -0.173,-0.251 -0.202,-0.292 -0.029,-0.042 -0.058,-0.083 -0.066,-0.093 -0.007,-0.009 -0.042,-0.057 -0.061,-0.086 -0.02,-0.029 -0.104,-0.15 -0.187,-0.269 0,0 -0.495,-0.715 -1.197,-1.079 -0.729,-0.379 -1.684,-0.355 -1.762,-0.352 v -0.393 c 0,-0.105 0.085,-0.191 0.191,-0.191 H 0 c 0.106,0 0.191,0.086 0.191,0.191 v 3.464 C 0.175,-1.809 0.158,-1.811 0.142,-1.811 c 0,0 -0.823,-0.016 -1.176,-0.2"
             style="fill:#231f20;fill-opacity:1;fill-rule:nonzero;stroke:none"
             id="path98"
             inkscape:connector-curvature="0" /></g><g
           id="g100"
           transform="translate(54.1134,16.7304)"><path
             d="m 0,0 c 0,0.21 0.051,0.346 0.134,0.346 0.074,0 0.107,-0.067 0.107,-0.19 C 0.241,0.058 0.226,0 0.199,-0.009 L 0.018,-0.016 C 0.004,-0.016 0,-0.011 0,0 m -0.355,-0.219 c 0,-0.317 0.223,-0.548 0.514,-0.548 0.23,0 0.346,0.099 0.433,0.275 L 0.581,-0.469 C 0.507,-0.492 0.431,-0.503 0.335,-0.503 0.118,-0.503 0,-0.299 0,-0.092 c 0,0.016 0.002,0.038 0.002,0.038 0.177,0 0.342,-0.011 0.514,-0.011 0.02,0 0.036,0.005 0.049,0.014 0.018,0.02 0.025,0.062 0.025,0.116 0,0.228 -0.208,0.322 -0.442,0.322 -0.257,0 -0.503,-0.244 -0.503,-0.606 m -0.092,-0.467 c -0.018,0.011 -0.022,0.029 -0.022,0.159 v 0.945 c 0,0.172 0.013,0.404 0.013,0.404 L -0.498,0.827 C -0.711,0.816 -0.923,0.753 -0.923,0.753 c 0,0 -0.004,-0.013 -0.004,-0.033 l 0.058,-0.018 c 0.018,-0.018 0.024,-0.036 0.024,-0.19 v -1.039 c 0,-0.137 -0.004,-0.148 -0.022,-0.159 l -0.058,-0.016 c 0,0 -0.005,-0.018 -0.005,-0.04 h 0.544 c 0,0.022 -0.005,0.04 -0.005,0.04 z m -1.21,0.523 c 0,0.239 0.029,0.503 0.152,0.503 0.13,0 0.159,-0.28 0.159,-0.546 0,-0.237 -0.014,-0.509 -0.141,-0.509 -0.141,0 -0.17,0.284 -0.17,0.552 m -0.384,-0.034 c 0,-0.353 0.25,-0.57 0.523,-0.57 0.286,0 0.554,0.228 0.554,0.586 0,0.349 -0.23,0.568 -0.519,0.568 -0.306,0 -0.558,-0.257 -0.558,-0.584 M -2.632,0.72 c -0.281,0 -0.527,-0.184 -0.527,-0.441 0,-0.214 0.127,-0.344 0.424,-0.453 0.233,-0.085 0.347,-0.146 0.347,-0.293 0,-0.168 -0.112,-0.253 -0.268,-0.253 -0.063,0 -0.117,0.005 -0.181,0.027 -0.11,0.136 -0.202,0.268 -0.278,0.429 L -3.159,-0.27 c 0,-0.164 0.013,-0.278 0.036,-0.456 0.165,-0.034 0.332,-0.045 0.464,-0.045 0.313,0 0.55,0.168 0.55,0.467 0,0.246 -0.138,0.346 -0.409,0.458 -0.286,0.116 -0.366,0.17 -0.366,0.304 0,0.134 0.098,0.213 0.245,0.213 0.065,0 0.115,-0.007 0.17,-0.023 0.108,-0.1 0.197,-0.223 0.273,-0.378 l 0.042,0.003 c -0.002,0.149 -0.011,0.306 -0.022,0.4 L -2.187,0.686 C -2.279,0.702 -2.493,0.72 -2.632,0.72 m -0.943,-1.406 c -0.018,0.011 -0.023,0.029 -0.023,0.159 v 0.945 c 0,0.172 0.014,0.404 0.014,0.404 L -3.627,0.827 C -3.839,0.816 -4.051,0.753 -4.051,0.753 c 0,0 -0.005,-0.013 -0.005,-0.033 l 0.058,-0.018 c 0.018,-0.018 0.025,-0.036 0.025,-0.19 v -1.039 c 0,-0.137 -0.005,-0.148 -0.022,-0.159 l -0.059,-0.016 c 0,0 -0.004,-0.018 -0.004,-0.04 h 0.543 c 0,0.022 -0.004,0.04 -0.004,0.04 z m -0.549,1.33 c 0,0 0.005,0.013 0.005,0.044 h -0.664 c 0,-0.031 0.004,-0.044 0.004,-0.044 L -4.676,0.626 C -4.651,0.603 -4.645,0.57 -4.645,0.346 V -0.4 c 0,-0.224 -0.006,-0.257 -0.031,-0.279 l -0.103,-0.018 c 0,0 -0.004,-0.014 -0.004,-0.045 h 0.664 c 0,0.031 -0.005,0.045 -0.005,0.045 l -0.103,0.018 c -0.024,0.022 -0.031,0.055 -0.031,0.279 v 0.746 c 0,0.224 0.007,0.257 0.031,0.28 z"
             style="fill:#231f20;fill-opacity:1;fill-rule:nonzero;stroke:none"
             id="path102"
             inkscape:connector-curvature="0" /></g><g
           id="g104"
           transform="translate(74.0807,10.2347)"><path
             d="m 0,0 v -1.771 h -3.815 l -0.746,0.791 v 0.317 h 0.036 c 0.153,0.01 0.247,0.049 0.357,0.152 0.129,0.12 0.177,0.233 0.17,0.408 V 3.785 L -4.59,4.526 v 0.335 h 3.838 L -0.015,4.073 V 2.283 H -0.41 l -0.727,0.726 c 0,0 -0.015,0.451 -0.215,0.612 -0.207,0.166 -0.455,0.158 -0.455,0.158 L -1.799,2.965 H -1.48 L -0.698,2.079 V 0.616 Z m -1.736,0.806 h -0.071 v -1.288 c 0.128,0.066 0.249,0.157 0.371,0.275 0.097,0.097 0.173,0.187 0.233,0.283 -0.113,0.141 -0.393,0.496 -0.533,0.73 M -0.811,0.647 H -0.952 C -0.983,0.266 -1.101,0.019 -1.385,-0.258 -1.7,-0.565 -2.011,-0.696 -2.427,-0.696 c -0.05,0 -0.101,0.002 -0.157,0.006 l -0.033,0.001 v 2.501 l 0.039,-0.001 c 0.07,-0.006 0.136,-0.003 0.196,-0.002 0.17,0.005 0.304,0.003 0.419,-0.096 0.116,-0.102 0.169,-0.194 0.194,-0.339 V 0.879 h 0.26 V 2.87 H -1.708 V 2.645 C -1.722,2.48 -1.769,2.376 -1.886,2.258 -2.041,2.096 -2.215,2.084 -2.396,2.084 H -2.482 C -2.513,2.087 -2.547,2.087 -2.579,2.087 H -2.617 V 4.54 l 0.034,0.002 C -2.183,4.565 -1.92,4.485 -1.6,4.244 -1.217,3.95 -1.049,3.611 -1.055,3.147 h 0.229 V 4.789 H -4.517 V 4.601 c 0.194,0 0.336,-0.067 0.462,-0.217 0.107,-0.127 0.115,-0.234 0.126,-0.382 l 0.004,-0.06 V -0.103 C -3.916,-0.293 -3.973,-0.43 -4.118,-0.564 -4.233,-0.67 -4.335,-0.717 -4.485,-0.73 v -0.179 h 3.674 z m -4.076,-1.489 0.424,-0.567 v -0.334 h -1.336 l -0.849,0.318 v -0.29 h -2.561 l -0.723,0.735 h -0.002 v 0.316 l 0.034,0.001 c 0.185,0.017 0.301,0.078 0.414,0.22 0.092,0.115 0.099,0.222 0.108,0.358 10e-4,0.024 0.002,0.048 0.006,0.075 V 3.773 L -9.979,4.54 v 0.35 h 3.178 C -6.683,4.879 -6.564,4.851 -6.449,4.806 -5.603,4.618 -4.994,3.963 -4.903,3.096 -4.832,2.423 -5.024,1.932 -5.541,1.468 -5.335,1.316 -5.232,1.204 -5.101,0.988 -4.979,0.79 -4.93,0.663 -4.887,0.437 Z m -0.326,0.08 h -0.001 c -0.156,0 -0.276,0.052 -0.385,0.171 -0.116,0.129 -0.116,0.238 -0.114,0.406 v 1.144 c -0.035,0.219 -0.093,0.35 -0.236,0.531 -0.165,0.206 -0.305,0.308 -0.559,0.395 l -0.084,0.028 0.08,0.038 c 0.58,0.275 0.912,0.607 0.89,1.493 -0.022,0.831 -0.612,1.321 -1.182,1.376 L -9.905,4.819 V 4.616 c 0.018,0 0.036,0.002 0.056,0.002 0.204,0 0.344,-0.059 0.452,-0.191 0.08,-0.099 0.083,-0.183 0.086,-0.283 0.002,-0.045 0.003,-0.096 0.012,-0.155 v -4.004 c -0.002,-0.027 -0.002,-0.052 -0.005,-0.074 -0.01,-0.143 -0.019,-0.265 -0.123,-0.398 -0.12,-0.15 -0.246,-0.221 -0.432,-0.243 v -0.179 h 2.43 v 0.19 c -0.196,0.004 -0.339,0.075 -0.464,0.233 -0.113,0.146 -0.113,0.277 -0.113,0.444 v 1.88 l 0.115,0.003 h 0.082 c 0.187,0 0.401,-0.014 0.53,-0.142 0.133,-0.134 0.159,-0.321 0.18,-0.469 l -0.013,-1.419 c 0.003,-0.17 0.034,-0.27 0.129,-0.417 0.111,-0.165 0.213,-0.246 0.401,-0.317 h 1.369 z M -7.969,4.506 V 2.108 c 0.304,0 0.516,-0.005 0.683,0.135 0.149,0.121 0.192,0.285 0.213,0.488 V 3.868 C -7.094,4.025 -7.12,4.235 -7.255,4.372 -7.414,4.533 -7.71,4.506 -7.969,4.506 M -11.87,-1.86 c -0.949,0 -1.782,0.627 -2.292,1.634 -0.342,0.555 -0.553,1.301 -0.553,2.123 0,1.714 0.917,3.111 2.047,3.111 0.217,0 0.427,-0.053 0.624,-0.148 1.096,-0.431 2.135,-1.903 2.163,-3.296 0.121,-1.52 -0.561,-3.424 -1.989,-3.424 m 1.177,3.757 c 0,1.675 -0.886,3.037 -1.975,3.037 -1.088,0 -1.973,-1.362 -1.973,-3.037 0,-1.675 0.885,-3.038 1.973,-3.038 1.089,0 1.975,1.363 1.975,3.038 m -1.961,2.701 c -0.231,0 -0.418,-0.198 -0.418,-0.442 v -4.498 c 0,-0.244 0.187,-0.443 0.418,-0.443 0.23,0 0.416,0.199 0.416,0.443 v 4.498 c 0,0.244 -0.186,0.442 -0.416,0.442 m -8.664,-4.016 0.653,-0.727 V -1.824 H -24.3 l -0.622,0.814 v 0.377 l 0.02,0.01 c 0.729,0.398 1.249,0.917 1.541,1.527 -0.424,0.157 -0.699,0.399 -0.992,0.797 -0.104,0.14 -0.186,0.277 -0.25,0.413 -0.133,0.199 -0.222,0.456 -0.228,0.763 -0.009,0.484 0.141,1.159 0.584,1.603 0.274,0.277 0.616,0.419 1.017,0.422 h 0.018 c 0.152,0 0.297,-0.016 0.432,-0.047 0.969,-0.09 1.67,-0.641 1.933,-1.527 0.262,-0.879 0.318,-1.86 -0.471,-2.746 m -0.158,0.051 h -0.202 C -21.696,0.507 -21.748,0.42 -21.855,0.335 -21.987,0.232 -22.089,0.232 -22.26,0.241 h -1.052 l 0.125,0.067 c 1.066,0.577 1.682,1.455 1.696,2.412 0.01,0.7 -0.194,1.292 -0.575,1.667 -0.295,0.293 -0.681,0.442 -1.146,0.442 h -0.016 c -0.383,-0.004 -0.705,-0.137 -0.967,-0.398 -0.426,-0.429 -0.569,-1.083 -0.562,-1.552 0.013,-0.701 0.469,-1.134 0.887,-1.134 0.367,0 0.621,0.312 0.679,0.83 0.058,0.531 -0.06,0.784 -0.168,0.901 -0.077,0.083 -0.177,0.128 -0.289,0.128 -0.194,0 -0.405,-0.128 -0.567,-0.34 l -0.035,-0.047 -0.028,0.051 c -0.114,0.204 -0.075,0.586 0.087,0.85 0.095,0.152 0.268,0.337 0.568,0.337 h 0.016 c 0.145,-0.003 0.268,-0.062 0.368,-0.173 0.411,-0.47 0.298,-1.813 0.194,-2.571 -0.133,-0.987 -0.756,-1.81 -1.803,-2.386 v -0.262 h 3.372 z m 5.063,0.021 0.636,-0.771 v -0.304 h -0.577 v -0.306 l 0.562,-0.726 v -0.342 h -2.83 l -0.805,0.785 v 0.334 h 0.038 c 0.199,0 0.308,0.01 0.448,0.109 0.065,0.046 0.111,0.089 0.147,0.139 h -1.288 l -0.714,0.742 h 0.003 v 0.41 l 0.011,0.012 c 0.574,0.642 0.852,1.048 1.238,1.81 0.42,0.829 0.59,1.332 0.757,2.242 l 0.006,0.037 0.037,-0.007 c 0.247,-0.051 0.393,-0.067 0.626,-0.067 h 0.049 c 0.295,0.003 0.464,0.024 0.75,0.095 l 0.046,0.013 0.73,-0.714 V 0.812 l 0.086,-0.106 h 0.004 V 0.701 Z m -0.114,-0.021 h -0.82 V 4.765 C -17.614,4.7 -17.782,4.682 -18.068,4.679 h -0.05 c -0.227,0 -0.374,0.014 -0.603,0.059 -0.166,-0.894 -0.339,-1.399 -0.758,-2.224 -0.387,-0.765 -0.666,-1.174 -1.24,-1.817 V 0.385 h 2.065 l -0.002,-0.704 c -0.053,-0.139 -0.116,-0.217 -0.241,-0.305 -0.152,-0.109 -0.278,-0.124 -0.455,-0.124 v -0.189 h 2.809 v 0.232 h -0.221 c -0.16,0 -0.274,0.007 -0.402,0.109 -0.107,0.085 -0.157,0.166 -0.181,0.298 v 0.697 h 0.82 z m -2.202,2.914 h 0.075 V 0.633 h -1.684 v 0.036 c 0.337,0.485 0.513,0.767 0.804,1.278 0.348,0.608 0.525,0.96 0.805,1.599 z m 0,-1.905 -0.526,-0.936 h 0.526 z"
             style="fill:#231f20;fill-opacity:1;fill-rule:nonzero;stroke:none"
             id="path106"
             inkscape:connector-curvature="0" /></g></g></g><g
       id="g108"
       transform="translate(39.727,20.649)"><path
         d="M 0,0 H 95.431"
         style="fill:none;stroke:url(#linearGradient120);stroke-width:0.41999999;stroke-linecap:butt;stroke-linejoin:miter;stroke-miterlimit:4;stroke-dasharray:none;stroke-opacity:1"
         id="path122"
         inkscape:connector-curvature="0" /></g><g
       id="g124"><g
         id="g126"
         clip-path="url(#clipPath130)"><g
           id="g132"
           transform="translate(36.524,44.6915)"><path
             d="m 0,0 h -28.739 c -0.54,0 -0.978,0.438 -0.978,0.978 0,0.54 0.438,0.978 0.978,0.978 H 0 C 0.54,1.956 0.978,1.518 0.978,0.978 0.978,0.438 0.54,0 0,0"
             style="fill:#ffffff;fill-opacity:1;fill-rule:nonzero;stroke:none"
             id="path134"
             inkscape:connector-curvature="0" /></g><g
           id="g136"
           transform="translate(33.6693,40.1679)"><path
             d="m 0,0 h -22.722 c -0.54,0 -0.978,0.438 -0.978,0.978 0,0.54 0.438,0.978 0.978,0.978 H 0 C 0.54,1.956 0.978,1.518 0.978,0.978 0.978,0.438 0.54,0 0,0"
             style="fill:#ffffff;fill-opacity:1;fill-rule:nonzero;stroke:none"
             id="path138"
             inkscape:connector-curvature="0" /></g><g
           id="g140"
           transform="translate(18.1334,8.5705)"><path
             d="m 0,0 v 28.837 c 0,0.541 -0.438,0.979 -0.978,0.979 -0.541,0 -0.979,-0.438 -0.979,-0.979 V 0.786 C -1.328,0.48 -0.679,0.208 0,0"
             style="fill:#ffffff;fill-opacity:1;fill-rule:nonzero;stroke:none"
             id="path142"
             inkscape:connector-curvature="0" /></g><g
           id="g144"
           transform="translate(23.1331,8.0063)"><path
             d="m 0,0 v 29.402 c 0,0.54 -0.438,0.978 -0.978,0.978 -0.541,0 -0.979,-0.438 -0.979,-0.978 V 0.011 c 0.325,-0.023 0.648,-0.05 0.979,-0.05 0.329,0 0.654,0.016 0.978,0.039"
             style="fill:#ffffff;fill-opacity:1;fill-rule:nonzero;stroke:none"
             id="path146"
             inkscape:connector-curvature="0" /></g><g
           id="g148"
           transform="translate(28.3454,9.4485)"><path
             d="m 0,0 v 27.959 c 0,0.541 -0.438,0.979 -0.978,0.979 -0.541,0 -0.979,-0.438 -0.979,-0.979 V -0.811 C -1.28,-0.591 -0.626,-0.318 0,0"
             style="fill:#ffffff;fill-opacity:1;fill-rule:nonzero;stroke:none"
             id="path150"
             inkscape:connector-curvature="0" /></g><g
           id="g152"
           transform="translate(35.9223,21.653)"><path
             d="M 0,0 C 0,4.851 -2.544,9.109 -6.361,11.54 V 9.145 C -3.68,6.994 -1.957,3.697 -1.957,0 c 0,-3.697 -1.723,-6.994 -4.404,-9.145 v -2.396 C -2.544,-9.109 0,-4.851 0,0 M -20.962,11.57 C -24.805,9.144 -27.371,4.871 -27.371,0 c 0,-4.871 2.566,-9.144 6.409,-11.57 v 2.388 c -2.708,2.151 -4.452,5.464 -4.452,9.182 0,3.718 1.744,7.031 4.452,9.182 z"
             style="fill:#ffffff;fill-opacity:1;fill-rule:nonzero;stroke:none"
             id="path154"
             inkscape:connector-curvature="0" /></g><g
           id="g156"
           transform="translate(47.346,29.7996)"><path
             d="m 0,0 c -0.101,0.39 -0.245,0.751 -0.431,1.082 -0.187,0.332 -0.416,0.627 -0.687,0.887 -0.271,0.259 -0.568,0.461 -0.89,0.606 -0.351,0.16 -0.737,0.277 -1.158,0.349 -0.422,0.073 -0.935,0.109 -1.539,0.109 -0.061,0 -0.286,-0.004 -0.673,-0.012 C -5.765,3.013 -5.986,3.009 -6.04,3.009 L -7.619,2.973 V 2.406 c 0.467,0 0.765,-0.073 0.895,-0.217 0.131,-0.145 0.196,-0.394 0.196,-0.748 V -3.72 c 0,-0.245 -0.025,-0.434 -0.074,-0.567 -0.048,-0.133 -0.152,-0.232 -0.312,-0.298 -0.159,-0.067 -0.394,-0.1 -0.705,-0.1 V -5.24 h 3.359 c 0.995,0 1.836,0.169 2.523,0.507 0.326,0.161 0.632,0.4 0.918,0.717 0.285,0.318 0.519,0.715 0.7,1.191 0.18,0.476 0.271,1.01 0.271,1.601 C 0.152,-0.798 0.101,-0.39 0,0 m -2.152,-3.545 c -0.363,-0.684 -0.985,-1.025 -1.864,-1.025 -0.296,0 -0.515,0.039 -0.656,0.117 -0.141,0.079 -0.226,0.193 -0.255,0.344 -0.029,0.151 -0.044,0.391 -0.044,0.72 v 5.747 c 0.456,0 0.806,-0.014 1.05,-0.04 0.244,-0.026 0.475,-0.087 0.692,-0.184 0.499,-0.221 0.895,-0.618 1.186,-1.19 0.291,-0.573 0.437,-1.284 0.437,-2.132 0,-0.888 -0.182,-1.674 -0.546,-2.357 m 9.418,0.994 C 7.179,-3.174 7.027,-3.631 6.81,-3.922 6.593,-4.214 6.371,-4.395 6.145,-4.465 5.919,-4.535 5.681,-4.57 5.432,-4.57 H 4.84 c -0.264,0 -0.467,0.022 -0.61,0.066 -0.143,0.044 -0.246,0.115 -0.309,0.214 -0.064,0.098 -0.103,0.222 -0.117,0.371 -0.015,0.148 -0.022,0.384 -0.022,0.705 v 1.924 h 0.76 c 0.257,0 0.448,-0.024 0.572,-0.073 0.125,-0.048 0.217,-0.143 0.274,-0.286 0.058,-0.143 0.094,-0.365 0.109,-0.666 H 5.996 V 0.404 H 5.475 C 5.457,0.103 5.423,-0.119 5.372,-0.259 5.321,-0.4 5.233,-0.495 5.106,-0.546 4.98,-0.596 4.788,-0.621 4.531,-0.621 H 3.782 V 2.267 H 5.161 C 5.526,2.267 5.8,2.244 5.983,2.198 6.165,2.152 6.33,2.027 6.476,1.824 6.623,1.621 6.752,1.284 6.864,0.814 h 0.5 L 7.266,2.936 H 1.161 V 2.382 C 1.483,2.382 1.721,2.344 1.875,2.27 2.028,2.196 2.126,2.093 2.168,1.963 2.209,1.832 2.23,1.65 2.23,1.417 V -3.72 C 2.23,-4.074 2.165,-4.323 2.035,-4.468 1.905,-4.613 1.613,-4.685 1.161,-4.685 V -5.24 h 6.555 l 0.06,2.689 z m 7.51,0.043 c -0.065,-0.627 -0.23,-1.093 -0.496,-1.396 -0.266,-0.304 -0.556,-0.491 -0.869,-0.561 -0.312,-0.07 -0.677,-0.105 -1.093,-0.105 -0.329,0 -0.566,0.041 -0.711,0.123 -0.145,0.083 -0.233,0.204 -0.266,0.365 -0.032,0.161 -0.049,0.426 -0.049,0.796 v 4.703 c 0,0.245 0.025,0.433 0.074,0.564 0.048,0.13 0.152,0.23 0.309,0.298 0.157,0.069 0.39,0.103 0.697,0.103 V 2.936 H 8.671 V 2.382 C 8.982,2.382 9.217,2.346 9.374,2.273 9.531,2.201 9.632,2.099 9.675,1.969 9.719,1.838 9.74,1.654 9.74,1.417 V -3.72 C 9.74,-4.074 9.675,-4.323 9.545,-4.468 9.415,-4.613 9.124,-4.685 8.671,-4.685 V -5.24 h 6.556 l 0.049,2.732 z m 7.402,0 C 22.113,-3.135 21.947,-3.601 21.681,-3.904 21.416,-4.208 21.126,-4.395 20.813,-4.465 20.5,-4.535 20.136,-4.57 19.72,-4.57 c -0.33,0 -0.567,0.041 -0.711,0.123 -0.145,0.083 -0.234,0.204 -0.266,0.365 -0.033,0.161 -0.049,0.426 -0.049,0.796 v 4.703 c 0,0.245 0.025,0.433 0.073,0.564 0.049,0.13 0.152,0.23 0.31,0.298 0.157,0.069 0.389,0.103 0.697,0.103 V 2.936 H 16.073 V 2.382 c 0.311,0 0.545,-0.036 0.703,-0.109 0.157,-0.072 0.258,-0.174 0.301,-0.304 0.043,-0.131 0.065,-0.315 0.065,-0.552 V -3.72 c 0,-0.354 -0.065,-0.603 -0.195,-0.748 -0.131,-0.145 -0.422,-0.217 -0.874,-0.217 V -5.24 h 6.555 l 0.049,2.732 z m 2.729,4.841 C 24.788,2.587 24.64,2.775 24.462,2.897 24.285,3.02 24.111,3.081 23.941,3.081 23.706,3.081 23.501,2.995 23.326,2.822 23.15,2.649 23.062,2.42 23.062,2.134 c 0,-0.261 0.084,-0.479 0.25,-0.654 0.166,-0.175 0.347,-0.262 0.543,-0.262 0.061,0 0.142,0.01 0.241,0.03 0.1,0.02 0.167,0.03 0.204,0.03 0.126,0 0.19,-0.098 0.19,-0.295 0,-0.233 -0.059,-0.44 -0.177,-0.621 C 24.196,0.181 24.035,0.031 23.833,-0.087 23.63,-0.206 23.401,-0.293 23.144,-0.35 v -0.554 c 0.405,0.06 0.755,0.199 1.05,0.416 0.295,0.217 0.517,0.49 0.667,0.82 0.15,0.329 0.225,0.695 0.225,1.097 0,0.35 -0.059,0.651 -0.179,0.904 m 8.482,-7.018 c -0.242,0 -0.431,0.043 -0.564,0.13 -0.134,0.086 -0.239,0.209 -0.315,0.367 -0.076,0.159 -0.195,0.464 -0.358,0.914 L 29.911,3.093 H 29.395 L 27.273,-3.081 C 27.125,-3.511 26.986,-3.844 26.858,-4.079 26.73,-4.314 26.595,-4.474 26.454,-4.558 26.313,-4.643 26.141,-4.685 25.938,-4.685 V -5.24 h 2.534 v 0.555 c -0.224,0 -0.42,0.032 -0.588,0.096 -0.169,0.065 -0.253,0.218 -0.253,0.459 0,0.132 0.051,0.347 0.152,0.645 l 0.179,0.531 h 2.388 l 0.347,-0.965 c 0.044,-0.125 0.065,-0.247 0.065,-0.368 0,-0.173 -0.066,-0.282 -0.2,-0.329 -0.134,-0.046 -0.348,-0.069 -0.641,-0.069 V -5.24 h 3.468 z m -5.215,2.321 0.966,2.852 1.015,-2.852 z m 13.805,5.3 H 39.233 V 2.382 c 0.326,0 0.564,-0.045 0.714,-0.133 0.15,-0.088 0.244,-0.214 0.282,-0.377 0.038,-0.163 0.057,-0.397 0.057,-0.702 V -2.563 L 36.097,2.936 H 33.953 V 2.382 C 34.199,2.354 34.392,2.3 34.531,2.222 34.67,2.144 34.771,2.041 34.832,1.914 34.894,1.788 34.933,1.64 34.949,1.471 34.965,1.302 34.973,1.049 34.973,0.712 v -4.173 c 0,-0.342 -0.017,-0.59 -0.051,-0.745 C 34.887,-4.36 34.797,-4.479 34.65,-4.561 34.504,-4.644 34.268,-4.685 33.942,-4.685 V -5.24 h 2.735 v 0.555 c -0.347,0 -0.598,0.041 -0.754,0.124 -0.156,0.082 -0.252,0.201 -0.29,0.355 -0.038,0.155 -0.057,0.403 -0.057,0.745 v 4.504 l 4.813,-6.355 h 0.499 V 1.17 c 0,0.345 0.018,0.595 0.055,0.747 0.036,0.153 0.13,0.269 0.282,0.347 0.152,0.078 0.403,0.118 0.754,0.118 z m 8.666,0 H 47.899 V 2.382 c 0.326,0 0.564,-0.045 0.714,-0.133 0.15,-0.088 0.244,-0.214 0.282,-0.377 0.038,-0.163 0.057,-0.397 0.057,-0.702 V -2.563 L 44.763,2.936 H 42.619 V 2.382 C 42.865,2.354 43.058,2.3 43.197,2.222 43.336,2.144 43.437,2.041 43.498,1.914 43.56,1.788 43.599,1.64 43.615,1.471 43.631,1.302 43.639,1.049 43.639,0.712 v -4.173 c 0,-0.342 -0.017,-0.59 -0.051,-0.745 C 43.553,-4.36 43.463,-4.479 43.317,-4.561 43.17,-4.644 42.934,-4.685 42.608,-4.685 V -5.24 h 2.735 v 0.555 c -0.347,0 -0.598,0.041 -0.754,0.124 -0.155,0.082 -0.252,0.201 -0.29,0.355 -0.038,0.155 -0.057,0.403 -0.057,0.745 v 4.504 l 4.813,-6.355 h 0.5 V 1.17 c 0,0.345 0.018,0.595 0.054,0.747 0.036,0.153 0.13,0.269 0.282,0.347 0.152,0.078 0.403,0.118 0.754,0.118 z M 59.58,0.208 C 59.448,0.684 59.228,1.14 58.921,1.574 58.613,2.008 58.184,2.368 57.635,2.653 57.085,2.938 56.417,3.081 55.632,3.081 54.771,3.081 54.031,2.883 53.413,2.487 52.794,2.091 52.331,1.57 52.023,0.923 51.716,0.275 51.562,-0.412 51.562,-1.14 c 0,-0.502 0.081,-1.003 0.242,-1.501 0.161,-0.498 0.408,-0.957 0.743,-1.375 0.335,-0.418 0.766,-0.751 1.294,-1.001 0.528,-0.249 1.14,-0.373 1.835,-0.373 0.85,0 1.587,0.196 2.211,0.587 0.624,0.392 1.095,0.913 1.414,1.562 0.318,0.649 0.477,1.346 0.477,2.089 0,0.43 -0.066,0.884 -0.198,1.36 m -1.617,-2.355 c -0.038,-0.357 -0.132,-0.732 -0.282,-1.124 -0.15,-0.392 -0.389,-0.724 -0.717,-0.995 -0.327,-0.271 -0.753,-0.407 -1.278,-0.407 -0.528,0 -0.958,0.132 -1.291,0.395 -0.333,0.263 -0.575,0.587 -0.727,0.971 -0.152,0.384 -0.248,0.758 -0.288,1.124 -0.04,0.366 -0.06,0.718 -0.06,1.055 0,0.611 0.063,1.175 0.188,1.692 0.124,0.516 0.361,0.946 0.71,1.29 0.35,0.344 0.835,0.516 1.458,0.516 0.452,0 0.832,-0.098 1.139,-0.293 0.308,-0.195 0.55,-0.458 0.727,-0.79 0.177,-0.331 0.301,-0.702 0.372,-1.112 0.071,-0.41 0.106,-0.844 0.106,-1.303 0,-0.321 -0.019,-0.661 -0.057,-1.019 m 6.694,-2.044 c 0.058,0.053 0.236,0.21 0.533,0.474 0.296,0.263 0.561,0.499 0.793,0.708 0.232,0.209 0.365,0.33 0.398,0.362 0.661,0.635 1.181,1.219 1.562,1.752 0.38,0.532 0.57,1.08 0.57,1.643 0,0.277 -0.068,0.576 -0.204,0.895 -0.136,0.32 -0.399,0.605 -0.79,0.856 -0.391,0.251 -0.925,0.377 -1.602,0.377 -0.552,0 -1.021,-0.083 -1.408,-0.25 C 64.123,2.459 63.834,2.233 63.644,1.948 63.454,1.662 63.359,1.341 63.359,0.983 c 0,-0.257 0.043,-0.495 0.131,-0.712 0.088,-0.217 0.165,-0.325 0.232,-0.325 0.025,0 0.107,0.028 0.245,0.084 l 0.407,0.163 c 0.176,0.068 0.264,0.118 0.264,0.151 0,0.016 -0.006,0.036 -0.019,0.06 -0.171,0.338 -0.257,0.613 -0.257,0.826 0,0.181 0.05,0.354 0.15,0.519 0.101,0.164 0.241,0.296 0.421,0.395 0.179,0.098 0.378,0.147 0.595,0.147 0.23,0 0.446,-0.055 0.649,-0.166 0.203,-0.11 0.368,-0.281 0.496,-0.512 0.127,-0.231 0.191,-0.516 0.191,-0.853 0,-0.587 -0.178,-1.209 -0.533,-1.866 -0.355,-0.658 -0.8,-1.293 -1.333,-1.906 -0.533,-0.613 -1.075,-1.166 -1.627,-1.661 V -5.24 h 4.139 c 0.209,0 0.313,-0.082 0.313,-0.247 0,-0.052 -0.01,-0.122 -0.031,-0.211 h 0.527 l 0.282,1.507 z M 74.869,0.675 C 74.722,1.138 74.534,1.519 74.304,1.821 73.803,2.524 73.117,2.876 72.248,2.876 71.399,2.876 70.713,2.524 70.191,1.821 70.032,1.6 69.9,1.379 69.796,1.158 69.691,0.937 69.6,0.604 69.523,0.16 c -0.078,-0.444 -0.116,-0.996 -0.116,-1.655 0,-0.732 0.088,-1.356 0.263,-1.873 0.176,-0.516 0.406,-0.924 0.69,-1.224 0.284,-0.299 0.592,-0.513 0.922,-0.642 0.33,-0.128 0.652,-0.193 0.966,-0.193 0.731,0 1.364,0.29 1.9,0.869 0.2,0.217 0.371,0.463 0.511,0.738 0.14,0.276 0.246,0.611 0.319,1.007 0.074,0.396 0.11,0.884 0.11,1.462 0,0.889 -0.073,1.564 -0.219,2.026 m -1.468,-2.424 c 0,-0.546 -0.009,-0.976 -0.028,-1.29 -0.019,-0.313 -0.064,-0.611 -0.135,-0.892 -0.071,-0.282 -0.188,-0.504 -0.351,-0.667 -0.163,-0.162 -0.376,-0.244 -0.639,-0.244 -0.356,0 -0.616,0.14 -0.781,0.419 -0.165,0.28 -0.269,0.659 -0.311,1.14 -0.041,0.48 -0.062,1.149 -0.062,2.005 0,0.884 0.021,1.565 0.062,2.044 0.042,0.478 0.146,0.852 0.311,1.121 0.165,0.27 0.425,0.404 0.781,0.404 0.334,0 0.586,-0.124 0.755,-0.374 0.169,-0.249 0.278,-0.562 0.326,-0.94 0.048,-0.378 0.072,-0.865 0.072,-1.459 v -0.796 z m 3.841,-2.442 c 0.059,0.053 0.236,0.21 0.533,0.474 0.297,0.263 0.562,0.499 0.794,0.708 0.232,0.209 0.364,0.33 0.398,0.362 0.66,0.635 1.181,1.219 1.561,1.752 0.381,0.532 0.571,1.08 0.571,1.643 0,0.277 -0.068,0.576 -0.204,0.895 -0.136,0.32 -0.399,0.605 -0.79,0.856 -0.391,0.251 -0.925,0.377 -1.602,0.377 -0.552,0 -1.021,-0.083 -1.408,-0.25 C 76.708,2.459 76.42,2.233 76.23,1.948 76.039,1.662 75.944,1.341 75.944,0.983 c 0,-0.257 0.044,-0.495 0.132,-0.712 0.088,-0.217 0.165,-0.325 0.232,-0.325 0.025,0 0.107,0.028 0.245,0.084 l 0.407,0.163 c 0.176,0.068 0.264,0.118 0.264,0.151 0,0.016 -0.007,0.036 -0.019,0.06 -0.172,0.338 -0.257,0.613 -0.257,0.826 0,0.181 0.05,0.354 0.15,0.519 0.1,0.164 0.24,0.296 0.42,0.395 0.18,0.098 0.379,0.147 0.596,0.147 0.23,0 0.446,-0.055 0.649,-0.166 0.203,-0.11 0.368,-0.281 0.495,-0.512 0.128,-0.231 0.192,-0.516 0.192,-0.853 0,-0.587 -0.178,-1.209 -0.533,-1.866 -0.356,-0.658 -0.8,-1.293 -1.333,-1.906 -0.533,-0.613 -1.075,-1.166 -1.627,-1.661 V -5.24 h 4.139 c 0.209,0 0.313,-0.082 0.313,-0.247 0,-0.052 -0.01,-0.122 -0.031,-0.211 h 0.526 l 0.283,1.507 z"
             style="fill:#ffffff;fill-opacity:1;fill-rule:nonzero;stroke:none"
             id="path158"
             inkscape:connector-curvature="0" /></g><g
           id="g160"
           transform="translate(47.6203,41.7355)"><path
             d="m 0,0 h -3.141 v -0.532 c 0.277,0 0.483,-0.029 0.616,-0.086 0.134,-0.058 0.219,-0.149 0.255,-0.272 0.036,-0.123 0.055,-0.32 0.055,-0.589 0,-0.285 -0.036,-0.543 -0.107,-0.775 -0.071,-0.231 -0.225,-0.426 -0.46,-0.586 -0.236,-0.16 -0.583,-0.24 -1.04,-0.24 -0.583,0 -1.034,0.181 -1.353,0.543 -0.319,0.362 -0.53,0.796 -0.634,1.3 -0.104,0.505 -0.156,1.031 -0.156,1.578 0,0.639 0.067,1.177 0.2,1.612 0.134,0.435 0.31,0.779 0.531,1.032 0.22,0.252 0.456,0.429 0.71,0.531 0.253,0.102 0.511,0.153 0.774,0.153 0.361,0 0.691,-0.094 0.991,-0.283 0.3,-0.189 0.55,-0.445 0.752,-0.768 0.201,-0.324 0.338,-0.68 0.41,-1.069 h 0.479 L -1.17,4.114 H -1.675 C -1.723,3.825 -1.787,3.598 -1.867,3.432 -2.522,4.045 -3.249,4.351 -4.046,4.351 -4.701,4.351 -5.305,4.173 -5.856,3.817 -6.407,3.46 -6.844,2.971 -7.166,2.349 -7.489,1.727 -7.65,1.038 -7.65,0.283 c 0,-0.659 0.136,-1.3 0.408,-1.924 0.272,-0.624 0.681,-1.135 1.225,-1.531 0.544,-0.397 1.198,-0.595 1.961,-0.595 0.287,0 0.537,0.02 0.748,0.06 0.212,0.041 0.529,0.113 0.952,0.217 0.586,0.146 1.13,0.219 1.633,0.219 v 1.838 c 0,0.246 0.019,0.428 0.057,0.546 0.038,0.117 0.109,0.2 0.211,0.248 0.102,0.049 0.254,0.084 0.455,0.107 z M 5.934,-1.005 C 5.872,-1.606 5.713,-2.052 5.458,-2.343 5.203,-2.634 4.926,-2.813 4.626,-2.881 4.326,-2.948 3.977,-2.982 3.578,-2.982 c -0.315,0 -0.542,0.04 -0.681,0.119 -0.139,0.079 -0.224,0.195 -0.255,0.349 -0.031,0.154 -0.047,0.409 -0.047,0.763 v 4.507 c 0,0.235 0.024,0.415 0.07,0.541 0.047,0.125 0.146,0.22 0.297,0.286 0.151,0.065 0.373,0.098 0.668,0.098 V 4.212 H 0.083 V 3.681 C 0.382,3.681 0.606,3.646 0.757,3.577 0.908,3.507 1.004,3.41 1.046,3.285 1.087,3.16 1.108,2.984 1.108,2.756 V -2.167 C 1.108,-2.506 1.046,-2.745 0.921,-2.883 0.796,-3.022 0.517,-3.091 0.083,-3.091 v -0.532 h 6.283 l 0.046,2.618 z m 4.343,-2.086 c -0.312,0 -0.542,0.034 -0.689,0.104 C 9.44,-2.918 9.344,-2.82 9.299,-2.693 9.254,-2.566 9.231,-2.39 9.231,-2.167 v 4.923 c 0,0.235 0.024,0.415 0.071,0.541 0.046,0.125 0.146,0.22 0.299,0.286 0.152,0.065 0.377,0.098 0.676,0.098 V 4.212 H 6.699 V 3.681 c 0.443,0 0.729,-0.07 0.855,-0.208 0.127,-0.139 0.19,-0.378 0.19,-0.717 V -2.167 C 7.744,-2.402 7.721,-2.583 7.674,-2.71 7.627,-2.837 7.527,-2.933 7.375,-2.996 7.222,-3.06 6.997,-3.091 6.699,-3.091 v -0.532 h 3.578 z m 7.788,2.819 c -0.203,0.305 -0.451,0.557 -0.744,0.757 -0.293,0.201 -0.699,0.438 -1.219,0.711 -0.43,0.223 -0.741,0.395 -0.934,0.514 -0.192,0.12 -0.347,0.263 -0.465,0.431 -0.118,0.167 -0.177,0.365 -0.177,0.592 0,0.289 0.094,0.525 0.283,0.708 0.189,0.183 0.44,0.274 0.752,0.274 0.86,0 1.463,-0.595 1.81,-1.785 h 0.488 v 2.184 h -0.488 c -0.052,-0.293 -0.11,-0.52 -0.172,-0.682 -0.218,0.285 -0.477,0.51 -0.775,0.674 -0.298,0.163 -0.612,0.245 -0.941,0.245 -0.43,0 -0.809,-0.109 -1.137,-0.326 C 14.019,3.807 13.77,3.528 13.6,3.187 13.43,2.846 13.345,2.5 13.345,2.15 c 0,-0.197 0.027,-0.391 0.081,-0.584 0.054,-0.193 0.151,-0.396 0.291,-0.61 0.141,-0.213 0.348,-0.434 0.622,-0.661 0.274,-0.228 0.624,-0.453 1.05,-0.676 0.278,-0.139 0.525,-0.271 0.741,-0.396 0.217,-0.125 0.388,-0.243 0.513,-0.353 0.124,-0.109 0.22,-0.234 0.286,-0.372 0.065,-0.139 0.098,-0.301 0.098,-0.486 0,-0.327 -0.106,-0.599 -0.319,-0.815 -0.214,-0.215 -0.497,-0.323 -0.851,-0.323 -0.405,0 -0.748,0.122 -1.027,0.367 -0.279,0.244 -0.495,0.536 -0.647,0.875 -0.153,0.339 -0.273,0.701 -0.359,1.087 h -0.479 v -2.682 h 0.479 c 0.031,0.243 0.102,0.507 0.213,0.792 0.257,-0.358 0.569,-0.628 0.939,-0.809 0.369,-0.181 0.741,-0.271 1.115,-0.271 0.378,0 0.711,0.078 0.999,0.234 0.287,0.156 0.526,0.358 0.715,0.606 0.189,0.249 0.33,0.509 0.424,0.78 0.093,0.272 0.14,0.529 0.14,0.772 0,0.431 -0.101,0.799 -0.304,1.103 m 7.809,4.484 H 18.905 V 1.988 h 0.494 c 0.021,0.485 0.105,0.844 0.252,1.077 0.148,0.233 0.318,0.376 0.512,0.428 0.195,0.052 0.439,0.078 0.734,0.078 h 0.749 v -5.738 c 0,-0.339 -0.063,-0.578 -0.188,-0.716 -0.124,-0.139 -0.404,-0.208 -0.837,-0.208 v -0.532 h 3.536 v 0.532 c -0.294,0 -0.518,0.034 -0.67,0.104 -0.153,0.069 -0.25,0.166 -0.292,0.291 -0.041,0.126 -0.062,0.302 -0.062,0.529 v 5.738 h 0.894 c 0.222,0 0.418,-0.027 0.588,-0.081 0.17,-0.054 0.329,-0.196 0.476,-0.427 0.147,-0.232 0.243,-0.59 0.289,-1.075 h 0.494 z m 7.889,0 H 31.168 V 3.681 c 0.253,0 0.452,-0.021 0.595,-0.064 0.144,-0.042 0.247,-0.111 0.31,-0.205 0.062,-0.094 0.1,-0.203 0.114,-0.326 0.014,-0.124 0.021,-0.312 0.021,-0.567 V -0.3 c 0,-0.367 -0.015,-0.681 -0.044,-0.945 -0.03,-0.264 -0.093,-0.519 -0.19,-0.766 -0.121,-0.316 -0.339,-0.573 -0.653,-0.771 -0.313,-0.199 -0.652,-0.298 -1.016,-0.298 -0.34,0 -0.651,0.093 -0.934,0.28 -0.282,0.187 -0.483,0.437 -0.6,0.749 -0.063,0.188 -0.109,0.409 -0.138,0.661 -0.03,0.253 -0.044,0.546 -0.044,0.882 v 3.264 c 0,0.231 0.022,0.41 0.067,0.535 0.045,0.125 0.142,0.221 0.291,0.289 0.149,0.067 0.375,0.101 0.676,0.101 V 4.212 H 26.066 V 3.681 c 0.441,0 0.721,-0.07 0.84,-0.208 0.12,-0.139 0.18,-0.378 0.18,-0.717 l 0.01,-3.264 c 0,-0.278 0.004,-0.502 0.013,-0.674 0.009,-0.171 0.035,-0.354 0.081,-0.549 0.045,-0.194 0.109,-0.388 0.192,-0.58 0.153,-0.351 0.376,-0.634 0.671,-0.85 0.295,-0.216 0.613,-0.371 0.954,-0.465 0.342,-0.094 0.674,-0.141 0.996,-0.141 0.437,0 0.892,0.099 1.365,0.297 0.473,0.198 0.842,0.562 1.105,1.089 0.142,0.274 0.23,0.544 0.263,0.812 0.033,0.268 0.049,0.668 0.049,1.199 v 2.889 c 0,0.312 0.016,0.544 0.047,0.694 0.031,0.15 0.115,0.266 0.252,0.346 0.137,0.081 0.364,0.122 0.679,0.122 z M 41.288,1.398 C 41.191,1.772 41.053,2.118 40.875,2.436 40.696,2.753 40.477,3.037 40.217,3.285 39.957,3.533 39.673,3.727 39.364,3.866 39.028,4.02 38.658,4.132 38.254,4.201 37.85,4.27 37.359,4.305 36.78,4.305 36.721,4.305 36.506,4.301 36.135,4.293 35.764,4.286 35.552,4.282 35.5,4.282 L 33.987,4.247 V 3.704 c 0.447,0 0.733,-0.069 0.858,-0.208 0.125,-0.139 0.187,-0.378 0.187,-0.717 v -4.946 c 0,-0.235 -0.023,-0.416 -0.07,-0.543 -0.047,-0.127 -0.147,-0.223 -0.299,-0.286 -0.153,-0.064 -0.378,-0.095 -0.676,-0.095 v -0.532 h 3.219 c 0.953,0 1.759,0.162 2.418,0.485 0.312,0.154 0.605,0.384 0.879,0.688 0.274,0.304 0.498,0.685 0.671,1.141 0.173,0.457 0.26,0.968 0.26,1.534 0,0.409 -0.049,0.8 -0.146,1.173 m -2.062,-3.397 c -0.348,-0.655 -0.943,-0.983 -1.786,-0.983 -0.284,0 -0.494,0.038 -0.629,0.113 -0.135,0.075 -0.217,0.185 -0.245,0.329 -0.027,0.145 -0.041,0.375 -0.041,0.691 v 5.507 c 0.437,0 0.772,-0.013 1.006,-0.038 0.234,-0.025 0.455,-0.084 0.663,-0.176 0.479,-0.212 0.857,-0.592 1.136,-1.141 0.279,-0.549 0.419,-1.23 0.419,-2.043 0,-0.851 -0.174,-1.604 -0.523,-2.259 m 6.275,-1.092 c -0.312,0 -0.542,0.034 -0.689,0.104 -0.147,0.069 -0.244,0.167 -0.289,0.294 -0.045,0.127 -0.067,0.303 -0.067,0.526 v 4.923 c 0,0.235 0.023,0.415 0.07,0.541 0.047,0.125 0.146,0.22 0.299,0.286 0.152,0.065 0.378,0.098 0.676,0.098 V 4.212 H 41.923 V 3.681 c 0.444,0 0.729,-0.07 0.856,-0.208 0.126,-0.139 0.189,-0.378 0.189,-0.717 v -4.923 c 0,-0.235 -0.023,-0.416 -0.07,-0.543 -0.047,-0.127 -0.146,-0.223 -0.299,-0.286 -0.152,-0.064 -0.378,-0.095 -0.676,-0.095 v -0.532 h 3.578 z m 8.555,2.086 c -0.062,-0.601 -0.221,-1.047 -0.476,-1.338 -0.254,-0.291 -0.532,-0.47 -0.832,-0.538 -0.3,-0.067 -0.649,-0.101 -1.048,-0.101 -0.315,0 -0.542,0.04 -0.681,0.119 -0.139,0.079 -0.223,0.195 -0.255,0.349 -0.031,0.154 -0.046,0.409 -0.046,0.763 v 4.507 c 0,0.235 0.023,0.415 0.07,0.541 0.047,0.125 0.145,0.22 0.296,0.286 0.151,0.065 0.374,0.098 0.668,0.098 V 4.212 H 48.206 V 3.681 c 0.298,0 0.522,-0.035 0.673,-0.104 C 49.03,3.507 49.126,3.41 49.168,3.285 49.209,3.16 49.23,2.984 49.23,2.756 v -4.923 c 0,-0.339 -0.062,-0.578 -0.187,-0.716 -0.125,-0.139 -0.404,-0.208 -0.837,-0.208 v -0.532 h 6.282 l 0.047,2.618 z m 6.668,-0.041 C 60.64,-1.643 60.495,-2.081 60.287,-2.36 60.079,-2.64 59.866,-2.813 59.65,-2.881 59.433,-2.948 59.205,-2.982 58.966,-2.982 h -0.567 c -0.253,0 -0.448,0.021 -0.585,0.064 -0.137,0.042 -0.236,0.111 -0.297,0.205 -0.06,0.094 -0.098,0.213 -0.111,0.355 -0.014,0.143 -0.021,0.368 -0.021,0.676 v 1.844 h 0.728 c 0.246,0 0.429,-0.023 0.549,-0.07 0.119,-0.046 0.207,-0.137 0.262,-0.274 0.056,-0.137 0.09,-0.35 0.104,-0.639 h 0.479 v 2.607 h -0.5 C 58.99,1.497 58.957,1.285 58.909,1.15 58.86,1.015 58.775,0.924 58.654,0.875 58.532,0.827 58.349,0.803 58.103,0.803 h -0.718 v 2.768 h 1.321 c 0.35,0 0.613,-0.022 0.788,-0.066 0.175,-0.045 0.332,-0.164 0.473,-0.359 0.14,-0.194 0.264,-0.517 0.372,-0.968 h 0.478 L 60.724,4.212 H 54.873 V 3.681 c 0.309,0 0.536,-0.036 0.684,-0.107 0.147,-0.071 0.241,-0.17 0.281,-0.295 0.04,-0.125 0.059,-0.299 0.059,-0.523 v -4.923 c 0,-0.339 -0.062,-0.578 -0.187,-0.716 -0.125,-0.139 -0.404,-0.208 -0.837,-0.208 v -0.532 h 6.282 l 0.057,2.577 z M 69.559,0 h -3.141 v -0.532 c 0.278,0 0.483,-0.029 0.617,-0.086 0.133,-0.058 0.218,-0.149 0.254,-0.272 0.037,-0.123 0.055,-0.32 0.055,-0.589 0,-0.285 -0.036,-0.543 -0.107,-0.775 -0.071,-0.231 -0.224,-0.426 -0.46,-0.586 -0.236,-0.16 -0.582,-0.24 -1.04,-0.24 -0.582,0 -1.033,0.181 -1.352,0.543 -0.319,0.362 -0.531,0.796 -0.635,1.3 -0.104,0.505 -0.156,1.031 -0.156,1.578 0,0.639 0.067,1.177 0.201,1.612 0.133,0.435 0.31,0.779 0.53,1.032 0.22,0.252 0.457,0.429 0.71,0.531 0.253,0.102 0.511,0.153 0.775,0.153 0.36,0 0.691,-0.094 0.991,-0.283 0.299,-0.189 0.55,-0.445 0.751,-0.768 0.201,-0.324 0.338,-0.68 0.411,-1.069 h 0.478 L 68.389,4.114 H 67.885 C 67.836,3.825 67.772,3.598 67.692,3.432 67.037,4.045 66.311,4.351 65.513,4.351 64.858,4.351 64.255,4.173 63.704,3.817 63.152,3.46 62.716,2.971 62.393,2.349 62.071,1.727 61.91,1.038 61.91,0.283 c 0,-0.659 0.136,-1.3 0.408,-1.924 0.272,-0.624 0.68,-1.135 1.224,-1.531 0.545,-0.397 1.198,-0.595 1.961,-0.595 0.288,0 0.537,0.02 0.749,0.06 0.211,0.041 0.529,0.113 0.952,0.217 0.586,0.146 1.13,0.219 1.633,0.219 v 1.838 c 0,0.246 0.019,0.428 0.057,0.546 0.038,0.117 0.108,0.2 0.21,0.248 0.103,0.049 0.254,0.084 0.455,0.107 z m 7.063,-3.091 c -0.232,0 -0.413,0.041 -0.541,0.124 -0.128,0.083 -0.229,0.2 -0.302,0.352 -0.072,0.152 -0.187,0.444 -0.343,0.876 L 73.288,4.363 H 72.794 L 70.761,-1.554 C 70.619,-1.967 70.486,-2.285 70.363,-2.511 70.24,-2.736 70.111,-2.889 69.976,-2.97 69.84,-3.051 69.676,-3.091 69.482,-3.091 v -0.532 h 2.428 v 0.532 c -0.215,0 -0.403,0.03 -0.564,0.092 -0.161,0.062 -0.242,0.208 -0.242,0.439 0,0.127 0.049,0.333 0.146,0.618 l 0.171,0.509 h 2.289 l 0.333,-0.925 c 0.041,-0.119 0.062,-0.236 0.062,-0.352 0,-0.166 -0.064,-0.271 -0.192,-0.315 -0.129,-0.044 -0.333,-0.066 -0.614,-0.066 v -0.532 h 3.323 z m -4.998,2.224 0.926,2.733 0.972,-2.733 z M 82.608,-1.005 C 82.546,-1.606 82.387,-2.052 82.132,-2.343 81.877,-2.634 81.6,-2.813 81.3,-2.881 81,-2.948 80.651,-2.982 80.252,-2.982 c -0.315,0 -0.542,0.04 -0.681,0.119 -0.139,0.079 -0.224,0.195 -0.255,0.349 -0.031,0.154 -0.047,0.409 -0.047,0.763 v 4.507 c 0,0.235 0.024,0.415 0.07,0.541 0.047,0.125 0.146,0.22 0.297,0.286 0.151,0.065 0.373,0.098 0.668,0.098 V 4.212 H 76.757 V 3.681 c 0.299,0 0.523,-0.035 0.674,-0.104 0.151,-0.07 0.247,-0.167 0.289,-0.292 0.041,-0.125 0.062,-0.301 0.062,-0.529 v -4.923 c 0,-0.339 -0.062,-0.578 -0.187,-0.716 -0.125,-0.139 -0.404,-0.208 -0.838,-0.208 v -0.532 h 6.283 l 0.046,2.618 z m 4.343,-2.086 c -0.312,0 -0.542,0.034 -0.689,0.104 -0.148,0.069 -0.244,0.167 -0.289,0.294 -0.045,0.127 -0.068,0.303 -0.068,0.526 v 4.923 c 0,0.235 0.024,0.415 0.071,0.541 0.046,0.125 0.146,0.22 0.299,0.286 0.152,0.065 0.377,0.098 0.676,0.098 V 4.212 H 83.373 V 3.681 c 0.443,0 0.729,-0.07 0.855,-0.208 0.127,-0.139 0.19,-0.378 0.19,-0.717 v -4.923 c 0,-0.235 -0.023,-0.416 -0.07,-0.543 -0.047,-0.127 -0.147,-0.223 -0.299,-0.286 -0.153,-0.064 -0.378,-0.095 -0.676,-0.095 v -0.532 h 3.578 z"
             style="fill:#ffffff;fill-opacity:1;fill-rule:nonzero;stroke:none"
             id="path162"
             inkscape:connector-curvature="0" /></g></g></g><g
       id="g164"
       transform="translate(5.7024,52.3329)"><path
         d="M 0,0 -2.835,-2.835 V -46.064 L 0,-48.898 h 130.159 l 2.835,2.834 V -2.835 L 130.159,0 Z"
         style="fill:none;stroke:url(#linearGradient182);stroke-width:1.20000005;stroke-linecap:butt;stroke-linejoin:miter;stroke-miterlimit:4;stroke-dasharray:none;stroke-opacity:1"
         id="path184"
         inkscape:connector-curvature="0" /></g><g
       id="g186"><g
         id="g188"
         clip-path="url(#clipPath192)"><g
           id="g194"
           transform="translate(134.3782,24.4331)"><path
             d="M 0,0 C 0,0.156 -0.024,0.246 -0.024,0.246 L -1.61,0.363 C -1.732,0.465 -1.756,0.594 -1.756,1.97 v 3.241 c 0,0.72 0.037,2.405 0.073,2.958 L -1.878,8.22 C -2.609,7.976 -4.242,7.294 -4.888,6.934 L -4.84,6.767 C -4.535,6.793 -3.437,6.986 -3.169,7.05 -3.206,6.741 -3.23,5.597 -3.23,5.07 v -3.1 c 0,-1.389 -0.024,-1.517 -0.146,-1.607 L -4.949,0.246 c 0,0 -0.037,-0.09 -0.037,-0.246 z"
             style="fill:#ffffff;fill-opacity:1;fill-rule:nonzero;stroke:none"
             id="path196"
             inkscape:connector-curvature="0" /></g></g></g></g></svg>