<svg xmlns:dc="http://purl.org/dc/elements/1.1/" xmlns:cc="http://creativecommons.org/ns#" xmlns:rdf="http://www.w3.org/1999/02/22-rdf-syntax-ns#" xmlns:svg="http://www.w3.org/2000/svg" xmlns="http://www.w3.org/2000/svg" viewBox="0 0 223.50932 94.125593" height="100%" width="100%" xml:space="preserve" id="studio-avvocati-sala-logo" version="1.1">
	<metadata id="metadata892">
		<rdf:RDF>
			<cc:Work rdf:about="">
				<dc:format>image/svg+xml</dc:format>
				<dc:type rdf:resource="http://purl.org/dc/dcmitype/StillImage" />
				<dc:title></dc:title>
			</cc:Work>
		</rdf:RDF>
	</metadata>
	<defs id="defs890">
		<clipPath id="clipPath902" clipPathUnits="userSpaceOnUse">
			<path id="path900" d="M 0,0 H 595.276 V 841.89 H 0 Z" />
		</clipPath>
	</defs>
	<g transform="matrix(1.3333333,0,0,-1.3333333,-285.24266,607.72212)" id="g894">
		<g id="g896">
			<g clip-path="url(#clipPath902)" id="g898">
				<g transform="translate(244.4724,388.6444)" id="g904">
					<path id="path906" style="fill:#231f20;fill-opacity:1;fill-rule:nonzero;stroke:none" d="m 0,0 c 0.376,-0.891 0.564,-1.427 0.564,-1.607 0,-0.351 -0.141,-0.587 -0.423,-0.705 -0.282,-0.119 -0.824,-0.178 -1.625,-0.178 v -0.564 h 6.537 v 0.564 c -0.58,0.057 -1.016,0.198 -1.306,0.423 -0.29,0.225 -0.521,0.534 -0.693,0.926 l -0.76,1.742 -5.557,13.21 H -3.741 L -8.574,2.269 c -0.351,-0.826 -0.548,-1.3 -0.588,-1.423 -0.508,-1.3 -0.941,-2.152 -1.301,-2.557 -0.359,-0.405 -0.907,-0.665 -1.643,-0.779 v -0.564 h 4.943 v 0.564 c -0.532,0 -0.967,0.129 -1.306,0.386 -0.34,0.258 -0.509,0.636 -0.509,1.135 0,0.466 0.318,1.464 0.956,2.993 l 0.43,1.055 h 6.316 z m -7.359,3.631 2.931,7.089 2.944,-7.089 z m 23.967,4.673 1.116,2.612 c 0.286,0.679 0.625,1.194 1.018,1.546 0.392,0.351 0.846,0.535 1.361,0.552 v 0.564 h -5.078 v -0.564 c 1.333,-0.033 2,-0.52 2,-1.46 0,-0.466 -0.323,-1.468 -0.969,-3.005 L 12.217,-0.638 7.433,10.401 c -0.384,0.875 -0.577,1.431 -0.577,1.668 0,0.368 0.154,0.618 0.46,0.749 0.307,0.13 0.906,0.196 1.797,0.196 v 0.564 H 1.95 v -0.564 c 0.785,-0.017 1.353,-0.16 1.705,-0.429 0.352,-0.27 0.687,-0.798 1.006,-1.583 0.229,-0.58 0.396,-0.989 0.503,-1.226 l 5.74,-13.223 h 0.761 z m 18.312,0 1.116,2.612 c 0.287,0.679 0.626,1.194 1.018,1.546 0.393,0.351 0.847,0.535 1.362,0.552 v 0.564 h -5.078 v -0.564 c 1.333,-0.033 1.999,-0.52 1.999,-1.46 0,-0.466 -0.323,-1.468 -0.969,-3.005 l -3.839,-9.187 -4.783,11.039 c -0.385,0.875 -0.577,1.431 -0.577,1.668 0,0.368 0.153,0.618 0.46,0.749 0.307,0.13 0.906,0.196 1.797,0.196 v 0.564 h -7.163 v -0.564 c 0.785,-0.017 1.353,-0.16 1.705,-0.429 0.351,-0.27 0.687,-0.798 1.006,-1.583 0.228,-0.58 0.396,-0.989 0.502,-1.226 l 5.741,-13.223 h 0.76 z m 5.802,-9.273 c 1.693,-1.595 3.859,-2.392 6.501,-2.392 2.714,0 4.904,0.797 6.568,2.392 1.664,1.595 2.496,3.68 2.496,6.255 0,2.658 -0.869,4.755 -2.606,6.293 -1.738,1.537 -3.903,2.306 -6.495,2.306 -2.568,0 -4.71,-0.777 -6.427,-2.331 -1.717,-1.553 -2.576,-3.614 -2.576,-6.182 0,-2.633 0.846,-4.746 2.539,-6.341 m 1.87,12.223 c 1.067,1.345 2.603,2.017 4.606,2.017 2.036,0 3.59,-0.689 4.661,-2.066 1.071,-1.378 1.607,-3.359 1.607,-5.943 0,-2.658 -0.544,-4.657 -1.631,-5.998 -1.088,-1.341 -2.568,-2.011 -4.441,-2.011 -2.134,0 -3.735,0.67 -4.802,2.011 -1.067,1.341 -1.6,3.349 -1.6,6.022 0,2.633 0.533,4.623 1.6,5.968 M 72.471,0.19 c -0.543,-1.034 -1.281,-1.768 -2.213,-2.202 -0.933,-0.433 -1.845,-0.65 -2.736,-0.65 -1.668,0 -3.062,0.665 -4.182,1.994 -1.121,1.328 -1.681,3.24 -1.681,5.734 0,2.633 0.513,4.656 1.54,6.071 1.026,1.415 2.41,2.122 4.152,2.122 1.422,0 2.7,-0.437 3.833,-1.312 1.132,-0.875 1.882,-2.433 2.25,-4.673 h 0.528 l -0.147,6.304 h -0.54 c -0.074,-0.744 -0.286,-1.464 -0.638,-2.159 -0.499,0.622 -1.253,1.188 -2.263,1.699 -1.01,0.511 -2.136,0.767 -3.379,0.767 -1.505,0 -2.887,-0.352 -4.146,-1.055 C 61.59,12.126 60.608,11.049 59.905,9.598 59.202,8.146 58.85,6.599 58.85,4.955 c 0,-2.502 0.763,-4.513 2.288,-6.034 1.525,-1.521 3.49,-2.282 5.894,-2.282 2.273,0 4.141,0.826 5.605,2.478 0.384,-0.507 0.65,-1.092 0.797,-1.754 h 0.528 V 3.189 H 73.434 C 73.336,2.224 73.015,1.224 72.471,0.19 M 87.736,0 c 0.376,-0.891 0.564,-1.427 0.564,-1.607 0,-0.351 -0.141,-0.587 -0.423,-0.705 -0.282,-0.119 -0.824,-0.178 -1.625,-0.178 v -0.564 h 6.537 v 0.564 c -0.58,0.057 -1.016,0.198 -1.306,0.423 -0.29,0.225 -0.521,0.534 -0.693,0.926 l -0.76,1.742 -5.557,13.21 H 83.995 L 79.162,2.269 C 78.811,1.443 78.614,0.969 78.574,0.846 78.066,-0.454 77.633,-1.306 77.273,-1.711 76.914,-2.116 76.366,-2.376 75.63,-2.49 v -0.564 h 4.943 v 0.564 c -0.532,0 -0.967,0.129 -1.306,0.386 -0.34,0.258 -0.509,0.636 -0.509,1.135 0,0.466 0.318,1.464 0.956,2.993 l 0.43,1.055 h 6.316 z m -7.359,3.631 2.931,7.089 2.944,-7.089 z m 12.333,8.303 c 0.323,0.516 0.668,0.824 1.036,0.927 0.368,0.102 1.088,0.153 2.159,0.153 H 98.37 V 1.276 C 98.37,-0.115 98.331,-1 98.254,-1.38 98.176,-1.76 98,-2.04 97.726,-2.22 97.452,-2.4 96.96,-2.49 96.248,-2.49 H 95.39 v -0.564 h 8.291 v 0.564 h -0.809 c -0.744,0 -1.251,0.098 -1.521,0.294 -0.27,0.197 -0.436,0.499 -0.497,0.908 -0.061,0.409 -0.092,1.263 -0.092,2.564 v 11.738 h 2.674 c 0.908,0 1.55,-0.055 1.926,-0.166 0.376,-0.11 0.727,-0.409 1.055,-0.895 0.327,-0.487 0.584,-1.278 0.772,-2.374 h 0.528 l -0.086,3.999 H 91.489 L 91.403,9.579 h 0.565 c 0.171,1.055 0.419,1.84 0.742,2.355 m 16.589,1.08 c 0.842,0 1.39,-0.074 1.644,-0.221 0.253,-0.147 0.417,-0.413 0.49,-0.797 0.074,-0.385 0.111,-1.239 0.111,-2.564 V 1.276 c 0,-1.391 -0.037,-2.276 -0.111,-2.656 -0.073,-0.38 -0.247,-0.66 -0.521,-0.84 -0.274,-0.18 -0.767,-0.27 -1.478,-0.27 h -0.491 v -0.564 h 7.605 v 0.564 h -0.491 c -0.752,0 -1.261,0.098 -1.527,0.294 -0.266,0.197 -0.429,0.497 -0.49,0.902 -0.062,0.405 -0.092,1.261 -0.092,2.57 v 8.156 c 0,1.382 0.043,2.257 0.128,2.625 0.086,0.368 0.256,0.62 0.509,0.754 0.254,0.135 0.79,0.203 1.607,0.203 h 0.356 v 0.564 h -7.605 v -0.564 z" />
						</g>
						<g transform="translate(214.949,415.592)" id="g908">
							<path id="path910" style="fill:#231f20;fill-opacity:1;fill-rule:nonzero;stroke:none" d="m 0,0 c 0.131,0.695 0.331,1.235 0.601,1.619 1.218,-1.398 2.739,-2.097 4.563,-2.097 1.586,0 2.854,0.445 3.802,1.337 0.949,0.891 1.423,2.048 1.423,3.471 0,0.899 -0.196,1.692 -0.589,2.379 -0.392,0.687 -0.914,1.225 -1.564,1.613 -0.65,0.388 -1.69,0.902 -3.121,1.54 -1.497,0.67 -2.531,1.275 -3.103,1.815 -0.581,0.531 -0.871,1.181 -0.871,1.95 0,0.638 0.231,1.225 0.693,1.76 0.462,0.536 1.187,0.804 2.177,0.804 1.038,0 1.952,-0.364 2.741,-1.092 0.789,-0.728 1.339,-1.725 1.65,-2.993 h 0.54 V 16.46 H 8.402 C 8.353,15.937 8.14,15.45 7.764,15.001 7.11,15.72 6.472,16.195 5.851,16.424 c -0.622,0.228 -1.284,0.343 -1.987,0.343 -1.26,0 -2.3,-0.395 -3.122,-1.184 -0.822,-0.789 -1.233,-1.776 -1.233,-2.962 0,-0.777 0.19,-1.508 0.571,-2.195 C 0.46,9.739 0.989,9.181 1.668,8.751 2.347,8.322 3.353,7.821 4.685,7.249 6.182,6.611 7.212,6.014 7.776,5.458 8.341,4.894 8.623,4.195 8.623,3.361 8.623,2.535 8.302,1.789 7.66,1.122 7.018,0.456 6.112,0.123 4.943,0.123 2.343,0.123 0.695,1.864 0,5.348 H -0.613 V 0 Z m 13.486,14.817 c 0.323,0.515 0.669,0.824 1.036,0.926 0.368,0.102 1.088,0.153 2.159,0.153 h 2.466 V 4.158 C 19.147,2.768 19.108,1.883 19.03,1.503 18.952,1.122 18.777,0.842 18.503,0.662 18.229,0.482 17.736,0.392 17.025,0.392 h -0.859 v -0.564 h 8.292 v 0.564 h -0.81 c -0.744,0 -1.251,0.099 -1.521,0.295 -0.27,0.196 -0.435,0.499 -0.497,0.908 -0.061,0.408 -0.092,1.263 -0.092,2.563 v 11.738 h 2.674 c 0.908,0 1.55,-0.055 1.926,-0.165 0.376,-0.111 0.728,-0.409 1.055,-0.896 0.327,-0.486 0.584,-1.277 0.773,-2.373 h 0.527 L 28.407,16.46 H 12.266 L 12.18,12.462 h 0.564 c 0.172,1.055 0.419,1.84 0.742,2.355 m 28.855,1.079 c 0.76,-0.049 1.316,-0.184 1.668,-0.405 0.352,-0.22 0.581,-0.519 0.687,-0.895 0.106,-0.376 0.159,-1.034 0.159,-1.975 V 6.955 C 44.855,5.662 44.81,4.716 44.72,4.115 44.63,3.514 44.383,2.929 43.978,2.361 43.574,1.793 42.956,1.319 42.126,0.938 c -0.83,-0.38 -1.752,-0.57 -2.766,-0.57 -1.292,0 -2.326,0.284 -3.103,0.852 -0.777,0.569 -1.249,1.233 -1.417,1.994 -0.167,0.76 -0.251,2.048 -0.251,3.863 v 5.238 c 0,1.381 0.043,2.257 0.129,2.625 0.086,0.367 0.255,0.619 0.509,0.754 0.253,0.135 0.789,0.202 1.607,0.202 h 0.331 v 0.564 h -7.593 v -0.564 h 0.381 c 0.842,0 1.388,-0.073 1.637,-0.221 0.249,-0.147 0.413,-0.413 0.491,-0.797 0.077,-0.384 0.116,-1.239 0.116,-2.563 V 7.139 L 32.185,5.434 c 0,-1.342 0.219,-2.411 0.656,-3.208 0.438,-0.797 1.169,-1.447 2.196,-1.95 1.026,-0.503 2.279,-0.754 3.759,-0.754 1.251,0 2.355,0.196 3.312,0.588 0.957,0.393 1.699,0.92 2.226,1.583 0.528,0.662 0.846,1.337 0.957,2.023 0.11,0.687 0.165,1.738 0.165,3.153 v 5.532 c 0,1.013 0.041,1.696 0.123,2.048 0.082,0.351 0.305,0.668 0.669,0.95 0.363,0.283 0.913,0.448 1.649,0.497 v 0.564 h -5.556 z m 6.685,-0.135 h 0.49 c 0.842,0 1.388,-0.071 1.638,-0.214 0.249,-0.143 0.413,-0.409 0.49,-0.798 0.078,-0.388 0.117,-1.245 0.117,-2.569 V 4.158 c 0,-1.39 -0.039,-2.275 -0.117,-2.655 C 51.567,1.122 51.391,0.842 51.117,0.662 50.843,0.482 50.35,0.392 49.639,0.392 h -0.687 v -0.564 h 7.372 c 1.382,0 2.453,0.043 3.213,0.129 0.761,0.086 1.564,0.302 2.411,0.65 0.846,0.348 1.59,0.855 2.232,1.521 0.642,0.666 1.147,1.505 1.515,2.515 0.368,1.009 0.552,2.123 0.552,3.342 0,1.684 -0.338,3.171 -1.012,4.458 -0.675,1.288 -1.703,2.308 -3.085,3.061 -1.382,0.752 -3.308,1.128 -5.777,1.128 -0.793,0 -2.331,-0.057 -4.612,-0.172 l -2.735,-0.134 z m 7.016,0.282 c 1.292,0 2.35,-0.124 3.176,-0.374 0.826,-0.249 1.578,-0.719 2.257,-1.41 0.679,-0.691 1.2,-1.589 1.564,-2.693 0.364,-1.103 0.546,-2.359 0.546,-3.765 0,-1.807 -0.313,-3.293 -0.938,-4.459 C 62.021,2.177 61.242,1.396 60.31,1 59.378,0.603 58.188,0.405 56.741,0.405 c -0.99,0 -1.638,0.096 -1.944,0.288 -0.307,0.192 -0.491,0.525 -0.552,1 -0.062,0.474 -0.092,1.533 -0.092,3.176 v 11.113 c 0.638,0.041 1.267,0.061 1.889,0.061 M 68.54,15.896 c 0.842,0 1.39,-0.073 1.644,-0.221 0.253,-0.147 0.417,-0.413 0.491,-0.797 0.073,-0.384 0.11,-1.239 0.11,-2.563 V 4.158 c 0,-1.39 -0.037,-2.275 -0.11,-2.655 C 70.601,1.122 70.427,0.842 70.153,0.662 69.879,0.482 69.387,0.392 68.675,0.392 h -0.49 v -0.564 h 7.604 v 0.564 h -0.49 c -0.753,0 -1.262,0.099 -1.527,0.295 -0.266,0.196 -0.43,0.497 -0.491,0.901 -0.061,0.405 -0.092,1.262 -0.092,2.57 v 8.157 c 0,1.381 0.043,2.257 0.129,2.625 0.086,0.367 0.255,0.619 0.509,0.754 0.253,0.135 0.789,0.202 1.607,0.202 h 0.355 V 16.46 H 68.185 V 15.896 Z M 80.254,1.913 c 1.693,-1.594 3.859,-2.391 6.501,-2.391 2.714,0 4.904,0.797 6.568,2.391 1.664,1.595 2.496,3.68 2.496,6.256 0,2.657 -0.869,4.755 -2.606,6.292 -1.738,1.537 -3.903,2.306 -6.495,2.306 -2.568,0 -4.71,-0.777 -6.427,-2.33 -1.717,-1.554 -2.576,-3.615 -2.576,-6.182 0,-2.633 0.846,-4.747 2.539,-6.342 m 1.87,12.223 c 1.068,1.345 2.603,2.018 4.606,2.018 2.036,0 3.59,-0.689 4.661,-2.067 1.071,-1.378 1.607,-3.359 1.607,-5.943 0,-2.657 -0.544,-4.657 -1.631,-5.998 -1.088,-1.341 -2.568,-2.011 -4.441,-2.011 -2.134,0 -3.734,0.67 -4.802,2.011 -1.067,1.341 -1.6,3.349 -1.6,6.023 0,2.633 0.533,4.622 1.6,5.967 M 105.435,0 c 0.131,0.695 0.331,1.235 0.601,1.619 1.219,-1.398 2.74,-2.097 4.563,-2.097 1.586,0 2.854,0.445 3.802,1.337 0.949,0.891 1.423,2.048 1.423,3.471 0,0.899 -0.196,1.692 -0.588,2.379 -0.393,0.687 -0.914,1.225 -1.564,1.613 -0.65,0.388 -1.691,0.902 -3.122,1.54 -1.496,0.67 -2.531,1.275 -3.103,1.815 -0.581,0.531 -0.871,1.181 -0.871,1.95 0,0.638 0.231,1.225 0.693,1.76 0.462,0.536 1.188,0.804 2.177,0.804 1.039,0 1.952,-0.364 2.742,-1.092 0.789,-0.728 1.338,-1.725 1.649,-2.993 h 0.54 v 4.354 h -0.54 c -0.049,-0.523 -0.262,-1.01 -0.638,-1.459 -0.654,0.719 -1.292,1.194 -1.913,1.423 -0.622,0.228 -1.284,0.343 -1.987,0.343 -1.259,0 -2.3,-0.395 -3.122,-1.184 -0.821,-0.789 -1.232,-1.776 -1.232,-2.962 0,-0.777 0.19,-1.508 0.57,-2.195 0.38,-0.687 0.91,-1.245 1.588,-1.675 0.679,-0.429 1.685,-0.93 3.018,-1.502 1.496,-0.638 2.526,-1.235 3.091,-1.791 0.564,-0.564 0.846,-1.263 0.846,-2.097 0,-0.826 -0.321,-1.572 -0.963,-2.239 -0.642,-0.666 -1.547,-0.999 -2.717,-0.999 -2.6,0 -4.248,1.741 -4.943,5.225 h -0.613 V 0 Z m 23.661,2.882 c 0.376,-0.891 0.564,-1.427 0.564,-1.606 0,-0.352 -0.141,-0.587 -0.423,-0.706 -0.282,-0.118 -0.824,-0.178 -1.625,-0.178 v -0.564 h 6.537 v 0.564 c -0.581,0.058 -1.016,0.199 -1.306,0.424 -0.291,0.224 -0.521,0.533 -0.693,0.926 l -0.761,1.741 -5.556,13.211 h -0.478 L 120.522,5.152 c -0.352,-0.826 -0.548,-1.301 -0.589,-1.423 -0.507,-1.3 -0.94,-2.153 -1.3,-2.558 -0.36,-0.404 -0.908,-0.664 -1.643,-0.779 v -0.564 h 4.943 v 0.564 c -0.532,0 -0.967,0.129 -1.307,0.387 -0.339,0.257 -0.509,0.636 -0.509,1.134 0,0.467 0.319,1.464 0.957,2.993 l 0.429,1.055 h 6.317 z m -7.36,3.631 2.932,7.09 2.944,-7.09 z m 26.641,-1.791 c -0.368,-1.316 -0.775,-2.277 -1.22,-2.882 -0.446,-0.605 -0.916,-0.998 -1.411,-1.178 -0.495,-0.18 -1.253,-0.27 -2.275,-0.27 h -1.263 c -0.957,0 -1.581,0.084 -1.871,0.252 -0.29,0.167 -0.468,0.403 -0.533,0.705 -0.066,0.303 -0.099,1.055 -0.099,2.257 v 8.709 c 0,1.381 0.043,2.257 0.129,2.625 0.086,0.367 0.256,0.619 0.509,0.754 0.254,0.135 0.789,0.202 1.607,0.202 h 0.736 v 0.564 h -7.985 v -0.564 h 0.368 c 0.842,0 1.388,-0.073 1.638,-0.221 0.249,-0.147 0.412,-0.413 0.49,-0.797 0.078,-0.384 0.117,-1.239 0.117,-2.563 V 4.158 c 0,-1.39 -0.039,-2.275 -0.117,-2.655 -0.078,-0.381 -0.253,-0.661 -0.527,-0.841 -0.274,-0.18 -0.767,-0.27 -1.478,-0.27 h -0.491 v -0.564 h 14.13 l 0.123,4.894 z m 12.904,-1.84 c 0.376,-0.891 0.564,-1.427 0.564,-1.606 0,-0.352 -0.141,-0.587 -0.423,-0.706 -0.282,-0.118 -0.824,-0.178 -1.625,-0.178 v -0.564 h 6.537 v 0.564 c -0.581,0.058 -1.016,0.199 -1.306,0.424 -0.291,0.224 -0.521,0.533 -0.693,0.926 l -0.761,1.741 -5.556,13.211 H 157.54 L 152.707,5.152 c -0.352,-0.826 -0.548,-1.301 -0.589,-1.423 -0.507,-1.3 -0.94,-2.153 -1.3,-2.558 -0.36,-0.404 -0.908,-0.664 -1.643,-0.779 v -0.564 h 4.943 v 0.564 c -0.532,0 -0.967,0.129 -1.307,0.387 -0.339,0.257 -0.509,0.636 -0.509,1.134 0,0.467 0.319,1.464 0.957,2.993 l 0.429,1.055 h 6.317 z m -7.36,3.631 2.932,7.09 2.944,-7.09 z" />
						</g>
						<g transform="translate(276.1928,445.8406)" id="g912">
							<path id="path914" style="fill:#231f20;fill-opacity:1;fill-rule:nonzero;stroke:none" d="m 0,0 c -0.187,-0.179 -0.356,-0.268 -0.51,-0.268 -0.092,0 -0.162,0.032 -0.211,0.096 -0.048,0.063 -0.072,0.159 -0.072,0.287 0,0.179 0.15,0.767 0.452,1.763 L 2.112,9.951 H 1.92 C 1.481,9.767 0.89,9.675 0.149,9.675 L 0.05,9.353 h 0.214 c 0.271,0 0.441,-0.026 0.51,-0.077 C 0.843,9.225 0.878,9.138 0.878,9.015 0.878,8.939 0.821,8.716 0.709,8.348 L -0.226,5.259 C -0.323,5.474 -0.452,5.635 -0.613,5.742 -0.774,5.849 -0.97,5.903 -1.2,5.903 -1.644,5.903 -2.168,5.669 -2.771,5.201 -3.374,4.734 -3.88,4.074 -4.289,3.224 -4.698,2.373 -4.902,1.577 -4.902,0.836 c 0,-0.532 0.122,-0.938 0.368,-1.219 0.245,-0.281 0.541,-0.422 0.889,-0.422 0.618,0 1.29,0.46 2.016,1.38 -0.026,-0.123 -0.038,-0.258 -0.038,-0.406 0,-0.322 0.069,-0.565 0.207,-0.729 0.138,-0.163 0.342,-0.245 0.613,-0.245 0.291,0 0.612,0.164 0.962,0.491 0.35,0.327 0.64,0.7 0.87,1.119 H 0.609 C 0.39,0.447 0.186,0.179 0,0 m -3.373,2.902 c 0.432,0.963 0.83,1.64 1.196,2.031 0.365,0.391 0.714,0.587 1.046,0.587 0.21,0 0.378,-0.077 0.506,-0.23 C -0.497,5.136 -0.433,4.965 -0.433,4.776 -0.433,4.485 -0.622,3.791 -1,2.695 -1.379,1.598 -1.793,0.811 -2.242,0.333 c -0.45,-0.477 -0.846,-0.716 -1.189,-0.716 -0.194,0 -0.341,0.073 -0.44,0.218 -0.1,0.146 -0.15,0.362 -0.15,0.648 0,0.649 0.216,1.455 0.648,2.419 M 6.405,5.136 C 6.354,5.392 6.25,5.583 6.094,5.711 5.939,5.839 5.728,5.903 5.462,5.903 5.007,5.903 4.459,5.637 3.818,5.106 3.176,4.574 2.656,3.911 2.258,3.116 1.859,2.322 1.66,1.577 1.66,0.882 c 0,-0.517 0.129,-0.927 0.387,-1.231 0.258,-0.304 0.566,-0.456 0.924,-0.456 0.383,0 0.793,0.193 1.23,0.579 0.437,0.386 0.77,0.775 1,1.169 C 5.099,0.606 5.048,0.332 5.048,0.123 c 0,-0.261 0.064,-0.481 0.192,-0.66 0.127,-0.178 0.311,-0.268 0.552,-0.268 0.311,0 0.652,0.188 1.023,0.564 0.371,0.375 0.656,0.793 0.855,1.253 H 7.348 C 6.888,0.204 6.482,-0.199 6.129,-0.199 c -0.092,0 -0.161,0.027 -0.207,0.08 -0.046,0.054 -0.069,0.132 -0.069,0.234 0,0.138 0.1,0.531 0.299,1.181 L 7.517,5.788 H 6.597 Z M 3.592,3.664 C 4.261,4.896 4.907,5.512 5.531,5.512 5.735,5.512 5.893,5.436 6.002,5.286 6.112,5.135 6.167,4.952 6.167,4.738 6.167,4.37 5.993,3.675 5.646,2.652 5.298,1.63 4.888,0.871 4.416,0.376 3.943,-0.12 3.538,-0.368 3.201,-0.368 c -0.205,0 -0.358,0.086 -0.46,0.257 -0.103,0.171 -0.154,0.425 -0.154,0.763 0,0.776 0.335,1.781 1.005,3.012 m 6.753,-3.649 c -0.26,-0.24 -0.478,-0.36 -0.651,-0.36 -0.118,0 -0.206,0.038 -0.265,0.115 -0.059,0.077 -0.088,0.192 -0.088,0.345 0,0.23 0.074,0.567 0.222,1.012 0.113,0.337 0.187,0.57 0.223,0.698 l 2.468,8.126 H 12.062 C 11.664,9.782 11.043,9.69 10.2,9.675 L 10.1,9.353 h 0.299 c 0.276,0 0.448,-0.026 0.517,-0.077 0.069,-0.051 0.104,-0.138 0.104,-0.261 0,-0.082 -0.077,-0.373 -0.23,-0.874 L 8.996,2.223 C 8.664,1.135 8.498,0.452 8.498,0.176 c 0,-0.281 0.084,-0.515 0.253,-0.701 0.168,-0.187 0.393,-0.28 0.674,-0.28 0.818,0 1.488,0.685 2.009,2.055 H 11.097 C 10.856,0.667 10.606,0.255 10.345,0.015 m 8.824,8.901 -0.1,-0.33 0.452,-0.015 c 0.649,-0.026 0.974,-0.2 0.974,-0.522 0,-0.102 -0.069,-0.38 -0.207,-0.835 L 18.341,0.805 C 18.177,0.268 18.048,-0.04 17.954,-0.119 17.859,-0.198 17.587,-0.238 17.137,-0.238 H 16.708 L 16.601,-0.59 h 3.81 l 0.107,0.352 h -0.529 c -0.296,0 -0.498,0.021 -0.605,0.062 -0.108,0.041 -0.161,0.125 -0.161,0.253 0,0.081 0.056,0.304 0.168,0.667 L 22.12,9.728 H 21.691 C 21.246,9.207 20.406,8.936 19.169,8.916 m 9.08,-7.383 C 27.843,0.746 27.478,0.215 27.153,-0.061 26.828,-0.337 26.51,-0.475 26.199,-0.475 c -0.368,0 -0.619,0.204 -0.752,0.613 -0.158,0.475 -0.38,0.713 -0.667,0.713 -0.127,0 -0.248,-0.05 -0.36,-0.15 -0.112,-0.099 -0.169,-0.233 -0.169,-0.402 0,-0.261 0.14,-0.514 0.418,-0.759 0.279,-0.245 0.699,-0.368 1.261,-0.368 0.798,0 1.551,0.308 2.262,0.924 0.71,0.616 1.349,1.566 1.916,2.852 0.568,1.285 0.851,2.515 0.851,3.691 0,0.966 -0.23,1.723 -0.69,2.273 -0.46,0.549 -1.047,0.824 -1.763,0.824 -0.854,0 -1.623,-0.373 -2.307,-1.119 -0.685,-0.747 -1.028,-1.656 -1.028,-2.729 0,-0.772 0.209,-1.442 0.625,-2.009 0.417,-0.567 0.972,-0.851 1.668,-0.851 0.654,0 1.252,0.286 1.793,0.859 C 28.992,3.105 28.656,2.32 28.249,1.533 M 26.49,6.911 c 0.245,0.841 0.562,1.464 0.95,1.87 0.389,0.407 0.793,0.61 1.212,0.61 0.388,0 0.731,-0.155 1.027,-0.464 0.296,-0.309 0.445,-0.791 0.445,-1.445 0,-1.027 -0.246,-1.971 -0.736,-2.833 -0.491,-0.861 -1.115,-1.291 -1.871,-1.291 -0.429,0 -0.769,0.121 -1.019,0.364 -0.251,0.243 -0.376,0.576 -0.376,1 0,0.619 0.123,1.348 0.368,2.189 m 8.379,2.005 -0.1,-0.33 0.452,-0.015 c 0.649,-0.026 0.974,-0.2 0.974,-0.522 0,-0.102 -0.069,-0.38 -0.207,-0.835 L 34.041,0.805 C 33.877,0.268 33.748,-0.04 33.654,-0.119 33.559,-0.198 33.287,-0.238 32.837,-0.238 H 32.408 L 32.301,-0.59 h 3.81 l 0.107,0.352 h -0.529 c -0.296,0 -0.498,0.021 -0.606,0.062 -0.107,0.041 -0.16,0.125 -0.16,0.253 0,0.081 0.056,0.304 0.168,0.667 L 37.82,9.728 H 37.391 C 36.946,9.207 36.106,8.936 34.869,8.916 m 5.512,-8.609 c 0.863,0.797 1.783,1.615 2.76,2.453 1.359,1.17 2.276,2.078 2.752,2.725 0.475,0.647 0.713,1.333 0.713,2.058 0,0.624 -0.209,1.145 -0.625,1.564 -0.417,0.419 -1.036,0.629 -1.859,0.629 -0.849,0 -1.535,-0.243 -2.059,-0.728 -0.524,-0.486 -0.785,-1.033 -0.785,-1.641 0,-0.322 0.062,-0.601 0.187,-0.836 0.126,-0.235 0.255,-0.352 0.388,-0.352 0.107,0 0.267,0.083 0.479,0.249 0.212,0.166 0.318,0.28 0.318,0.341 0,0.036 -0.026,0.077 -0.077,0.123 -0.291,0.24 -0.437,0.577 -0.437,1.012 0,0.398 0.168,0.739 0.502,1.023 0.335,0.284 0.74,0.426 1.215,0.426 0.501,0 0.904,-0.165 1.208,-0.495 0.304,-0.33 0.456,-0.724 0.456,-1.184 0,-0.726 -0.285,-1.537 -0.855,-2.434 -0.57,-0.897 -2.061,-2.45 -4.473,-4.657 -0.327,-0.297 -0.523,-0.5 -0.586,-0.61 -0.064,-0.11 -0.096,-0.298 -0.096,-0.563 h 3.848 c 0.455,0 0.728,-0.026 0.82,-0.077 0.092,-0.051 0.138,-0.179 0.138,-0.383 v -0.085 h 0.238 l 0.437,1.442 z" />
						</g>
					</g>
				</g>
				<g transform="translate(213.932,408.8657)" id="g916"><path id="path918" style="fill:none;stroke:#231f20;stroke-width:0.39300001;stroke-linecap:butt;stroke-linejoin:miter;stroke-miterlimit:4;stroke-dasharray:none;stroke-opacity:1" d="M 0,0 H 167.632" />
				</g>
			</g>
			</svg>
